<svg xmlns="http://www.w3.org/2000/svg" width="58.15" height="70.747" viewBox="0 0 58.15 70.747">
  <g id="android" transform="translate(0.352 0.694)">
    <path id="Path_31906" data-name="Path 31906" d="M74.813,151.961h36.1v3.008h-36.1Zm0,0" transform="translate(-64.137 -130.535)" fill="#40c2a4" stroke="#40c2a4" stroke-width="1"/>
    <path id="Path_31907" data-name="Path 31907" d="M6.164,180.536A6.016,6.016,0,0,1,.148,174.52V157.977a6.016,6.016,0,1,1,12.032,0V174.52A6.016,6.016,0,0,1,6.164,180.536Zm0-25.567a3.008,3.008,0,0,0-3.008,3.008V174.52a3.008,3.008,0,1,0,6.016,0V157.977A3.008,3.008,0,0,0,6.164,154.969Zm0,0" transform="translate(0 -130.535)" fill="#40c2a4" stroke="#40c2a4" stroke-width="1"/>
    <path id="Path_31908" data-name="Path 31908" d="M326.164,180.536a6.016,6.016,0,0,1-6.015-6.016V157.977a6.016,6.016,0,1,1,12.032,0V174.52A6.016,6.016,0,0,1,326.164,180.536Zm0-25.567a3.008,3.008,0,0,0-3.008,3.008V174.52a3.008,3.008,0,1,0,6.016,0V157.977A3.008,3.008,0,0,0,326.164,154.969Zm0,0" transform="translate(-274.882 -130.535)" fill="#40c2a4" stroke="#40c2a4" stroke-width="1"/>
    <path id="Path_31909" data-name="Path 31909" d="M91.219,90.136A6.016,6.016,0,0,1,85.2,84.12V76.6H82.2v7.52a6.016,6.016,0,1,1-12.032,0V76.6h-1.5a4.512,4.512,0,0,1-4.512-4.512V43.513a19.551,19.551,0,1,1,39.1,0V72.088A4.512,4.512,0,0,1,98.739,76.6h-1.5v7.52a6.016,6.016,0,0,1-6.015,6.016ZM79.187,73.592h9.024V84.12a3.008,3.008,0,0,0,6.016,0V73.592h4.512a1.5,1.5,0,0,0,1.5-1.5V43.513a16.544,16.544,0,0,0-33.087,0V72.088a1.5,1.5,0,0,0,1.5,1.5h4.512V84.12a3.008,3.008,0,1,0,6.015,0Zm0,0" transform="translate(-54.976 -20.583)" fill="#40c2a4" stroke="#40c2a4" stroke-width="1"/>
    <path id="Path_31910" data-name="Path 31910" d="M141.82,98.629h-3.008v3.008h3.008Zm0,0" transform="translate(-119.113 -84.723)" fill="#40c2a4" stroke="#40c2a4" stroke-width="1"/>
    <path id="Path_31911" data-name="Path 31911" d="M248.489,98.629h-3.008v3.008h3.008Zm0,0" transform="translate(-210.742 -84.723)" fill="#40c2a4" stroke="#40c2a4" stroke-width="1"/>
    <path id="Path_31912" data-name="Path 31912" d="M103.363,1.99l2.5-1.678,4.166,6.2-2.5,1.678Zm0,0" transform="translate(-88.662 -0.268)" fill="#40c2a4" stroke="#40c2a4" stroke-width="1"/>
    <path id="Path_31913" data-name="Path 31913" d="M254.785,6.194,258.948,0l2.5,1.679-4.163,6.194Zm0,0" transform="translate(-218.734)" fill="#40c2a4" stroke="#40c2a4" stroke-width="1"/>
  </g>
</svg>
