<svg xmlns="http://www.w3.org/2000/svg" width="69.3" height="69.3" viewBox="0 0 69.3 69.3">
  <g id="branches" transform="translate(0.5 0.5)">
    <g id="Group_40867" data-name="Group 40867" transform="translate(0 0)">
      <path id="Path_31900" data-name="Path 31900" d="M12.639,39.511a4,4,0,1,0,5.808,4.778H28.814a4,4,0,1,1,0,8H12.806a6.67,6.67,0,0,0,0,13.34h13.34a1.334,1.334,0,0,0,0-2.668H12.806a4,4,0,1,1,0-8H28.814a6.67,6.67,0,0,0,0-13.34H18.446a4.022,4.022,0,0,0-1.737-2.11L26.9,22.794a14.674,14.674,0,1,0-24.448,0Zm2.035,4.778a1.334,1.334,0,1,1,1.334-1.334A1.336,1.336,0,0,1,14.674,44.288Zm0-41.62a12.007,12.007,0,0,1,9.99,18.667l-.03.047-9.96,16.341S4.695,21.35,4.684,21.335a12.007,12.007,0,0,1,9.99-18.667Z" transform="translate(0 0)" fill="#40c2a4" stroke="#40c2a4" stroke-width="1"/>
      <path id="Path_31901" data-name="Path 31901" d="M66.67,73.34A6.67,6.67,0,1,0,60,66.67,6.678,6.678,0,0,0,66.67,73.34Zm0-10.672a4,4,0,1,1-4,4A4.007,4.007,0,0,1,66.67,62.668Z" transform="translate(-51.996 -51.996)" fill="#40c2a4" stroke="#40c2a4" stroke-width="1"/>
      <path id="Path_31902" data-name="Path 31902" d="M292.808,166a14.675,14.675,0,0,0-12.216,22.805l10.151,15.922a4.023,4.023,0,0,0-1.707,2.093h-11.7a1.334,1.334,0,0,0,0,2.668h11.7a4,4,0,1,0,5.838-4.76l10.151-15.923A14.675,14.675,0,0,0,292.808,166Zm0,43.488a1.334,1.334,0,1,1,1.334-1.334A1.335,1.335,0,0,1,292.808,209.488Zm9.99-22.153L292.808,203l-9.99-15.669a12.006,12.006,0,1,1,19.979,0Z" transform="translate(-239.182 -143.856)" fill="#40c2a4" stroke="#40c2a4" stroke-width="1"/>
      <path id="Path_31903" data-name="Path 31903" d="M358.67,226a6.67,6.67,0,1,0,6.67,6.67A6.678,6.678,0,0,0,358.67,226Zm0,10.672a4,4,0,1,1,4-4A4.007,4.007,0,0,1,358.67,236.672Z" transform="translate(-305.044 -195.852)" fill="#40c2a4" stroke="#40c2a4" stroke-width="1"/>
      <ellipse id="Ellipse_34" data-name="Ellipse 34" cx="0.5" cy="1.5" rx="0.5" ry="1.5" transform="translate(31.451 62.85)" fill="#40c2a4" stroke="#40c2a4" stroke-width="1"/>
    </g>
  </g>
</svg>
