<svg xmlns="http://www.w3.org/2000/svg" width="68.27" height="68.271" viewBox="0 0 68.27 68.271">
  <g id="color_harmony" data-name="color harmony" transform="translate(0.5 0.5)">
    <g id="Group_40870" data-name="Group 40870" transform="translate(0)">
      <path id="Path_31944" data-name="Path 31944" d="M57.419,9.851A33.638,33.638,0,0,0,5.653,14.969a.985.985,0,0,0,1.639,1.1,31.9,31.9,0,0,1,3.268-4.112l9.77,9.77a17.875,17.875,0,0,0-3.673,6.343L3.308,24.489a31.576,31.576,0,0,1,2.055-5.124A.985.985,0,0,0,3.6,18.475,33.64,33.64,0,0,0,33.635,67.27,33.635,33.635,0,0,0,57.419,9.851ZM65.3,33.635a31.635,31.635,0,0,1-.836,7.24L51.125,37.3a17.929,17.929,0,0,0,0-7.332l13.338-3.574a31.642,31.642,0,0,1,.836,7.24Zm-1.348-9.143L50.614,28.066a17.875,17.875,0,0,0-3.673-6.343L56.7,11.965a31.675,31.675,0,0,1,7.252,12.527Zm-18.4-4.163A17.876,17.876,0,0,0,39.2,16.656L42.779,3.319a31.676,31.676,0,0,1,12.527,7.252ZM40.875,2.807,37.3,16.145a17.929,17.929,0,0,0-7.332,0L26.395,2.806a31.775,31.775,0,0,1,14.481,0ZM21.723,20.329l-9.771-9.771A31.6,31.6,0,0,1,24.491,3.315l3.575,13.341A17.876,17.876,0,0,0,21.723,20.329Zm11.912-2.592a15.9,15.9,0,1,1-15.9,15.9A15.916,15.916,0,0,1,33.635,17.737Zm11.912,29.2L55.306,56.7a31.675,31.675,0,0,1-12.527,7.252L39.2,50.614a17.873,17.873,0,0,0,6.343-3.673Zm-23.825,0a17.876,17.876,0,0,0,6.343,3.673L24.492,63.952A31.677,31.677,0,0,1,11.964,56.7ZM16.145,29.969a17.932,17.932,0,0,0,0,7.332L2.807,40.875A31.915,31.915,0,0,1,2.8,26.393ZM3.319,42.778,16.656,39.2a17.875,17.875,0,0,0,3.673,6.343l-9.758,9.758A31.675,31.675,0,0,1,3.319,42.778ZM26.395,64.463l3.574-13.338a17.929,17.929,0,0,0,7.332,0l3.574,13.338a31.762,31.762,0,0,1-14.48,0Zm30.3-9.157-9.758-9.758A17.875,17.875,0,0,0,50.614,39.2l13.338,3.574A31.677,31.677,0,0,1,56.7,55.306Z" transform="translate(0 0)" fill="#fff" stroke="#fff" stroke-width="1"/>
      <path id="Path_31945" data-name="Path 31945" d="M166.931,170.4H180.36a2.958,2.958,0,1,0,2.247-3.891l-6.715-11.631a2.956,2.956,0,1,0-4.492,0l-6.715,11.631a2.956,2.956,0,1,0,2.247,3.891Zm6.714-14.485a2.959,2.959,0,0,0,.54-.05l6.715,11.631a2.956,2.956,0,0,0-.541.934H166.931a2.958,2.958,0,0,0-.541-.934l6.715-11.631A2.959,2.959,0,0,0,173.645,155.912Zm10.487,13.5a.985.985,0,1,1-.985-.985A.986.986,0,0,1,184.132,169.412Zm-10.487-17.442a.985.985,0,1,1-.985.985A.986.986,0,0,1,173.645,151.971Zm-10.486,17.442a.985.985,0,1,1,.985.985A.986.986,0,0,1,163.159,169.412Z" transform="translate(-140.01 -130.292)" fill="#fff" stroke="#fff" stroke-width="1"/>
    </g>
  </g>
</svg>
