<svg xmlns="http://www.w3.org/2000/svg" xmlns:xlink="http://www.w3.org/1999/xlink" width="71.339" height="68.942" viewBox="0 0 71.339 68.942">
  <defs>
    <linearGradient id="linear-gradient" x1="0.5" x2="0.5" y2="1" gradientUnits="objectBoundingBox">
      <stop offset="0" stop-color="#40c2a4"/>
      <stop offset="1" stop-color="#4080c2"/>
    </linearGradient>
  </defs>
  <g id="e_marketing" data-name="e marketing" transform="translate(1.002 -7.288)">
    <g id="Path_31843" data-name="Path 31843" transform="translate(0 0)" fill="url(#linear-gradient)">
      <path d="M 26.14046096801758 75.73020172119141 C 24.62345123291016 75.73020172119141 23.20988082885742 74.91403961181641 22.45137977600098 73.6002197265625 L 15.47308254241943 61.51340484619141 C 14.47474193572998 62.05298614501953 13.35493564605713 62.33732223510742 12.22208023071289 62.33732223510742 C 9.772500038146973 62.33732223510742 7.492390632629395 61.02371978759766 6.27155065536499 58.90915298461914 L 0.4179404377937317 48.77042007446289 C -0.4967195689678192 47.18612289428711 -0.739029586315155 45.33802032470703 -0.2643595635890961 43.56654357910156 C 0.2103104442358017 41.79505157470703 1.34419047832489 40.31576156616211 2.928420543670654 39.40117263793945 L 9.973340034484863 35.33376312255859 C 10.22484016418457 35.18852233886719 10.51074028015137 35.11173248291016 10.80009078979492 35.11173248291016 C 11.39035034179688 35.11173248291016 11.94018077850342 35.42901992797852 12.23499011993408 35.93979263305664 C 12.69142055511475 36.73033142089844 12.41958999633789 37.74489212036133 11.62900066375732 38.20135116577148 L 4.584060668945312 42.26877212524414 C 2.890000343322754 43.24685287475586 2.307490348815918 45.42076110839844 3.28553032875061 47.11478042602539 L 9.139010429382324 57.253662109375 C 9.770359992980957 58.3474006652832 10.9500904083252 59.02679061889648 12.21786022186279 59.02674102783203 C 12.83626079559326 59.0267219543457 13.44731998443604 58.86262130737305 13.98499011993408 58.55216979980469 L 14.82593059539795 58.06661987304688 C 25.56007957458496 51.86872100830078 25.58382034301758 51.85663986206055 25.60678100585938 51.84495162963867 C 30.38138961791992 49.4029426574707 35.42605972290039 47.47804260253906 40.59978866577148 46.12416076660156 C 45.76704025268555 44.77197265625 51.09564971923828 43.9808235168457 56.43759155273438 43.77266311645508 C 57.15293884277344 43.74480056762695 57.78646087646484 43.35397338867188 58.13225936889648 42.7271728515625 C 58.478271484375 42.10000991821289 58.47085189819336 41.35493087768555 58.11243057250977 40.73408126831055 L 42.07849884033203 12.96246147155762 C 41.71179962158203 12.32734203338623 41.05488967895508 11.94817161560059 40.32125854492188 11.94817161560059 C 39.6226921081543 11.94817161560059 38.98283004760742 12.30159187316895 38.60964202880859 12.89359188079834 C 35.80987167358398 17.33424186706543 32.52993011474609 21.48266220092773 28.86091041564941 25.22364234924316 C 25.41592979431152 28.73618698120117 21.60066223144531 31.91828918457031 17.51456069946289 34.68745422363281 L 24.23672103881836 46.3308219909668 C 24.45783042907715 46.71378326416016 24.51657104492188 47.15994262695312 24.40212059020996 47.58712005615234 C 24.28766059875488 48.01428985595703 24.01371955871582 48.37132263183594 23.63075065612793 48.59243011474609 C 23.37903022766113 48.73768997192383 23.0931510925293 48.81443023681641 22.80393028259277 48.81443023681641 C 22.21380043029785 48.81443023681641 21.66402053833008 48.4971809387207 21.369140625 47.98647308349609 L 21.31834030151367 47.89848327636719 C 18.54697036743164 43.09883117675781 13.89151000976562 35.03557205200195 13.84991073608398 34.95938110351562 C 13.43784046173096 34.20280075073242 13.68129062652588 33.24492263793945 14.40388011932373 32.77820205688477 C 23.09654998779297 27.15199089050293 30.29825019836426 19.86761093139648 35.80852127075195 11.12765121459961 C 36.79183197021484 9.568131446838379 38.47906875610352 8.637082099914551 40.32189178466797 8.637082099914551 C 42.25239181518555 8.637082099914551 43.98112106323242 9.63512134552002 44.94625091552734 11.30683135986328 L 49.21709442138672 18.70428085327148 C 49.96361923217773 18.46639633178711 50.73679733276367 18.34606170654297 51.52143859863281 18.34606170654297 C 52.19065093994141 18.34606170654297 52.86135101318359 18.43484115600586 53.51490020751953 18.60993194580078 C 54.94549942016602 18.99320220947266 56.2148323059082 19.75894165039062 57.18564224243164 20.8243522644043 C 58.09677124023438 21.82425117492676 58.73120880126953 23.06439208984375 59.02038955688477 24.41070175170898 C 59.3095817565918 25.7570915222168 59.24040222167969 27.14856147766113 58.82032012939453 28.43470191955566 C 58.4161376953125 29.67219924926758 57.68991088867188 30.78632545471191 56.70871734619141 31.67997550964355 L 60.98004150390625 39.07831192016602 C 61.92374038696289 40.71257019042969 61.94300079345703 42.67478179931641 61.03153228759766 44.32718276977539 C 60.12080001831055 45.97823333740234 58.45170211791992 47.0078125 56.56668090820312 47.0813102722168 C 46.25678634643555 47.48286819458008 36.35974884033203 50.07126617431641 27.15109634399414 54.77418518066406 L 18.34217643737793 59.86013031005859 L 25.31912994384766 71.94459533691406 C 25.48773956298828 72.23664093017578 25.80196952819824 72.41806030273438 26.13919067382812 72.41806030273438 C 26.30388069152832 72.41806030273438 26.46712112426758 72.37408447265625 26.61126136779785 72.29086303710938 L 29.14599990844727 70.82740020751953 C 29.36513137817383 70.70091247558594 29.52177047729492 70.49697113037109 29.58710098266602 70.25312805175781 C 29.65242958068848 70.00929260253906 29.61876106262207 69.75434875488281 29.49226951599121 69.53526306152344 L 24.37033081054688 60.66384124755859 C 24.14921951293945 60.28087997436523 24.09048080444336 59.83472061157227 24.20494079589844 59.40754318237305 C 24.31940078735352 58.98036193847656 24.59333992004395 58.62333297729492 24.97631072998047 58.4022331237793 C 25.22784996032715 58.25699996948242 25.51371955871582 58.18023300170898 25.80302047729492 58.18023300170898 C 26.39323043823242 58.18023300170898 26.94305038452148 58.49748992919922 27.2379207611084 59.0081901550293 L 32.35985946655273 67.87963104248047 C 33.53353118896484 69.91264343261719 32.83451080322266 72.52145385742188 30.80163955688477 73.69512939453125 L 28.26688957214355 75.15859985351562 C 27.61907005310059 75.53255462646484 26.88377952575684 75.73020172119141 26.14046096801758 75.73020172119141 Z M 50.94539642333984 21.69740104675293 L 54.98036956787109 28.6862907409668 C 56.05260848999023 27.30291366577148 56.20300674438477 25.39407730102539 55.30582046508789 23.84007263183594 C 54.52902221679688 22.4945011138916 53.08028030395508 21.65862083435059 51.52494049072266 21.65862083435059 C 51.33047103881836 21.65862083435059 51.13688278198242 21.67160797119141 50.94539642333984 21.69740104675293 Z M 68.14881896972656 32.14887237548828 C 67.95188903808594 32.14887237548828 67.95188903808594 32.14887237548828 66.55209350585938 31.77174186706543 C 66.16753387451172 31.66813087463379 65.67237091064453 31.53473091125488 65.03135681152344 31.36296081542969 C 64.14945983886719 31.12657165527344 63.62429046630859 30.21692085266113 63.86063003540039 29.33518218994141 C 64.0543212890625 28.61258125305176 64.71177673339844 28.10791206359863 65.45944976806641 28.10791206359863 C 65.60366058349609 28.10791206359863 65.74788665771484 28.12692260742188 65.88813018798828 28.16442108154297 L 68.60945892333984 28.89354133605957 C 69.49137878417969 29.13000106811523 70.01653289794922 30.03971099853516 69.78018951416016 30.92148208618164 C 69.58647918701172 31.64411163330078 68.92912292480469 32.1487922668457 68.18161010742188 32.1487922668457 L 68.16574096679688 32.14883041381836 L 68.14881896972656 32.14887237548828 Z M 63.47494125366211 20.83366203308105 C 62.88476181030273 20.83366203308105 62.33498001098633 20.51638221740723 62.0401496887207 20.0056324005127 C 61.81900024414062 19.62277221679688 61.76023864746094 19.17656135559082 61.87472915649414 18.74933242797852 C 61.98921203613281 18.32217216491699 62.2631721496582 17.96515083312988 62.64614868164062 17.74404144287109 L 65.63620758056641 16.01766204833984 C 65.88790130615234 15.87239170074463 66.17379760742188 15.79563140869141 66.46305847167969 15.79563140869141 C 67.05325317382812 15.79563140869141 67.60302734375 16.1129207611084 67.89785003662109 16.62368202209473 C 68.11894226074219 17.006591796875 68.17768096923828 17.45276260375977 68.063232421875 17.87994194030762 C 67.94876861572266 18.3071117401123 67.67482757568359 18.66414260864258 67.2918701171875 18.88525199890137 L 64.30178833007812 20.61163139343262 C 64.05010986328125 20.75690078735352 63.76420974731445 20.83366203308105 63.47494125366211 20.83366203308105 Z M 55.29967880249023 13.82062149047852 C 55.15544891357422 13.82062149047852 55.01113128662109 13.80160140991211 54.8707389831543 13.7641019821167 C 53.98875045776367 13.52763175964355 53.46366119384766 12.61803150177002 53.69977951049805 11.73633193969727 L 54.42901229858398 9.015281677246094 C 54.62271118164062 8.292632102966309 55.28009033203125 7.787941455841064 56.02766036987305 7.787941455841064 C 56.17195129394531 7.787941455841064 56.31628036499023 7.806971549987793 56.45664215087891 7.844501495361328 C 56.88410949707031 7.959081649780273 57.24113082885742 8.233071327209473 57.46221160888672 8.616081237792969 C 57.68328857421875 8.999092102050781 57.74198150634766 9.44525146484375 57.62746047973633 9.872381210327148 L 56.89826965332031 12.59329128265381 C 56.70458221435547 13.31593132019043 56.04722213745117 13.82062149047852 55.29967880249023 13.82062149047852 Z" stroke="none"/>
      <path d="M 56.02765655517578 8.287940979003906 C 55.51715469360352 8.287940979003906 55.05038070678711 8.628303527832031 54.91197204589844 9.144699096679688 L 54.18276214599609 11.86566925048828 C 54.01765060424805 12.48220062255859 54.38339996337891 13.11576843261719 54.99979019165039 13.28102874755859 C 55.61835479736328 13.44629669189453 56.25049209594727 13.07880401611328 56.41530990600586 12.46385955810547 L 57.1445198059082 9.742889404296875 C 57.30976867675781 9.126510620117188 56.94401931762695 8.492782592773438 56.32748031616211 8.327529907226562 C 56.22727584838867 8.300735473632812 56.12664413452148 8.287940979003906 56.02765655517578 8.287940979003906 M 40.3218879699707 9.1370849609375 C 38.75288772583008 9.1370849609375 37.18257141113281 9.885887145996094 36.23147964477539 11.39430999755859 C 30.72383880615234 20.13009262084961 23.38637924194336 27.55998992919922 14.6751594543457 33.19821166992188 C 14.17910003662109 33.51861190795898 13.99520874023438 34.18080139160156 14.28874206542969 34.71976089477539 C 14.33584213256836 34.80600357055664 21.75302886962891 47.65138244628906 21.80215072631836 47.7364616394043 C 22.12109756469727 48.28884887695312 22.82749176025391 48.47867965698242 23.3807487487793 48.15942001342773 C 23.93344116210938 47.8403205871582 24.12282180786133 47.13351058959961 23.8037109375 46.5808219909668 L 16.84820175170898 34.53327178955078 C 25.15451049804688 28.98041152954102 32.51103210449219 21.62895202636719 38.18666839599609 12.62694549560547 C 39.20175933837891 11.01669311523438 41.561279296875 11.06668090820312 42.51151275634766 12.71246337890625 L 58.54544830322266 40.48409271240234 C 59.49682998657227 42.13204193115234 58.35620880126953 44.19832229614258 56.45706176757812 44.27228164672852 C 45.802490234375 44.68745040893555 35.37094879150391 47.41259002685547 25.83359146118164 52.29055023193359 C 25.79299926757812 52.31121063232422 14.97967147827148 58.55528259277344 14.23500061035156 58.98517227172852 C 12.30204391479492 60.10124206542969 9.821762084960938 59.43660354614258 8.705982208251953 57.50363922119141 L 2.852523803710938 47.36478042602539 C 1.736610412597656 45.43197250366211 2.401237487792969 42.95168304443359 4.334053039550781 41.83576202392578 L 11.37897872924805 37.76834106445312 C 11.93167114257812 37.44924163818359 12.12105178833008 36.7424201965332 11.80194854736328 36.18974304199219 C 11.48284912109375 35.63689804077148 10.77588272094727 35.44766998291016 10.22333908081055 35.76677322387695 L 3.178413391113281 39.83419036865234 C 0.1419677734375 41.58716201782227 -0.9021530151367188 45.48383331298828 0.8509521484375 48.52042007446289 L 6.704559326171875 58.65914916992188 C 8.457813262939453 61.69588470458984 12.35449600219727 62.73970794677734 15.39093017578125 60.98661041259766 L 15.65745162963867 60.832763671875 L 22.8843994140625 73.35023498535156 C 23.92245101928711 75.14826965332031 26.21784210205078 75.76408386230469 28.01689147949219 74.72559356689453 L 30.55163955688477 73.26211547851562 C 32.35010147094727 72.22377014160156 32.96520233154297 69.92823028564453 31.92686080932617 68.12963104248047 L 26.80490875244141 59.25820159912109 C 26.48581314086914 58.70552062988281 25.77898788452148 58.51614379882812 25.22631072998047 58.83524322509766 C 24.67362213134766 59.15433120727539 24.4842414855957 59.86115264892578 24.80334091186523 60.41384124755859 L 29.9252815246582 69.28527069091797 C 30.32485198974609 69.97735595703125 30.08823013305664 70.86083984375 29.39599990844727 71.26039886474609 L 26.86125183105469 72.72386932373047 C 26.16915893554688 73.12343597412109 25.28567886352539 72.88668060302734 24.8861198425293 72.19459533691406 L 17.65917205810547 59.6771240234375 L 26.91223907470703 54.33473968505859 C 35.96683120727539 49.70841979980469 46.03997039794922 46.99093246459961 56.54719924926758 46.58169174194336 C 60.18862152099609 46.43970108032227 62.36658096313477 42.47932052612305 60.54701232910156 39.32831192016602 L 56.06890869140625 31.57179260253906 C 60.57894134521484 27.88790130615234 59.02114105224609 20.60274124145508 53.3855094909668 19.09288787841797 C 51.91294097900391 18.69839477539062 50.38850402832031 18.78044891357422 48.99105072021484 19.31275939941406 L 44.51322937011719 11.55682373046875 C 43.58424377441406 9.947708129882812 41.95379638671875 9.1370849609375 40.3218879699707 9.1370849609375 M 54.89059066772461 29.53079223632812 L 50.16907119750977 21.35275268554688 C 52.23896026611328 20.7455940246582 54.5795783996582 21.58200073242188 55.73883056640625 23.59007263183594 C 56.87974166870117 25.56622314453125 56.46990966796875 28.01848983764648 54.89059066772461 29.53079223632812 M 66.46305847167969 16.29563140869141 C 66.26703643798828 16.29563140869141 66.06828308105469 16.34558868408203 65.88620758056641 16.45066833496094 L 62.89614105224609 18.17705535888672 C 62.34346008300781 18.49615478515625 62.1539306640625 19.20297241210938 62.47317886352539 19.75566101074219 C 62.79212951660156 20.30820465087891 63.49866104125977 20.49787139892578 64.05178070068359 20.17862319946289 L 67.04184722900391 18.45223999023438 C 67.59454345703125 18.13314056396484 67.78392791748047 17.42632293701172 67.46482086181641 16.87363433837891 C 67.25084686279297 16.50297546386719 66.86254119873047 16.29563140869141 66.46305847167969 16.29563140869141 M 65.45946502685547 28.60790252685547 C 64.94915008544922 28.60791015625 64.48200225830078 28.94818878173828 64.34358215332031 29.46463012695312 C 64.17832946777344 30.08116149902344 64.54422760009766 30.71474075317383 65.16075897216797 30.8799934387207 C 68.11876678466797 31.6726188659668 67.97244262695312 31.64876174926758 68.18161010742188 31.6487922668457 C 68.69197082519531 31.6487922668457 69.15884399414062 31.30831146240234 69.29723358154297 30.79203033447266 L 69.2972412109375 30.79203033447266 C 69.46249389648438 30.17549133300781 69.09644317626953 29.54177093505859 68.48005676269531 29.37651062011719 L 65.75895690917969 28.64744186401367 C 65.65888214111328 28.62068176269531 65.55837249755859 28.60790252685547 65.45946502685547 28.60790252685547 M 56.02764892578125 7.287940979003906 C 56.21552276611328 7.287940979003906 56.40330123901367 7.31268310546875 56.58576965332031 7.361465454101562 C 57.14255905151367 7.510704040527344 57.60739135742188 7.867431640625 57.89524078369141 8.366119384765625 C 58.18309020996094 8.864799499511719 58.2595100402832 9.445709228515625 58.11041259765625 10.00183868408203 L 57.38122177124023 12.72272491455078 C 57.12905883789062 13.66355133056641 56.27310180664062 14.32061004638672 55.29969024658203 14.32061004638672 C 55.11188125610352 14.32061004638672 54.92412948608398 14.29589080810547 54.74166870117188 14.24713897705078 C 53.59304809570312 13.93919372558594 52.90938186645508 12.75492095947266 53.21680068969727 11.60697937011719 L 53.94606018066406 8.885841369628906 C 54.1982307434082 7.945014953613281 55.05419921875 7.287940979003906 56.02764892578125 7.287940979003906 Z M 40.32189178466797 8.1370849609375 C 42.43315124511719 8.1370849609375 44.32374954223633 9.228584289550781 45.3792610168457 11.05683135986328 L 49.4539794921875 18.11456298828125 C 50.12810897827148 17.93614196777344 50.82035827636719 17.84606170654297 51.52120971679688 17.84606170654297 C 52.23438262939453 17.8460693359375 52.94860076904297 17.94058227539062 53.64429092407227 18.126953125 C 55.16748046875 18.5350341796875 56.51985931396484 19.351318359375 57.55522918701172 20.48758316040039 C 58.52582931518555 21.55277252197266 59.20151901245117 22.87305068969727 59.50923919677734 24.30570983886719 C 59.81697082519531 25.73842239379883 59.74309921264648 27.21988296508789 59.29560852050781 28.58994293212891 C 58.90571594238281 29.78367614746094 58.23556518554688 30.86917495727539 57.33798599243164 31.76991653442383 L 61.41304016113281 38.82832336425781 C 62.44509887695312 40.61557006835938 62.46615982055664 42.76152038574219 61.46934127807617 44.56867218017578 C 60.47325897216797 46.37446212768555 58.64776992797852 47.50054168701172 56.58615875244141 47.5809326171875 C 46.35358428955078 47.97946929931641 36.53021621704102 50.54772186279297 27.38992691040039 55.21365356445312 L 19.02519226074219 60.04313659667969 L 25.75215148925781 71.69459533691406 C 25.83293151855469 71.83451843261719 25.97761917114258 71.91806030273438 26.13917922973633 71.91806030273438 C 26.21733093261719 71.91806030273438 26.29204940795898 71.89780426025391 26.36127090454102 71.85784149169922 L 28.89599227905273 70.39437866210938 C 29.03559875488281 70.31380462646484 29.08631896972656 70.19022369384766 29.10412979125977 70.12373352050781 C 29.12195205688477 70.05722045898438 29.13982009887695 69.92481231689453 29.05924987792969 69.78527069091797 L 23.93732070922852 60.91384124755859 C 23.64942932128906 60.41522216796875 23.57295227050781 59.83431243896484 23.72198104858398 59.27812957763672 C 23.87100219726562 58.72193908691406 24.22768020629883 58.2570915222168 24.72632217407227 57.96921157836914 C 25.05377197265625 57.78015899658203 25.42609024047852 57.68022918701172 25.80302047729492 57.68022918701172 C 26.57128143310547 57.68022918701172 27.28702163696289 58.09328079223633 27.67092132568359 58.75818252563477 L 32.79288101196289 67.62963104248047 C 34.10438919067383 69.90141296386719 33.32326889038086 72.81661224365234 31.05163955688477 74.12814331054688 L 28.51689910888672 75.59161376953125 C 27.79315185546875 76.00939178466797 26.97142028808594 76.23020172119141 26.14046096801758 76.23020172119141 C 24.44538879394531 76.23020172119141 22.86590194702148 75.31824493408203 22.01837158203125 73.85021209716797 L 15.27505874633789 62.17044448852539 C 14.31848526000977 62.60823059082031 13.27553939819336 62.83732223510742 12.22208023071289 62.83732223510742 C 9.594440460205078 62.83732223510742 7.148410797119141 61.42793273925781 5.838531494140625 59.15914916992188 L -0.01506805419921875 49.02042007446289 C -0.9965133666992188 47.32044982910156 -1.256561279296875 45.33761215209961 -0.7473220825195312 43.43712997436523 C -0.2380905151367188 41.5366325378418 0.9785385131835938 39.94952011108398 2.678443908691406 38.9681510925293 L 9.723339080810547 34.90075302124023 C 10.05072021484375 34.71169281005859 10.42308044433594 34.61173248291016 10.80007934570312 34.61173248291016 C 11.56842041015625 34.61173248291016 12.2841796875 35.02482986450195 12.66802215576172 35.68982315063477 C 12.95586013793945 36.18835067749023 13.03234100341797 36.76926040649414 12.8833122253418 37.32544326782227 C 12.73429107666016 37.88162231445312 12.37760925292969 38.34646987915039 11.87899017333984 38.63436126708984 L 4.834049224853516 42.7017822265625 C 3.378761291503906 43.54199981689453 2.878349304199219 45.40952301025391 3.718551635742188 46.86478042602539 L 9.572010040283203 57.00365447998047 C 10.11433029174805 57.94315338134766 11.12815093994141 58.52674102783203 12.21786880493164 58.52674102783203 C 12.74856948852539 58.52674102783203 13.2731819152832 58.38580322265625 13.73497009277344 58.11916351318359 L 14.63909149169922 57.59714126586914 C 25.32176971435547 51.42898178100586 25.34122085571289 51.41908264160156 25.37998199462891 51.39935302734375 C 30.18585968017578 48.94134140014648 35.26454925537109 47.00345993041992 40.47321319580078 45.64044189453125 C 45.67542266845703 44.27910995483398 51.04006958007812 43.48260116577148 56.41812133789062 43.27304077148438 C 56.96493911743164 43.25174331665039 57.43014144897461 42.96475219726562 57.6944694519043 42.48564147949219 C 57.95899963378906 42.00616073608398 57.95351028442383 41.4588623046875 57.67940902709961 40.98406219482422 L 41.64548110961914 13.21246337890625 C 41.36914825439453 12.73384857177734 40.87413024902344 12.44813537597656 40.32131958007812 12.44817352294922 C 39.78757095336914 12.44820404052734 39.3178596496582 12.70773315429688 39.03260803222656 13.16022491455078 C 36.21389007568359 17.63092803955078 32.91175079345703 21.80742263793945 29.21788024902344 25.5737419128418 C 25.85795974731445 28.99955749511719 22.14801025390625 32.1132698059082 18.17945861816406 34.83909606933594 L 24.66973876953125 46.08083343505859 C 24.95761871337891 46.57943344116211 25.03409957885742 47.16034317016602 24.88508224487305 47.71652221679688 C 24.73606109619141 48.27270126342773 24.37939071655273 48.73755264282227 23.88076019287109 49.02544021606445 C 23.55307006835938 49.21454238891602 23.18078231811523 49.31443023681641 22.80393981933594 49.31443023681641 C 22.03575134277344 49.31443023681641 21.32004928588867 48.90139007568359 20.93614196777344 48.23649215698242 L 20.88515853881836 48.148193359375 C 15.9593505859375 39.61733245849609 13.44470977783203 35.2606315612793 13.41110229492188 35.19908142089844 C 12.87430953979492 34.21347045898438 13.19147872924805 32.9660530090332 14.13259887695312 32.35819244384766 C 22.76350021362305 26.7719612121582 29.91429901123047 19.53908538818359 35.38557052612305 10.86099243164062 C 36.46099853515625 9.155349731445312 38.30635070800781 8.1370849609375 40.32189178466797 8.1370849609375 Z M 54.9984130859375 27.71752548217773 C 55.55238342285156 26.58877944946289 55.53169631958008 25.23133087158203 54.872802734375 24.09006118774414 C 54.2301139831543 22.97679901123047 53.06789779663086 22.25759124755859 51.79449081420898 22.16808700561523 L 54.9984130859375 27.71752548217773 Z M 66.46305084228516 15.29563140869141 C 67.23130035400391 15.29563140869141 67.94701385498047 15.70872497558594 68.33087921142578 16.37368011474609 C 68.61872863769531 16.87223815917969 68.69521331787109 17.45316314697266 68.54618835449219 18.00933837890625 C 68.39716339111328 18.56552124023438 68.04048919677734 19.03037261962891 67.54186248779297 19.31826019287109 L 64.55178833007812 21.04464340209961 C 64.22416687011719 21.23374176025391 63.85184097290039 21.33366012573242 63.47492980957031 21.33366012573242 C 62.70666885375977 21.33366012573242 61.99097061157227 20.92057037353516 61.60710906982422 20.25559234619141 C 61.31922149658203 19.75717926025391 61.24269104003906 19.17619323730469 61.39176940917969 18.61990356445312 C 61.54082107543945 18.06375122070312 61.89749908447266 17.59892272949219 62.3961296081543 17.31103515625 L 65.38619995117188 15.58464813232422 C 65.71382141113281 15.39555358886719 66.08615112304688 15.29563140869141 66.46305084228516 15.29563140869141 Z M 65.45944213867188 27.60790252685547 L 65.45945739746094 27.60790252685547 C 65.64727020263672 27.60790252685547 65.83495330810547 27.63262176513672 66.01730346679688 27.68138122558594 L 68.73886108398438 28.41058349609375 C 69.88713836669922 28.71845245361328 70.57084655761719 29.90288162231445 70.26315307617188 31.05092239379883 C 70.01094055175781 31.99174118041992 69.15499114990234 32.6487922668457 68.18161010742188 32.6487922668457 L 68.14881896972656 32.64887237548828 C 67.88571166992188 32.64887237548828 67.88571166992188 32.64887237548828 66.42194366455078 32.25450134277344 C 66.03755187988281 32.15093994140625 65.54261779785156 32.01759338378906 64.90193176269531 31.84591293334961 C 63.75371170043945 31.53815078735352 63.06996154785156 30.35378265380859 63.37767028808594 29.20574188232422 C 63.62982177734375 28.26498031616211 64.48587799072266 27.6079216003418 65.45944213867188 27.60790252685547 Z" stroke="none" fill="#40c2a4"/>
    </g>
  </g>
</svg>
