<svg id="hosting" xmlns="http://www.w3.org/2000/svg" width="78.491" height="78.397" viewBox="0 0 78.491 78.397">
  <g id="Group_42" data-name="Group 42" transform="translate(15.034 49.828)">
    <g id="Group_39" data-name="Group 39" transform="translate(21.928)">
      <path id="Path_26" data-name="Path 26" d="M241.1,325.337h2.831v13.055H241.1Z" transform="translate(-241.104 -325.337)" fill="#e9f1fc"/>
    </g>
    <g id="Group_40" data-name="Group 40" transform="translate(0 17.593)">
      <path id="Path_27" data-name="Path 27" d="M98.067,440.095h17.856v4.6H98.067Z" transform="translate(-98.067 -440.095)" fill="#e9f1fc"/>
    </g>
    <g id="Group_41" data-name="Group 41" transform="translate(30.593 17.593)">
      <path id="Path_28" data-name="Path 28" d="M297.628,440.095h17.83v4.6h-17.83Z" transform="translate(-297.628 -440.095)" fill="#fff"/>
    </g>
  </g>
  <g id="Group_43" data-name="Group 43" transform="translate(39.246 49.828)">
    <path id="Path_29" data-name="Path 29" d="M256,325.337h2.309v13.055H256Z" transform="translate(-256 -325.337)" fill="#fff"/>
  </g>
  <g id="Group_46" data-name="Group 46" transform="translate(30.58 61.044)">
    <g id="Group_44" data-name="Group 44">
      <path id="Path_30" data-name="Path 30" d="M208.141,415.85a8.677,8.677,0,0,1,0-17.354C212.919,398.5,212.919,415.85,208.141,415.85Z" transform="translate(-199.476 -398.496)" fill="#e9f1fc"/>
    </g>
    <g id="Group_45" data-name="Group 45" transform="translate(8.665 0)">
      <path id="Path_31" data-name="Path 31" d="M256,398.5V415.85a8.677,8.677,0,0,0,0-17.353Z" transform="translate(-256 -398.497)" fill="#fff"/>
    </g>
  </g>
  <g id="Group_47" data-name="Group 47" transform="translate(0 61.044)">
    <ellipse id="Ellipse_5" data-name="Ellipse 5" cx="8.665" cy="8.677" rx="8.665" ry="8.677" fill="#e9f1fc"/>
    <ellipse id="Ellipse_6" data-name="Ellipse 6" cx="8.665" cy="8.677" rx="8.665" ry="8.677" transform="translate(61.161)" fill="#fff"/>
  </g>
  <path id="Path_32" data-name="Path 32" d="M67.421,31.248H63.254A10.715,10.715,0,0,0,46.7,17.82l-.96.96V13.55a13.244,13.244,0,1,0-26.487,0V19.3H17.047a17.047,17.047,0,0,0,0,34.093H67.421a11.071,11.071,0,0,0,0-22.141Z" transform="translate(0 -0.306)" fill="#e9f1fc"/>
  <g id="Group_48" data-name="Group 48" transform="translate(39.246 1.853)">
    <path id="Path_33" data-name="Path 33" d="M284.174,41.479h-4.167a10.715,10.715,0,0,0-16.554-13.427l-.96.96V23.781A13.231,13.231,0,0,0,256,12.39V63.62h28.175a11.071,11.071,0,0,0,0-22.141Z" transform="translate(-255.999 -12.39)" fill="#fff"/>
  </g>
</svg>
