<svg xmlns="http://www.w3.org/2000/svg" width="43.274" height="43.274" viewBox="0 0 43.274 43.274">
  <path id="Icon_feather-message-circle" data-name="Icon feather-message-circle" d="M44.774,23.518a18.75,18.75,0,0,1-2.014,8.5,19.018,19.018,0,0,1-17,10.516,18.75,18.75,0,0,1-8.5-2.014L4.5,44.774,8.751,32.021a18.75,18.75,0,0,1-2.014-8.5,19.018,19.018,0,0,1,10.516-17,18.75,18.75,0,0,1,8.5-2.014h1.119a18.974,18.974,0,0,1,17.9,17.9Z" transform="translate(-3 -3)" fill="none" stroke="#fff" stroke-linecap="round" stroke-linejoin="round" stroke-width="3"/>
</svg>
