<svg xmlns="http://www.w3.org/2000/svg" width="40.549" height="32.953" viewBox="0 0 40.549 32.953">
  <path id="Icon_metro-twitter" data-name="Icon metro-twitter" d="M43.119,8.718a16.633,16.633,0,0,1-4.778,1.31A8.344,8.344,0,0,0,42,5.426a16.654,16.654,0,0,1-5.283,2.019A8.327,8.327,0,0,0,22.54,15.032,23.618,23.618,0,0,1,5.394,6.34,8.328,8.328,0,0,0,7.968,17.446,8.285,8.285,0,0,1,4.2,16.406c0,.035,0,.07,0,.1a8.324,8.324,0,0,0,6.673,8.157,8.333,8.333,0,0,1-3.757.143,8.327,8.327,0,0,0,7.771,5.777A16.691,16.691,0,0,1,4.555,34.149a16.873,16.873,0,0,1-1.984-.116A23.546,23.546,0,0,0,15.323,37.77c15.3,0,23.669-12.676,23.669-23.67q0-.541-.024-1.076a16.9,16.9,0,0,0,4.151-4.306Z" transform="translate(-2.571 -4.817)" fill="#fff"/>
</svg>
