<svg xmlns="http://www.w3.org/2000/svg" width="45.474" height="28.508" viewBox="0 0 45.474 28.508">
  <path id="Icon_awesome-behance" data-name="Icon awesome-behance" d="M18.316,18.075a5.991,5.991,0,0,0,3.821-5.842c0-5.574-4.153-6.932-8.945-6.932H0V33.281H13.563c5.084,0,9.861-2.439,9.861-8.124,0-3.513-1.666-6.111-5.108-7.082Zm-12.166-8h5.771c2.218,0,4.216.624,4.216,3.2,0,2.376-1.555,3.332-3.75,3.332H6.15V10.078Zm6.576,18.45H6.15V20.823h6.7c2.708,0,4.421,1.129,4.421,3.995,0,2.826-2.045,3.711-4.547,3.711Zm28.3-19H29.684V6.77H41.029V9.525Zm4.445,13.918c0-5.992-3.505-10.99-9.861-10.99-6.174,0-10.366,4.642-10.366,10.721,0,6.308,3.971,10.634,10.366,10.634,4.839,0,7.974-2.179,9.482-6.813H40.184c-.529,1.729-2.708,2.645-4.4,2.645-3.261,0-4.974-1.911-4.974-5.155H45.426C45.45,24.154,45.474,23.8,45.474,23.444ZM30.821,20.981a4.348,4.348,0,0,1,4.618-4.326c2.795,0,4.2,1.642,4.437,4.326Z" transform="translate(0 -5.302)" fill="#fff"/>
</svg>
