<svg xmlns="http://www.w3.org/2000/svg" width="38.057" height="38.048" viewBox="0 0 38.057 38.048">
  <path id="Icon_awesome-instagram" data-name="Icon awesome-instagram" d="M19.027,11.507a9.755,9.755,0,1,0,9.755,9.755A9.74,9.74,0,0,0,19.027,11.507Zm0,16.1a6.342,6.342,0,1,1,6.342-6.342A6.354,6.354,0,0,1,19.027,27.6Zm12.43-16.5a2.275,2.275,0,1,1-2.275-2.275A2.27,2.27,0,0,1,31.457,11.108Zm6.461,2.309c-.144-3.048-.841-5.748-3.073-7.972S29.92,2.524,26.872,2.371c-3.141-.178-12.557-.178-15.7,0-3.039.144-5.739.841-7.972,3.065S.281,10.361.128,13.409c-.178,3.141-.178,12.557,0,15.7.144,3.048.841,5.748,3.073,7.972S8.126,40,11.174,40.153c3.141.178,12.557.178,15.7,0,3.048-.144,5.748-.841,7.972-3.073s2.921-4.924,3.073-7.972c.178-3.141.178-12.548,0-15.69ZM33.86,32.477a6.421,6.421,0,0,1-3.617,3.617c-2.5.993-8.448.764-11.215.764s-8.719.221-11.215-.764A6.421,6.421,0,0,1,4.2,32.477c-.993-2.5-.764-8.448-.764-11.215S3.21,12.543,4.2,10.046A6.421,6.421,0,0,1,7.812,6.43c2.5-.993,8.448-.764,11.215-.764s8.719-.221,11.215.764a6.421,6.421,0,0,1,3.617,3.617c.993,2.5.764,8.448.764,11.215S34.853,29.981,33.86,32.477Z" transform="translate(0.005 -2.238)" fill="#fff"/>
</svg>
