<svg xmlns="http://www.w3.org/2000/svg" width="58.827" height="67.27" viewBox="0 0 58.827 67.27">
  <g id="identity" transform="translate(-0.5)">
    <path id="Path_31946" data-name="Path 31946" d="M59.118,55.974l-8.34-16.682a25.191,25.191,0,1,0-41.729,0L.708,55.974a1.971,1.971,0,0,0,1.763,2.853H12.04l5.742,7.655a1.971,1.971,0,0,0,3.34-.3l7.908-15.815c.294.01.588.017.884.017s.591-.007.884-.017l7.908,15.815a1.97,1.97,0,0,0,3.339.3l5.742-7.655h9.569a1.971,1.971,0,0,0,1.762-2.853Zm-40.1,5.592L14.6,55.673a1.97,1.97,0,0,0-1.577-.788H5.659l6.116-12.23a25.181,25.181,0,0,0,13.092,7.22ZM8.663,25.191a21.25,21.25,0,1,1,21.25,21.25,21.274,21.274,0,0,1-21.25-21.25ZM46.8,54.885a1.972,1.972,0,0,0-1.577.788L40.8,61.566,34.959,49.875a25.18,25.18,0,0,0,13.093-7.221l6.115,12.231H46.8Zm0,0" transform="translate(0)" fill="#fff"/>
    <path id="Path_31947" data-name="Path 31947" d="M128.5,84.282l5.5-6.569a1.971,1.971,0,0,0-1.032-3.177l-8.314-2.08-4.548-7.265a1.971,1.971,0,0,0-3.341,0l-4.547,7.265-8.313,2.08a1.97,1.97,0,0,0-1.033,3.177l5.5,6.569-.592,8.549a1.971,1.971,0,0,0,2.7,1.964l7.949-3.2,7.949,3.2a1.971,1.971,0,0,0,2.7-1.964Zm-3.532-1.923a1.97,1.97,0,0,0-.455,1.4l.429,6.2-5.765-2.324a1.97,1.97,0,0,0-1.473,0l-5.765,2.324.43-6.2a1.974,1.974,0,0,0-.456-1.4L107.916,77.6l6.03-1.508a1.97,1.97,0,0,0,1.192-.866l3.3-5.269,3.3,5.269a1.97,1.97,0,0,0,1.192.866l6.03,1.508Zm0,0" transform="translate(-88.523 -55.822)" fill="#fff"/>
  </g>
</svg>
