<svg xmlns="http://www.w3.org/2000/svg" width="53.704" height="62.88" viewBox="0 0 53.704 62.88">
  <g id="ios" transform="translate(0.668 1)">
    <path id="Path_31904" data-name="Path 31904" d="M204.191,14.558h-1.324V13.235C202.867,4.582,207.45,0,216.1,0h1.323V1.324c0,8.652-4.583,13.234-13.234,13.234ZM214.728,2.7c-5.757.4-8.768,3.408-9.182,9.182C211.4,11.481,214.348,8.536,214.728,2.7Zm0,0" transform="translate(-177.406)" fill="#40c2a4" stroke="#40c2a4" stroke-width="2"/>
    <path id="Path_31905" data-name="Path 31905" d="M37.373,173a13.235,13.235,0,0,1-6.121-1.505,9.445,9.445,0,0,0-8.917,0A13.238,13.238,0,0,1,16.214,173C7.314,173,.332,160.789.332,145.205c0-9.48,7.13-17.205,15.882-17.205a14.69,14.69,0,0,1,4.814.811l4.914,1.7a2.66,2.66,0,0,0,1.737,0l4.9-1.7a14.722,14.722,0,0,1,4.8-.811,15.419,15.419,0,0,1,12.292,6.3l1.158,1.538-1.853.529a10.571,10.571,0,0,0,1.257,20.6l1.506.248-.463,1.456C48.523,167.505,43.179,173,37.373,173ZM26.785,167.7a12.351,12.351,0,0,1,5.69,1.439,10.438,10.438,0,0,0,4.9,1.207c4.334,0,8.454-4.219,10.935-11.1a13.217,13.217,0,0,1-1.936-24.716,12.576,12.576,0,0,0-9-3.888,12.056,12.056,0,0,0-3.937.662l-4.913,1.7a5.322,5.322,0,0,1-3.458,0l-4.93-1.7a12.043,12.043,0,0,0-3.937-.662c-7.3,0-13.234,6.535-13.234,14.558,0,13.632,6.054,25.146,13.234,25.146a10.425,10.425,0,0,0,4.9-1.207,12.352,12.352,0,0,1,5.691-1.439Zm0,0" transform="translate(0 -112.118)" fill="#40c2a4" stroke="#40c2a4" stroke-width="2"/>
  </g>
</svg>
