<svg xmlns="http://www.w3.org/2000/svg" width="64.4" height="64.4" viewBox="0 0 64.4 64.4">
  <g id="language" transform="translate(-5.5 -5.5)">
    <g id="Layer_2" data-name="Layer 2" transform="translate(5.5 5.5)">
      <path id="Path_31925" data-name="Path 31925" d="M65.165,54.511A32.05,32.05,0,0,0,69.9,37.7h0a32.05,32.05,0,0,0-4.735-16.81l-.018-.028a32.2,32.2,0,0,0-54.895,0l-.018.028a32.21,32.21,0,0,0,0,33.622l.018.028a32.2,32.2,0,0,0,54.894,0ZM41.816,64.382a7.825,7.825,0,0,1-2.091,1.444,4.719,4.719,0,0,1-4.05,0,9.856,9.856,0,0,1-3.653-3.214,28.781,28.781,0,0,1-4.159-9.024q4.913-.3,9.837-.308t9.837.308a36.323,36.323,0,0,1-1.764,4.857,18.671,18.671,0,0,1-3.957,5.937ZM9.181,39.509H22.169A63.9,63.9,0,0,0,23.343,50.3q-5.326.469-10.624,1.287A28.387,28.387,0,0,1,9.181,39.509Zm3.538-15.7q5.3.821,10.628,1.288A63.786,63.786,0,0,0,22.17,35.891H9.181a28.387,28.387,0,0,1,3.538-12.079ZM33.584,11.019a7.823,7.823,0,0,1,2.091-1.444,4.719,4.719,0,0,1,4.05,0,9.856,9.856,0,0,1,3.653,3.214,28.781,28.781,0,0,1,4.159,9.024q-4.914.3-9.837.308t-9.838-.308a36.317,36.317,0,0,1,1.764-4.857,18.671,18.671,0,0,1,3.957-5.937ZM66.219,35.891H53.232A63.9,63.9,0,0,0,52.057,25.1q5.326-.469,10.624-1.287A28.387,28.387,0,0,1,66.219,35.891ZM26.982,50.02a59.839,59.839,0,0,1-1.194-10.511H49.613A59.826,59.826,0,0,1,48.421,50.02q-5.355-.351-10.721-.358T26.982,50.02ZM48.418,25.381a59.844,59.844,0,0,1,1.194,10.511H25.787A59.827,59.827,0,0,1,26.979,25.38q5.355.351,10.721.359T48.418,25.381ZM53.23,39.509H66.219a28.387,28.387,0,0,1-3.538,12.079q-5.3-.821-10.628-1.288A63.783,63.783,0,0,0,53.23,39.509Zm7.282-19.027q-4.631.668-9.289,1.058a41.258,41.258,0,0,0-2.153-6.075,25.674,25.674,0,0,0-3-5.1A28.576,28.576,0,0,1,60.512,20.482ZM17.489,17.489a28.573,28.573,0,0,1,11.835-7.122c-.068.088-.138.172-.2.261A33.028,33.028,0,0,0,24.184,21.54q-4.659-.395-9.3-1.058a28.817,28.817,0,0,1,2.6-2.992Zm-2.6,37.429q4.631-.668,9.289-1.058a41.258,41.258,0,0,0,2.153,6.075,25.677,25.677,0,0,0,3,5.1A28.576,28.576,0,0,1,14.888,54.918Zm43.022,2.993a28.572,28.572,0,0,1-11.835,7.122c.068-.088.137-.172.2-.261A33.028,33.028,0,0,0,51.216,53.86q4.659.395,9.3,1.058a28.818,28.818,0,0,1-2.6,2.993Z" transform="translate(-5.5 -5.5)" fill="#40c2a4"/>
    </g>
  </g>
</svg>
