<svg xmlns="http://www.w3.org/2000/svg" width="62.394" height="62.413" viewBox="0 0 62.394 62.413">
  <g id="launch" transform="translate(0.5 0.516)">
    <g id="Group_40869" data-name="Group 40869" transform="translate(0 0.004)">
      <path id="Path_31929" data-name="Path 31929" d="M212,137.995a6,6,0,1,0-6-6A6,6,0,0,0,212,137.995Zm0-9.593a3.6,3.6,0,1,1-3.6,3.6A3.6,3.6,0,0,1,212,128.4Z" transform="translate(-181.299 -110.896)" fill="#40c2a4" stroke="#40c2a4" stroke-width="1"/>
      <path id="Path_31930" data-name="Path 31930" d="M21.91,54.054a6.008,6.008,0,0,0-5.485-4.638,8.705,8.705,0,0,0-9-4.721C3.468,45.254,0,49.136,0,53A8.655,8.655,0,0,0,8.633,61.4H25.3a1.2,1.2,0,0,0,0-2.4H8.633A6.279,6.279,0,0,1,2.4,53,6.64,6.64,0,0,1,7.757,47.07,6.362,6.362,0,0,1,13.9,49.813a5.991,5.991,0,0,0-2.072,1.35,1.2,1.2,0,1,0,1.7,1.695,3.6,3.6,0,0,1,6.14,2.544,1.2,1.2,0,0,0,1.2,1.2,6.2,6.2,0,0,0,6.235-6V46.289h7.194v4.317a6.2,6.2,0,0,0,6.235,6,1.2,1.2,0,0,0,1.2-1.2,3.6,3.6,0,0,1,6.14-2.544,1.2,1.2,0,1,0,1.7-1.695,5.99,5.99,0,0,0-2.072-1.35,6.363,6.363,0,0,1,6.144-2.743c2.806.4,5.41,3.326,5.358,6.029A6.24,6.24,0,0,1,52.759,59H36.092a1.2,1.2,0,1,0,0,2.4H52.759a8.679,8.679,0,0,0,8.633-8.251c.075-3.933-3.393-7.882-7.421-8.45a8.705,8.705,0,0,0-9,4.721,6.008,6.008,0,0,0-5.485,4.638,3.757,3.757,0,0,1-2.79-3.449V46.288h1.2a1.2,1.2,0,0,0,1.189-1.041l.5-3.756h5.277a3.825,3.825,0,0,0,2.9-6.314l-6.352-7.41.618-4.631C43.248,13.976,38.791,4.663,31.313.175a1.2,1.2,0,0,0-1.234,0C22.6,4.664,18.145,13.978,19.365,23.137l.618,4.631L13.63,35.179a3.825,3.825,0,0,0,2.9,6.314h5.277l.5,3.756A1.2,1.2,0,0,0,23.5,46.288h1.2v4.317a3.757,3.757,0,0,1-2.79,3.449Zm24.03-17.316a1.427,1.427,0,0,1-1.083,2.356H39.9l1.085-8.137ZM30.7,2.619A19.364,19.364,0,0,1,35.527,7.2H25.865A19.362,19.362,0,0,1,30.7,2.619ZM24.313,9.6H37.079A21.488,21.488,0,0,1,39.651,22.82L37.48,39.094H23.912L21.742,22.82A21.487,21.487,0,0,1,24.313,9.6Zm-7.778,29.5a1.427,1.427,0,0,1-1.084-2.355l4.956-5.782,1.085,8.137Zm7.7,2.4H37.16l-.32,2.4H24.552Z" transform="translate(0 -0.004)" fill="#40c2a4" stroke="#40c2a4" stroke-width="1"/>
      <ellipse id="Ellipse_35" data-name="Ellipse 35" cx="1.5" cy="1" rx="1.5" ry="1" transform="translate(29.219 59.167)" fill="#40c2a4" stroke="#40c2a4" stroke-width="1"/>
    </g>
  </g>
</svg>
