<svg xmlns="http://www.w3.org/2000/svg" width="63.4" height="63.399" viewBox="0 0 63.4 63.399">
  <g id="material_design" data-name="material design" transform="translate(0.001)">
    <path id="Path_31914" data-name="Path 31914" d="M54.8,9.847h7.364A1.238,1.238,0,0,0,63.4,8.609V1.238A1.238,1.238,0,0,0,62.161,0H54.8a1.238,1.238,0,0,0-1.238,1.238V3.685H36.619V1.238A1.238,1.238,0,0,0,35.381,0H28.017a1.238,1.238,0,0,0-1.238,1.238V3.685H9.84V1.238A1.238,1.238,0,0,0,8.6,0H1.238A1.238,1.238,0,0,0,0,1.238V8.609A1.238,1.238,0,0,0,1.238,9.847H8.6A1.238,1.238,0,0,0,9.84,8.609V6.162h10.3a28.032,28.032,0,0,0-16.435,24.3H1.238A1.238,1.238,0,0,0,0,31.7V39.07a1.238,1.238,0,0,0,1.238,1.238H8.6A1.238,1.238,0,0,0,9.84,39.07V31.7A1.238,1.238,0,0,0,8.6,30.461H6.185A25.684,25.684,0,0,1,26.779,6.622V8.609a1.238,1.238,0,0,0,1.238,1.238h7.364a1.238,1.238,0,0,0,1.238-1.238V6.622a25.684,25.684,0,0,1,20.594,23.84H54.8A1.238,1.238,0,0,0,53.559,31.7V39.07A1.238,1.238,0,0,0,54.8,40.309h7.364A1.238,1.238,0,0,0,63.4,39.07V31.7a1.238,1.238,0,0,0-1.238-1.238H59.693a28.032,28.032,0,0,0-16.435-24.3h10.3V8.609A1.238,1.238,0,0,0,54.8,9.847ZM7.363,7.371H2.476V2.477H7.363Zm0,30.462H2.476V32.938H7.363Zm53.559,0H56.035V32.938h4.887ZM34.143,7.371H29.255V2.477h4.887ZM56.035,2.477h4.887V7.371H56.035Zm0,0" fill="#fff"/>
    <path id="Path_31915" data-name="Path 31915" d="M168.537,105.641a1.238,1.238,0,0,0-2.169,0l-5.143,9.337a1.238,1.238,0,0,0,2.169,1.195l2.82-5.12v9.132a4.21,4.21,0,1,0,2.477,0v-9.132l8.5,15.424a20.067,20.067,0,0,0-5.432,10.346h-8.6a20.075,20.075,0,0,0-5.432-10.346l1.419-2.577a1.238,1.238,0,0,0-2.169-1.195l-1.877,3.408a1.238,1.238,0,0,0,.248,1.511,17.574,17.574,0,0,1,5.284,9.2h-1.153a3.714,3.714,0,0,0-1.677,7.028V154.16a1.238,1.238,0,1,0,2.477,0v-9.906h14.364v9.906a1.238,1.238,0,1,0,2.477,0V143.852a3.714,3.714,0,0,0-1.677-7.028H174.28a17.576,17.576,0,0,1,5.284-9.2,1.238,1.238,0,0,0,.248-1.511Zm-1.084,20.3a1.734,1.734,0,1,1,1.734-1.734A1.736,1.736,0,0,1,167.452,125.943Zm9.219,14.6a1.239,1.239,0,0,1-1.238,1.238H159.471a1.238,1.238,0,1,1,0-2.477h15.962A1.239,1.239,0,0,1,176.672,140.539Zm0,0" transform="translate(-135.753 -91.998)" fill="#fff"/>
    <path id="Path_31916" data-name="Path 31916" d="M187.867,214.6a1.235,1.235,0,1,0-.876-.362A1.246,1.246,0,0,0,187.867,214.6Zm0,0" transform="translate(-163.52 -185.855)" fill="#fff"/>
  </g>
</svg>
