<svg xmlns="http://www.w3.org/2000/svg" width="58.93" height="59.603" viewBox="0 0 58.93 59.603">
  <g id="planning" transform="translate(0.5 0.5)">
    <path id="Path_31931" data-name="Path 31931" d="M57.918,12.636a.937.937,0,0,0-.05-.251c-.01-.031-.019-.062-.032-.092a.981.981,0,0,0-.2-.286L45.92.286a.961.961,0,0,0-.287-.2C45.6.077,45.574.069,45.544.059a.961.961,0,0,0-.256-.051c-.017,0-.034-.008-.055-.008h-29.3a4.89,4.89,0,0,0-4.884,4.884v7.188a18.521,18.521,0,0,0,0,33.892v7.755A4.89,4.89,0,0,0,15.932,58.6H53.047a4.889,4.889,0,0,0,4.884-4.884V12.7c0-.021-.01-.04-.012-.062ZM54.6,11.721H47.186a.977.977,0,0,1-.977-.977V3.334ZM1.974,29.018a16.582,16.582,0,0,1,16.6-16.6q.833,0,1.65.08a16.559,16.559,0,0,1,14.75,14.037,16.768,16.768,0,0,1,.2,2.487,16.6,16.6,0,0,1-33.207,0ZM29.922,43.69c.134-.1.266-.206.4-.312A18.278,18.278,0,0,0,31.7,42.142a18.357,18.357,0,0,0,1.236-1.383c.106-.131.209-.264.312-.4.118-.155.247-.3.36-.458l8.326,8.336a2.908,2.908,0,0,1,0,4.132,2.975,2.975,0,0,1-4.135,0L29.464,44.05c.157-.114.3-.241.458-.36ZM53.047,56.65H15.931A2.93,2.93,0,0,1,13,53.719V46.727c.061.02.124.032.186.051.156.048.315.086.473.13.365.1.733.2,1.105.269.183.038.365.073.55.106.372.065.747.117,1.124.16.168.019.334.043.5.057.541.046,1.086.076,1.636.076a18.436,18.436,0,0,0,9.2-2.451l8.636,8.627a4.884,4.884,0,1,0,6.9-6.9l-8.632-8.637a18.43,18.43,0,0,0,2.451-9.2q0-.928-.09-1.841A18.554,18.554,0,0,0,18.578,10.461c-.55,0-1.095.031-1.636.076-.169.015-.336.038-.5.058q-.564.063-1.121.16-.278.049-.555.106c-.367.076-.732.166-1.093.266-.162.044-.324.083-.488.132-.061.019-.122.031-.183.051V4.884a2.93,2.93,0,0,1,2.93-2.93H44.256v8.79a2.93,2.93,0,0,0,2.93,2.93h8.79V53.719a2.93,2.93,0,0,1-2.93,2.93Zm0,0" fill="#40c2a4" stroke="#40c2a4" stroke-width="1"/>
    <path id="Path_31932" data-name="Path 31932" d="M161.929,48.977a.977.977,0,0,0-.977-.977H139.465a.977.977,0,1,0,0,1.953h21.488A.977.977,0,0,0,161.929,48.977Zm0,0" transform="translate(-121.58 -42.14)" fill="#40c2a4" stroke="#40c2a4" stroke-width="1"/>
    <path id="Path_31933" data-name="Path 31933" d="M327.185,192H315.465a.977.977,0,1,0,0,1.953h11.721a.977.977,0,0,0,0-1.953Zm0,0" transform="translate(-276.092 -168.559)" fill="#40c2a4" stroke="#40c2a4" stroke-width="1"/>
    <path id="Path_31934" data-name="Path 31934" d="M327.185,240H315.465a.977.977,0,1,0,0,1.953h11.721a.977.977,0,0,0,0-1.953Zm0,0" transform="translate(-276.092 -210.699)" fill="#40c2a4" stroke="#40c2a4" stroke-width="1"/>
    <path id="Path_31935" data-name="Path 31935" d="M321.139,288.977a.977.977,0,0,0-.977-.977h-12.7a.977.977,0,1,0,0,1.953h12.7A.977.977,0,0,0,321.139,288.977Zm0,0" transform="translate(-269.069 -252.838)" fill="#40c2a4" stroke="#40c2a4" stroke-width="1"/>
    <path id="Path_31936" data-name="Path 31936" d="M349.232,336.977a.977.977,0,0,0-.977-.977h-8.79a.977.977,0,1,0,0,1.953h8.79A.977.977,0,0,0,349.232,336.977Zm0,0" transform="translate(-297.162 -294.978)" fill="#40c2a4" stroke="#40c2a4" stroke-width="1"/>
    <path id="Path_31937" data-name="Path 31937" d="M260.255,96.977a.977.977,0,0,0-.977-.977h-7.814a.977.977,0,0,0,0,1.953h7.814A.977.977,0,0,0,260.255,96.977Zm0,0" transform="translate(-219.906 -84.279)" fill="#40c2a4" stroke="#40c2a4" stroke-width="1"/>
    <path id="Path_31938" data-name="Path 31938" d="M307.092,144.977a.977.977,0,0,0-.977-.977H291.465a.977.977,0,1,0,0,1.953h14.651A.977.977,0,0,0,307.092,144.977Zm0,0" transform="translate(-255.022 -126.419)" fill="#40c2a4" stroke="#40c2a4" stroke-width="1"/>
    <path id="Path_31939" data-name="Path 31939" d="M115.465,185.953H122.3a.977.977,0,1,0,0-1.953h-6.837a.977.977,0,1,0,0,1.953Zm0,0" transform="translate(-100.51 -161.536)" fill="#40c2a4" stroke="#40c2a4" stroke-width="1"/>
    <path id="Path_31940" data-name="Path 31940" d="M99.092,232.977a.977.977,0,0,0-.977-.977H83.465a.977.977,0,0,0,0,1.953H98.115A.977.977,0,0,0,99.092,232.977Zm0,0" transform="translate(-72.417 -203.675)" fill="#40c2a4" stroke="#40c2a4" stroke-width="1"/>
    <path id="Path_31941" data-name="Path 31941" d="M122.3,280h-6.837a.977.977,0,1,0,0,1.953H122.3a.977.977,0,1,0,0-1.953Zm0,0" transform="translate(-100.51 -245.815)" fill="#40c2a4" stroke="#40c2a4" stroke-width="1"/>
    <path id="Path_31942" data-name="Path 31942" d="M53.757,145.245a14.324,14.324,0,0,0,5.7-5.527c.077-.135.161-.266.234-.4.038-.071.067-.144.1-.214.148-.285.293-.57.421-.862s.229-.569.333-.857c.03-.083.068-.164.1-.248a14.658,14.658,0,1,0-6.887,8.116Zm-13.039-1.74a12.6,12.6,0,0,1-2.892-2.167,12.86,12.86,0,0,1-1.594-1.939q-.346-.518-.638-1.064a12.7,12.7,0,1,1,22.375.056v.008a12.482,12.482,0,0,1-5.13,5.127,12.661,12.661,0,0,1-12.121-.019Zm0,0" transform="translate(-28.226 -103.345)" fill="#40c2a4" stroke="#40c2a4" stroke-width="1"/>
    <path id="Path_31943" data-name="Path 31943" d="M385.325,384a.977.977,0,0,0-.977.977v3.907a.977.977,0,0,1-.977.977h-3.907a.977.977,0,1,0,0,1.953h3.907a2.93,2.93,0,0,0,2.93-2.93v-3.907A.977.977,0,0,0,385.325,384Zm0,0" transform="translate(-332.278 -337.118)" fill="#40c2a4" stroke="#40c2a4" stroke-width="1"/>
  </g>
</svg>
