<svg xmlns="http://www.w3.org/2000/svg" xmlns:xlink="http://www.w3.org/1999/xlink" width="67.328" height="64.267" viewBox="0 0 67.328 64.267">
  <defs>
    <linearGradient id="linear-gradient" x1="0.5" x2="0.5" y2="1" gradientUnits="objectBoundingBox">
      <stop offset="0" stop-color="#40c2a4"/>
      <stop offset="1" stop-color="#4080c2"/>
    </linearGradient>
  </defs>
  <g id="programming_sites" data-name="programming sites" transform="translate(1 -10.996)">
    <g id="Path_31844" data-name="Path 31844" transform="translate(-52.111 -37.753)" fill="url(#linear-gradient)">
      <path d="M 64.04949951171875 64.40068054199219 C 61.39367294311523 64.40068054199219 59.23300170898438 62.24074935913086 59.23300170898438 59.58583831787109 C 59.23300170898438 56.93092727661133 61.39367294311523 54.77099990844727 64.04949951171875 54.77099990844727 C 66.70730590820312 54.77099990844727 68.86958312988281 56.93092727661133 68.86958312988281 59.58583831787109 C 68.86958312988281 62.24074935913086 66.70730590820312 64.40068054199219 64.04949951171875 64.40068054199219 Z M 64.04949951171875 58.34443664550781 C 63.36407089233398 58.34443664550781 62.80644226074219 58.90132904052734 62.80644226074219 59.58583831787109 C 62.80644226074219 60.27042007446289 63.36407089233398 60.82736968994141 64.04949951171875 60.82736968994141 C 64.73696899414062 60.82736968994141 65.2962646484375 60.27047729492188 65.2962646484375 59.58596801757812 C 65.2962646484375 58.90139007568359 64.73696899414062 58.34443664550781 64.04949951171875 58.34443664550781 Z" stroke="none"/>
      <path d="M 64.04949951171875 55.27099990844727 C 61.66937255859375 55.27099990844727 59.73300170898438 57.20672988891602 59.73300170898438 59.58583831787109 C 59.73300170898438 61.96495819091797 61.66937255859375 63.90067672729492 64.04949951171875 63.90067672729492 C 66.43154907226562 63.90067672729492 68.36958312988281 61.96495819091797 68.36958312988281 59.58583831787109 C 68.36958312988281 57.20671844482422 66.43154907226562 55.27099990844727 64.04949951171875 55.27099990844727 M 64.04949951171875 61.32736968994141 C 63.08834075927734 61.32736968994141 62.30644226074219 60.54610824584961 62.30644226074219 59.58583831787109 C 62.30644226074219 58.62556838989258 63.08834075927734 57.84443664550781 64.04949951171875 57.84443664550781 C 65.01258087158203 57.84443664550781 65.7962646484375 58.62569808959961 65.7962646484375 59.58596801757812 C 65.7962646484375 60.54623794555664 65.01258087158203 61.32736968994141 64.04949951171875 61.32736968994141 M 64.04949951171875 54.27099609375 C 66.98300170898438 54.27099609375 69.36958312988281 56.65522766113281 69.36958312988281 59.58583831787109 C 69.36958312988281 62.51644897460938 66.98300170898438 64.90068054199219 64.04949951171875 64.90068054199219 C 61.11797332763672 64.90068054199219 58.73300170898438 62.51644897460938 58.73300170898438 59.58583831787109 C 58.73300170898438 56.65522766113281 61.11797332763672 54.27099609375 64.04949951171875 54.27099609375 Z M 64.04949951171875 60.32736968994141 C 64.46125793457031 60.32736968994141 64.7962646484375 59.99477767944336 64.7962646484375 59.58596801757812 C 64.7962646484375 59.17708969116211 64.46125793457031 58.84443664550781 64.04949951171875 58.84443664550781 C 63.63978576660156 58.84443664550781 63.30644226074219 59.17702865600586 63.30644226074219 59.58583831787109 C 63.30644226074219 59.99471664428711 63.63978576660156 60.32736968994141 64.04949951171875 60.32736968994141 Z" stroke="none" fill="#40c2a4"/>
    </g>
    <g id="Path_31845" data-name="Path 31845" transform="translate(-232.152 -37.753)" fill="url(#linear-gradient)">
      <path d="M 281.8320922851562 64.40068054199219 L 270.4215087890625 64.40068054199219 C 267.7656555175781 64.40068054199219 265.60498046875 62.24074935913086 265.60498046875 59.58583831787109 C 265.60498046875 56.93092727661133 267.7656555175781 54.77099990844727 270.4215087890625 54.77099990844727 L 281.8320922851562 54.77099990844727 C 284.4879150390625 54.77099990844727 286.6485595703125 56.93092727661133 286.6485595703125 59.58583831787109 C 286.6485595703125 62.24074935913086 284.4879150390625 64.40068054199219 281.8320922851562 64.40068054199219 Z M 270.4215087890625 58.34430694580078 C 269.736083984375 58.34430694580078 269.1784362792969 58.9012565612793 269.1784362792969 59.58583831787109 C 269.1784362792969 60.27042007446289 269.736083984375 60.82736968994141 270.4215087890625 60.82736968994141 L 281.8320922851562 60.82736968994141 C 282.5174865722656 60.82736968994141 283.0751342773438 60.27042007446289 283.0751342773438 59.58583831787109 C 283.0751342773438 58.9012565612793 282.5174865722656 58.34430694580078 281.8320922851562 58.34430694580078 L 270.4215087890625 58.34430694580078 Z" stroke="none"/>
      <path d="M 270.4215087890625 55.27099990844727 C 268.0413513183594 55.27099990844727 266.10498046875 57.20672988891602 266.10498046875 59.58583831787109 C 266.10498046875 61.96495819091797 268.0413513183594 63.90067672729492 270.4215087890625 63.90067672729492 L 281.8320922851562 63.90067672729492 C 284.2122192382812 63.90067672729492 286.1485595703125 61.96495819091797 286.1485595703125 59.58583831787109 C 286.1485595703125 57.20671844482422 284.2122497558594 55.27099990844727 281.8320922851562 55.27099990844727 L 270.4215087890625 55.27099990844727 M 281.8320922851562 61.32736968994141 L 270.4215087890625 61.32736968994141 C 269.4603271484375 61.32736968994141 268.6784362792969 60.54610824584961 268.6784362792969 59.58583831787109 C 268.6784362792969 58.62556838989258 269.4604797363281 57.84430694580078 270.4215087890625 57.84430694580078 L 281.8320922851562 57.84430694580078 C 282.7932739257812 57.84430694580078 283.5751342773438 58.62556838989258 283.5751342773438 59.58583831787109 C 283.5751342773438 60.54610824584961 282.7932739257812 61.32736968994141 281.8320922851562 61.32736968994141 M 270.4215087890625 54.27099609375 L 281.8320922851562 54.27099609375 C 284.7636108398438 54.27099609375 287.1485595703125 56.65522766113281 287.1485595703125 59.58583831787109 C 287.1485595703125 62.51644897460938 284.7636108398438 64.90068054199219 281.8320922851562 64.90068054199219 L 270.4215087890625 64.90068054199219 C 267.4899597167969 64.90068054199219 265.10498046875 62.51644897460938 265.10498046875 59.58583831787109 C 265.10498046875 56.65522766113281 267.4899597167969 54.27099609375 270.4215087890625 54.27099609375 Z M 281.8320922851562 60.32736968994141 C 282.2417907714844 60.32736968994141 282.5751342773438 59.99471664428711 282.5751342773438 59.58583831787109 C 282.5751342773438 59.17695999145508 282.2417907714844 58.84430694580078 281.8320922851562 58.84430694580078 L 270.4215087890625 58.84430694580078 C 270.0117797851562 58.84430694580078 269.6784362792969 59.17695999145508 269.6784362792969 59.58583831787109 C 269.6784362792969 59.99471664428711 270.0117797851562 60.32736968994141 270.4215087890625 60.32736968994141 L 281.8320922851562 60.32736968994141 Z" stroke="none" fill="#40c2a4"/>
    </g>
    <g id="Path_31846" data-name="Path 31846" transform="translate(-128.597 -37.753)" fill="url(#linear-gradient)">
      <path d="M 151.7214965820312 64.40068054199219 C 149.065673828125 64.40068054199219 146.9049987792969 62.24074935913086 146.9049987792969 59.58583831787109 C 146.9049987792969 56.93092727661133 149.065673828125 54.77099990844727 151.7214965820312 54.77099990844727 C 154.3792877197266 54.77099990844727 156.5415649414062 56.93092727661133 156.5415649414062 59.58583831787109 C 156.5415649414062 62.24074935913086 154.3792877197266 64.40068054199219 151.7214965820312 64.40068054199219 Z M 151.7214965820312 58.34430694580078 C 151.0360565185547 58.34430694580078 150.4784240722656 58.9012565612793 150.4784240722656 59.58583831787109 C 150.4784240722656 60.27042007446289 151.0360565185547 60.82736968994141 151.7214965820312 60.82736968994141 C 152.4089660644531 60.82736968994141 152.96826171875 60.27042007446289 152.96826171875 59.58583831787109 C 152.96826171875 58.9012565612793 152.4089660644531 58.34430694580078 151.7214965820312 58.34430694580078 Z" stroke="none"/>
      <path d="M 151.7214965820312 55.27099990844727 C 149.3413696289062 55.27099990844727 147.4049987792969 57.20672988891602 147.4049987792969 59.58583831787109 C 147.4049987792969 61.96495819091797 149.3413696289062 63.90067672729492 151.7214965820312 63.90067672729492 C 154.1035461425781 63.90067672729492 156.0415649414062 61.96495819091797 156.0415649414062 59.58583831787109 C 156.0415649414062 57.20671844482422 154.1035461425781 55.27099990844727 151.7214965820312 55.27099990844727 M 151.7214965820312 61.32736968994141 C 150.7603302001953 61.32736968994141 149.9784240722656 60.54610824584961 149.9784240722656 59.58583831787109 C 149.9784240722656 58.62556838989258 150.7604675292969 57.84430694580078 151.7214965820312 57.84430694580078 C 152.6845855712891 57.84430694580078 153.46826171875 58.62556838989258 153.46826171875 59.58583831787109 C 153.46826171875 60.54610824584961 152.6845855712891 61.32736968994141 151.7214965820312 61.32736968994141 M 151.7214965820312 54.27099609375 C 154.6549987792969 54.27099609375 157.0415649414062 56.65522766113281 157.0415649414062 59.58583831787109 C 157.0415649414062 62.51644897460938 154.6549987792969 64.90068054199219 151.7214965820312 64.90068054199219 C 148.7899780273438 64.90068054199219 146.4049987792969 62.51644897460938 146.4049987792969 59.58583831787109 C 146.4049987792969 56.65522766113281 148.7899780273438 54.27099609375 151.7214965820312 54.27099609375 Z M 151.7214965820312 60.32736968994141 C 152.1332550048828 60.32736968994141 152.46826171875 59.99471664428711 152.46826171875 59.58583831787109 C 152.46826171875 59.17695999145508 152.1332550048828 58.84430694580078 151.7214965820312 58.84430694580078 C 151.311767578125 58.84430694580078 150.9784240722656 59.17695999145508 150.9784240722656 59.58583831787109 C 150.9784240722656 59.99471664428711 151.311767578125 60.32736968994141 151.7214965820312 60.32736968994141 Z" stroke="none" fill="#40c2a4"/>
    </g>
    <g id="Path_31847" data-name="Path 31847" transform="translate(-115.468 -183.352)" fill="url(#linear-gradient)">
      <path d="M 133.6437683105469 235.920654296875 C 133.5044708251953 235.920654296875 133.3644104003906 235.9040985107422 133.2275085449219 235.8714294433594 C 132.7631988525391 235.7605133056641 132.3699798583984 235.4754638671875 132.1202087402344 235.0687561035156 C 131.8704528808594 234.6621246337891 131.7939910888672 234.1825561523438 131.9048614501953 233.7183837890625 L 134.45751953125 223.0364227294922 C 134.6504211425781 222.228759765625 135.3644409179688 221.6646423339844 136.1939086914062 221.6646423339844 C 136.3336944580078 221.6646423339844 136.4739685058594 221.6812591552734 136.6108245849609 221.7140350341797 C 137.0747833251953 221.8249664306641 137.4679565429688 222.1100006103516 137.7177124023438 222.5166168212891 C 137.9675140380859 222.9232788085938 138.0439605712891 223.4028778076172 137.9329986572266 223.8670654296875 L 135.38037109375 234.5489196777344 C 135.1874084472656 235.3565673828125 134.4732818603516 235.920654296875 133.6437683105469 235.920654296875 Z" stroke="none"/>
      <path d="M 136.1939239501953 222.1646423339844 C 135.6123199462891 222.1645812988281 135.0848999023438 222.5619659423828 134.9438323974609 223.1526336669922 L 132.3911895751953 233.8345489501953 C 132.22607421875 234.5257263183594 132.6523742675781 235.219970703125 133.3435516357422 235.3850708007812 C 134.0348205566406 235.5499572753906 134.7289276123047 235.1238708496094 134.8940582275391 234.4327087402344 L 137.4467010498047 223.7508087158203 C 137.6119384765625 223.0596160888672 137.1855163574219 222.3655242919922 136.4943542480469 222.2002868652344 C 136.3937835693359 222.1761932373047 136.2929992675781 222.1646423339844 136.1939239501953 222.1646423339844 M 136.1937866210938 221.1646423339844 L 136.1939239501953 221.1646423339844 C 136.3728790283203 221.1646423339844 136.5523376464844 221.1858825683594 136.7272796630859 221.227783203125 C 137.9532318115234 221.5208892822266 138.7124481201172 222.7570495605469 138.4192810058594 223.9833221435547 L 135.8666687011719 234.6651306152344 C 135.6197204589844 235.6987457275391 134.7056427001953 236.420654296875 133.6437683105469 236.420654296875 C 133.4654388427734 236.420654296875 133.2863464355469 236.3994903564453 133.1114501953125 236.3577575683594 C 132.51708984375 236.2157897949219 132.0138397216797 235.8509674072266 131.6941528320312 235.3304290771484 C 131.37451171875 234.8100128173828 131.2766418457031 234.1962585449219 131.4185638427734 233.6022033691406 L 133.9712219238281 222.9202117919922 C 134.2180786132812 221.8866119384766 135.1320343017578 221.1646423339844 136.1937866210938 221.1646423339844 Z" stroke="none" fill="#40c2a4"/>
    </g>
    <g id="Path_31848" data-name="Path 31848" transform="translate(-173.118 -189.952)" fill="url(#linear-gradient)">
      <path d="M 199.7236175537109 241.5547485351562 C 199.2851867675781 241.5547485351562 198.8632965087891 241.39404296875 198.5356750488281 241.1022338867188 C 197.800048828125 240.4470977783203 197.7345886230469 239.3154144287109 198.3897857666016 238.5795593261719 L 201.2294769287109 235.3917541503906 L 198.3898620605469 232.2041168212891 C 198.0724029541016 231.8478546142578 197.9127044677734 231.3891906738281 197.9402313232422 230.9126892089844 C 197.9677734375 230.4362030029297 198.1792449951172 229.9989471435547 198.5356750488281 229.6814880371094 C 198.8632354736328 229.3897094726562 199.2851257324219 229.2289886474609 199.7235870361328 229.2289886474609 C 200.2330627441406 229.2289886474609 200.7195281982422 229.4470672607422 201.0582427978516 229.8272857666016 L 204.670166015625 233.8818359375 C 205.4302978515625 234.7278594970703 205.4286804199219 236.0576477050781 204.6650695800781 236.9076538085938 L 201.0583801269531 240.9564361572266 C 200.7196350097656 241.3366851806641 200.2331390380859 241.5547485351562 199.7236175537109 241.5547485351562 Z" stroke="none"/>
      <path d="M 199.7236175537109 241.0547485351562 C 200.0779418945312 241.0547485351562 200.4307556152344 240.9092712402344 200.6850280761719 240.6238555908203 L 204.2931213378906 236.5735168457031 C 204.8884735107422 235.9107971191406 204.8884735107422 234.8729400634766 204.2968292236328 234.2144317626953 L 200.6849060058594 230.1598815917969 C 200.2120208740234 229.6290435791016 199.3986053466797 229.5823822021484 198.8682250976562 230.0548706054688 C 198.3374481201172 230.5276031494141 198.2904815673828 231.3410186767578 198.7632141113281 231.8715362548828 L 201.8990936279297 235.3917388916016 L 198.7632141113281 238.9120483398438 C 198.2906036376953 239.4428405761719 198.3375549316406 240.2562561035156 198.8682250976562 240.7288665771484 C 199.1134643554688 240.9472961425781 199.4191741943359 241.0547485351562 199.7236175537109 241.0547485351562 M 199.7236175537109 242.0547485351562 C 199.1624145507812 242.0547485351562 198.6224212646484 241.8490753173828 198.203125 241.4756164550781 C 197.2616424560547 240.6371459960938 197.1778411865234 239.1887969970703 198.0163726806641 238.2470703125 L 200.5598602294922 235.3917541503906 L 198.0165252685547 232.5366973876953 C 197.6102294921875 232.0807647705078 197.4058227539062 231.4937286376953 197.4410705566406 230.8838500976562 C 197.4763031005859 230.2740173339844 197.7469482421875 229.7144012451172 198.2031402587891 229.30810546875 C 198.6223449707031 228.9346771240234 199.162353515625 228.7289886474609 199.7235870361328 228.7289886474609 C 200.3755493164062 228.7289886474609 200.9980926513672 229.0080871582031 201.4315948486328 229.4947204589844 L 205.0435180664062 233.5492553710938 C 205.9705810546875 234.5810699462891 205.9689636230469 236.2044067382812 205.0370178222656 237.2418060302734 L 201.4317321777344 241.2890167236328 C 200.9981842041016 241.7756652832031 200.3756103515625 242.0547485351562 199.7236175537109 242.0547485351562 Z" stroke="none" fill="#40c2a4"/>
    </g>
    <g id="Path_31849" data-name="Path 31849" transform="translate(-49.775 -189.953)" fill="url(#linear-gradient)">
      <path d="M 62.07185363769531 241.5559539794922 C 61.56218338012695 241.5559539794922 61.07565307617188 241.3378601074219 60.73702239990234 240.9575958251953 L 57.12515258789062 236.9031066894531 C 56.36430358886719 236.0571441650391 56.36609268188477 234.7270202636719 57.13081359863281 233.876708984375 L 60.73695373535156 229.8285217285156 C 61.07585144042969 229.4482879638672 61.56233215332031 229.2302551269531 62.07174301147461 229.2302551269531 C 62.51008224487305 229.2302551269531 62.93191146850586 229.3909454345703 63.25951385498047 229.6827087402344 C 63.99519348144531 230.3377380371094 64.06080627441406 231.4694061279297 63.40573120117188 232.2053527832031 L 60.56599426269531 235.3932189941406 L 63.40560150146484 238.5808258056641 C 63.72306442260742 238.9371185302734 63.88276290893555 239.3957672119141 63.85523223876953 239.8722686767578 C 63.82770156860352 240.3487548828125 63.61623382568359 240.7859954833984 63.25979232788086 241.1034698486328 C 62.93242263793945 241.3952178955078 62.51049423217773 241.5559539794922 62.07185363769531 241.5559539794922 Z" stroke="none"/>
      <path d="M 62.07173919677734 229.7302551269531 C 61.71734619140625 229.7302398681641 61.3646125793457 229.8757629394531 61.11030197143555 230.1611022949219 L 57.50258255004883 234.2110595703125 C 56.90646362304688 234.8739013671875 56.90646362304688 235.9122619628906 57.49849319458008 236.5705261230469 L 61.11043167114258 240.6250762939453 C 61.58312225341797 241.1558685302734 62.3967399597168 241.202880859375 62.92724227905273 240.7300872802734 C 63.45802307128906 240.2573547363281 63.50498199462891 239.4439392089844 63.03225326538086 238.9134216308594 L 59.8963737487793 235.3932189941406 L 63.03225326538086 231.8729095458984 C 63.50472259521484 231.3421173095703 63.45777130126953 230.5287017822266 62.92698287963867 230.0560913085938 C 62.68173217773438 229.8376770019531 62.3761100769043 229.7302856445312 62.07173919677734 229.7302551269531 M 62.07162094116211 228.7302551269531 L 62.07180404663086 228.7302551269531 C 62.63290405273438 228.7303009033203 63.17280197143555 228.9359436035156 63.592041015625 229.3092956542969 C 64.5335693359375 230.1476287841797 64.61756134033203 231.595947265625 63.77920150756836 232.5377960205078 L 61.23560333251953 235.3932189941406 L 63.7789421081543 238.2482452392578 C 64.18524169921875 238.7042083740234 64.38963317871094 239.2912445068359 64.35440063476562 239.9011077880859 C 64.31916809082031 240.5109405517578 64.04852294921875 241.070556640625 63.59234237670898 241.4768524169922 C 63.17338180541992 241.8502197265625 62.63332366943359 242.0559539794922 62.07185363769531 242.0559539794922 C 61.41965103149414 242.0559539794922 60.79703140258789 241.7768096923828 60.36362457275391 241.2901000976562 L 56.75180435180664 237.2357025146484 C 55.82392120361328 236.2040252685547 55.82571411132812 234.5801696777344 56.7590446472168 233.5423736572266 L 60.36360168457031 229.4959411621094 C 60.79734420776367 229.00927734375 61.41983413696289 228.7302551269531 62.07162094116211 228.7302551269531 Z" stroke="none" fill="#40c2a4"/>
    </g>
    <g id="Path_31850" data-name="Path 31850" fill="url(#linear-gradient)">
      <path d="M 50.05626678466797 74.76258087158203 L 47.72423934936523 74.76258087158203 C 45.85983657836914 74.76258087158203 44.34303665161133 73.24451446533203 44.34303665161133 71.37857818603516 L 44.34303665161133 71.24415588378906 C 43.75383377075195 71.04463958740234 43.17469787597656 70.80461120605469 42.61400985717773 70.52753448486328 L 42.52642822265625 70.61505126953125 C 41.88825607299805 71.25291442871094 41.03857803344727 71.60424041748047 40.13393783569336 71.60424041748047 C 39.22439956665039 71.60289764404297 38.37612915039062 71.25033569335938 37.74042892456055 70.61149597167969 L 36.09540939331055 68.96710968017578 C 34.7799072265625 67.65265655517578 34.77821731567383 65.50888061523438 36.09171676635742 64.18833923339844 L 36.18251419067383 64.09793853759766 C 35.90707778930664 63.54227828979492 35.66776657104492 62.96639251708984 35.46795654296875 62.37843704223633 L 35.33743667602539 62.37843704223633 L 24.98625755310059 62.37843704223633 C 24.0010871887207 62.37843704223633 23.19959831237793 61.57694625854492 23.19959831237793 60.59177780151367 C 23.19959831237793 59.60661697387695 24.0010871887207 58.80512619018555 24.98625755310059 58.80512619018555 L 31.95636749267578 58.80512619018555 L 31.95636749267578 56.66763687133789 C 31.95636749267578 54.80372619628906 33.47316741943359 53.28732681274414 35.33755874633789 53.28732681274414 L 35.46250534057617 53.28732681274414 C 35.65880966186523 52.70672225952148 35.89379501342773 52.1370735168457 36.16422271728516 51.58619689941406 L 36.06447601318359 51.48616790771484 C 35.42940902709961 50.85515594482422 35.07801818847656 50.00838851928711 35.07666778564453 49.10346603393555 C 35.0753173828125 48.19687652587891 35.42688751220703 47.345458984375 36.06659698486328 46.70604705810547 L 37.7116584777832 45.06174850463867 C 38.34997940063477 44.42388916015625 39.19960784912109 44.07262802124023 40.10408782958984 44.07262802124023 L 40.10445785522461 44.07262802124023 L 40.10917663574219 44.07262802124023 C 41.01376724243164 44.07397842407227 41.86202621459961 44.42654800415039 42.49771881103516 45.06538772583008 L 42.57152938842773 45.13897323608398 C 43.12975692749023 44.86059951782227 43.70868301391602 44.61821746826172 44.2999267578125 44.41534423828125 L 44.2999267578125 44.2875862121582 C 44.2999267578125 42.42163848876953 45.81666946411133 40.9035758972168 47.68098831176758 40.9035758972168 L 50.00944900512695 40.9035758972168 C 51.87581634521484 40.9035758972168 53.39421844482422 42.42163848876953 53.39421844482422 44.2875862121582 L 53.39421844482422 44.38103866577148 C 54.00272369384766 44.58486175537109 54.59977340698242 44.8314323425293 55.17694473266602 45.11727523803711 L 55.26749801635742 45.02711868286133 C 55.8870735168457 44.40413284301758 56.71483993530273 44.05432510375977 57.60145950317383 44.04063034057617 L 57.60145950317383 32.07515716552734 L 3.073497772216797 32.07515716552734 L 3.073497772216797 54.91896820068359 C 3.073497772216797 55.94193649291992 3.408937692642212 56.95342636108398 3.993797779083252 57.69407653808594 C 4.55982780456543 58.410888671875 5.285647869110107 58.80564880371094 6.037537574768066 58.80564880371094 L 13.58675765991211 58.80564880371094 C 14.57192802429199 58.80564880371094 15.37341785430908 59.60713958740234 15.37341785430908 60.5922966003418 C 15.37341785430908 61.57746887207031 14.57192802429199 62.37895584106445 13.58675765991211 62.37895584106445 L 6.037537574768066 62.37895584106445 C 2.43275785446167 62.37895584106445 -0.4999422430992126 59.03235626220703 -0.4999422430992126 54.91882705688477 L -0.4999422430992126 18.95611763000488 C -0.4999422430992126 14.84259796142578 2.43275785446167 11.49599742889404 6.037537574768066 11.49599742889404 L 54.63753890991211 11.49599742889404 C 58.24231719970703 11.49599742889404 61.17502593994141 14.84259796142578 61.17502593994141 18.95611763000488 L 61.17502593994141 46.15608978271484 L 61.69272613525391 46.67350769042969 C 62.33246612548828 47.3130989074707 62.68401718139648 48.16454696655273 62.68266677856445 49.0710563659668 C 62.68131637573242 49.9758186340332 62.32844924926758 50.82406616210938 61.68905639648438 51.45955657958984 L 61.60630798339844 51.5425910949707 C 61.88549041748047 52.10608673095703 62.12769317626953 52.69055938720703 62.32942581176758 53.2875862121582 L 62.44333648681641 53.2875862121582 C 63.34608840942383 53.2875862121582 64.19564056396484 53.63941955566406 64.83548736572266 54.27826690673828 C 65.47557067871094 54.9173583984375 65.82799530029297 55.76594924926758 65.82785034179688 56.66771697998047 L 65.82785034179688 58.99839782714844 C 65.82785034179688 60.86222839355469 64.3094482421875 62.37856674194336 62.44307708740234 62.37856674194336 L 62.32002258300781 62.37856674194336 C 62.12042999267578 62.96625518798828 61.8813591003418 63.54235458374023 61.60617828369141 64.09873962402344 L 61.6922492980957 64.18477630615234 C 62.33201599121094 64.82424926757812 62.68362808227539 65.67570495605469 62.68227767944336 66.58229827880859 C 62.68093872070312 67.48704528808594 62.32806777954102 68.33530426025391 61.68867874145508 68.97079467773438 L 60.04855728149414 70.61371612548828 C 59.40921783447266 71.25261688232422 58.55921936035156 71.604248046875 57.65473937988281 71.604248046875 L 57.65432739257812 71.604248046875 L 57.64945602416992 71.604248046875 C 56.74472808837891 71.60276031494141 55.89653778076172 71.25011444091797 55.26114654541016 70.61128997802734 L 55.17682647705078 70.52728271484375 C 54.61429214477539 70.80551147460938 54.03162384033203 71.0467529296875 53.43733596801758 71.24748992919922 L 53.43733596801758 71.37857818603516 C 53.43733596801758 73.24451446533203 51.92059707641602 74.76258087158203 50.05626678466797 74.76258087158203 Z M 47.9167366027832 71.18951416015625 L 49.8641471862793 71.18951416015625 L 49.8641471862793 69.89746856689453 C 49.8641471862793 69.05819702148438 50.43573760986328 68.34175109863281 51.2541389465332 68.15520477294922 C 52.41974639892578 67.88997650146484 53.52253723144531 67.43351745605469 54.53206634521484 66.79846954345703 C 54.81749725341797 66.61904144287109 55.14624786376953 66.52423858642578 55.48290634155273 66.52423858642578 C 55.95904922485352 66.52423858642578 56.40698623657227 66.70919036865234 56.74423599243164 67.04500579833984 L 57.6559944152832 67.95298004150391 L 59.03010559082031 66.576416015625 L 58.12516784667969 65.67203521728516 C 57.53136825561523 65.07878112792969 57.42863845825195 64.16804504394531 57.87539672851562 63.45734786987305 C 58.50903701782227 62.44918823242188 58.96485900878906 61.35089874267578 59.23017883300781 60.19301605224609 C 59.4173583984375 59.37600708007812 60.13353729248047 58.80537796020508 60.97179794311523 58.80537796020508 L 62.25466918945312 58.80537796020508 L 62.25467681884766 56.86139678955078 L 60.97894668579102 56.86139678955078 C 60.13973617553711 56.86139678955078 59.42334747314453 56.28997802734375 59.2368278503418 55.47181701660156 C 58.97019958496094 54.30223846435547 58.51263809204102 53.19813919067383 57.87683868408203 52.19017791748047 C 57.4290771484375 51.48047637939453 57.53019714355469 50.56968688964844 58.12275695800781 49.97535705566406 L 59.03012847900391 49.06531143188477 L 57.65591430664062 47.69195175170898 L 56.74415588378906 48.60004806518555 C 56.40692901611328 48.93586730957031 55.95898818969727 49.12078857421875 55.48281860351562 49.12078857421875 C 55.14687728881836 49.12078857421875 54.81872940063477 49.02638626098633 54.53386688232422 48.84779739379883 C 53.50290679931641 48.20099639892578 52.38772964477539 47.74111938476562 51.21917724609375 47.48085784912109 C 50.39583587646484 47.29756927490234 49.82077789306641 46.58042907714844 49.82077789306641 45.73691940307617 L 49.82077789306641 44.47739791870117 L 47.87322616577148 44.47739791870117 L 47.87322616577148 45.75861740112305 C 47.87322616577148 46.59287643432617 47.30599594116211 47.30826950073242 46.49383926391602 47.49830627441406 C 45.32906723022461 47.77091598510742 44.22932815551758 48.23192596435547 43.22517776489258 48.86853790283203 C 42.93883895874023 49.05021667480469 42.60819625854492 49.14630889892578 42.2691764831543 49.14630889892578 C 41.79304885864258 49.14630889892578 41.34504699707031 48.96129608154297 41.00768661499023 48.62535858154297 L 40.10310745239258 47.72433471679688 L 38.72900772094727 49.09779357910156 L 39.64346694946289 50.01490783691406 C 40.23316955566406 50.60620880126953 40.33625793457031 51.51400756835938 39.89412689208984 52.22247695922852 C 39.26772689819336 53.22621917724609 38.81721878051758 54.31921768188477 38.55509948730469 55.47111892700195 C 38.36870956420898 56.28965759277344 37.65225601196289 56.86127853393555 36.81279754638672 56.86127853393555 L 35.52992630004883 56.86127853393555 L 35.52992630004883 58.80563735961914 L 36.81649780273438 58.80563735961914 C 37.6547966003418 58.80563735961914 38.37103652954102 59.37630844116211 38.55824661254883 60.19340896606445 C 38.82378768920898 61.35277938842773 39.28005599975586 62.44988632202148 39.91438674926758 63.45428848266602 C 40.3643684387207 64.16683959960938 40.26161956787109 65.07975006103516 39.66452789306641 65.67433929443359 L 38.75851058959961 66.57670593261719 L 40.13547134399414 67.95301055908203 L 41.04160690307617 67.04732513427734 C 41.37871932983398 66.71003723144531 41.82748794555664 66.52417755126953 42.30507659912109 66.52417755126953 C 42.64041900634766 66.52417755126953 42.96807861328125 66.61833953857422 43.25263595581055 66.79648590087891 C 44.27336883544922 67.43521881103516 45.37409591674805 67.89097595214844 46.52414703369141 68.15106964111328 C 47.34406661987305 68.33644104003906 47.9167366027832 69.05305480957031 47.9167366027832 69.89376068115234 L 47.9167366027832 71.18951416015625 Z M 3.073487758636475 28.5018367767334 L 57.60156631469727 28.5018367767334 L 57.60156631469727 18.95611763000488 C 57.60156631469727 17.93314743041992 57.26612854003906 16.92165756225586 56.68126678466797 16.18100738525391 C 56.11523818969727 15.46419811248779 55.38941955566406 15.06943798065186 54.63752746582031 15.06943798065186 L 6.037537574768066 15.06943798065186 C 5.285647869110107 15.06943798065186 4.55982780456543 15.46419811248779 3.99378776550293 16.18100738525391 C 3.40892767906189 16.92165756225586 3.073487758636475 17.93314743041992 3.073487758636475 18.95611763000488 L 3.073487758636475 28.5018367767334 Z" stroke="none"/>
      <path d="M 50.05626678466797 74.26258087158203 C 51.64493942260742 74.26258087158203 52.93733596801758 72.96891021728516 52.93733596801758 71.37857818603516 L 52.93733596801758 70.88363647460938 C 53.7451286315918 70.63444519042969 54.52574920654297 70.31112670898438 55.27255630493164 69.9168701171875 L 55.61565780639648 70.25868988037109 C 56.15678787231445 70.80274963378906 56.87934875488281 71.10297393798828 57.65027618408203 71.104248046875 L 57.65473937988281 71.104248046875 C 58.42578887939453 71.104248046875 59.14975738525391 70.80503845214844 59.69470596313477 70.26046752929688 L 61.33620834350586 68.61616516113281 C 61.88064956665039 68.07505035400391 62.18113708496094 67.35247802734375 62.18227767944336 66.58155822753906 C 62.18342590332031 65.80884552001953 61.88396835327148 65.08335113525391 61.3387565612793 64.53839874267578 L 60.99540710449219 64.19517517089844 C 61.38698959350586 63.45346832275391 61.70839691162109 62.67883682250977 61.95681762695312 61.87856674194336 L 62.44307708740234 61.87856674194336 C 64.03379058837891 61.87856674194336 65.32785034179688 60.5865478515625 65.32785034179688 58.99839782714844 L 65.32785034179688 56.66763687133789 C 65.32810974121094 55.07959747314453 64.03404998779297 53.7875862121582 62.44333648681641 53.7875862121582 L 61.96562957763672 53.7875862121582 C 61.71541595458984 52.97710800170898 61.39119720458984 52.19469833374023 60.99565887451172 51.44700622558594 L 61.33658599853516 51.10492706298828 C 61.88103866577148 50.56379699707031 62.1815185546875 49.84123611450195 62.18266677856445 49.07031631469727 C 62.18381881713867 48.297607421875 61.88434600830078 47.57210922241211 61.33926773071289 47.02715682983398 L 60.67502593994141 46.36327743530273 L 60.67502593994141 18.95611763000488 C 60.67502593994141 15.11821746826172 57.96670913696289 11.99599742889404 54.63753890991211 11.99599742889404 L 6.037537574768066 11.99599742889404 C 2.708357810974121 11.99599742889404 5.77587888983544e-05 15.11821746826172 5.77587888983544e-05 18.95611763000488 L 5.77587888983544e-05 54.91882705688477 C 5.77587888983544e-05 58.75673675537109 2.708357810974121 61.87895584106445 6.037537574768066 61.87895584106445 L 13.58675765991211 61.87895584106445 C 14.29732799530029 61.87895584106445 14.87341785430908 61.3028678894043 14.87341785430908 60.5922966003418 C 14.87341785430908 59.88173675537109 14.29732799530029 59.30564880371094 13.58675765991211 59.30564880371094 L 6.037537574768066 59.30564880371094 C 4.159867763519287 59.30564880371094 2.573497772216797 57.29667663574219 2.573497772216797 54.91896820068359 L 2.573497772216797 31.57515716552734 L 58.10145950317383 31.57515716552734 L 58.10145950317383 44.57760620117188 C 57.95484924316406 44.55501937866211 57.80632781982422 44.54021835327148 57.65513610839844 44.54021835327148 C 57.65360641479492 44.54021835327148 57.65207672119141 44.54021835327148 57.65066909790039 44.54021835327148 C 56.8797492980957 44.54149627685547 56.15717697143555 44.84159851074219 55.62026596069336 45.38144683837891 L 55.2724494934082 45.72773742675781 C 54.50904846191406 45.32441711425781 53.71401596069336 44.99636840820312 52.89421844482422 44.74589920043945 L 52.89421844482422 44.2875862121582 C 52.89421844482422 42.69725799560547 51.60015869140625 41.4035758972168 50.00944900512695 41.4035758972168 L 47.68098831176758 41.4035758972168 C 46.09231948852539 41.4035758972168 44.7999267578125 42.69725799560547 44.7999267578125 44.2875862121582 L 44.7999267578125 44.77728652954102 C 43.99556732177734 45.03004837036133 43.21890640258789 45.35528945922852 42.47656631469727 45.75032806396484 L 42.14328765869141 45.41806793212891 C 41.6020393371582 44.87412643432617 40.87934875488281 44.57377624511719 40.10842895507812 44.57262802124023 C 40.10701751708984 44.57262802124023 40.10561752319336 44.57262802124023 40.10408782958984 44.57262802124023 C 39.33303833007812 44.57262802124023 38.60906600952148 44.8718376159668 38.06512832641602 45.41538619995117 L 36.42006683349609 47.05968856811523 C 35.8749885559082 47.60450744628906 35.57551956176758 48.33013916015625 35.57666778564453 49.10271835327148 C 35.57781600952148 49.87364959716797 35.87817764282227 50.59620666503906 36.41853713989258 51.13311767578125 L 36.77388763427734 51.48948669433594 C 36.38816833496094 52.2257080078125 36.07134628295898 52.99368667602539 35.82624816894531 53.78732681274414 L 35.33755874633789 53.78732681274414 C 33.74875640869141 53.78732681274414 32.45636749267578 55.07934951782227 32.45636749267578 56.66763687133789 L 32.45636749267578 58.99839782714844 C 32.45636749267578 59.10199737548828 32.46210861206055 59.20432662963867 32.47282791137695 59.30512619018555 L 24.98625755310059 59.30512619018555 C 24.27567863464355 59.30512619018555 23.69959831237793 59.88120651245117 23.69959831237793 60.59177780151367 C 23.69959831237793 61.3023567199707 24.27567863464355 61.87843704223633 24.98625755310059 61.87843704223633 L 35.83109664916992 61.87843704223633 C 36.07990646362305 62.67960739135742 36.40155792236328 63.45371627807617 36.79391860961914 64.19478607177734 L 36.44621658325195 64.54094696044922 C 35.32683944702148 65.66632843017578 35.32785797119141 67.49334716796875 36.44889831542969 68.61348724365234 L 38.09485626220703 70.25881958007812 C 38.6361083984375 70.80274963378906 39.35880661010742 71.10309600830078 40.12972640991211 71.10424041748047 L 40.13393783569336 71.10424041748047 C 40.90511703491211 71.10424041748047 41.62907791137695 70.80503845214844 42.17300796508789 70.26136016845703 L 42.51763916015625 69.91698455810547 C 43.26533889770508 70.31112670898438 44.04276657104492 70.63317108154297 44.84303665161133 70.88056945800781 L 44.84303665161133 71.37857818603516 C 44.84303665161133 72.96891021728516 46.13543701171875 74.26258087158203 47.72423934936523 74.26258087158203 L 50.05626678466797 74.26258087158203 M 42.30507659912109 67.02417755126953 C 41.97268676757812 67.02417755126953 41.64323806762695 67.15266418457031 41.39507675170898 67.40097045898438 L 40.35403823852539 68.44149017333984 C 40.2758674621582 68.51953125 40.18284606933594 68.53114318847656 40.1336784362793 68.53106689453125 C 40.07536697387695 68.53106689453125 39.99090957641602 68.51587677001953 39.91702651977539 68.44161987304688 L 38.26838684082031 66.79374694824219 C 38.15290832519531 66.67839813232422 38.15419769287109 66.47399139404297 38.2668571472168 66.36069488525391 L 39.31171798706055 65.32003784179688 C 39.7386589050293 64.89488983154297 39.81329727172852 64.23063659667969 39.49163818359375 63.72127914428711 C 38.82699966430664 62.66888809204102 38.34902954101562 61.51951599121094 38.07087707519531 60.30507659912109 C 37.93689727783203 59.72031784057617 37.41656875610352 59.30563735961914 36.81649780273438 59.30563735961914 L 35.33768844604492 59.30563735961914 C 35.17091751098633 59.30563735961914 35.02992630004883 59.16515731811523 35.02992630004883 58.99889755249023 L 35.02992630004883 56.66814804077148 C 35.02992630004883 56.50188827514648 35.17092895507812 56.36127853393555 35.33768844604492 56.36127853393555 L 36.81279754638672 56.36127853393555 C 37.41338729858398 56.36127853393555 37.93422698974609 55.94570922851562 38.06755828857422 55.36017608642578 C 38.34213638305664 54.15352630615234 38.81398773193359 53.00887680053711 39.46994781494141 51.95775604248047 C 39.78662872314453 51.4503173828125 39.71185684204102 50.79154586791992 39.28939819335938 50.36794662475586 L 38.23674774169922 49.31222915649414 C 38.16529846191406 49.24128723144531 38.15023803710938 49.15720748901367 38.15010833740234 49.09927749633789 C 38.15010833740234 49.05078887939453 38.16159820556641 48.9578971862793 38.23942947387695 48.88019943237305 L 39.88436889648438 47.23602676391602 C 39.96232604980469 47.15818786621094 40.05534744262695 47.14644622802734 40.10434722900391 47.14644622802734 L 40.10472869873047 47.14644622802734 C 40.16303634643555 47.14657592773438 40.24749755859375 47.16163635253906 40.32290649414062 47.23755645751953 L 41.36049652099609 48.27105712890625 C 41.78680038452148 48.69556427001953 42.44990539550781 48.76829528808594 42.95745849609375 48.44624710083008 C 44.00883865356445 47.77969741821289 45.16036605834961 47.2968864440918 46.37991714477539 47.01145935058594 C 46.96173858642578 46.87531661987305 47.37322616577148 46.35625839233398 47.37322616577148 45.75861740112305 L 47.37322616577148 44.28796768188477 C 47.37322616577148 44.11966705322266 47.51409912109375 43.97739791870117 47.68086624145508 43.97739791870117 L 50.00931930541992 43.97739791870117 C 50.17812728881836 43.97739791870117 50.32077789306641 44.11966705322266 50.32077789306641 44.28796768188477 L 50.32077789306641 45.73691940307617 C 50.32077789306641 46.33979797363281 50.73928833007812 46.86178588867188 51.32787704467773 46.99281692504883 C 52.55214691162109 47.26548767089844 53.72013854980469 47.74702835083008 54.79945755004883 48.42416763305664 C 55.30664443969727 48.74214553833008 55.9666862487793 48.66863632202148 56.39131927490234 48.24578857421875 L 57.44051742553711 47.20079803466797 C 57.5117073059082 47.12921905517578 57.5960578918457 47.11415863037109 57.65436935424805 47.11403656005859 L 57.65474700927734 47.11403656005859 C 57.7037467956543 47.11403656005859 57.79675674438477 47.12577819824219 57.87458801269531 47.20360946655273 L 59.51965713500977 48.84765625 C 59.59748840332031 48.92548751831055 59.60897827148438 49.01837921142578 59.60897827148438 49.06685638427734 C 59.60884857177734 49.12478637695312 59.59379959106445 49.20886611938477 59.51812744140625 49.28401947021484 L 58.47683715820312 50.32837677001953 C 58.05283737182617 50.75364685058594 57.97934722900391 51.41560745239258 58.29973602294922 51.92342758178711 C 58.96589660644531 52.97952651977539 59.44513702392578 54.13603591918945 59.72431945800781 55.36067962646484 C 59.8577766418457 55.94608688354492 60.37836837768555 56.36139678955078 60.97894668579102 56.36139678955078 L 62.4432258605957 56.36139678955078 C 62.60908889770508 56.36139678955078 62.75467681884766 56.50494766235352 62.75467681884766 56.66825866699219 L 62.75466918945312 58.99864959716797 C 62.75466918945312 59.1620979309082 62.60920715332031 59.30537796020508 62.44320678710938 59.30537796020508 L 60.97179794311523 59.30537796020508 C 60.37184906005859 59.30537796020508 59.85151672363281 59.71993637084961 59.71754837036133 60.3046989440918 C 59.43964767456055 61.51748657226562 58.96231842041016 62.66760635375977 58.2987060546875 63.72345733642578 C 57.97907638549805 64.23191070556641 58.05372619628906 64.89387512207031 58.47861862182617 65.31837463378906 L 59.51977920532227 66.35890960693359 C 59.59760665893555 66.43673706054688 59.60909652709961 66.52962493896484 59.60909652709961 66.57810974121094 C 59.60896682739258 66.63603973388672 59.59391784667969 66.72013092041016 59.51875686645508 66.79463958740234 L 57.87483596801758 68.44149017333984 C 57.79687881469727 68.51932525634766 57.703857421875 68.53106689453125 57.65486907958984 68.53106689453125 C 57.65473937988281 68.53106689453125 57.65461730957031 68.53106689453125 57.65461730957031 68.53106689453125 C 57.59617614746094 68.53106689453125 57.51183700561523 68.51587677001953 57.43642807006836 68.43996429443359 L 56.39142608642578 67.39930725097656 C 55.9664192199707 66.97608184814453 55.30573272705078 66.90271759033203 54.79829788208008 67.22169494628906 C 53.74092864990234 67.8868408203125 52.5859489440918 68.36493682861328 51.36525726318359 68.64270782470703 C 50.77972793579102 68.77616882324219 50.3641471862793 69.29676055908203 50.3641471862793 69.89746856689453 L 50.3641471862793 71.37895965576172 C 50.3641471862793 71.54431915283203 50.22035598754883 71.68951416015625 50.0565185546875 71.68951416015625 L 47.7244873046875 71.68951416015625 C 47.56052780151367 71.68951416015625 47.4167366027832 71.54444885253906 47.4167366027832 71.37895965576172 L 47.4167366027832 69.89376068115234 C 47.4167366027832 69.29254913330078 47.00026702880859 68.77132415771484 46.41385650634766 68.63874816894531 C 45.2087287902832 68.3662109375 44.0557861328125 67.88888549804688 42.98730850219727 67.22029113769531 C 42.77678680419922 67.08848571777344 42.54022598266602 67.02417755126953 42.30507659912109 67.02417755126953 M 6.037537574768066 14.56943798065186 L 54.63752746582031 14.56943798065186 C 56.51519775390625 14.56943798065186 58.10156631469727 16.57840728759766 58.10156631469727 18.95611763000488 L 58.10156631469727 29.0018367767334 L 2.573487758636475 29.00170707702637 L 2.573487758636475 18.95611763000488 C 2.573487758636475 16.57840728759766 4.159867763519287 14.56943798065186 6.037537574768066 14.56943798065186 M 50.05626678466797 75.26258087158203 L 47.72423934936523 75.26258087158203 C 45.65846252441406 75.26258087158203 43.96445846557617 73.63922882080078 43.84928894042969 71.60030364990234 C 43.46410751342773 71.45932006835938 43.08379745483398 71.30166625976562 42.71059417724609 71.12825775146484 C 42.00032806396484 71.75927734375 41.09402465820312 72.10424041748047 40.13393783569336 72.10424041748047 L 40.12824630737305 72.10424041748047 C 39.08991622924805 72.10269927978516 38.11603927612305 71.69781494140625 37.38600921630859 70.96417999267578 L 35.74192810058594 69.32072448730469 C 34.28582382202148 67.86579895019531 34.23181533813477 65.52580261230469 35.58152770996094 64.00160980224609 C 35.41043472290039 63.63421249389648 35.25447082519531 63.25912094116211 35.11449813842773 62.87843704223633 L 24.98625755310059 62.87843704223633 C 23.72538757324219 62.87843704223633 22.69959831237793 61.85264587402344 22.69959831237793 60.59177780151367 C 22.69959831237793 59.33091735839844 23.72538757324219 58.30512619018555 24.98625755310059 58.30512619018555 L 31.45636749267578 58.30512619018555 L 31.45636749267578 56.66763687133789 C 31.45636749267578 54.60572814941406 33.07322311401367 52.91428756713867 35.1059684753418 52.79415512084961 C 35.24314117431641 52.41869735717773 35.39594268798828 52.04826354980469 35.56349182128906 51.68500137329102 C 34.92792129516602 50.98018646240234 34.57810974121094 50.07091903686523 34.57666778564453 49.10420608520508 C 34.57511901855469 48.06373596191406 34.97872924804688 47.08646774291992 35.71312713623047 46.35240936279297 L 37.35818862915039 44.7081184387207 C 38.09097671508789 43.97585678100586 39.06611633300781 43.57262802124023 40.10408782958984 43.57262802124023 L 40.10991668701172 43.57262802124023 C 41.0625 43.57405090332031 41.96083450317383 43.91493988037109 42.6663932800293 44.53772354125977 C 43.03913116455078 44.36296081542969 43.41991424560547 44.20357513427734 43.80648422241211 44.06049728393555 C 43.92433929443359 42.02410125732422 45.61711883544922 40.4035758972168 47.68098831176758 40.4035758972168 L 50.00944900512695 40.4035758972168 C 52.06248092651367 40.4035758972168 53.7486572265625 42.00413131713867 53.88528060913086 44.02272415161133 C 54.28992080688477 44.16925430297852 54.68895721435547 44.33403778076172 55.07999038696289 44.51607131958008 C 55.64771270751953 44.00856018066406 56.34697341918945 43.68535614013672 57.10145950317383 43.57892608642578 L 57.10145950317383 32.57515716552734 L 3.573497772216797 32.57515716552734 L 3.573497772216797 54.91896820068359 C 3.573497772216797 56.72308731079102 4.724917888641357 58.30564880371094 6.037537574768066 58.30564880371094 L 13.58675765991211 58.30564880371094 C 14.84762763977051 58.30564880371094 15.87341785430908 59.33143615722656 15.87341785430908 60.5922966003418 C 15.87341785430908 61.85316848754883 14.84762763977051 62.87895584106445 13.58675765991211 62.87895584106445 L 6.037537574768066 62.87895584106445 C 2.157057762145996 62.87895584106445 -0.9999422430992126 59.30805587768555 -0.9999422430992126 54.91882705688477 L -0.9999422430992126 18.95611763000488 C -0.9999422430992126 14.56688785552979 2.157057762145996 10.99599742889404 6.037537574768066 10.99599742889404 L 54.63753890991211 10.99599742889404 C 58.51802825927734 10.99599742889404 61.67502593994141 14.56688785552979 61.67502593994141 18.95611763000488 L 61.67502593994141 45.94889831542969 L 62.04618835449219 46.31985855102539 C 62.7806396484375 47.05414581298828 63.18421936035156 48.03142929077148 63.18266677856445 49.07180786132812 C 63.18124008178711 50.02940368652344 62.83659744262695 50.93204879760742 62.20729827880859 51.63906860351562 C 62.38319396972656 52.01693725585938 62.54315185546875 52.40298843383789 62.68626022338867 52.79502487182617 C 63.63115692138672 52.85304641723633 64.51218414306641 53.24891662597656 65.18875885009766 53.9244384765625 C 65.92347717285156 54.65801620483398 66.32801818847656 55.63229751586914 66.32785034179688 56.66779708862305 L 66.32785034179688 58.99839782714844 C 66.32785034179688 61.05983734130859 64.71017456054688 62.7509651184082 62.67610168457031 62.87166595458984 C 62.53561401367188 63.25467681884766 62.37895584106445 63.63220596313477 62.20698165893555 64.00217437744141 C 62.83900833129883 64.71375274658203 63.18371200561523 65.62145233154297 63.18227767944336 66.58304595947266 C 63.18073654174805 67.62165069580078 62.77547836303711 68.5955810546875 62.0411491394043 69.325439453125 L 60.40241622924805 70.96696472167969 C 59.66821670532227 71.70066070556641 58.69270706176758 72.104248046875 57.65473937988281 72.104248046875 L 57.64862823486328 72.104248046875 C 56.69045639038086 72.10266876220703 55.78730392456055 71.75772857666016 55.08018112182617 71.12811279296875 C 54.70411682128906 71.30291748046875 54.32031631469727 71.46183013916016 53.93087768554688 71.60400390625 C 53.81378936767578 73.64112091064453 52.12067031860352 75.26258087158203 50.05626678466797 75.26258087158203 Z M 48.4167366027832 70.68951416015625 L 49.3641471862793 70.68951416015625 L 49.3641471862793 69.89746856689453 C 49.3641471862793 68.82334899902344 50.09564590454102 67.90644073486328 51.14302825927734 67.66771697998047 C 52.25364685058594 67.41498565673828 53.3041877746582 66.98017120361328 54.26583862304688 66.375244140625 C 54.63119888305664 66.14556121826172 55.05196762084961 66.02423858642578 55.48290634155273 66.02423858642578 C 56.09220886230469 66.02423858642578 56.66545867919922 66.26092529296875 57.0970458984375 66.69071960449219 L 57.65494537353516 67.24629974365234 L 58.32320404052734 66.57684326171875 L 57.771728515625 66.02569580078125 C 57.01177597045898 65.26644897460938 56.88029861450195 64.10083770751953 57.45209884643555 63.19124603271484 C 58.05577850341797 62.23073959350586 58.49005889892578 61.18439865112305 58.7428092956543 60.08134841918945 C 58.98236846923828 59.03569793701172 59.89896774291992 58.30537796020508 60.97179794311523 58.30537796020508 L 61.75466918945312 58.30537796020508 L 61.75467300415039 57.36139678955078 L 60.97894668579102 57.36139678955078 C 59.9049072265625 57.36139678955078 58.98805618286133 56.63007736206055 58.74933624267578 55.58294677734375 C 58.49530792236328 54.46866607666016 58.05947875976562 53.41692733764648 57.45393753051758 52.45693588256836 C 56.88088607788086 51.54864883422852 57.01029586791992 50.38297653198242 57.7686767578125 49.6223258972168 L 58.32342147827148 49.06594467163086 L 57.65530395507812 48.39824295043945 L 57.09699630737305 48.95431900024414 C 56.66538619995117 49.38411712646484 56.09214782714844 49.62078857421875 55.48281860351562 49.62078857421875 C 55.05281829833984 49.62078857421875 54.63282775878906 49.49997711181641 54.26827621459961 49.27142715454102 C 53.28559875488281 48.6549186706543 52.22324752807617 48.21673583984375 51.11048889160156 47.96889877319336 C 50.05676651000977 47.73432922363281 49.32077789306641 46.81649780273438 49.32077789306641 45.73691940307617 L 49.32077789306641 44.97739791870117 L 48.37322616577148 44.97739791870117 L 48.37322616577148 45.75861740112305 C 48.37322616577148 46.82633590698242 47.64723587036133 47.74192810058594 46.60775756835938 47.98515701293945 C 45.49765777587891 48.24496841430664 44.44964599609375 48.68426895141602 43.49289703369141 49.29081726074219 C 43.1264762878418 49.52331924438477 42.70320892333984 49.64630889892578 42.2691764831543 49.64630889892578 C 41.65988922119141 49.64630889892578 41.08658599853516 49.4095458984375 40.65487670898438 48.97964859008789 L 40.10371780395508 48.43066024780273 L 39.43568801879883 49.0983772277832 L 39.99753952026367 49.66186904907227 C 40.75223922729492 50.41860961914062 40.8841667175293 51.58045959472656 40.31829833984375 52.48718643188477 C 39.72153854370117 53.44345855712891 39.29233932495117 54.48471832275391 39.04262924194336 55.58205795288086 C 38.8040771484375 56.62969589233398 37.88714599609375 57.36127853393555 36.81279754638672 57.36127853393555 L 36.02992630004883 57.36127853393555 L 36.02992630004883 58.30563735961914 L 36.81649780273438 58.30563735961914 C 37.88936614990234 58.30563735961914 38.8060188293457 59.0359992980957 39.04561614990234 60.08174896240234 C 39.29851913452148 61.18594741821289 39.73304748535156 62.23078918457031 40.33713912963867 63.18729782104492 C 40.91303634643555 64.09925842285156 40.78152847290039 65.26764678955078 40.01733779907227 66.02862548828125 L 39.46641540527344 66.57733917236328 L 40.13547515869141 67.24608612060547 L 40.68814849853516 66.69368743896484 C 41.1195068359375 66.26207733154297 41.69387817382812 66.02417755126953 42.30507659912109 66.02417755126953 C 42.73436737060547 66.02417755126953 43.15377807617188 66.14469909667969 43.51795959472656 66.37269592285156 C 44.49078750610352 66.9814453125 45.53938674926758 67.41574096679688 46.63443756103516 67.66337585449219 C 47.68380737304688 67.90062713623047 48.4167366027832 68.81779479980469 48.4167366027832 69.89376068115234 L 48.4167366027832 70.68951416015625 Z M 3.573487758636475 28.0018367767334 L 57.10156631469727 28.0018367767334 L 57.10156631469727 18.95611763000488 C 57.10156631469727 17.15199851989746 55.95014953613281 15.56943798065186 54.63752746582031 15.56943798065186 L 6.037537574768066 15.56943798065186 C 4.724917888641357 15.56943798065186 3.573487758636475 17.15199851989746 3.573487758636475 18.95611763000488 L 3.573487758636475 28.0018367767334 Z" stroke="none" fill="#40c2a4"/>
    </g>
    <g id="Path_31851" data-name="Path 31851" transform="translate(-280.53 -259.677)" fill="url(#linear-gradient)">
      <path d="M 329.42236328125 325.8682556152344 C 324.810791015625 325.8682556152344 321.0590209960938 322.1195983886719 321.0590209960938 317.5119018554688 C 321.0590209960938 312.9022521972656 324.810791015625 309.1520080566406 329.42236328125 309.1520080566406 C 334.0319519042969 309.1520080566406 337.7821350097656 312.9022521972656 337.7821350097656 317.5119018554688 C 337.7821350097656 322.1195983886719 334.0319519042969 325.8682556152344 329.42236328125 325.8682556152344 Z M 329.42236328125 312.7254333496094 C 326.7811889648438 312.7254333496094 324.6324462890625 314.8726196289062 324.6324462890625 317.5119018554688 C 324.6324462890625 320.1492004394531 326.7811889648438 322.2947998046875 329.42236328125 322.2947998046875 C 332.0615539550781 322.2947998046875 334.2086791992188 320.1492004394531 334.2086791992188 317.5119018554688 C 334.2086791992188 314.8726196289062 332.0615539550781 312.7254333496094 329.42236328125 312.7254333496094 Z" stroke="none"/>
      <path d="M 329.42236328125 309.6520080566406 C 325.0864868164062 309.6520080566406 321.5590209960938 313.1779174804688 321.5590209960938 317.5119018554688 C 321.5590209960938 321.8438720703125 325.0864868164062 325.3682556152344 329.42236328125 325.3682556152344 C 333.75634765625 325.3682556152344 337.2821350097656 321.843994140625 337.2821350097656 317.5119018554688 C 337.2821350097656 313.1780395507812 333.75634765625 309.6520080566406 329.42236328125 309.6520080566406 M 329.42236328125 322.7947998046875 C 326.5055541992188 322.7947998046875 324.1324462890625 320.4248962402344 324.1324462890625 317.5119018554688 C 324.1324462890625 314.596923828125 326.5055541992188 312.2254333496094 329.42236328125 312.2254333496094 C 332.3372497558594 312.2254333496094 334.7086791992188 314.596923828125 334.7086791992188 317.5119018554688 C 334.7086791992188 320.4248962402344 332.3370971679688 322.7947998046875 329.42236328125 322.7947998046875 M 329.42236328125 308.6520080566406 C 334.3076477050781 308.6520080566406 338.2821350097656 312.6265563964844 338.2821350097656 317.5119018554688 C 338.2821350097656 322.3953247070312 334.3076477050781 326.3682556152344 329.42236328125 326.3682556152344 C 324.5350952148438 326.3682556152344 320.5590209960938 322.3953247070312 320.5590209960938 317.5119018554688 C 320.5590209960938 312.6265563964844 324.5350952148438 308.6520080566406 329.42236328125 308.6520080566406 Z M 329.42236328125 321.7947998046875 C 331.7858581542969 321.7947998046875 333.7086791992188 319.8735046386719 333.7086791992188 317.5119018554688 C 333.7086791992188 315.1483459472656 331.7858581542969 313.2254333496094 329.42236328125 313.2254333496094 C 327.056884765625 313.2254333496094 325.1324462890625 315.1483459472656 325.1324462890625 317.5119018554688 C 325.1324462890625 319.8735046386719 327.056884765625 321.7947998046875 329.42236328125 321.7947998046875 Z" stroke="none" fill="#40c2a4"/>
    </g>
    <g id="Path_31852" data-name="Path 31852" transform="translate(-123.159 -323.473)" fill="url(#linear-gradient)">
      <path d="M 142.4839324951172 385.8513488769531 L 142.4586639404297 385.8513488769531 C 141.4734954833984 385.8513488769531 140.6719970703125 385.0498352050781 140.6719970703125 384.0646667480469 C 140.6719970703125 383.0794982910156 141.4734954833984 382.2780151367188 142.4586639404297 382.2780151367188 L 142.4839324951172 382.2780151367188 C 143.4690856933594 382.2780151367188 144.2705841064453 383.0794982910156 144.2705841064453 384.0646667480469 C 144.2705841064453 385.0498352050781 143.4690856933594 385.8513488769531 142.4839324951172 385.8513488769531 Z" stroke="none"/>
      <path d="M 142.4586639404297 382.7780151367188 C 141.7480926513672 382.7780151367188 141.1719970703125 383.3541259765625 141.1719970703125 384.0646667480469 C 141.1719970703125 384.7752685546875 141.7480926513672 385.3513488769531 142.4586639404297 385.3513488769531 L 142.4839324951172 385.3513488769531 C 143.1945037841797 385.3513488769531 143.7705841064453 384.7752685546875 143.7705841064453 384.0646667480469 C 143.7705841064453 383.3541259765625 143.1945037841797 382.7780151367188 142.4839324951172 382.7780151367188 L 142.4586639404297 382.7780151367188 M 142.4586639404297 381.7780151367188 L 142.4839324951172 381.7780151367188 C 143.7447967529297 381.7780151367188 144.7705841064453 382.8038024902344 144.7705841064453 384.0646667480469 C 144.7705841064453 385.3255615234375 143.7447967529297 386.3513488769531 142.4839324951172 386.3513488769531 L 142.4586639404297 386.3513488769531 C 141.1977996826172 386.3513488769531 140.1719970703125 385.3255615234375 140.1719970703125 384.0646667480469 C 140.1719970703125 382.8038024902344 141.1977996826172 381.7780151367188 142.4586639404297 381.7780151367188 Z" stroke="none" fill="#40c2a4"/>
    </g>
  </g>
</svg>
