<svg xmlns="http://www.w3.org/2000/svg" width="58.417" height="68.6" viewBox="0 0 58.417 68.6">
  <g id="protection" transform="translate(0 0.001)">
    <g id="surface1" transform="translate(0 -0.001)">
      <path id="Path_31926" data-name="Path 31926" d="M58.349,18.612l0-.053c-.03-.659-.05-1.356-.062-2.132A7.271,7.271,0,0,0,51.439,9.3c-7.887-.44-13.989-3.012-19.2-8.093l-.044-.042a4.39,4.39,0,0,0-5.967,0l-.044.042C20.968,6.292,14.867,8.864,6.979,9.3A7.27,7.27,0,0,0,.134,16.427C.122,17.2.1,17.895.072,18.559l0,.124c-.153,8.043-.344,18.052,3,27.138a34.545,34.545,0,0,0,8.288,12.909,43.354,43.354,0,0,0,16.218,9.593,5.024,5.024,0,0,0,.665.181,4.909,4.909,0,0,0,1.93,0,5.039,5.039,0,0,0,.667-.182,43.383,43.383,0,0,0,16.2-9.6A34.594,34.594,0,0,0,55.33,45.811C58.692,36.7,58.5,26.67,58.349,18.612Zm-6.8,25.806c-3.532,9.576-10.741,16.152-22.04,20.1a1.011,1.011,0,0,1-.128.035.9.9,0,0,1-.354,0,1,1,0,0,1-.127-.034C17.594,60.577,10.38,54,6.851,44.429,3.764,36.054,3.939,26.866,4.093,18.76v-.045c.031-.7.052-1.426.064-2.228A3.231,3.231,0,0,1,7.2,13.324a35.317,35.317,0,0,0,11.987-2.637A31.362,31.362,0,0,0,28.96,4.124a.371.371,0,0,1,.5,0,31.374,31.374,0,0,0,9.769,6.563,35.319,35.319,0,0,0,11.988,2.637,3.231,3.231,0,0,1,3.045,3.163c.012.806.033,1.536.064,2.227C54.478,26.83,54.649,36.026,51.554,44.418Zm0,0" transform="translate(0 0.001)" fill="#40c2a4"/>
      <path id="Path_31927" data-name="Path 31927" d="M107.494,128.41a17.1,17.1,0,1,0,17.1,17.1A17.115,17.115,0,0,0,107.494,128.41Zm0,30.167a13.071,13.071,0,1,1,13.07-13.071A13.085,13.085,0,0,1,107.494,158.577Zm0,0" transform="translate(-78.286 -111.205)" fill="#40c2a4"/>
      <path id="Path_31928" data-name="Path 31928" d="M167.2,212.581l-7.941,7.941-2.155-2.155a2.013,2.013,0,1,0-2.847,2.846l3.579,3.579a2.013,2.013,0,0,0,2.846,0l9.364-9.364a2.013,2.013,0,0,0-2.847-2.846Zm0,0" transform="translate(-133.083 -183.587)" fill="#40c2a4"/>
    </g>
  </g>
</svg>
