<svg xmlns="http://www.w3.org/2000/svg" xmlns:xlink="http://www.w3.org/1999/xlink" width="72.643" height="72.642" viewBox="0 0 72.643 72.642">
  <defs>
    <linearGradient id="linear-gradient" x1="0.5" x2="0.5" y2="1" gradientUnits="objectBoundingBox">
      <stop offset="0" stop-color="#40c2a4"/>
      <stop offset="1" stop-color="#4080c2"/>
    </linearGradient>
  </defs>
  <g id="quality" transform="translate(0 -0.002)">
    <g id="Group_40854" data-name="Group 40854" transform="translate(0 0.003)">
      <path id="Path_31878" data-name="Path 31878" d="M114.443,91.06a23.4,23.4,0,1,0,23.4,23.4A23.431,23.431,0,0,0,114.443,91.06Zm0,42.554a19.149,19.149,0,1,1,19.149-19.149A19.171,19.171,0,0,1,114.443,133.614Z" transform="translate(-78.125 -78.144)" fill="url(#linear-gradient)"/>
      <path id="Path_31879" data-name="Path 31879" d="M187.938,196.683l-11.262,11.262-7.006-7.006a2.128,2.128,0,0,0-3.009,3.009l8.511,8.511a2.127,2.127,0,0,0,3.009,0l12.766-12.766a2.128,2.128,0,0,0-3.009-3.009Z" transform="translate(-142.486 -168.249)" fill="url(#linear-gradient)"/>
      <path id="Path_31880" data-name="Path 31880" d="M69.6,21.405l-7.431-4.448-1.667-6.9a6.356,6.356,0,0,0-6.7-4.866l-8.46.655L40.458,1.535a6.357,6.357,0,0,0-8.278,0L27.3,5.844l-8.46-.655a6.354,6.354,0,0,0-6.678,4.79l-2.32,7.393-6.79,4.034A6.357,6.357,0,0,0,.489,29.279l2.895,7.015L.489,43.309a6.357,6.357,0,0,0,2.558,7.873l7.418,4.42,1.674,6.93a6.353,6.353,0,0,0,6.192,4.886c.449,0-.055.017,8.877-.668l4.971,4.362a6.357,6.357,0,0,0,8.278,0l4.971-4.362L53.8,67.4a6.357,6.357,0,0,0,6.7-4.866l1.667-6.9c9.085-5.438,7.159-4.28,7.431-4.448a6.357,6.357,0,0,0,2.558-7.873l-2.895-7.015,2.895-7.015A6.357,6.357,0,0,0,69.6,21.405Zm-4.605,15.7,3.23,7.827a2.119,2.119,0,0,1-.844,2.619l-8.163,4.886a2.127,2.127,0,0,0-.975,1.326l-1.876,7.77a2.118,2.118,0,0,1-2.232,1.622l-9.266-.717a2.129,2.129,0,0,0-1.568.522l-5.608,4.921a2.118,2.118,0,0,1-2.74,0l-5.607-4.921a2.128,2.128,0,0,0-1.568-.522l-9.266.717a2.118,2.118,0,0,1-2.232-1.622l-1.884-7.8a2.128,2.128,0,0,0-.979-1.328L5.265,47.55a2.119,2.119,0,0,1-.842-2.618l3.23-7.827a2.127,2.127,0,0,0,0-1.623l-3.23-7.827a2.119,2.119,0,0,1,.841-2.617l7.447-4.424a2.127,2.127,0,0,0,.943-1.192c2.744-8.75,2.59-8.237,2.621-8.368a2.116,2.116,0,0,1,2.232-1.622l9.358.724a2.128,2.128,0,0,0,1.572-.526l5.513-4.866a2.119,2.119,0,0,1,2.735,0L43.2,9.63a2.129,2.129,0,0,0,1.572.526l9.358-.724a2.119,2.119,0,0,1,2.232,1.622l1.876,7.77a2.128,2.128,0,0,0,.975,1.326l8.163,4.886a2.119,2.119,0,0,1,.844,2.619l-3.23,7.827A2.128,2.128,0,0,0,64.991,37.105Z" transform="translate(0 -0.003)" fill="url(#linear-gradient)"/>
    </g>
  </g>
</svg>
