<svg xmlns="http://www.w3.org/2000/svg" xmlns:xlink="http://www.w3.org/1999/xlink" width="71.424" height="67.878" viewBox="0 0 71.424 67.878">
  <defs>
    <linearGradient id="linear-gradient" x1="0.5" x2="0.5" y2="1" gradientUnits="objectBoundingBox">
      <stop offset="0" stop-color="#40c2a4"/>
      <stop offset="1" stop-color="#4080c2"/>
    </linearGradient>
  </defs>
  <g id="staff" transform="translate(0.25 0.25)">
    <path id="Path_31881" data-name="Path 31881" d="M49.182,232A1.182,1.182,0,0,0,48,233.182V252.1a1.182,1.182,0,0,0,2.364,0V233.182A1.182,1.182,0,0,0,49.182,232Zm0,0" transform="translate(-40.907 -197.72)" stroke="#40c2a4" stroke-width="0.5" fill="url(#linear-gradient)"/>
    <path id="Path_31882" data-name="Path 31882" d="M17.069,24.824a1.182,1.182,0,0,0,1.182-1.182,1.02,1.02,0,0,0-.071-.378,1.181,1.181,0,0,0-1.016-.828A5.911,5.911,0,0,1,11.821,17a.445.445,0,0,0,0-.13v-.13a1.037,1.037,0,0,1,0-.189v-5.91h4.847a1.182,1.182,0,1,0,0-2.364H10.639A1.182,1.182,0,0,0,9.457,9.457v5.272A7.092,7.092,0,0,1,7.093,9.457V2.364H21.278A7.092,7.092,0,0,1,27.093,5.4a1.182,1.182,0,0,0,1.939-1.347A9.456,9.456,0,0,0,21.278,0H7.093A2.364,2.364,0,0,0,4.729,2.364V9.457a9.457,9.457,0,0,0,4.8,8.275,8.276,8.276,0,0,0,2.364,4.728H8.275A8.274,8.274,0,0,0,0,30.734V54.375a1.182,1.182,0,1,0,2.364,0V30.734a5.911,5.911,0,0,1,5.91-5.91Zm0,0" transform="translate(0 0)" stroke="#40c2a4" stroke-width="0.5" fill="url(#linear-gradient)"/>
    <path id="Path_31883" data-name="Path 31883" d="M91.541,189.626l-.851-3.262h3.854a1.182,1.182,0,1,0,0-2.364H89.176a1.173,1.173,0,0,0-1.147,1.466l1.182,4.728a1.2,1.2,0,0,0,2.329-.568Zm0,0" transform="translate(-74.991 -156.812)" stroke="#40c2a4" stroke-width="0.5" fill="url(#linear-gradient)"/>
    <path id="Path_31884" data-name="Path 31884" d="M417.182,232A1.182,1.182,0,0,0,416,233.182V252.1a1.182,1.182,0,0,0,2.364,0V233.182A1.182,1.182,0,0,0,417.182,232Zm0,0" transform="translate(-354.532 -197.72)" stroke="#40c2a4" stroke-width="0.5" fill="url(#linear-gradient)"/>
    <path id="Path_31885" data-name="Path 31885" d="M312.18,23.263V11.82A11.821,11.821,0,0,0,300.359,0h-2.364a11.822,11.822,0,0,0-9.031,4.22,1.182,1.182,0,1,0,1.809,1.513,9.456,9.456,0,0,1,7.222-3.369h2.364a9.456,9.456,0,0,1,9.457,9.457V22.542a4.817,4.817,0,0,1-.816-.071h-4.019a8.274,8.274,0,0,0,2.47-5.922V9.456a1.182,1.182,0,0,0-1.182-1.182H297.38a1.182,1.182,0,0,0,0,2.364h7.707v5.91a5.911,5.911,0,0,1-5.343,5.91,1.181,1.181,0,0,0-1.016.828,1.02,1.02,0,0,0-.071.378,1.182,1.182,0,0,0,1.182,1.182h3.239l-4.492,8.074a1.185,1.185,0,0,0,2.069,1.158l5.13-9.256h3.109a5.79,5.79,0,0,1,1.714.331h.095a5.911,5.911,0,0,1,3.842,5.58V54.375a1.182,1.182,0,1,0,2.364,0V30.734a8.274,8.274,0,0,0-4.728-7.471Zm0,0" transform="translate(-245.983)" stroke="#40c2a4" stroke-width="0.5" fill="url(#linear-gradient)"/>
    <path id="Path_31886" data-name="Path 31886" d="M141.552,82.006h-3.96a10.635,10.635,0,0,0,3.676-5.852,9.457,9.457,0,0,0,5.012-8.333V65.457A9.456,9.456,0,0,0,136.824,56H117.91a2.364,2.364,0,0,0-2.364,2.364v9.457a9.457,9.457,0,0,0,5.012,8.333,10.635,10.635,0,0,0,3.676,5.852h-3.96A8.274,8.274,0,0,0,112,90.28v23.641a1.182,1.182,0,1,0,2.364,0V90.28a5.911,5.911,0,0,1,5.91-5.91h21.277a5.911,5.911,0,0,1,5.91,5.91v23.641a1.182,1.182,0,1,0,2.364,0V90.28A8.274,8.274,0,0,0,141.552,82.006ZM117.91,67.821V58.364h18.913a7.093,7.093,0,0,1,7.092,7.092v2.364a7.092,7.092,0,0,1-2.364,5.272V64.275a1.182,1.182,0,0,0-1.182-1.182H121.457a1.182,1.182,0,0,0-1.182,1.182v8.818A7.092,7.092,0,0,1,117.91,67.821Zm4.87,7.471a.445.445,0,0,0,0-.13,9.936,9.936,0,0,1-.142-1.253V65.457h16.549v8.452a10.13,10.13,0,0,1-.13,1.253.408.408,0,0,0,0,.13,8.275,8.275,0,0,1-16.266,0Zm0,0" transform="translate(-95.451 -47.726)" stroke="#40c2a4" stroke-width="0.5" fill="url(#linear-gradient)"/>
    <path id="Path_31887" data-name="Path 31887" d="M216.534,263.743a1.182,1.182,0,0,0-1.431.863l-.957,3.865h-2.885l-.922-3.83a1.182,1.182,0,1,0-2.293.568l1.182,4.539L207.975,283a1.182,1.182,0,0,0,.4.993l3.546,3.1a1.183,1.183,0,0,0,1.561,0l3.546-3.1a1.182,1.182,0,0,0,.4-.993l-1.182-13.251,1.182-4.539a1.182,1.182,0,0,0-.9-1.466ZM212.7,284.63l-2.364-1.974,1.04-11.821h2.553l1.135,11.821Zm0,0" transform="translate(-177.241 -224.735)" stroke="#40c2a4" stroke-width="0.5" fill="url(#linear-gradient)"/>
    <path id="Path_31888" data-name="Path 31888" d="M161.182,312A1.182,1.182,0,0,0,160,313.182V332.1a1.182,1.182,0,0,0,2.364,0V313.182A1.182,1.182,0,0,0,161.182,312Zm0,0" transform="translate(-136.358 -265.899)" stroke="#40c2a4" stroke-width="0.5" fill="url(#linear-gradient)"/>
    <path id="Path_31889" data-name="Path 31889" d="M305.182,312A1.182,1.182,0,0,0,304,313.182V332.1a1.182,1.182,0,0,0,2.364,0V313.182A1.182,1.182,0,0,0,305.182,312Zm0,0" transform="translate(-259.081 -265.899)" stroke="#40c2a4" stroke-width="0.5" fill="url(#linear-gradient)"/>
  </g>
</svg>
