<svg xmlns="http://www.w3.org/2000/svg" width="62.311" height="78" viewBox="0 0 62.311 78">
  <g id="study_and_analyze" data-name="study and analyze" transform="translate(-51.492)">
    <path id="Path_31917" data-name="Path 31917" d="M140.228,58.507a1.143,1.143,0,0,0-.368,1.574,21.944,21.944,0,0,1-2.719,26.642,17.308,17.308,0,0,0-4.692,12.005l.016,2.863a3.029,3.029,0,0,1-3.029,3.034h-.8V84.6a2.362,2.362,0,0,0-1.241-2.077v-3.71a11.808,11.808,0,0,1,2.908-6.164,1.742,1.742,0,0,0,.241-1.985c-1.042-1.943-2.187-3.86-3.4-5.7-1.327-2.009-2.771-3.974-4.293-5.842a2.156,2.156,0,0,0-3.291-.013,67.357,67.357,0,0,0-4.406,5.968c-1.177,1.794-2.281,3.667-3.279,5.566a1.743,1.743,0,0,0,.324,2.052,9.26,9.26,0,0,1,2.827,6.132c0,.012,0,.023,0,.034v3.657a2.368,2.368,0,0,0-1.241,2.08v16.236a1.143,1.143,0,1,0,2.285,0V89.807h10.277v14.818H113.023a3.035,3.035,0,0,1-3.03-3.03l-.016-2.757a17.734,17.734,0,0,0-4.761-12.182A21.937,21.937,0,0,1,120.9,49.7l.3,0a22.014,22.014,0,0,1,15.943,6.857,1.143,1.143,0,1,0,1.659-1.571,24.3,24.3,0,0,0-17.6-7.571l-.335,0a24.222,24.222,0,0,0-17.313,40.8,15.459,15.459,0,0,1,4.141,10.625l.016,2.757a5.325,5.325,0,0,0,4.242,5.2l-.018,4.086a1.049,1.049,0,0,0,0,.274l-.008,1.912h0a5.1,5.1,0,0,0,5.1,5.119h8.361a5.107,5.107,0,0,0,5.1-5.075l.028-6.316a5.317,5.317,0,0,0,4.245-5.219l-.016-2.863A15.03,15.03,0,0,1,138.8,88.294a24.229,24.229,0,0,0,3-29.42,1.143,1.143,0,0,0-1.573-.367ZM117.312,79.9h7.8v2.331h-7.8Zm-3.229-8.55c.914-1.712,1.915-3.4,2.979-5.02.941-1.434,1.948-2.842,3.005-4.2v9.828a1.143,1.143,0,0,0,2.285,0V62.179c1.008,1.314,1.973,2.667,2.881,4.042,1.106,1.675,2.153,3.418,3.114,5.185a14.108,14.108,0,0,0-3.061,6.207h-8.1a11.525,11.525,0,0,0-3.107-6.264Zm1.988,16.173V84.6a.086.086,0,0,1,.1-.081h10.1a.082.082,0,0,1,.083.081v2.926Zm12.12,25.586a2.817,2.817,0,0,1-2.811,2.8h-8.36a2.812,2.812,0,0,1-2.811-2.824l0-.912h10.717a1.143,1.143,0,0,0,0-2.285H114.222l.013-2.974,13.983,0Z" transform="translate(-38.562 -40.193)" fill="#fff"/>
    <path id="Path_31918" data-name="Path 31918" d="M249.575,4.4a1.142,1.142,0,0,0,1.143-1.143V1.143a1.143,1.143,0,0,0-2.285,0V3.256A1.142,1.142,0,0,0,249.575,4.4Z" transform="translate(-166.938 0)" fill="#fff"/>
    <path id="Path_31919" data-name="Path 31919" d="M435.26,203.331h-2.047a1.143,1.143,0,0,0,0,2.285h2.047a1.143,1.143,0,0,0,0-2.285Z" transform="translate(-322.6 -172.355)" fill="#fff"/>
    <path id="Path_31920" data-name="Path 31920" d="M54.682,203.331H52.635a1.143,1.143,0,0,0,0,2.285h2.047a1.143,1.143,0,0,0,0-2.285Z" transform="translate(0 -172.355)" fill="#fff"/>
    <path id="Path_31921" data-name="Path 31921" d="M379.446,63.332a1.14,1.14,0,0,0,.821-.347l1.448-1.494a1.143,1.143,0,0,0-1.641-1.59l-1.448,1.494a1.143,1.143,0,0,0,.82,1.938Z" transform="translate(-277.024 -50.48)" fill="#fff"/>
    <path id="Path_31922" data-name="Path 31922" d="M110.964,337.647l-1.448,1.494a1.143,1.143,0,0,0,1.641,1.59l1.448-1.494a1.143,1.143,0,1,0-1.641-1.59Z" transform="translate(-48.912 -285.914)" fill="#fff"/>
    <path id="Path_31923" data-name="Path 31923" d="M380.266,337.647a1.143,1.143,0,1,0-1.641,1.59l1.448,1.494a1.143,1.143,0,0,0,1.641-1.59Z" transform="translate(-277.023 -285.914)" fill="#fff"/>
    <path id="Path_31924" data-name="Path 31924" d="M110.965,62.985a1.143,1.143,0,0,0,1.641-1.59L111.159,59.9a1.143,1.143,0,1,0-1.641,1.59Z" transform="translate(-48.913 -50.48)" fill="#fff"/>
  </g>
</svg>
