<svg xmlns="http://www.w3.org/2000/svg" xmlns:xlink="http://www.w3.org/1999/xlink" width="68.434" height="68.434" viewBox="0 0 68.434 68.434">
  <defs>
    <linearGradient id="linear-gradient" x1="0.5" x2="0.5" y2="1" gradientUnits="objectBoundingBox">
      <stop offset="0" stop-color="#40c2a4"/>
      <stop offset="1" stop-color="#4080c2"/>
    </linearGradient>
  </defs>
  <g id="support_team" data-name="support team" transform="translate(0.25 0.25)">
    <path id="Path_31890" data-name="Path 31890" d="M11.948,52.535a5.539,5.539,0,0,0-2.676.683A31.328,31.328,0,0,1,40.2,3.274a1.327,1.327,0,0,0,.526-2.6A34.22,34.22,0,0,0,33.967,0,33.967,33.967,0,0,0,7.309,55.017a5.575,5.575,0,1,0,4.639-2.482Zm2.064,7.637a2.919,2.919,0,1,1,.855-2.064A2.9,2.9,0,0,1,14.012,60.172Zm0,0" transform="translate(0 0)" stroke="#40c2a4" stroke-width="0.5" fill="url(#linear-gradient)"/>
    <path id="Path_31891" data-name="Path 31891" d="M231.9,40.713a5.561,5.561,0,1,0-1.961,1.8,31.327,31.327,0,0,1-30.872,49.956,1.327,1.327,0,0,0-.521,2.6,34.243,34.243,0,0,0,6.7.66A33.967,33.967,0,0,0,231.9,40.713Zm-6.7-1.025a2.92,2.92,0,1,1,2.064.855A2.9,2.9,0,0,1,225.2,39.688Zm0,0" transform="translate(-171.281 -27.799)" stroke="#40c2a4" stroke-width="0.5" fill="url(#linear-gradient)"/>
    <path id="Path_31892" data-name="Path 31892" d="M92.659,120.97a1.327,1.327,0,0,0,1.327,1.327h8.3a1.327,1.327,0,0,0,1.327-1.327V118.4a20.777,20.777,0,0,0,4.98-2.064l1.816,1.816a1.326,1.326,0,0,0,1.877,0l5.864-5.868a1.327,1.327,0,0,0,0-1.876l-1.814-1.814a20.777,20.777,0,0,0,2.064-4.98h2.562a1.327,1.327,0,0,0,1.327-1.327v-8.3a1.327,1.327,0,0,0-1.327-1.327H118.4a20.781,20.781,0,0,0-2.063-4.979l1.8-1.8a1.327,1.327,0,0,0,0-1.877l-5.869-5.864a1.327,1.327,0,0,0-1.876,0l-1.8,1.8a20.778,20.778,0,0,0-4.98-2.064V75.327A1.327,1.327,0,0,0,102.282,74h-8.3a1.327,1.327,0,0,0-1.327,1.327v2.549a20.76,20.76,0,0,0-4.979,2.063l-1.8-1.8a1.327,1.327,0,0,0-1.876,0L78.134,84a1.326,1.326,0,0,0,0,1.877l1.8,1.8a20.774,20.774,0,0,0-2.064,4.979H75.316a1.327,1.327,0,0,0-1.327,1.326l0,8.3a1.326,1.326,0,0,0,1.327,1.327h2.562a20.778,20.778,0,0,0,2.064,4.98l-1.814,1.814a1.327,1.327,0,0,0,0,1.876l5.864,5.868a1.327,1.327,0,0,0,.938.389h0a1.327,1.327,0,0,0,.938-.389l1.816-1.816a20.794,20.794,0,0,0,4.98,2.064ZM88.2,113.543a1.327,1.327,0,0,0-1.659.176l-1.616,1.616-3.988-3.991,1.614-1.614a1.326,1.326,0,0,0,.176-1.658,18.161,18.161,0,0,1-2.513-6.066,1.327,1.327,0,0,0-1.3-1.048H76.638l0-5.643h2.276a1.327,1.327,0,0,0,1.3-1.048A18.163,18.163,0,0,1,82.728,88.2a1.326,1.326,0,0,0-.176-1.658l-1.6-1.6,3.991-3.988,1.6,1.6a1.328,1.328,0,0,0,1.659.176,18.154,18.154,0,0,1,6.065-2.513,1.328,1.328,0,0,0,1.048-1.3V76.654h5.643v2.265a1.326,1.326,0,0,0,1.048,1.3,18.169,18.169,0,0,1,6.065,2.513,1.326,1.326,0,0,0,1.658-.176l1.6-1.6,3.991,3.988-1.6,1.6a1.327,1.327,0,0,0-.176,1.659,18.174,18.174,0,0,1,2.513,6.065,1.326,1.326,0,0,0,1.3,1.048h2.28v5.643h-2.28a1.327,1.327,0,0,0-1.3,1.048,18.158,18.158,0,0,1-2.513,6.065,1.327,1.327,0,0,0,.176,1.659l1.614,1.614-3.988,3.991-1.616-1.615a1.327,1.327,0,0,0-1.659-.176A18.174,18.174,0,0,1,102,116.056a1.327,1.327,0,0,0-1.048,1.3v2.289H95.313v-2.289a1.328,1.328,0,0,0-1.048-1.3,18.163,18.163,0,0,1-6.065-2.513Zm0,0" transform="translate(-64.168 -64.182)" stroke="#40c2a4" stroke-width="0.5" fill="url(#linear-gradient)"/>
    <path id="Path_31893" data-name="Path 31893" d="M195.3,184.335A10.963,10.963,0,1,0,184.335,195.3,10.976,10.976,0,0,0,195.3,184.335Zm-19.273,0a8.31,8.31,0,1,1,8.31,8.31A8.319,8.319,0,0,1,176.025,184.335Zm0,0" transform="translate(-150.368 -150.368)" stroke="#40c2a4" stroke-width="0.5" fill="url(#linear-gradient)"/>
    <path id="Path_31894" data-name="Path 31894" d="M339.4,20.464a1.328,1.328,0,1,0-.938-.389A1.337,1.337,0,0,0,339.4,20.464Zm0,0" transform="translate(-293.221 -15.446)" stroke="#40c2a4" stroke-width="0.5" fill="url(#linear-gradient)"/>
    <path id="Path_31895" data-name="Path 31895" d="M155.686,474.359a1.327,1.327,0,1,0,.938.389A1.338,1.338,0,0,0,155.686,474.359Zm0,0" transform="translate(-133.878 -411.42)" stroke="#40c2a4" stroke-width="0.5" fill="url(#linear-gradient)"/>
  </g>
</svg>
