<svg xmlns="http://www.w3.org/2000/svg" xmlns:xlink="http://www.w3.org/1999/xlink" width="69.624" height="67.317" viewBox="0 0 69.624 67.317">
  <defs>
    <linearGradient id="linear-gradient" x1="0.5" x2="0.5" y2="1" gradientUnits="objectBoundingBox">
      <stop offset="0" stop-color="#40c2a4"/>
      <stop offset="1" stop-color="#4080c2"/>
    </linearGradient>
  </defs>
  <g id="technical_support" data-name="technical support" transform="translate(1.5 -7)">
    <g id="Group_40823" data-name="Group 40823" transform="translate(0.5 9)">
      <g id="Path_31853" data-name="Path 31853" transform="translate(-0.5 -9)" fill="url(#linear-gradient)">
        <path d="M 35.23458862304688 73.31693267822266 L 31.38941764831543 73.31693267822266 C 29.90701866149902 73.31693267822266 28.45937728881836 72.80129241943359 27.31315803527832 71.864990234375 C 26.39708137512207 71.11669158935547 25.70399284362793 70.12724304199219 25.31149673461914 69.02317047119141 L 23.83368873596191 69.02317047119141 C 19.41675758361816 69.02317047119141 15.25874805450439 67.30873870849609 12.12560749053955 64.19570159912109 C 9.223354339599609 61.31205749511719 7.515300750732422 57.54181671142578 7.256763935089111 53.49270248413086 C 5.261723518371582 53.33041763305664 3.407990455627441 52.47540283203125 1.976807951927185 51.04423141479492 C 0.3796178996562958 49.447021484375 -0.5000020861625671 47.32342910766602 -0.5000020861625671 45.06464004516602 L -0.5000020861625671 39.27101898193359 C -0.5000020861625671 37.0122184753418 0.3796178996562958 34.88862991333008 1.976807951927185 33.29143142700195 C 3.574007987976074 31.69424057006836 5.697597980499268 30.81462097167969 7.956398010253906 30.81462097167969 L 9.579432487487793 30.81462097167969 C 9.689916610717773 27.93916893005371 10.3104944229126 25.14831924438477 11.42834758758545 22.50542068481445 C 12.6246280670166 19.67711067199707 14.33699798583984 17.13723945617676 16.51788711547852 14.95635986328125 C 18.69876861572266 12.77548027038574 21.2386474609375 11.06313037872314 24.06695747375488 9.866849899291992 C 26.99567794799805 8.628109931945801 30.10615730285645 8.000020027160645 33.31199645996094 8.000020027160645 C 36.51787948608398 8.000020027160645 39.62837600708008 8.628109931945801 42.55710601806641 9.866849899291992 C 45.38541793823242 11.06311988830566 47.92529678344727 12.77548027038574 50.10617828369141 14.95635986328125 C 52.28705978393555 17.13723945617676 53.99940872192383 19.67711067199707 55.19568634033203 22.50542068481445 C 56.31353378295898 25.14831924438477 56.93410110473633 27.93916893005371 57.04458236694336 30.81462097167969 L 58.66760635375977 30.81462097167969 C 60.92642974853516 30.81462097167969 63.05001831054688 31.69424057006836 64.64720153808594 33.29143905639648 C 66.24440002441406 34.88864135742188 67.12401580810547 37.01222991943359 67.12401580810547 39.27101898193359 L 67.12401580810547 45.06464004516602 C 67.12401580810547 47.32342910766602 66.24440002441406 49.447021484375 64.64720153808594 51.04423141479492 C 63.04999923706055 52.64141845703125 60.92640686035156 53.52104187011719 58.66760635375977 53.52104187011719 L 55.05547714233398 53.52104187011719 C 54.44114685058594 53.52104187011719 53.86355972290039 53.28178024291992 53.42911911010742 52.84735107421875 C 52.99468612670898 52.41291046142578 52.75542831420898 51.83531951904297 52.75542831420898 51.22098922729492 L 52.75542831420898 31.75052070617676 C 52.75542831420898 21.02939033508301 44.03313827514648 12.30710983276367 33.31199645996094 12.30710983276367 C 22.59086799621582 12.30710983276367 13.86858749389648 21.02939033508301 13.86858749389648 31.75052070617676 L 13.86858749389648 51.22098922729492 C 13.86858749389648 51.83539199829102 13.62938785552979 52.41297149658203 13.19503784179688 52.84733200073242 C 12.76280879974365 53.27933120727539 12.18945121765137 53.51826095581055 11.57933712005615 53.52101516723633 C 12.1440544128418 59.78031921386719 17.4431324005127 64.71607971191406 23.83368873596191 64.71607971191406 L 25.31213760375977 64.71607971191406 C 25.63127517700195 63.81414413452148 26.14763832092285 62.99355697631836 26.83048820495605 62.31069946289062 C 28.04823875427246 61.09296035766602 29.66729736328125 60.42232131958008 31.38941764831543 60.42232131958008 L 35.23458862304688 60.42232131958008 C 38.78963851928711 60.42232131958008 41.68188858032227 63.31457138061523 41.68188858032227 66.86962127685547 C 41.68188858032227 70.4246826171875 38.78963851928711 73.31693267822266 35.23458862304688 73.31693267822266 Z M 31.38941764831543 64.72942352294922 C 30.81776809692383 64.72942352294922 30.28031730651855 64.95204925537109 29.87605857849121 65.35629272460938 C 29.47183799743652 65.76052093505859 29.24920845031738 66.2979736328125 29.24920845031738 66.86962127685547 C 29.24920845031738 68.04974365234375 30.20929718017578 69.00984191894531 31.38941764831543 69.00984191894531 L 35.23458862304688 69.00984191894531 C 36.41469955444336 69.00984191894531 37.37478637695312 68.04974365234375 37.37478637695312 66.86962127685547 C 37.37478637695312 65.68950653076172 36.41469955444336 64.72942352294922 35.23458862304688 64.72942352294922 L 31.38941764831543 64.72942352294922 Z M 57.06251907348633 49.21395111083984 L 58.66760635375977 49.21395111083984 C 59.77591705322266 49.21395111083984 60.81789779663086 48.78234100341797 61.60161972045898 47.99864196777344 C 62.38532638549805 47.21503067016602 62.81691741943359 46.17306137084961 62.81691741943359 45.06464004516602 L 62.81691741943359 39.27101898193359 C 62.81691741943359 38.16259002685547 62.38532638549805 37.12062072753906 61.60165786743164 36.33707046508789 C 60.81790924072266 35.55331039428711 59.77592849731445 35.12171173095703 58.66760635375977 35.12171173095703 L 57.06251907348633 35.12171173095703 L 57.06251907348633 49.21395111083984 Z M 7.956398010253906 35.12171173095703 C 6.848077774047852 35.12171173095703 5.806097984313965 35.55331039428711 5.022387981414795 36.33700942993164 C 4.23869800567627 37.12070846557617 3.807097911834717 38.16270065307617 3.807097911834717 39.27101898193359 L 3.807097911834717 45.06464004516602 C 3.807097911834717 46.17295837402344 4.23869800567627 47.21493911743164 5.022397994995117 47.99864959716797 C 5.806107997894287 48.78234100341797 6.848087787628174 49.21395111083984 7.956398010253906 49.21395111083984 L 9.561497688293457 49.21395111083984 L 9.561497688293457 35.12171173095703 L 7.956398010253906 35.12171173095703 Z" stroke="none"/>
        <path d="M 35.23458862304688 72.31693267822266 C 38.24302673339844 72.31693267822266 40.68188858032227 69.87808227539062 40.68188858032227 66.86962127685547 C 40.68188858032227 63.86117935180664 38.24302673339844 61.42232131958008 35.23458862304688 61.42232131958008 L 31.38941764831543 61.42232131958008 C 29.94466781616211 61.42232131958008 28.55912780761719 61.99628067016602 27.53759765625 63.01779937744141 C 26.79240798950195 63.76300048828125 26.28535842895508 64.70198822021484 26.06567764282227 65.71607971191406 L 23.83368873596191 65.71607971191406 C 16.52276802062988 65.71607971191406 10.5890474319458 59.81901931762695 10.52995777130127 52.52104187011719 L 11.56866836547852 52.52104187011719 C 11.91344833374023 52.52104187011719 12.24400806427002 52.3840217590332 12.48791790008545 52.14023971557617 C 12.73169803619385 51.89645004272461 12.86858749389648 51.56576919555664 12.86858749389648 51.22098922729492 L 12.86858749389648 31.75052070617676 C 12.86858749389648 20.45998954772949 22.0214672088623 11.30710983276367 33.31199645996094 11.30710983276367 C 44.60265731811523 11.30710983276367 53.75542831420898 20.45998954772949 53.75542831420898 31.75052070617676 L 53.75542831420898 51.22098922729492 C 53.75542831420898 51.56576919555664 53.89243698120117 51.89645004272461 54.13622665405273 52.14023971557617 C 54.38000869750977 52.3840217590332 54.71068954467773 52.52104187011719 55.05547714233398 52.52104187011719 L 58.66760635375977 52.52104187011719 C 60.64517974853516 52.52104187011719 62.5417366027832 51.73546981811523 63.94008636474609 50.33712005615234 C 65.33843994140625 48.93877029418945 66.12401580810547 47.04220199584961 66.12401580810547 45.06464004516602 L 66.12401580810547 39.27101898193359 C 66.12401580810547 37.29344940185547 65.33843994140625 35.39688873291016 63.94008636474609 33.99853897094727 C 62.541748046875 32.60018157958984 60.64517974853516 31.81462097167969 58.66760635375977 31.81462097167969 L 56.06251907348633 31.81462097167969 L 56.06251907348633 31.75052070617676 C 56.06251907348633 19.18571090698242 45.87682723999023 9.000020027160645 33.31199645996094 9.000020027160645 C 20.74731826782227 9.000020027160645 10.56149768829346 19.18571090698242 10.56149768829346 31.75052070617676 L 10.56149768829346 31.81462097167969 L 7.956398010253906 31.81462097167969 C 5.978837966918945 31.81462097167969 4.082277774810791 32.60018157958984 2.683917999267578 33.99853897094727 C 1.285567879676819 35.39688873291016 0.4999979138374329 37.29344940185547 0.4999979138374329 39.27101898193359 L 0.4999979138374329 45.06464004516602 C 0.4999979138374329 47.04220199584961 1.285567879676819 48.93875885009766 2.683917999267578 50.33712005615234 C 4.082277774810791 51.73548126220703 5.978837966918945 52.52104187011719 7.956398010253906 52.52104187011719 L 8.222738265991211 52.52104187011719 C 8.281058311462402 61.09228134155273 15.24796772003174 68.02317047119141 23.83368873596191 68.02317047119141 L 26.06451797485352 68.02317047119141 C 26.59386825561523 70.47779083251953 28.77689743041992 72.31693267822266 31.38941764831543 72.31693267822266 L 35.23458862304688 72.31693267822266 M 31.38941764831543 63.72941970825195 L 35.23458862304688 63.72941970825195 C 36.96887969970703 63.72941970825195 38.37478637695312 65.13533020019531 38.37478637695312 66.86962127685547 C 38.37478637695312 68.60391235351562 36.96887969970703 70.00984191894531 35.23458862304688 70.00984191894531 L 31.38941764831543 70.00984191894531 C 29.65512847900391 70.00984191894531 28.24920845031738 68.60391235351562 28.24920845031738 66.86962127685547 C 28.24920845031738 66.03675842285156 28.58002853393555 65.23812103271484 29.16896820068359 64.649169921875 C 29.7579288482666 64.06022644042969 30.55655860900879 63.72941970825195 31.38941764831543 63.72941970825195 M 56.06251907348633 34.12171173095703 L 58.66760635375977 34.12171173095703 C 60.03327941894531 34.12171173095703 61.34306716918945 34.66426086425781 62.30871963500977 35.62990951538086 C 63.27449798583984 36.59555053710938 63.81691741943359 37.90534973144531 63.81691741943359 39.27101898193359 L 63.81691741943359 45.06464004516602 C 63.81691741943359 46.4303092956543 63.27449798583984 47.7401008605957 62.30871963500977 48.70574951171875 C 61.34306716918945 49.67139053344727 60.03327941894531 50.21395111083984 58.66760635375977 50.21395111083984 L 56.06251907348633 50.21395111083984 L 56.06251907348633 34.12171173095703 M 7.956398010253906 34.12171173095703 L 10.56149768829346 34.12171173095703 L 10.56149768829346 50.21395111083984 L 7.956398010253906 50.21395111083984 C 6.590727806091309 50.21395111083984 5.280937671661377 49.67139053344727 4.315288066864014 48.70574951171875 C 3.349647998809814 47.7401008605957 2.807097911834717 46.4303092956543 2.807097911834717 45.06464004516602 L 2.807097911834717 39.27101898193359 C 2.807097911834717 37.90533828735352 3.349647998809814 36.59555053710938 4.315288066864014 35.62990188598633 C 5.280937671661377 34.66426086425781 6.590727806091309 34.12171173095703 7.956398010253906 34.12171173095703 M 35.23458862304688 74.31693267822266 L 31.38941764831543 74.31693267822266 C 29.6771183013916 74.31693267822266 28.00480842590332 73.72119140625 26.68053817749023 72.63945007324219 C 25.8106517791748 71.92887878417969 25.11477470397949 71.02961730957031 24.64284324645996 70.02317047119141 L 23.83368873596191 70.02317047119141 C 21.46702766418457 70.02317047119141 19.16936874389648 69.56102752685547 17.00451850891113 68.64958953857422 C 14.91453742980957 67.76966094970703 13.03589820861816 66.50982666015625 11.42077827453613 64.90508270263672 C 9.806198120117188 63.30084991455078 8.534518241882324 61.43099975585938 7.641057968139648 59.34746170043945 C 6.958980083465576 57.75686645507812 6.520423889160156 56.09305572509766 6.330653190612793 54.38115310668945 C 5.650058269500732 54.26255416870117 4.983694076538086 54.06884765625 4.337597846984863 53.80123138427734 C 3.184467792510986 53.32358932495117 2.152277946472168 52.6338996887207 1.269707918167114 51.7513313293457 C 0.3871378898620605 50.86875915527344 -0.3025420904159546 49.83657073974609 -0.7801821231842041 48.68344116210938 C -1.257822036743164 47.53031921386719 -1.500002145767212 46.31277847290039 -1.500002145767212 45.06464004516602 L -1.500002145767212 39.27101898193359 C -1.500002145767212 38.02288055419922 -1.257822036743164 36.80533981323242 -0.7801821231842041 35.6522102355957 C -0.3025420904159546 34.49908065795898 0.3871378898620605 33.46688842773438 1.269707918167114 32.58433151245117 C 2.152277946472168 31.70175933837891 3.184467792510986 31.01206970214844 4.337597846984863 30.5344295501709 C 5.490717887878418 30.05680084228516 6.708257675170898 29.81462097167969 7.956398010253906 29.81462097167969 L 8.635560035705566 29.81462097167969 C 8.840012550354004 27.15705490112305 9.467098236083984 24.57528877258301 10.50734806060791 22.11586952209473 C 11.75404834747314 19.16835975646973 13.53837776184082 16.52165031433105 15.81077766418457 14.2492504119873 C 18.08317756652832 11.97686004638672 20.72989845275879 10.19254016876221 23.67740821838379 8.945850372314453 C 26.73005867004395 7.654690265655518 29.97159767150879 7.000020027160645 33.31199645996094 7.000020027160645 C 36.65242767333984 7.000020027160645 39.89399719238281 7.654690265655518 42.94665908813477 8.945850372314453 C 45.89416885375977 10.19254016876221 48.54088973999023 11.97686004638672 50.81327819824219 14.2492504119873 C 53.08567810058594 16.52165031433105 54.86999893188477 19.16835975646973 56.1166877746582 22.11586952209473 C 57.15692901611328 24.57528877258301 57.78400802612305 27.15705490112305 57.98845672607422 29.81462097167969 L 58.66760635375977 29.81462097167969 C 59.91574859619141 29.81462097167969 61.13329696655273 30.05680084228516 62.28641891479492 30.5344295501709 C 63.43955612182617 31.01206970214844 64.47174835205078 31.70175933837891 65.35430908203125 32.5843391418457 C 66.23686981201172 33.46688842773438 66.92654418945312 34.49908065795898 67.40419769287109 35.6522102355957 C 67.8818359375 36.80532836914062 68.12401580810547 38.02288055419922 68.12401580810547 39.27101898193359 L 68.12401580810547 45.06464004516602 C 68.12401580810547 46.31277847290039 67.8818359375 47.53031921386719 67.40419769287109 48.68344879150391 C 66.92654418945312 49.83657836914062 66.23686981201172 50.86877059936523 65.35430145263672 51.7513313293457 C 64.47174072265625 52.6338996887207 63.43954849243164 53.32358169555664 62.28641891479492 53.80121994018555 C 61.1332893371582 54.27886199951172 59.91574859619141 54.52104187011719 58.66760635375977 54.52104187011719 L 55.05547714233398 54.52104187011719 C 54.17403793334961 54.52104187011719 53.34532928466797 54.17776870727539 52.72201919555664 53.55445098876953 C 52.09869766235352 52.9311408996582 51.75542831420898 52.1024284362793 51.75542831420898 51.22098922729492 L 51.75542831420898 31.75052070617676 C 51.75542831420898 21.58078956604004 43.48173904418945 13.30710983276367 33.31199645996094 13.30710983276367 C 23.14226722717285 13.30710983276367 14.86858749389648 21.58078956604004 14.86858749389648 31.75052070617676 L 14.86858749389648 51.22098922729492 C 14.86858749389648 52.10248947143555 14.52536773681641 52.93119049072266 13.9021577835083 53.55442047119141 C 13.55389213562012 53.90250015258789 13.14183712005615 54.16319274902344 12.69241714477539 54.32559204101562 C 13.6080904006958 59.64450454711914 18.27083206176758 63.71607971191406 23.83368873596191 63.71607971191406 L 24.64211654663086 63.71607971191406 C 25.00679969787598 62.9353141784668 25.5062255859375 62.22076034545898 26.12337875366211 61.60359954833984 C 27.53000831604004 60.19697189331055 29.40018844604492 59.42232131958008 31.38941764831543 59.42232131958008 L 35.23458862304688 59.42232131958008 C 39.34104919433594 59.42232131958008 42.68188858032227 62.76316070556641 42.68188858032227 66.86962127685547 C 42.68188858032227 70.97608184814453 39.34104919433594 74.31693267822266 35.23458862304688 74.31693267822266 Z M 31.38941764831543 65.72942352294922 C 31.08487701416016 65.72942352294922 30.79853820800781 65.84803009033203 30.58315849304199 66.06340789794922 C 30.36781883239746 66.27874755859375 30.24920845031738 66.56507873535156 30.24920845031738 66.86962127685547 C 30.24920845031738 67.49833679199219 30.76070785522461 68.00984191894531 31.38941764831543 68.00984191894531 L 35.23458862304688 68.00984191894531 C 35.86329650878906 68.00984191894531 36.37478637695312 67.49833679199219 36.37478637695312 66.86962127685547 C 36.37478637695312 66.24091339111328 35.86329650878906 65.72942352294922 35.23458862304688 65.72942352294922 L 31.38941764831543 65.72942352294922 Z M 58.06251907348633 48.21395111083984 L 58.66760635375977 48.21395111083984 C 59.50880813598633 48.21395111083984 60.29967880249023 47.88636016845703 60.89450836181641 47.29153060913086 C 61.4893684387207 46.69675827026367 61.81691741943359 45.90592956542969 61.81691741943359 45.06464004516602 L 61.81691741943359 39.27101898193359 C 61.81691741943359 38.42972946166992 61.4893684387207 37.63890075683594 60.89460754394531 37.04423141479492 C 60.29967880249023 36.44929885864258 59.50881958007812 36.12171173095703 58.66760635375977 36.12171173095703 L 58.06251907348633 36.12171173095703 L 58.06251907348633 48.21395111083984 Z M 7.956398010253906 36.12171173095703 C 7.115188121795654 36.12171173095703 6.324327945709229 36.44929885864258 5.729497909545898 37.04412078857422 C 5.134687900543213 37.63893890380859 4.807097911834717 38.42980194091797 4.807097911834717 39.27101898193359 L 4.807097911834717 45.06464004516602 C 4.807097911834717 45.90584945678711 5.134687900543213 46.69670867919922 5.729507923126221 47.29154205322266 C 6.324327945709229 47.88636016845703 7.115198135375977 48.21395111083984 7.956398010253906 48.21395111083984 L 8.561497688293457 48.21395111083984 L 8.561497688293457 36.12171173095703 L 7.956398010253906 36.12171173095703 Z" stroke="none" fill="#40c2a4"/>
      </g>
    </g>
  </g>
</svg>
