<svg xmlns="http://www.w3.org/2000/svg" xmlns:xlink="http://www.w3.org/1999/xlink" width="64.308" height="64.541" viewBox="0 0 64.308 64.541">
  <defs>
    <linearGradient id="linear-gradient" x1="0.5" x2="0.5" y2="1" gradientUnits="objectBoundingBox">
      <stop offset="0" stop-color="#40c2a4"/>
      <stop offset="1" stop-color="#4080c2"/>
    </linearGradient>
  </defs>
  <g id="web_hosting" data-name="web hosting" transform="translate(-0.379 0.5)">
    <g id="Group_40825" data-name="Group 40825" transform="translate(0.879 0)">
      <g id="Group_40824" data-name="Group 40824">
        <path id="Path_31862" data-name="Path 31862" d="M56.775,15.9a7.532,7.532,0,0,0-2.277.35,13.532,13.532,0,0,0,.106-1.674A14.822,14.822,0,0,0,26.018,9.326,9.126,9.126,0,0,0,12.084,16.91,7.562,7.562,0,0,0,8.29,15.9a7.411,7.411,0,1,0,0,14.822,1.059,1.059,0,1,0,0-2.117,5.294,5.294,0,1,1,4.553-8.134,1.059,1.059,0,0,0,1.868-.976,6.722,6.722,0,0,1-.512-2.536,6.959,6.959,0,0,1,7.019-6.882,7.072,7.072,0,0,1,4.643,1.762,1.059,1.059,0,0,0,1.716-.516,12.7,12.7,0,0,1,24.9,3.254,12.281,12.281,0,0,1-.461,3.282,1.059,1.059,0,0,0,1.627,1.151,5.428,5.428,0,0,1,3.13-.992,5.294,5.294,0,1,1,0,10.587,1.059,1.059,0,0,0,0,2.117,7.411,7.411,0,1,0,0-14.822Z" transform="translate(-0.879 0)" stroke="#40c2a4" stroke-width="1" fill="url(#linear-gradient)"/>
      </g>
    </g>
    <g id="Group_40827" data-name="Group 40827" transform="translate(11.355 40.248)">
      <g id="Group_40826" data-name="Group 40826">
        <path id="Path_31863" data-name="Path 31863" d="M119.212,304.119h-36a3.176,3.176,0,0,0-3.176,3.176v4.235a3.176,3.176,0,0,0,3.176,3.176h36a3.176,3.176,0,0,0,3.176-3.176V307.3A3.176,3.176,0,0,0,119.212,304.119Zm1.059,7.411a1.059,1.059,0,0,1-1.059,1.059h-36a1.059,1.059,0,0,1-1.059-1.059V307.3a1.059,1.059,0,0,1,1.059-1.059h36a1.059,1.059,0,0,1,1.059,1.059Z" transform="translate(-80.039 -304.119)" stroke="#40c2a4" stroke-width="1" fill="url(#linear-gradient)"/>
      </g>
    </g>
    <g id="Group_40829" data-name="Group 40829" transform="translate(45.553 43.49)">
      <g id="Group_40828" data-name="Group 40828">
        <path id="Path_31864" data-name="Path 31864" d="M340.478,328.615a2.052,2.052,0,1,0,2.065,2.039A2.052,2.052,0,0,0,340.478,328.615Zm.025,2.119c-.032,0-.053-.035-.053-.067l.053-.066Z" transform="translate(-338.439 -328.615)" stroke="#40c2a4" stroke-width="1" fill="url(#linear-gradient)"/>
      </g>
    </g>
    <g id="Group_40831" data-name="Group 40831" transform="translate(15.378 44.483)">
      <g id="Group_40830" data-name="Group 40830">
        <path id="Path_31865" data-name="Path 31865" d="M131.614,336.119H111.5a1.059,1.059,0,0,0,0,2.117h20.116a1.059,1.059,0,0,0,0-2.117Z" transform="translate(-110.439 -336.119)" stroke="#40c2a4" stroke-width="1" fill="url(#linear-gradient)"/>
      </g>
    </g>
    <g id="Group_40833" data-name="Group 40833" transform="translate(39.216 44.483)">
      <g id="Group_40832" data-name="Group 40832">
        <path id="Path_31866" data-name="Path 31866" d="M294.434,336.119h-2.816a1.059,1.059,0,1,0,0,2.117h2.816a1.059,1.059,0,1,0,0-2.117Z" transform="translate(-290.559 -336.119)" stroke="#40c2a4" stroke-width="1" fill="url(#linear-gradient)"/>
      </g>
    </g>
    <g id="Group_40835" data-name="Group 40835" transform="translate(11.355 52.953)">
      <g id="Group_40834" data-name="Group 40834">
        <path id="Path_31867" data-name="Path 31867" d="M119.212,400.119h-36a3.176,3.176,0,0,0-3.176,3.176v4.235a3.176,3.176,0,0,0,3.176,3.176h36a3.176,3.176,0,0,0,3.176-3.176V403.3A3.176,3.176,0,0,0,119.212,400.119Zm1.059,7.411a1.059,1.059,0,0,1-1.059,1.059h-36a1.059,1.059,0,0,1-1.059-1.059V403.3a1.059,1.059,0,0,1,1.059-1.059h36a1.059,1.059,0,0,1,1.059,1.059Z" transform="translate(-80.039 -400.119)" stroke="#40c2a4" stroke-width="1" fill="url(#linear-gradient)"/>
      </g>
    </g>
    <g id="Group_40837" data-name="Group 40837" transform="translate(45.553 56.195)">
      <g id="Group_40836" data-name="Group 40836">
        <path id="Path_31868" data-name="Path 31868" d="M340.478,424.615a2.052,2.052,0,1,0,2.065,2.039A2.052,2.052,0,0,0,340.478,424.615Zm.025,2.119c-.032,0-.053-.035-.053-.067l.053-.066Z" transform="translate(-338.439 -424.615)" stroke="#40c2a4" stroke-width="1" fill="url(#linear-gradient)"/>
      </g>
    </g>
    <g id="Group_40839" data-name="Group 40839" transform="translate(15.378 57.188)">
      <g id="Group_40838" data-name="Group 40838">
        <path id="Path_31869" data-name="Path 31869" d="M131.614,432.119H111.5a1.059,1.059,0,1,0,0,2.117h20.116a1.059,1.059,0,0,0,0-2.117Z" transform="translate(-110.439 -432.119)" stroke="#40c2a4" stroke-width="1" fill="url(#linear-gradient)"/>
      </g>
    </g>
    <g id="Group_40841" data-name="Group 40841" transform="translate(39.216 57.188)">
      <g id="Group_40840" data-name="Group 40840">
        <path id="Path_31870" data-name="Path 31870" d="M294.434,432.119h-2.816a1.059,1.059,0,1,0,0,2.117h2.816a1.059,1.059,0,1,0,0-2.117Z" transform="translate(-290.559 -432.119)" stroke="#40c2a4" stroke-width="1" fill="url(#linear-gradient)"/>
      </g>
    </g>
    <g id="Group_40843" data-name="Group 40843" transform="translate(11.355 27.543)">
      <g id="Group_40842" data-name="Group 40842">
        <path id="Path_31871" data-name="Path 31871" d="M119.212,208.119h-36a3.176,3.176,0,0,0-3.176,3.176v4.235a3.176,3.176,0,0,0,3.176,3.176h36a3.176,3.176,0,0,0,3.176-3.176V211.3A3.176,3.176,0,0,0,119.212,208.119Zm1.059,7.411a1.059,1.059,0,0,1-1.059,1.059h-36a1.059,1.059,0,0,1-1.059-1.059V211.3a1.059,1.059,0,0,1,1.059-1.059h36a1.059,1.059,0,0,1,1.059,1.059Z" transform="translate(-80.039 -208.119)" stroke="#40c2a4" stroke-width="1" fill="url(#linear-gradient)"/>
      </g>
    </g>
    <g id="Group_40845" data-name="Group 40845" transform="translate(45.225 30.847)">
      <g id="Group_40844" data-name="Group 40844">
        <path id="Path_31872" data-name="Path 31872" d="M340.064,234.785a2.07,2.07,0,0,0-3.726-.827,2.025,2.025,0,0,0-.341,1.53,2.072,2.072,0,0,0,2.037,1.7,2.124,2.124,0,0,0,.345-.029,2.045,2.045,0,0,0,1.344-.847A2.019,2.019,0,0,0,340.064,234.785Zm-2.084.373.048-.084.005.132C337.986,235.206,337.982,235.18,337.98,235.158Z" transform="translate(-335.965 -233.084)" stroke="#40c2a4" stroke-width="1" fill="url(#linear-gradient)"/>
      </g>
    </g>
    <g id="Group_40847" data-name="Group 40847" transform="translate(15.167 31.778)">
      <g id="Group_40846" data-name="Group 40846">
        <path id="Path_31873" data-name="Path 31873" d="M130.014,240.119H109.9a1.059,1.059,0,0,0,0,2.118h20.116a1.059,1.059,0,0,0,0-2.118Z" transform="translate(-108.839 -240.119)" stroke="#40c2a4" stroke-width="1" fill="url(#linear-gradient)"/>
      </g>
    </g>
    <g id="Group_40849" data-name="Group 40849" transform="translate(38.54 31.778)">
      <g id="Group_40848" data-name="Group 40848">
        <path id="Path_31874" data-name="Path 31874" d="M289.322,240.119h-2.816a1.059,1.059,0,0,0,0,2.118h2.816a1.059,1.059,0,1,0,0-2.118Z" transform="translate(-285.447 -240.119)" stroke="#40c2a4" stroke-width="1" fill="url(#linear-gradient)"/>
      </g>
    </g>
    <g id="Group_40851" data-name="Group 40851" transform="translate(19.838 13.78)">
      <g id="Group_40850" data-name="Group 40850">
        <path id="Path_31875" data-name="Path 31875" d="M152.284,107.607l-3.176-3.176a1.059,1.059,0,0,0-1.5,0l-3.176,3.176a1.059,1.059,0,0,0,1.5,1.5l1.369-1.369v6.973a1.059,1.059,0,1,0,2.117,0v-6.973l1.369,1.369a1.059,1.059,0,0,0,1.5-1.5Z" transform="translate(-144.138 -104.121)" stroke="#40c2a4" stroke-width="1" fill="url(#linear-gradient)"/>
      </g>
    </g>
    <g id="Group_40853" data-name="Group 40853" transform="translate(36.778 13.779)">
      <g id="Group_40852" data-name="Group 40852">
        <path id="Path_31876" data-name="Path 31876" d="M280.258,110.782a1.059,1.059,0,0,0-1.471,0l-1.369,1.369v-6.973a1.059,1.059,0,0,0-2.118,0v6.973l-1.369-1.369a1.059,1.059,0,0,0-1.5,1.5l3.176,3.176a1.059,1.059,0,0,0,1.5,0l3.176-3.176A1.059,1.059,0,0,0,280.258,110.782Z" transform="translate(-272.138 -104.119)" stroke="#40c2a4" stroke-width="1" fill="url(#linear-gradient)"/>
      </g>
    </g>
  </g>
</svg>
