<svg xmlns="http://www.w3.org/2000/svg" width="607" height="510.625" viewBox="0 0 607 510.625">
  <g id="Group_40875" data-name="Group 40875" transform="translate(-24 -5471.685)">
    <g id="freepik--Floor--inject-2" transform="translate(69 5657.843)">
      <ellipse id="Ellipse_30" data-name="Ellipse 30" cx="281" cy="162.234" rx="281" ry="162.234" fill="#fff"/>
    </g>
    <g id="Website_designer-cuate" data-name="Website designer-cuate" transform="translate(-31.93 5432.985)">
      <g id="freepik--background-complete--inject-108" transform="translate(56.26 38.7)">
        <path id="Path_31975" data-name="Path 31975" d="M548.519,83.748l7.59-12.242-3.772-2.316a3.406,3.406,0,0,1-1.557-3.232,20.223,20.223,0,0,0,.064-2.106,3.488,3.488,0,0,1,1.831-3.15l3.891-2.078-6.812-12.7L545.873,48a3.369,3.369,0,0,1-3.525-.183,17.225,17.225,0,0,0-1.95-1.209,3.369,3.369,0,0,1-1.795-3.058l.137-4.4L524.347,38.7l-.119,4.4a3.4,3.4,0,0,1-1.95,2.957c-.339.156-.678.32-1.007.494l-.971.559a3.369,3.369,0,0,1-3.525,0L513,44.771l-7.6,12.242,3.781,2.344a3.424,3.424,0,0,1,1.566,3.223,19.968,19.968,0,0,0-.073,2.1,3.461,3.461,0,0,1-1.785,3.141L505,69.9l6.812,12.7,3.891-2.088a3.452,3.452,0,0,1,3.608.256q.87.586,1.785,1.1a3.406,3.406,0,0,1,1.831,3.076l-.137,4.45,14.4.449.137-4.422a3.4,3.4,0,0,1,2-2.967,9.514,9.514,0,0,0,.916-.485c.275-.174.613-.339.916-.522a3.443,3.443,0,0,1,3.6,0Zm-10.887-9.9A11.8,11.8,0,1,1,541.8,60.116a11.8,11.8,0,0,1-4.166,13.734Z" transform="translate(-94.156 -38.7)" fill="#ebebeb"/>
        <path id="Path_31976" data-name="Path 31976" d="M66.614,159.815a2.4,2.4,0,0,1,1.181,2.225q0,.371,0,.742v.751a2.381,2.381,0,0,1-1.172,2.216L63.94,167.3l5.045,8.744,2.683-1.547a2.362,2.362,0,0,1,2.509.092c.421.266.852.522,1.3.751a2.408,2.408,0,0,1,1.337,2.133v3.086H86.885v-3.086a2.4,2.4,0,0,1,1.318-2.133,11.789,11.789,0,0,0,1.3-.751,2.381,2.381,0,0,1,2.518-.092l2.683,1.547L99.75,167.3l-2.692-1.557a2.381,2.381,0,0,1-1.172-2.216q0-.371,0-.742v-.742a2.39,2.39,0,0,1,1.181-2.225l2.683-1.547L94.7,149.523l-2.674,1.547a2.417,2.417,0,0,1-2.518-.082,14.172,14.172,0,0,0-1.3-.76,2.39,2.39,0,0,1-1.328-2.133V145H76.813v3.086a2.408,2.408,0,0,1-1.328,2.133,14.324,14.324,0,0,0-1.309.76,2.4,2.4,0,0,1-2.509.082l-2.674-1.547-5.045,8.744Zm15.236-5.3a8.241,8.241,0,1,1-8.241,8.241,8.241,8.241,0,0,1,8.241-8.241Z" transform="translate(-56.936 -47.67)" fill="#ebebeb"/>
        <path id="Path_31977" data-name="Path 31977" d="M649.613,189.075a2.408,2.408,0,0,1,1.172,2.225c0,.247,0,.494,0,.751v.742a2.408,2.408,0,0,1-1.172,2.225l-2.683,1.547,5.045,8.735,2.683-1.538a2.4,2.4,0,0,1,2.518.082,11.416,11.416,0,0,0,1.3.751,2.4,2.4,0,0,1,1.318,2.133v3.095h10.072v-3.095a2.408,2.408,0,0,1,1.328-2.133,12.279,12.279,0,0,0,1.3-.751,2.38,2.38,0,0,1,2.509-.082l2.683,1.538,5.045-8.735-2.692-1.557a2.4,2.4,0,0,1-1.172-2.216q0-.375,0-.742V191.3a2.408,2.408,0,0,1,1.181-2.225l2.683-1.547-5.045-8.735-2.674,1.538a2.381,2.381,0,0,1-2.509-.082,14.222,14.222,0,0,0-1.309-.751,2.408,2.408,0,0,1-1.328-2.133V174.27H659.813v3.095a2.39,2.39,0,0,1-1.328,2.133,14.068,14.068,0,0,0-1.3.751,2.4,2.4,0,0,1-2.518.082l-2.674-1.538-5.045,8.735Zm15.227-5.3a8.241,8.241,0,1,1-8.241,8.24,8.24,8.24,0,0,1,8.241-8.24Z" transform="translate(-106.133 -50.141)" fill="#ebebeb"/>
        <path id="Path_31978" data-name="Path 31978" d="M689.216,120.317H687.87v-.888h.449v-.449h.9Z" transform="translate(-109.588 -45.475)" fill="#ebebeb"/>
        <path id="Path_31979" data-name="Path 31979" d="M680.491,120.356h-1.758v-.916h1.785Zm-3.571,0h-1.785v-.916H676.9Zm-3.562,0h-1.831v-.916h1.831Zm-3.571,0h-1.831v-.916h1.831Zm-3.571,0h-1.831v-.916h1.831Zm-3.571,0H660.86v-.916h1.785Zm-3.571,0h-1.785v-.916h1.785Zm-3.571,0h-1.831v-.916H655.5Zm-3.571,0H650.1v-.916h1.831Zm-3.571,0h-1.831v-.916h1.831Zm-3.571,0h-1.767v-.916h1.785Zm-3.571,0h-1.785v-.916h1.758Zm-3.571,0h-1.831v-.916h1.831Zm-3.571,0h-1.831v-.916h1.831Zm-3.571,0h-1.831v-.916h1.831Zm-3.571,0H625.16v-.916h1.776Zm-3.562,0H621.59v-.916h1.785Z" transform="translate(-103.995 -45.514)" fill="#ebebeb"/>
        <path id="Path_31980" data-name="Path 31980" d="M619.516,120.317H618.17V118.98h.9v.449h.449Z" transform="translate(-103.706 -45.475)" fill="#ebebeb"/>
        <path id="Path_31981" data-name="Path 31981" d="M619.066,111.566h-.916v-1.831h.916Zm0-3.571h-.916V106.21h.916Zm0-3.571h-.916v-1.831h.916Zm0-3.571h-.916V99.022h.916Zm0-3.571h-.916V95.451h.916Zm0-3.571h-.916V91.881h.916Zm0-3.571h-.916V88.383h.916Zm0-3.562h-.916V84.821h.916Zm0-3.571h-.916V81.177h.916Zm0-3.571h-.916V77.689h.916Zm0-3.571h-.916V74.035h.916Zm0-3.571h-.916V70.464h.916Zm0-3.571h-.916V66.967h.916Zm0-3.571h-.916V63.323h.916Zm0-3.571h-.916V59.825h.916Zm0-3.571h-.916V56.254h.916Zm0-3.571h-.916V52.61h.916Z" transform="translate(-103.704 -39.874)" fill="#ebebeb"/>
        <path id="Path_31982" data-name="Path 31982" d="M619.067,50.617h-.9V49.28h1.346v.9h-.449Z" transform="translate(-103.706 -39.593)" fill="#ebebeb"/>
        <path id="Path_31983" data-name="Path 31983" d="M680.491,50.176h-1.758V49.26h1.785Zm-3.571,0h-1.785V49.26H676.9Zm-3.562,0h-1.831V49.26h1.831Zm-3.571,0h-1.831V49.26h1.831Zm-3.571,0h-1.831V49.26h1.831Zm-3.571,0H660.86V49.26h1.785Zm-3.571,0h-1.785V49.26h1.785Zm-3.571,0h-1.831V49.26H655.5Zm-3.571,0H650.1V49.26h1.831Zm-3.571,0h-1.831V49.26h1.831Zm-3.571,0h-1.767V49.26h1.785Zm-3.571,0h-1.785V49.26h1.758Zm-3.571,0h-1.831V49.26h1.831Zm-3.571,0h-1.831V49.26h1.831Zm-3.571,0h-1.831V49.26h1.831Zm-3.571,0H625.16V49.26h1.776Zm-3.562,0H621.59V49.26h1.785Z" transform="translate(-103.995 -39.591)" fill="#ebebeb"/>
        <path id="Path_31984" data-name="Path 31984" d="M689.216,50.617h-.9v-.439h-.449v-.9h1.346Z" transform="translate(-109.588 -39.593)" fill="#ebebeb"/>
        <path id="Path_31985" data-name="Path 31985" d="M689.256,111.566h-.916v-1.831h.916Zm0-3.571h-.916V106.21h.916Zm0-3.571h-.916v-1.831h.916Zm0-3.571h-.916V99.022h.916Zm0-3.571h-.916V95.451h.916Zm0-3.571h-.916V91.881h.916Zm0-3.571h-.916V88.392h.916Zm0-3.562h-.916V84.821h.916Zm0-3.571h-.916V81.177h.916Zm0-3.571h-.916V77.689h.916Zm0-3.571h-.916V74.035h.916Zm0-3.571h-.916V70.464h.916Zm0-3.571h-.916V66.967h.916Zm0-3.571h-.916V63.323h.916Zm0-3.571h-.916V59.825h.916Zm0-3.571h-.916V56.254h.916Zm0-3.571h-.916V52.61h.916Z" transform="translate(-109.628 -39.874)" fill="#ebebeb"/>
        <rect id="Rectangle_17709" data-name="Rectangle 17709" width="8.012" height="8.012" transform="translate(510.911 70.392)" fill="#fff"/>
        <path id="Path_31986" data-name="Path 31986" d="M622.7,124h-8.9V115.09h8.9Zm-8-.916h7.114v-7.114H614.7Z" transform="translate(-103.337 -45.146)" fill="#ebebeb"/>
        <rect id="Rectangle_17710" data-name="Rectangle 17710" width="8.012" height="8.012" transform="translate(510.939 38.263)" fill="#fff"/>
        <path id="Path_31987" data-name="Path 31987" d="M622.7,88.9h-8.9V80h8.9Zm-8-.916h7.114V80.916H614.7Z" transform="translate(-103.337 -42.185)" fill="#ebebeb"/>
        <rect id="Rectangle_17711" data-name="Rectangle 17711" width="8.012" height="8.012" transform="translate(510.939 6.125)" fill="#fff"/>
        <path id="Path_31988" data-name="Path 31988" d="M622.7,53.81h-8.9v-8.9h8.9Zm-8-.916h7.114V45.8H614.7Z" transform="translate(-103.337 -39.224)" fill="#ebebeb"/>
        <rect id="Rectangle_17712" data-name="Rectangle 17712" width="8.012" height="8.012" transform="translate(575.206 70.392)" fill="#fff"/>
        <path id="Path_31989" data-name="Path 31989" d="M692.891,124H684V115.09h8.9Zm-8.012-.916h7.114v-7.114h-7.078Z" transform="translate(-109.261 -45.146)" fill="#ebebeb"/>
        <rect id="Rectangle_17713" data-name="Rectangle 17713" width="8.012" height="8.012" transform="translate(575.206 38.263)" fill="#fff"/>
        <path id="Path_31990" data-name="Path 31990" d="M692.891,88.9H684V80h8.9Zm-8.012-.916h7.114V80.916h-7.078Z" transform="translate(-109.261 -42.185)" fill="#ebebeb"/>
        <rect id="Rectangle_17714" data-name="Rectangle 17714" width="8.012" height="8.012" transform="translate(575.206 6.125)" fill="#fff"/>
        <path id="Path_31991" data-name="Path 31991" d="M692.891,53.81H684v-8.9h8.9Zm-8.012-.916h7.114V45.8h-7.078Z" transform="translate(-109.261 -39.224)" fill="#ebebeb"/>
        <rect id="Rectangle_17715" data-name="Rectangle 17715" width="8.012" height="8.012" transform="translate(543.077 6.125)" fill="#fff"/>
        <path id="Path_31992" data-name="Path 31992" d="M657.8,53.81H648.89v-8.9H657.8Zm-8.012-.916H656.9V45.8h-7.114Z" transform="translate(-106.299 -39.224)" fill="#ebebeb"/>
        <rect id="Rectangle_17716" data-name="Rectangle 17716" width="8.012" height="8.012" transform="translate(543.04 70.392)" fill="#fff"/>
        <path id="Path_31993" data-name="Path 31993" d="M657.8,124H648.89V115.09H657.8Zm-8.012-.916H656.9v-7.114h-7.114Z" transform="translate(-106.299 -45.146)" fill="#ebebeb"/>
        <path id="Path_31994" data-name="Path 31994" d="M669.1,77.6h-1.053c-2.985-9.046-4.7-12.709-9.724-12.709h-.668v36.386h4.7v1.154H642.213V101.27h4.7V64.893H646.2c-5.036,0-6.913,4.148-9.742,12.718H635.41l.549-13.881h32.632Z" transform="translate(-105.161 -40.812)" fill="#ebebeb"/>
        <path id="Path_31995" data-name="Path 31995" d="M70.354,301.846a2.28,2.28,0,0,1-1.593,3.9,2.39,2.39,0,0,1-1.666-.65L56.94,294.787a.284.284,0,0,1-.183-.211.532.532,0,0,0-.11-.073,1.236,1.236,0,0,1-.1-.293.192.192,0,0,1-.11-.146c0-.073,0-.174-.073-.211s-.073-.147-.073-.183v-.906c0-.073.073-.11.073-.146a.527.527,0,0,1,.073-.284c.073-.11,0,0,0-.073a.824.824,0,0,1,.174-.33.073.073,0,0,1,.073-.073.668.668,0,0,1,.22-.247L67.067,281.3a2.362,2.362,0,0,1,3.26,0,2.3,2.3,0,0,1,0,3.25l-8.579,8.643Z" transform="translate(-56.29 -59.118)" fill="#ebebeb"/>
        <path id="Path_31996" data-name="Path 31996" d="M81.7,303.007l8.863-21.059a2.005,2.005,0,0,1,2.637-1.053,1.959,1.959,0,0,1,1.016,2.573l-8.863,21.123a2.014,2.014,0,0,1-1.831,1.19,1.831,1.831,0,0,1-.723-.137,1.959,1.959,0,0,1-1.1-2.637Z" transform="translate(-58.42 -59.125)" fill="#ebebeb"/>
        <path id="Path_31997" data-name="Path 31997" d="M113.187,294.5a1.669,1.669,0,0,1-.256.247l-10.163,10.31a2.3,2.3,0,0,1-3.26-3.25l8.579-8.653-8.579-8.643a2.3,2.3,0,0,1,0-3.25,2.362,2.362,0,0,1,3.26,0l10.163,10.31a1.667,1.667,0,0,1,.256.247v.073a1.96,1.96,0,0,1,.174.33s0,0,0,.073a1.667,1.667,0,0,0,.11.32s0,0,0,.11v.98a1.11,1.11,0,0,1-.11.32c-.037.073,0,0,0,.11S113.26,294.353,113.187,294.5Z" transform="translate(-59.88 -59.114)" fill="#ebebeb"/>
      </g>
      <g id="freepik--Floor--inject-108" transform="translate(55.93 410.649)">
        <path id="Path_31998" data-name="Path 31998" d="M55.93,445.113l73.038-.082,73.038-.037,146.068-.064,146.068.064,73.038.027,73.038.092-73.038.092-73.038.027-146.068.064-146.068-.064-73.038-.027Z" transform="translate(-55.93 -444.93)" fill="#263238"/>
      </g>
      <g id="freepik--Window--inject-108" transform="translate(89.698 76.249)">
        <rect id="Rectangle_17717" data-name="Rectangle 17717" width="470.267" height="284.426" transform="translate(22.323 0.449)" fill="#f6faff"/>
        <path id="Path_31999" data-name="Path 31999" d="M587.415,364.584l-470.267.348h-.339v-.348L116.69,80.168V79.71h.458l470.267.183h.266v.275Zm0,0L587.15,80.168l.266.266-470.267.183.458-.449-.119,284.416-.339-.339Z" transform="translate(-94.825 -79.71)" fill="#c7c7c7"/>
        <rect id="Rectangle_17718" data-name="Rectangle 17718" width="470.267" height="46.339" transform="translate(22.323 0.449)" fill="#40c2a4"/>
        <rect id="Rectangle_17719" data-name="Rectangle 17719" width="9.669" height="1.611" transform="translate(41.834 30.563)" fill="#fff"/>
        <rect id="Rectangle_17720" data-name="Rectangle 17720" width="9.669" height="1.611" transform="translate(41.834 37.796)" fill="#fff"/>
        <rect id="Rectangle_17721" data-name="Rectangle 17721" width="9.669" height="1.611" transform="translate(41.834 34.226)" fill="#fff"/>
        <rect id="Rectangle_17722" data-name="Rectangle 17722" width="90.655" height="9.129" transform="translate(382.414 30.426)" opacity="0.1"/>
        <rect id="Rectangle_17723" data-name="Rectangle 17723" width="9.129" height="9.129" transform="translate(463.94 30.426)" fill="#fff"/>
        <path id="Path_32000" data-name="Path 32000" d="M607.382,120.45l-.842.641-1.593-2.069-.577-.751a1.444,1.444,0,0,0,.33-.183,1.383,1.383,0,0,0,.44-.568l.6.806Z" transform="translate(-135.98 -82.901)" fill="#40c2a4"/>
        <path id="Path_32001" data-name="Path 32001" d="M605.46,115.328a2.3,2.3,0,1,0-.742,3.434,2.344,2.344,0,0,0,.32-.2,2.425,2.425,0,0,0,.476-.494,2.307,2.307,0,0,0-.055-2.738Zm-.989,2.5a1.448,1.448,0,0,1-.33.183,1.718,1.718,0,1,1,.293-.211Z" transform="translate(-135.724 -82.64)" fill="#40c2a4"/>
        <rect id="Rectangle_17724" data-name="Rectangle 17724" width="0.494" height="5.539" transform="translate(384.328 32.22)" fill="#fff"/>
        <path id="Path_32002" data-name="Path 32002" d="M232.552,122.35H188.2v-9.76h44.352Zm-43.437-.916h42.521v-7.929H189.116Z" transform="translate(-100.86 -82.485)" fill="#fff"/>
        <path id="Path_32003" data-name="Path 32003" d="M290.412,122.35H246.06v-9.76h44.352Zm-43.437-.916H289.5v-7.929H246.976Z" transform="translate(-105.743 -82.485)" fill="#fff"/>
        <rect id="Rectangle_17725" data-name="Rectangle 17725" width="43.437" height="8.854" transform="translate(193.753 30.563)" opacity="0.1"/>
        <path id="Path_32004" data-name="Path 32004" d="M406.132,122.35H361.78v-9.76h44.352Zm-43.437-.916h42.521v-7.929H362.7Z" transform="translate(-115.508 -82.485)" fill="#fff"/>
        <path id="Path_32005" data-name="Path 32005" d="M463.992,122.35H419.64v-9.76h44.352Zm-43.437-.916h42.521v-7.929H420.556Z" transform="translate(-120.391 -82.485)" fill="#fff"/>
        <rect id="Rectangle_17726" data-name="Rectangle 17726" width="470.267" height="7.362" transform="translate(22.323 0.449)" fill="#37474f"/>
        <path id="Path_32006" data-name="Path 32006" d="M123.242,84.051a1.831,1.831,0,1,1-1.831-1.831A1.831,1.831,0,0,1,123.242,84.051Z" transform="translate(-95.069 -79.922)" fill="#c7c7c7"/>
        <path id="Path_32007" data-name="Path 32007" d="M131.382,84.051a1.831,1.831,0,1,1-1.831-1.831A1.831,1.831,0,0,1,131.382,84.051Z" transform="translate(-95.756 -79.922)" fill="#fff"/>
        <path id="Path_32008" data-name="Path 32008" d="M139.522,84.051a1.831,1.831,0,1,1-1.831-1.831A1.831,1.831,0,0,1,139.522,84.051Z" transform="translate(-96.443 -79.922)" fill="#40c2a4"/>
        <rect id="Rectangle_17727" data-name="Rectangle 17727" width="8.076" height="238.086" transform="translate(484.505 46.797)" fill="#dbdbdb"/>
        <path id="Path_32009" data-name="Path 32009" d="M626.188,213.514h0a1.95,1.95,0,0,1-2.088-1.831V134.131a1.959,1.959,0,0,1,2.088-1.831h0a1.959,1.959,0,0,1,2.088,1.831v77.552a1.95,1.95,0,0,1-2.088,1.831Z" transform="translate(-137.645 -84.148)" fill="#a6a6a6"/>
        <path id="Path_32010" data-name="Path 32010" d="M138.69,143.37v34.894h34.894V143.37Zm2.637,32.257v-29.62h29.62v29.62Z" transform="translate(-96.682 -85.082)" fill="#ebebeb"/>
        <rect id="Rectangle_17728" data-name="Rectangle 17728" width="17.278" height="17.268" transform="translate(195.392 64.157)" fill="#40c2a4"/>
        <rect id="Rectangle_17729" data-name="Rectangle 17729" width="17.278" height="17.268" transform="translate(346.266 64.157)" fill="#40c2a4"/>
        <rect id="Rectangle_17730" data-name="Rectangle 17730" width="17.278" height="17.268" transform="translate(40.644 152.523)" fill="#40c2a4"/>
        <path id="Path_32011" data-name="Path 32011" d="M580.45,343.55v34.894h34.894V343.55Zm2.637,32.257v-29.62h29.62v29.62Z" transform="translate(-133.961 -101.975)" fill="#ebebeb"/>
        <rect id="Rectangle_17731" data-name="Rectangle 17731" width="60.531" height="11.317" transform="translate(49.287 161.157)" fill="#455a64"/>
        <rect id="Rectangle_17732" data-name="Rectangle 17732" width="166.33" height="4.23" transform="translate(49.287 178.059)" fill="#dbdbdb"/>
        <rect id="Rectangle_17733" data-name="Rectangle 17733" width="166.33" height="4.23" transform="translate(49.287 187.362)" fill="#dbdbdb"/>
        <rect id="Rectangle_17734" data-name="Rectangle 17734" width="166.33" height="4.23" transform="translate(49.287 196.664)" fill="#dbdbdb"/>
        <rect id="Rectangle_17735" data-name="Rectangle 17735" width="166.33" height="4.23" transform="translate(49.287 205.967)" fill="#dbdbdb"/>
        <rect id="Rectangle_17736" data-name="Rectangle 17736" width="166.33" height="4.23" transform="translate(49.287 215.279)" fill="#dbdbdb"/>
        <rect id="Rectangle_17737" data-name="Rectangle 17737" width="60.531" height="11.317" transform="translate(204.026 72.791)" fill="#455a64"/>
        <rect id="Rectangle_17738" data-name="Rectangle 17738" width="124.368" height="4.23" transform="translate(204.026 91.909)" fill="#dbdbdb"/>
        <rect id="Rectangle_17739" data-name="Rectangle 17739" width="124.368" height="4.23" transform="translate(204.026 101.212)" fill="#dbdbdb"/>
        <rect id="Rectangle_17740" data-name="Rectangle 17740" width="124.368" height="4.23" transform="translate(204.026 110.514)" fill="#dbdbdb"/>
        <rect id="Rectangle_17741" data-name="Rectangle 17741" width="124.368" height="4.23" transform="translate(204.026 119.826)" fill="#dbdbdb"/>
        <rect id="Rectangle_17742" data-name="Rectangle 17742" width="124.368" height="4.23" transform="translate(204.026 132.196)" fill="#dbdbdb"/>
        <rect id="Rectangle_17743" data-name="Rectangle 17743" width="124.368" height="4.23" transform="translate(204.026 141.508)" fill="#dbdbdb"/>
        <rect id="Rectangle_17744" data-name="Rectangle 17744" width="110.697" height="11.518" transform="translate(354.9 72.791)" fill="#455a64"/>
        <rect id="Rectangle_17745" data-name="Rectangle 17745" width="110.111" height="180.586" transform="translate(355.212 84.41)" fill="#fff"/>
        <path id="Path_32012" data-name="Path 32012" d="M591.145,352.751H480.42V171.57H591.145Zm-110.111-.6h109.5V172.165h-109.5Z" transform="translate(-125.52 -87.462)" fill="#dbdbdb"/>
        <path id="Path_32013" data-name="Path 32013" d="M481.017,352.586l-.577-.229L590.551,171.78l.568.22Z" transform="translate(-125.521 -87.48)" fill="#dbdbdb"/>
        <path id="Path_32014" data-name="Path 32014" d="M590.551,352.586,480.44,172l.577-.22,110.1,180.577Z" transform="translate(-125.521 -87.48)" fill="#dbdbdb"/>
        <rect id="Rectangle_17746" data-name="Rectangle 17746" width="131.93" height="72.544" transform="translate(0.201 72.993)" fill="#fff"/>
        <path id="Path_32015" data-name="Path 32015" d="M92.81,232.16V159.25H225.134v72.91H92.81Zm.412-72.544v72.169H224.7V159.607Z" transform="translate(-92.81 -86.422)" fill="#dbdbdb"/>
        <path id="Path_32016" data-name="Path 32016" d="M93.26,159.65c11.1,5.814,22.121,11.766,33.136,17.717L159.358,195.3l32.8,18.129,16.344,9.156,16.27,9.229-16.6-8.808-16.536-8.927-32.962-17.937-32.788-18.138C115,171.928,104.083,165.84,93.26,159.65Z" transform="translate(-92.848 -86.456)" fill="#dbdbdb"/>
        <path id="Path_32017" data-name="Path 32017" d="M224.773,159.65q-16.22,9.284-32.614,18.312l-32.8,18.138L126.4,214.037l-16.481,8.9L93.31,231.745l16.2-9.184,16.344-9.156,32.8-18.129L191.61,177.34C202.652,171.416,213.676,165.464,224.773,159.65Z" transform="translate(-92.852 -86.456)" fill="#dbdbdb"/>
        <rect id="Rectangle_17747" data-name="Rectangle 17747" width="51.009" height="269.199" transform="translate(64.78 300.073) rotate(-90)" fill="#fff"/>
        <path id="Path_32018" data-name="Path 32018" d="M433.155,351.57v51.274H163.05V351.57Zm-.916,51.018V351.854H163.92v50.734Z" transform="translate(-98.737 -102.652)" fill="#40c2a4"/>
        <path id="Path_32019" data-name="Path 32019" d="M432.909,402.6l-.339.256L163.38,351.846l.33-.266Z" transform="translate(-98.765 -102.653)" fill="#40c2a4"/>
        <path id="Path_32020" data-name="Path 32020" d="M432.909,351.846l-269.2,51.009-.33-.256L432.57,351.58Z" transform="translate(-98.765 -102.653)" fill="#40c2a4"/>
      </g>
      <g id="freepik--Image--inject-108" transform="translate(316.953 231.519)">
        <rect id="Rectangle_17748" data-name="Rectangle 17748" width="88.924" height="56.649" transform="translate(96.972 64.532) rotate(180)" fill="#40c2a4"/>
        <path id="Path_32021" data-name="Path 32021" d="M345.522,325.322h-1.6v-1.6h.458v1.145h1.145Z" transform="translate(-341.256 -255.571)" fill="#263238"/>
        <path id="Path_32022" data-name="Path 32022" d="M439.646,325.43H436.9V325h2.747Zm-5.494,0h-2.747V325h2.747Zm-5.494,0h-2.747V325h2.747Zm-5.494,0h-2.747V325h2.747Zm-5.494,0h-2.747V325h2.747Zm-5.494,0H409.43V325h2.747Zm-5.494,0h-2.747V325h2.747Zm-5.494,0h-2.747V325h2.747Zm-5.494,0h-2.747V325H395.7Zm-5.494,0h-2.747V325H390.2Zm-5.494,0h-2.747V325h2.747Zm-5.494,0h-2.747V325h2.747Zm-5.494,0h-2.747V325h2.747Zm-5.494,0h-2.747V325h2.747Zm-5.494,0h-2.747V325h2.747Zm-5.494,0h-2.747V325h2.747Zm-5.494,0H349V325h2.747Z" transform="translate(-341.684 -255.679)" fill="#263238"/>
        <path id="Path_32023" data-name="Path 32023" d="M452.652,325.322h-1.6v-.458h1.145V323.72h.458Z" transform="translate(-350.296 -255.571)" fill="#263238"/>
        <path id="Path_32024" data-name="Path 32024" d="M452.758,315.316H452.3v-2.747h.458Zm0-5.558H452.3v-2.747h.458Zm0-5.558H452.3v-2.747h.458Zm0-5.549H452.3v-2.747h.458Zm0-5.558H452.3v-2.747h.458Zm0-5.558H452.3V284.79h.458Zm0-5.558H452.3v-2.747h.458Zm0-5.558H452.3v-2.747h.458Zm0-5.549H452.3v-2.747h.458Zm0-5.558H452.3v-2.747h.458Zm0-5.558H452.3V257.01h.458Z" transform="translate(-350.402 -249.941)" fill="#263238"/>
        <path id="Path_32025" data-name="Path 32025" d="M452.652,253.792h-.458v-1.145H451.05v-.458h1.6Z" transform="translate(-350.296 -249.535)" fill="#263238"/>
        <path id="Path_32026" data-name="Path 32026" d="M439.646,252.648H436.9v-.458h2.747Zm-5.494,0h-2.747v-.458h2.747Zm-5.494,0h-2.747v-.458h2.747Zm-5.494,0h-2.747v-.458h2.747Zm-5.494,0h-2.747v-.458h2.747Zm-5.494,0H409.43v-.458h2.747Zm-5.494,0h-2.747v-.458h2.747Zm-5.494,0h-2.747v-.458h2.747Zm-5.494,0h-2.747v-.458H395.7Zm-5.494,0h-2.747v-.458H390.2Zm-5.494,0h-2.747v-.458h2.747Zm-5.494,0h-2.747v-.458h2.747Zm-5.494,0h-2.747v-.458h2.747Zm-5.494,0h-2.747v-.458h2.747Zm-5.494,0h-2.747v-.458h2.747Zm-5.494,0h-2.747v-.458h2.747Zm-5.494,0H349v-.458h2.747Z" transform="translate(-341.684 -249.535)" fill="#263238"/>
        <path id="Path_32027" data-name="Path 32027" d="M344.378,253.792h-.458v-1.6h1.6v.458h-1.145Z" transform="translate(-341.256 -249.535)" fill="#263238"/>
        <path id="Path_32028" data-name="Path 32028" d="M344.378,315.316h-.458v-2.747h.458Zm0-5.558h-.458v-2.747h.458Zm0-5.558h-.458v-2.747h.458Zm0-5.549h-.458v-2.747h.458Zm0-5.558h-.458v-2.747h.458Zm0-5.558h-.458V284.79h.458Zm0-5.558h-.458v-2.747h.458Zm0-5.558h-.458v-2.747h.458Zm0-5.549h-.458v-2.747h.458Zm0-5.558h-.458v-2.747h.458Zm0-5.558h-.458V257.01h.458Z" transform="translate(-341.256 -249.941)" fill="#263238"/>
        <g id="Group_40872" data-name="Group 40872" transform="translate(37.384 27.67)" opacity="0.1">
          <path id="Path_32029" data-name="Path 32029" d="M381.84,304.167h59.588L411.634,279.51Z" transform="translate(-381.84 -279.51)"/>
        </g>
        <path id="Path_32030" data-name="Path 32030" d="M349.8,304.99h52.84l-26.415-16.06Z" transform="translate(-341.752 -252.635)" fill="#40c2a4"/>
        <g id="Group_40873" data-name="Group 40873" transform="translate(8.048 36.295)" opacity="0.2">
          <path id="Path_32031" data-name="Path 32031" d="M349.8,304.99h52.84l-26.415-16.06Z" transform="translate(-349.8 -288.93)"/>
        </g>
        <rect id="Rectangle_17749" data-name="Rectangle 17749" width="88.924" height="12.205" transform="translate(8.048 52.327)" fill="#40c2a4"/>
        <g id="Group_40874" data-name="Group 40874" transform="translate(8.048 52.327)" opacity="0.2">
          <rect id="Rectangle_17750" data-name="Rectangle 17750" width="88.924" height="12.205"/>
        </g>
        <circle id="Ellipse_42" data-name="Ellipse 42" cx="8.204" cy="8.204" r="8.204" transform="translate(15.703 15.172)" opacity="0.1"/>
        <rect id="Rectangle_17751" data-name="Rectangle 17751" width="5.778" height="5.778" transform="translate(0)" fill="#263238"/>
        <rect id="Rectangle_17752" data-name="Rectangle 17752" width="5.778" height="5.778" transform="translate(0 66.638)" fill="#263238"/>
        <rect id="Rectangle_17753" data-name="Rectangle 17753" width="4.129" height="4.129" transform="translate(0.824 34.143)" fill="#263238"/>
        <rect id="Rectangle_17754" data-name="Rectangle 17754" width="4.129" height="4.129" transform="translate(50.45 0.824)" fill="#263238"/>
        <rect id="Rectangle_17755" data-name="Rectangle 17755" width="4.129" height="4.129" transform="translate(50.45 67.462)" fill="#263238"/>
        <rect id="Rectangle_17756" data-name="Rectangle 17756" width="4.129" height="4.129" transform="translate(100.067 34.143)" fill="#263238"/>
        <rect id="Rectangle_17757" data-name="Rectangle 17757" width="5.778" height="5.778" transform="translate(99.234)" fill="#263238"/>
        <rect id="Rectangle_17758" data-name="Rectangle 17758" width="5.778" height="5.778" transform="translate(99.234 66.638)" fill="#263238"/>
      </g>
      <g id="freepik--Cursor--inject-108" transform="translate(410.482 292.416)">
        <path id="Path_32032" data-name="Path 32032" d="M463.812,346.5l4.331,10.447-4.322,1.785-4.349-10.511-7.142,5.539V324.33l20.6,20.812Z" transform="translate(-443.934 -316.52)" fill="#263238"/>
        <path id="Path_32033" data-name="Path 32033" d="M452.568,319.7a4.01,4.01,0,0,1-.458-1.95,3.91,3.91,0,0,1,.458-1.95,4.386,4.386,0,0,1,0,3.9Z" transform="translate(-443.915 -315.8)" fill="#263238"/>
        <path id="Path_32034" data-name="Path 32034" d="M448.685,321.326a3.993,3.993,0,0,1-1.7-1.053,4.157,4.157,0,0,1-1.062-1.7,3.938,3.938,0,0,1,1.7,1.053,4.093,4.093,0,0,1,1.062,1.7Z" transform="translate(-443.393 -316.034)" fill="#263238"/>
        <path id="Path_32035" data-name="Path 32035" d="M447.061,325.208a4.011,4.011,0,0,1-1.95.458,3.91,3.91,0,0,1-1.95-.458,4.01,4.01,0,0,1,1.95-.458,4.112,4.112,0,0,1,1.95.458Z" transform="translate(-443.16 -316.555)" fill="#263238"/>
        <path id="Path_32036" data-name="Path 32036" d="M448.685,328.92a4.094,4.094,0,0,1-1.062,1.7,3.938,3.938,0,0,1-1.7,1.053,4.158,4.158,0,0,1,1.062-1.7,3.992,3.992,0,0,1,1.7-1.053Z" transform="translate(-443.393 -316.907)" fill="#263238"/>
        <path id="Path_32037" data-name="Path 32037" d="M457.8,325.208a4.112,4.112,0,0,1,1.95-.458,4.011,4.011,0,0,1,1.95.458,3.909,3.909,0,0,1-1.95.458,4.011,4.011,0,0,1-1.95-.458Z" transform="translate(-444.395 -316.555)" fill="#263238"/>
        <path id="Path_32038" data-name="Path 32038" d="M456.28,321.327a4.358,4.358,0,0,1,2.747-2.747,4.358,4.358,0,0,1-2.747,2.747Z" transform="translate(-444.267 -316.035)" fill="#263238"/>
      </g>
      <g id="freepik--Character--inject-108" transform="translate(476.839 133.036)">
        <rect id="Rectangle_17759" data-name="Rectangle 17759" width="55.221" height="11.436" transform="translate(58.761 131.746)" fill="#40c2a4"/>
        <path id="Path_32039" data-name="Path 32039" d="M593.585,298.01l-1.547,14.613L572.956,432.9H567.49l15.071-120.275,1.218-14.613Z" transform="translate(-520.009 -154.919)" fill="#40c2a4"/>
        <path id="Path_32040" data-name="Path 32040" d="M650.034,432.9h-5.466L625.477,312.623,623.93,298.01h9.806l1.227,14.613Z" transform="translate(-524.772 -154.919)" fill="#40c2a4"/>
        <rect id="Rectangle_17760" data-name="Rectangle 17760" width="60.906" height="3.434" transform="translate(55.136 239.999)" fill="#40c2a4"/>
        <path id="Path_32041" data-name="Path 32041" d="M583.95,312.1h9.477l1.547-14.091h-9.806Z" transform="translate(-521.398 -154.919)" opacity="0.1"/>
        <path id="Path_32042" data-name="Path 32042" d="M634.963,312.1h-9.486L623.93,298.01h9.806Z" transform="translate(-524.772 -154.919)" opacity="0.1"/>
        <path id="Path_32043" data-name="Path 32043" d="M516,302.707c.6-1.831,32.962-44.563,35.16-45.387.247-.11,14.7,10.182,14.7,10.182.6.8,28.082-5.018,28.082-5.018l.275,33.154-50.047-1.071s-6.757,3.974-12.947,7.215h0a72.5,72.5,0,0,1-8.14,3.946C520.574,306.388,515.4,304.52,516,302.707Z" transform="translate(-515.659 -151.485)" fill="#f7a9a0"/>
        <path id="Path_32044" data-name="Path 32044" d="M523.059,305.737a71.858,71.858,0,0,0,8.131-3.946h0c6.18-3.232,12.947-7.215,12.947-7.215l11.143.238,17.4-28.146c-3.827.678-6.684,1.08-6.876.833,0,0-14.448-10.291-14.7-10.182-2.216.824-34.555,43.556-35.16,45.387S520.569,306.388,523.059,305.737Z" transform="translate(-515.654 -151.485)" fill="#fff"/>
        <path id="Path_32045" data-name="Path 32045" d="M515.685,302.811c.641-1.831,33.127-44.581,35.4-45.433.861-.32,7.929,4.047,14.769,10.172l-20.977,27.514s-19.356,10.246-21.975,10.914S515.053,304.642,515.685,302.811Z" transform="translate(-515.633 -151.489)" fill="#a6a6a6"/>
        <path id="Path_32046" data-name="Path 32046" d="M518.056,303.707c5.622-7.023,27.633-35.892,32.66-43.272h0c-5.723,6.84-27.468,35.883-32.733,43.208C517.827,303.771,517.937,303.853,518.056,303.707Z" transform="translate(-515.825 -151.744)" fill="#263238"/>
        <path id="Path_32047" data-name="Path 32047" d="M527.453,307.747a7.2,7.2,0,0,0,1.511-5.613,7,7,0,0,0-2.6-4.5s-.11.046-.064.082a8.36,8.36,0,0,1,1.071,9.971.055.055,0,1,0,.082.064Z" transform="translate(-516.532 -154.887)" fill="#263238"/>
        <path id="Path_32048" data-name="Path 32048" d="M544.88,299.365c2.216-2.838,3.736-6.922,2.747-10.493,0-.137-.238-.082-.256,0a49.2,49.2,0,0,1-2.884,10.237.235.235,0,1,0,.394.256Z" transform="translate(-518.064 -154.141)" fill="#263238"/>
        <path id="Path_32049" data-name="Path 32049" d="M542.1,301.025c2.216-2.838,3.736-6.922,2.747-10.493,0-.137-.238-.082-.256,0a49.2,49.2,0,0,1-2.884,10.237.235.235,0,0,0,.394.256Z" transform="translate(-517.83 -154.281)" fill="#263238"/>
        <path id="Path_32050" data-name="Path 32050" d="M539.32,302.765c2.216-2.838,3.736-6.922,2.747-10.493,0-.137-.238-.082-.256,0a49.205,49.205,0,0,1-2.884,10.237.235.235,0,0,0,.394.256Z" transform="translate(-517.595 -154.428)" fill="#263238"/>
        <path id="Path_32051" data-name="Path 32051" d="M536.54,304.465c2.216-2.838,3.736-6.931,2.747-10.493,0-.137-.238-.082-.256,0a49.208,49.208,0,0,1-2.884,10.237.235.235,0,1,0,.394.256Z" transform="translate(-517.361 -154.571)" fill="#263238"/>
        <path id="Path_32052" data-name="Path 32052" d="M559.128,267.628c2.435-3.223-2.564-7.014-5.008-3.791S556.7,270.851,559.128,267.628Z" transform="translate(-518.825 -151.932)" fill="#263238"/>
        <path id="Path_32053" data-name="Path 32053" d="M550.288,308.852c2.307-.54,2.518-3.26,1.95-5.1a18.962,18.962,0,0,0-5.347-8.186.092.092,0,0,0-.146,0,.449.449,0,0,0-.632.339c-.137,3.113-.668,6.409.146,9.495C546.735,307.213,548.109,309.355,550.288,308.852Zm-3.415-8.149c0-1.538.137-3.058.11-4.578A56.448,56.448,0,0,1,550,300.977a20.127,20.127,0,0,1,1.135,2.518c.476,1.337.723,5.97-2.609,3.891-1.84-1.172-1.7-4.862-1.63-6.684Z" transform="translate(-518.18 -154.71)" fill="#263238"/>
        <path id="Path_32054" data-name="Path 32054" d="M551.275,286.758c-2.28,2.207-3.525,5.32-5.008,8.067a.43.43,0,0,0,.357.6c0,.064,0,.119.119.1a18.861,18.861,0,0,0,8.8-4.248c1.438-1.291,2.655-3.727.916-5.375S552.612,285.476,551.275,286.758Zm2.948-.485c3.937-.073,1.328,3.772.229,4.679a19.222,19.222,0,0,1-2.271,1.566,56.468,56.468,0,0,1-5.082,2.6c.815-1.3,1.5-2.664,2.271-3.992.906-1.538,2.683-4.816,4.889-4.853Z" transform="translate(-518.215 -153.831)" fill="#263238"/>
        <path id="Path_32055" data-name="Path 32055" d="M599.218,251.138H621.7s23.5-11.3,42.439-6.748c21.7,5.219,24.474,32.486,8.24,42.118-20.555,12.205-112.025,9.843-112.025,9.843l19.777-33.511s30.417-6.409,58-5.494l-38.923,5.3Z" transform="translate(-519.406 -150.303)" fill="#37474f"/>
        <path id="Path_32056" data-name="Path 32056" d="M580.519,266.109a1.214,1.214,0,0,0,.046-.174V265.8a1.478,1.478,0,0,1,.092-.33c.027-.11.146-.43.229-.65s.174-.43.275-.641a5,5,0,0,1,.375-.6h.156c3.351-.623,26.077-3.873,29.455-4.258s6.83-.7,10.246-.989a201.729,201.729,0,0,1,20.51-.742l1.923.055c.137-.046.284-.064.421-.1.33-.082.65-.156.989-.22.613-.119,1.236-.211,1.831-.311,1.291-.192,2.591-.33,3.882-.577.073,0,.11.11,0,.128-1.291.284-2.564.659-3.864.916l-1.117.238c2.509.128,5.008.32,7.517.549.073,0,.073.128,0,.128-3.406-.2-6.84-.229-10.255-.174s-6.776.137-10.163.33c-6.84.394-13.679,1.007-20.491,1.721-3.827.394-27,3.781-30.847,3.937h-.046a1.549,1.549,0,0,1-.11.256c-.1.211-.211.421-.32.623a6.022,6.022,0,0,1-.348.577c-.128.183-.119.183-.183.275l-.1.146a.763.763,0,0,0-.1.137C580.611,266.255,580.473,266.191,580.519,266.109Z" transform="translate(-521.108 -151.411)" fill="#263238"/>
        <path id="Path_32057" data-name="Path 32057" d="M568.149,296.166c1.227-1.959,2.271-4.056,3.388-6.07l3.379-6.08c2.252-4.038,10.328-17.607,11.125-18.559a.074.074,0,0,1,.128.073c-.375,1.053-5.42,10.072-6.583,12.049-2.317,4.01-4.752,7.938-7.16,11.9-.687,1.135-1.392,2.252-2.088,3.369s-1.437,2.234-2.078,3.388C568.223,296.322,568.113,296.258,568.149,296.166Z" transform="translate(-520.064 -152.169)" fill="#263238"/>
        <path id="Path_32058" data-name="Path 32058" d="M587.935,268.358c2.014-.485,4.084-.8,6.125-1.19l6.135-1.145q6.135-1.145,12.3-2.179c8.176-1.383,16.4-2.527,24.667-3.315,4.66-.449,9.339-.742,14.009-1.09.1,0,.092.156,0,.156-8.323.375-16.637,1.5-24.877,2.692s-16.307,2.454-24.438,3.827q-3.434.577-6.876,1.181c-2.3.4-4.661.916-7,1.2C587.88,268.5,587.844,268.376,587.935,268.358Z" transform="translate(-521.73 -151.664)" fill="#263238"/>
        <path id="Path_32059" data-name="Path 32059" d="M562.362,419.255c1.969-.2,50.972-22.222,52.309-24.245.513-.76-2.28-8.085-5.906-16.838-.778-1.9-1.6-3.846-2.445-5.814-5.494-12.819-11.555-26.287-11.555-26.287L561.95,360.72,574.4,386.6l2.747,5.686s-14.989,16.82-16.216,19.228S560.393,419.447,562.362,419.255Z" transform="translate(-519.404 -158.975)" fill="#f7a9a0"/>
        <path id="Path_32060" data-name="Path 32060" d="M562.362,421.678c1.969-.2,50.972-22.222,52.309-24.245.623-.916-3.662-11.555-8.35-22.652L574.4,389.018l2.747,5.686s-14.989,16.82-16.216,19.228S560.393,421.87,562.362,421.678Z" transform="translate(-519.404 -161.398)" fill="#fff"/>
        <path id="Path_32061" data-name="Path 32061" d="M562.361,422.214c1.969-.2,50.972-22.222,52.309-24.245.513-.76-2.28-8.085-5.906-16.838l-31.634,14.11s-14.989,16.82-16.215,19.228S560.392,422.406,562.361,422.214Z" transform="translate(-519.403 -161.934)" fill="#a6a6a6"/>
        <path id="Path_32062" data-name="Path 32062" d="M562.35,421.476c8.121-3.891,41.2-18.834,49.58-22.066.064,0,.082,0,0,.055-7.966,4.038-41.2,18.706-49.544,22.149C562.231,421.687,562.176,421.559,562.35,421.476Z" transform="translate(-519.566 -163.476)" fill="#263238"/>
        <path id="Path_32063" data-name="Path 32063" d="M563.547,413.934a7.224,7.224,0,0,1,5.814-.2,7.013,7.013,0,0,1,3.809,3.562c0,.046-.073.092-.1.046a8.369,8.369,0,0,0-9.477-3.305.055.055,0,0,1-.046-.1Z" transform="translate(-519.673 -164.641)" fill="#263238"/>
        <path id="Path_32064" data-name="Path 32064" d="M575.589,398.87c3.269-1.52,7.609-2.078,10.859-.3.119.064,0,.247-.1.238a50.412,50.412,0,0,0-10.63.494.229.229,0,0,1-.128-.43Z" transform="translate(-520.682 -163.312)" fill="#263238"/>
        <path id="Path_32065" data-name="Path 32065" d="M573.309,401.19c3.269-1.529,7.6-2.078,10.85-.311.128.073,0,.247-.092.247a49.282,49.282,0,0,0-10.639.494.229.229,0,0,1-.119-.43Z" transform="translate(-520.49 -163.507)" fill="#263238"/>
        <path id="Path_32066" data-name="Path 32066" d="M570.989,403.511c3.269-1.52,7.6-2.069,10.85-.3.128.073,0,.247-.092.238a50.357,50.357,0,0,0-10.63.494.229.229,0,0,1-.128-.43Z" transform="translate(-520.294 -163.704)" fill="#263238"/>
        <path id="Path_32067" data-name="Path 32067" d="M568.739,405.87c3.26-1.52,7.6-2.078,10.85-.3.128.064,0,.247-.092.238a50.477,50.477,0,0,0-10.639.494.229.229,0,0,1-.119-.43Z" transform="translate(-520.104 -163.903)" fill="#263238"/>
        <path id="Path_32068" data-name="Path 32068" d="M610.224,391.893c3.662-1.648,6.263,4.093,2.564,5.741S606.525,393.541,610.224,391.893Z" transform="translate(-523.463 -162.817)" fill="#263238"/>
        <path id="Path_32069" data-name="Path 32069" d="M569.818,395.714c2.8,1.492,6.153,1.712,9.22,2.28.32.064.513-.256.476-.531a.092.092,0,0,0,.055-.137,18.916,18.916,0,0,0-6.766-7.068c-1.666-.971-4.367-1.373-5.411.751S568.179,394.845,569.818,395.714Zm-1.373-2.655c-1.282-3.727,3.177-2.426,4.377-1.666a19.678,19.678,0,0,1,2.2,1.685,56.107,56.107,0,0,1,4.047,4.038c-1.492-.375-3-.613-4.5-.916C572.776,395.806,569.15,395.11,568.445,393.059Z" transform="translate(-519.975 -162.637)" fill="#263238"/>
        <path id="Path_32070" data-name="Path 32070" d="M591.368,389.878c-1.218-2.033-3.873-1.392-5.494-.284a18.926,18.926,0,0,0-6.135,7.618.1.1,0,0,0,.073.137.44.44,0,0,0,.513.485c3.012-.824,6.327-1.337,8.991-3.067C590.91,393.788,592.53,391.828,591.368,389.878Zm-6.7,5.768c-1.465.449-2.948.815-4.4,1.309a55.9,55.9,0,0,1,3.662-4.367,18.792,18.792,0,0,1,2.051-1.831c1.126-.87,5.494-2.545,4.5,1.273-.5,2.106-4.093,3.113-5.814,3.644Z" transform="translate(-521.042 -162.56)" fill="#263238"/>
        <path id="Path_32071" data-name="Path 32071" d="M602.179,360.736l-36.908,16.692S521.321,293.1,520.186,267.289c-.98-21.975,14.311-30.453,63.754-16.243l12.114.156v8.369c-5.32.7-19.5,2.93-19.5,2.93-10.319,3.891-13.643,5.494-13.478,5.832C588.811,320.294,602.179,360.736,602.179,360.736Z" transform="translate(-516.013 -150.366)" fill="#37474f"/>
        <path id="Path_32072" data-name="Path 32072" d="M560.415,260.337c1.492,1.987,2.866,4.056,4.184,6.162a88.925,88.925,0,0,1,25.152-6.629c2.435-.3,4.871-.513,7.325-.65a.078.078,0,0,1,0,.156,110.3,110.3,0,0,0-25.637,4.871c-2.3.705-4.578,1.529-6.821,2.335,1.584,2.536,3.076,5.137,4.514,7.746a153.625,153.625,0,0,1,7.215,15.071c1.19,2.848,2.344,5.723,3.36,8.634,0,.082-.11.137-.137.055q-6.73-15.08-14.732-29.519c-1.511-2.747-3.086-5.4-4.578-8.14C560.242,260.355,560.361,260.264,560.415,260.337Z" transform="translate(-519.399 -151.646)" fill="#263238"/>
        <path id="Path_32073" data-name="Path 32073" d="M568.547,378.716c2.152-.842,4.239-1.886,6.345-2.838l6.336-2.848c4.221-1.886,18.816-7.929,20.024-8.241a.078.078,0,0,1,.055.137c-.916.613-10.346,4.8-12.48,5.713-4.258,1.831-8.561,3.516-12.819,5.246-1.227.494-2.463.961-3.662,1.447s-2.49.916-3.662,1.465C568.519,378.845,568.474,378.716,568.547,378.716Z" transform="translate(-520.095 -160.555)" fill="#263238"/>
        <path id="Path_32074" data-name="Path 32074" d="M560.609,264.595c2.912,5.494,5.393,11.326,7.92,17.04s4.972,11.427,7.325,17.177q7.105,17.2,13.231,34.793c2.326,6.629,4.486,13.3,6.6,20,0,.092-.119.128-.146,0-3.91-11.83-8.149-23.559-12.571-35.214s-9.1-23.147-14.064-34.546q-2.088-4.807-4.248-9.577c-1.437-3.177-2.93-6.345-4.276-9.568C560.352,264.576,560.535,264.466,560.609,264.595Z" transform="translate(-519.409 -152.095)" fill="#263238"/>
        <path id="Path_32075" data-name="Path 32075" d="M583.074,187.679c-16.481,12.745-31.534,27.331-33.3,35.91-1.117,5.393,3.021,14.055,6.043,19.173,1.465,2.49,24.786-12.434,22.3-14.274-6.162-4.578-7.38-6.592-7.032-7.792.229-.778,17.039-21.663,21.224-30.472C598.135,177.956,590.3,182.1,583.074,187.679Z" transform="translate(-518.498 -145.15)" fill="#f7a9a0"/>
        <path id="Path_32076" data-name="Path 32076" d="M560.22,206.559l15.694,10.667s14.732-18.688,18.312-28.054-.348-9.477-9.6-2.838S560.22,206.559,560.22,206.559Z" transform="translate(-519.395 -145.104)" fill="#40c2a4"/>
        <path id="Path_32077" data-name="Path 32077" d="M560.22,206.559l15.694,10.667s14.732-18.688,18.312-28.054-.348-9.477-9.6-2.838S560.22,206.559,560.22,206.559Z" transform="translate(-519.395 -145.104)" fill="#40c2a4"/>
        <path id="Path_32078" data-name="Path 32078" d="M588.461,192.289l-1.7-.439.421-1.7a.33.33,0,1,0-.641-.156l-.5,2.023h0v.073h0l2.023.522a.357.357,0,0,0,.256,0,.375.375,0,0,0,.146-.2.329.329,0,0,0,0-.119Zm1.328-3.882a.284.284,0,0,0-.32-.247.293.293,0,0,0-.247.33l.467,3.26a.284.284,0,0,0,.32.247h.1a.284.284,0,0,0,.137-.284Zm2.976,0a.185.185,0,0,1,0-.046h-.046l-2.024-.522a.339.339,0,0,0-.4.238.33.33,0,0,0,.238.4l1.7.439-.421,1.7a.321.321,0,0,0,.238.4.33.33,0,0,0,.247,0,.339.339,0,0,0,.156-.2l.494-2.033h0v-.073Zm-15.08,8.131a.33.33,0,0,0-.412-.211l-1.978.668h0l.641,1.987a.44.44,0,0,0,.174.192.33.33,0,0,0,.458-.4l-.54-1.666,1.657-.559s0-.006,0-.009Zm2.747,1.282a.284.284,0,0,0-.4,0l-2.509,2.143a.284.284,0,0,0,0,.4.183.183,0,0,0,.082.064.275.275,0,0,0,.311,0l2.509-2.143a.293.293,0,0,0-.037-.467Zm1.666,2.628h0a.118.118,0,0,0,0-.055l-.641-1.978a.339.339,0,0,0-.421-.211.32.32,0,0,0-.211.412l.54,1.676-1.657.559a.32.32,0,0,0-.22.412.339.339,0,0,0,.421.211l1.978-.668h.055a.1.1,0,0,1,0-.055h0s.11-.275.11-.3Zm-13.872,8.241,1.236-1.245a.339.339,0,0,0,0-.476.348.348,0,0,0-.467,0l-1.465,1.492h0v.046h0v.174h0l1.465,1.483a.321.321,0,0,0,.238.092.33.33,0,0,0,.229-.558Zm4.221-1.831a.293.293,0,0,0-.375.156l-1.282,3.04a.284.284,0,0,0,.156.375.229.229,0,0,0,.11,0,.3.3,0,0,0,.266-.165l1.273-3.049a.284.284,0,0,0-.192-.275Zm2.747,1.758v-.1h0v-.046h0l-1.465-1.492a.348.348,0,0,0-.467,0,.339.339,0,0,0,0,.476L574.5,208.7l-1.4,1.264a.33.33,0,0,0,0,.467.343.343,0,0,0,.467,0l1.465-1.483h0V208.9h0a.111.111,0,0,0,.092-.2Z" transform="translate(-520.012 -145.621)" fill="#030402" opacity="0.1"/>
        <path id="Path_32079" data-name="Path 32079" d="M578.429,215.336a134.26,134.26,0,0,1-13.871-9.6c-.055,0,0-.128.073-.082,1.19.916,8.378,5.494,13.881,9.586C578.576,215.281,578.5,215.373,578.429,215.336Z" transform="translate(-519.76 -147.124)" fill="#263238"/>
        <path id="Path_32080" data-name="Path 32080" d="M596.31,185a19.39,19.39,0,0,1-1.245,4.486c-3.553,9.367-18.312,28.054-18.312,28.054l-6.263-4.258Z" transform="translate(-520.262 -145.383)" opacity="0.1"/>
        <path id="Path_32081" data-name="Path 32081" d="M632.707,245.586c-.119.146-52.9,1.264-53.444.76-.742-.714,4.148-50.359,11.793-62.664,1.9-3.076,10.9-5.356,14.934-1.181C621.574,198.633,633.1,245.027,632.707,245.586Z" transform="translate(-520.996 -144.98)" fill="#40c2a4"/>
        <path id="Path_32082" data-name="Path 32082" d="M589.448,191.907l-1.566-.4c-.073.211-.137.421-.2.632l1.6.412a.357.357,0,0,0,.256,0,.375.375,0,0,0,.146-.2.33.33,0,0,0-.238-.439Zm1.328-3.882a.284.284,0,0,0-.32-.247.293.293,0,0,0-.247.33l.467,3.26a.284.284,0,0,0,.32.247h.1a.284.284,0,0,0,.137-.284Zm2.976,0a.185.185,0,0,1,0-.046h-.046l-2.024-.522a.339.339,0,0,0-.4.238.33.33,0,0,0,.238.4l1.7.439-.421,1.7a.321.321,0,0,0,.238.4.33.33,0,0,0,.247,0,.339.339,0,0,0,.156-.2l.494-2.033h0v-.073Zm17.809,20.638-1.7-.439.421-1.7a.33.33,0,0,0-.238-.4.339.339,0,0,0-.4.238l-.494,2.023a.118.118,0,0,0,0,.055h0v.055h0l2.023.522a.357.357,0,0,0,.256,0,.312.312,0,0,0,.146-.192.321.321,0,0,0-.009-.156Zm1.328-3.891a.275.275,0,0,0-.311-.238.284.284,0,0,0-.256.32l.467,3.269a.275.275,0,0,0,.32.238.192.192,0,0,0,.1,0,.293.293,0,0,0,.147-.284Zm2.976,0h-.046l-2.023-.531a.348.348,0,0,0-.4.247.339.339,0,0,0,.238.4l1.7.43-.6,1.419a.33.33,0,0,0,.238.4.32.32,0,0,0,.256,0,.339.339,0,0,0,.146-.2l.494-2.024v-.11s.009-.055,0-.055Zm-28.732,23.614-1.7-.494.421-1.7a.339.339,0,0,0-.238-.4.366.366,0,0,0-.412.247l-.494,2.024a.1.1,0,0,0,0,.046h0v.055h.055l2.023.522a.33.33,0,0,0,.247,0,.348.348,0,0,0,.156-.2.34.34,0,0,0-.055-.11Zm1.337-3.882a.284.284,0,0,0-.293-.275.3.3,0,0,0-.247.33l.458,3.26a.293.293,0,0,0,.33.247.192.192,0,0,0,.1,0,.284.284,0,0,0,.137-.284Zm2.976,0h0a.188.188,0,0,1,0-.046h-.055l-2.014-.522a.348.348,0,0,0-.4.238.32.32,0,0,0,.238.4l1.7.439-.421,1.7a.32.32,0,0,0,.238.4.33.33,0,0,0,.247,0,.375.375,0,0,0,.156-.2l.494-2.033h0Zm20.436,17.571-1.731-.449.421-1.7a.331.331,0,1,0-.641-.165l-.5,2.033a.1.1,0,0,0,0,.046h0v.055h0l2.023.522a.339.339,0,0,0,.247-.046.32.32,0,0,0-.092-.6Zm1.337-3.891a.289.289,0,0,0-.568.1l.458,3.269a.284.284,0,0,0,.33.238.321.321,0,0,0,.1,0,.3.3,0,0,0,.137-.284Zm2.976,0h0a.382.382,0,0,1,0-.046h-.11l-2.014-.522a.331.331,0,1,0-.165.641l1.7.439-.421,1.7a.321.321,0,0,0,.238.4.33.33,0,0,0,.247-.046.293.293,0,0,0,.156-.2l.494-2.023h0s-.119-.311-.128-.32Zm-10.713-54.653a.339.339,0,0,0-.421-.211l-1.978.668h-.046v.046h0l.641,1.987a.357.357,0,0,0,.174.192.33.33,0,0,0,.247,0,.339.339,0,0,0,.211-.421l-.549-1.666,1.666-.559a.337.337,0,0,0,.055-.009Zm2.317,1.236h0l-2.509,2.152a.3.3,0,0,0,.083.467.293.293,0,0,0,.32,0l2.509-2.143h0a5.23,5.23,0,0,0-.4-.449Zm.815,1,.494,1.511-1.666.559a.328.328,0,0,0-.046.6.357.357,0,0,0,.256,0l1.978-.668h.046v-.137a6.022,6.022,0,0,0-1.062-1.859Zm-9.971,27.89a.348.348,0,0,0-.421-.211l-1.978.668h0v.046h0l.641,1.987a.357.357,0,0,0,.174.192.33.33,0,0,0,.458-.4l-.54-1.666,1.666-.559q0-.014,0-.027Zm2.692,1.291a.284.284,0,0,0-.4,0l-2.509,2.143a.284.284,0,0,0,0,.4.183.183,0,0,0,.082.064.275.275,0,0,0,.311,0l2.509-2.152a.275.275,0,0,0,.009-.43ZM603,217.562h0a.1.1,0,0,0,0-.046l-.641-1.987a.339.339,0,0,0-.421-.211.33.33,0,0,0-.211.421l.54,1.666-1.657.559a.32.32,0,0,0-.211.421.293.293,0,0,0,.165.183.33.33,0,0,0,.247,0l1.978-.668h.055a3.281,3.281,0,0,0,.156-.311Zm19.292,10.9a.339.339,0,0,0-.421-.211l-1.978.668h-.046V229h0a.081.081,0,0,0,0,.046l.641,1.987a.394.394,0,0,0,.174.192.375.375,0,0,0,.247,0,.339.339,0,0,0,.211-.421l-.549-1.666,1.666-.559a.336.336,0,0,0,.055-.082Zm2.747,1.282a.3.3,0,0,0-.412,0l-2.573,2.133a.293.293,0,0,0,0,.412.285.285,0,0,0,.082.064.311.311,0,0,0,.32,0l2.509-2.152a.275.275,0,0,0,.028-.43Zm1.648,2.564-.641-1.987a.348.348,0,0,0-.421-.211.339.339,0,0,0-.211.421l.549,1.666-1.666.559a.339.339,0,0,0-.211.421.385.385,0,0,0,.165.192.357.357,0,0,0,.256,0l1.978-.668h.046v-.046h0V232.6s.1-.238.1-.256Zm-28.329-34.18,1.236-1.245a.33.33,0,0,0-.467-.467l-1.465,1.483h0v.055h0v.128h0v.046h0l1.465,1.492a.343.343,0,0,0,.467,0,.33.33,0,0,0,0-.467Zm4.221-1.776a.284.284,0,0,0-.375.156l-1.282,3.04a.284.284,0,0,0,.156.375h.11a.284.284,0,0,0,.265-.174l1.273-3.04a.275.275,0,0,0-.192-.33Zm2.747,1.7h0a.312.312,0,0,1,0-.055h0l-1.465-1.483a.33.33,0,1,0-.467.467l1.236,1.245-1.236,1.254a.33.33,0,0,0,0,.467.339.339,0,0,0,.238.092.3.3,0,0,0,.229-.092l1.465-1.492h0v-.046h0v-.128l-.073-.2Zm7.545,21.3,1.236-1.245a.33.33,0,1,0-.467-.467l-1.465,1.483h0v.055h0v.055h0l1.465,1.492a.343.343,0,0,0,.467,0,.339.339,0,0,0,0-.476Zm4.221-1.776a.284.284,0,0,0-.375.156l-1.282,3.04a.284.284,0,0,0,.156.375h.11a.284.284,0,0,0,.266-.174l1.273-3.04a.275.275,0,0,0-.22-.33Zm2.747,1.7h0a.3.3,0,0,1,0-.055h0l-1.465-1.483a.33.33,0,0,0-.467.467l1.236,1.245-1.236,1.245a.33.33,0,0,0,.238.568.3.3,0,0,0,.229-.092l1.465-1.492h0v-.128l-.1-.247ZM589.32,240.032l1.236-1.245a.339.339,0,0,0,0-.476.348.348,0,0,0-.467,0l-1.575,1.483h0v.146h0l1.474,1.483a.32.32,0,0,0,.238.092.33.33,0,0,0,.229-.559Zm4.221-1.776a.275.275,0,0,0-.375.147l-1.282,3.04a.284.284,0,0,0,.156.375.2.2,0,0,0,.1,0,.3.3,0,0,0,.275-.165l1.273-3.049a.275.275,0,0,0-.247-.32ZM596.288,240v-.055h0l-1.465-1.492a.348.348,0,0,0-.467,0,.339.339,0,0,0,0,.476l1.236,1.245-1.236,1.245a.33.33,0,0,0,0,.467.344.344,0,0,0,.467,0l1.465-1.483h0v-.046h0V240.3s-.128-.256-.128-.266Zm30.929,3.864a.348.348,0,0,0-.467,0l-1.465,1.492h0v.046h0v.064h0l.22.22h.916l-.43-.43,1.1-.888a.33.33,0,0,0,0-.476Zm2.994-.064a.3.3,0,0,0-.385.156l-.842,2h.623l.742-1.758a.284.284,0,0,0-.266-.366Zm2.747,1.7a.081.081,0,0,1,0-.046h0v-.046h0v-.046l-1.749-1.474a.366.366,0,0,0-.476,0,.33.33,0,0,0,0,.467l1.236,1.254-.275.275h.98v-.046h0a.1.1,0,0,1,0-.046h0v-.146ZM589.65,210.494a.33.33,0,0,0-.394-.256l-1.712.375-.394-1.712a.32.32,0,0,0-.394-.247.348.348,0,0,0-.256.394l.467,2.033a.073.073,0,0,0,0,.046v.046h.128l2.042-.439a.339.339,0,0,0,.2-.156A.3.3,0,0,0,589.65,210.494Zm.916-1.611-1.886-2.747a.284.284,0,0,0-.394-.073.293.293,0,0,0-.073.4l1.877,2.747a.284.284,0,0,0,.4.064.275.275,0,0,0,.073-.073.311.311,0,0,0,.018-.33Zm1.291-1.9-.467-2.033a.064.064,0,0,0,0-.046H591.2l-2.042.439a.348.348,0,0,0-.247.394.33.33,0,0,0,.394.256l1.712-.375.394,1.712a.33.33,0,0,0,.394.256.311.311,0,0,0,.2-.156.284.284,0,0,0-.165-.458Zm13.038,26.095-1.712.375-.357-1.721a.333.333,0,1,0-.65.146l.467,2.033h0v.055h.119l2.042-.439a.366.366,0,0,0,.211-.156.33.33,0,0,0-.357-.494Zm1.328-1.355-1.886-2.747a.275.275,0,0,0-.385-.073.284.284,0,0,0-.082.394l1.886,2.747a.265.265,0,0,0,.394.073.137.137,0,0,0,.073-.073.293.293,0,0,0,.018-.33Zm1.3-1.9-.467-2.033h0v-.046h-.183l-2.042.439a.348.348,0,0,0-.256.394.339.339,0,0,0,.394.256l1.721-.375.385,1.712a.32.32,0,0,0,.394.247.293.293,0,0,0,.211-.147.32.32,0,0,0-.137-.458Zm-27.468,15.419-.824-1.19v.916l.4.577a.284.284,0,0,0,.394.073.156.156,0,0,0,.073-.082.275.275,0,0,0-.018-.256Zm1.3-1.9-.467-2.033v-.055h0a.156.156,0,0,1,0-.046h-.174l-1.08.229a4.18,4.18,0,0,1-.055.687l.916-.2.385,1.7a.339.339,0,0,0,.394.256.357.357,0,0,0,.211-.146.339.339,0,0,0-.1-.4Z" transform="translate(-521 -145.239)" fill="#030402" opacity="0.1"/>
        <path id="Path_32083" data-name="Path 32083" d="M592.456,255.246c-2.143,1.767-6.043-3.873-6.043-3.873a5.091,5.091,0,0,1-.842,3.369c-1.254,1.694-4.459.467-4.459.467a6.281,6.281,0,0,1-1.456,3.415c-1.364,1.492-4.77.714-4.77.714a5.494,5.494,0,0,1-3.177,2.2c-3.47.742-7.233-3.159-9.66-5.613s-6.986-11.692-8.048-13.368l15.629-15.666s13.981,7.92,16.417,11.207C588.107,240.881,595.715,252.555,592.456,255.246Z" transform="translate(-518.87 -148.918)" fill="#f7a9a0"/>
        <path id="Path_32084" data-name="Path 32084" d="M588.854,252.637a45.981,45.981,0,0,0-6.034-9.559c-.046-.064-.146,0-.1.082,2.28,2.93,3.827,6.547,5.979,9.568C588.753,252.811,588.89,252.737,588.854,252.637Z" transform="translate(-521.293 -150.281)" fill="#263238"/>
        <path id="Path_32085" data-name="Path 32085" d="M583.105,256.789a9.889,9.889,0,0,0-1.511-2.078c-.586-.7-1.181-1.392-1.831-2.069-1.218-1.355-2.463-2.683-3.754-3.983-.055-.055-.156,0-.1.082,1.218,1.355,2.408,2.747,3.553,4.139.577.7,1.154,1.41,1.721,2.124a11.7,11.7,0,0,0,1.685,1.932.14.14,0,0,0,.238-.146Z" transform="translate(-520.718 -150.753)" fill="#263238"/>
        <path id="Path_32086" data-name="Path 32086" d="M576.142,261.587a6.9,6.9,0,0,0-1.465-1.831c-.568-.6-1.135-1.218-1.694-1.831-1.117-1.227-2.243-2.454-3.324-3.717,0-.064-.156,0-.1.082,1.09,1.291,2.161,2.591,3.26,3.873l1.63,1.886a6.455,6.455,0,0,0,1.63,1.566.046.046,0,0,0,.064-.027Z" transform="translate(-520.182 -151.221)" fill="#263238"/>
        <path id="Path_32087" data-name="Path 32087" d="M611.185,183.928c25.472,12.819,49.1,32.724,48.527,40.47-.559,8.186-14.485,19.75-27.862,24.007-2.747.87-15.126-18.138-12.416-19.6,2.106-1.135,11.756-5.869,12.727-7.481.668-1.126-19.127-20.5-26.36-31.177C598.284,178.965,604.373,180.494,611.185,183.928Z" transform="translate(-522.95 -145.079)" fill="#f7a9a0"/>
        <path id="Path_32088" data-name="Path 32088" d="M624.1,231.35s-8.405,2.426-13.835,4.258c-3.021,1.016-8.057,3.232-9.934,5-2.811,2.646-12.883,15.492-9.824,18,2.747,2.271,5.494-2.6,5.494-2.6s-3.443,5.045,0,6.455,6.409-5.265,6.409-5.265-4.029,5.109-.211,6.254c3.315,1.007,7.481-6.336,7.481-6.336s-4.816,4.9-1.52,6.254c3.662,1.5,11.262-8.717,11.262-8.717,7.481-.5,11.9-1.831,16.8-4.194C637.048,250,624.1,231.35,624.1,231.35Z" transform="translate(-521.903 -149.294)" fill="#f7a9a0"/>
        <path id="Path_32089" data-name="Path 32089" d="M602.294,260.465l.769-1.538a27.455,27.455,0,0,1,1.584-2.939q.916-1.373,1.831-2.664c.687-.916,1.474-1.776,2.143-2.747a.064.064,0,1,1,.1.073,29.175,29.175,0,0,0-1.831,2.857c-.586.916-1.154,1.9-1.731,2.848s-1.172,1.831-1.758,2.747c-.293.458-.559.916-.833,1.392a10.192,10.192,0,0,1-.8,1.328s-.092,0-.082-.055A7.187,7.187,0,0,1,602.294,260.465Z" transform="translate(-522.895 -150.913)" fill="#263238"/>
        <path id="Path_32090" data-name="Path 32090" d="M595.77,258.454a44.8,44.8,0,0,1,2.82-5.494,30.943,30.943,0,0,1,3.8-4.963c0-.055.137,0,.1.073-1.09,1.767-2.207,3.525-3.324,5.274-.54.861-2.893,4.825-3.186,5.21A.12.12,0,0,1,595.77,258.454Z" transform="translate(-522.395 -150.697)" fill="#263238"/>
        <path id="Path_32091" data-name="Path 32091" d="M608.49,262.491a44.461,44.461,0,0,1,2.747-5.146,40.692,40.692,0,0,1,3.937-4.477c.055-.046.146,0,.1.082-1.19,1.584-2.417,3.141-3.534,4.789-.54.8-2.527,4.111-3.113,4.825C608.581,262.638,608.471,262.565,608.49,262.491Z" transform="translate(-523.469 -151.108)" fill="#263238"/>
        <path id="Path_32092" data-name="Path 32092" d="M639.808,200.212l-15.089,14.155S608.5,196.98,603.541,188.309s-1.135-9.422,9.046-4.3S639.808,200.212,639.808,200.212Z" transform="translate(-522.869 -145.029)" fill="#40c2a4"/>
        <path id="Path_32093" data-name="Path 32093" d="M618.058,204.756h-.046l-2.023-.531a.367.367,0,0,0-.174,0c.238.275.467.549.705.815l1.007.256-.174.705c.174.211.357.412.531.613l.357-1.474v-.11S618.067,204.756,618.058,204.756Zm-10.383-21.2a.339.339,0,0,0-.421-.211l-1.978.668h-.046v.046h0l.641,1.987a.357.357,0,0,0,.174.192.33.33,0,0,0,.247,0,.339.339,0,0,0,.211-.421l-.549-1.666,1.666-.559a.334.334,0,0,0,.055-.037Zm2.747,1.282a.3.3,0,0,0-.412,0l-2.509,2.152a.3.3,0,0,0,.082.467.293.293,0,0,0,.32,0l2.509-2.143a.3.3,0,0,0-.037-.458Zm1.648,2.564-.641-1.978a.339.339,0,0,0-.421-.211.32.32,0,0,0-.211.412l.549,1.676-1.666.559a.328.328,0,0,0-.046.6.357.357,0,0,0,.256,0l1.978-.668h.046v-.128ZM630.8,202.146a.339.339,0,0,0-.421-.211l-1.978.668h0v.046l.421,2.353a.3.3,0,0,0,.174.192.33.33,0,0,0,.458-.394l-.549-1.676,1.666-.559a.32.32,0,0,0,.183-.421Zm2.7,1.282a.3.3,0,0,0-.412,0l-2.509,2.143a.284.284,0,0,0,0,.4.211.211,0,0,0,.082.073.311.311,0,0,0,.32,0l2.509-2.152a.284.284,0,0,0-.037-.467Zm1.007.577a.348.348,0,0,0-.421-.211.339.339,0,0,0-.211.421l.522,1.584.531-.494Zm-2.024,2.829a.375.375,0,0,0,.165.192.348.348,0,0,0,.256,0h.11l1.163-1.09-1.483.494A.339.339,0,0,0,632.488,206.834ZM622.3,196.762a.321.321,0,0,0-.394-.247l-1.712.366-.385-1.712a.348.348,0,0,0-.4-.247.33.33,0,0,0-.247.394l.467,2.033a.382.382,0,0,0,0,.046h0v.046h.156l2.042-.439a.348.348,0,0,0,.211-.147.33.33,0,0,0,.284-.092Zm.916-1.611-1.886-2.747a.275.275,0,0,0-.385-.073.293.293,0,0,0-.082.4l1.886,2.747a.275.275,0,0,0,.394.064.137.137,0,0,0,.073-.073.293.293,0,0,0,.037-.33Zm1.3-1.886-.467-2.042v-.046h-.183l-2.042.43a.357.357,0,0,0-.256.4.33.33,0,0,0,.394.247l1.721-.375.385,1.712a.339.339,0,0,0,.394.256.357.357,0,0,0,.211-.147.339.339,0,0,0-.119-.449Z" transform="translate(-523.194 -145.242)" fill="#030402" opacity="0.1"/>
        <path id="Path_32094" data-name="Path 32094" d="M637.471,199.994a140.762,140.762,0,0,1-12.48,12.2c-.055.055-.128,0-.073-.082,1.154-1.025,7.2-7.407,12.489-12.168C637.444,199.884,637.526,199.994,637.471,199.994Z" transform="translate(-524.853 -146.642)" fill="#263238"/>
        <path id="Path_32095" data-name="Path 32095" d="M626.72,215.154a8.677,8.677,0,0,0-.916.723c-2.49-2.93-2.005-2.243-4.523-5.155l-3.662-4.285c-1.282-1.483-2.49-3.058-3.846-4.477,0,0-.1,0-.064.055a48.008,48.008,0,0,0,3.168,4.23c-.22-.2-.43-.412-.659-.6-.513-.43-1.016-.852-1.492-1.318-.073-.073-.192,0-.119.1a16.6,16.6,0,0,1,1.291,1.392c.375.476.916.916,1.318,1.373a15.707,15.707,0,0,0,1.364,1.227l.165.146c.7.861,1.383,1.731,2.088,2.573a47.505,47.505,0,0,0,4.926,5.146,9.3,9.3,0,0,0,1.09-1.044.076.076,0,0,0-.128-.082Z" transform="translate(-523.909 -146.814)" fill="#263238"/>
        <path id="Path_32096" data-name="Path 32096" d="M596.142,190.894c2.243-.293,6.144-5.256,7.325-9.074.073-.256-.787-2.674-1.685-5.658-.549-1.831-1.108-3.836-1.483-5.732L589,175.686a30.735,30.735,0,0,1,2.6,7.023,4.944,4.944,0,0,1,.073.8.643.643,0,0,0,0,.128C591.747,185.162,592.662,191.343,596.142,190.894Z" transform="translate(-521.824 -144.153)" fill="#f7a9a0"/>
        <path id="Path_32097" data-name="Path 32097" d="M591.747,183.533a.68.68,0,0,1,0,.137,8.36,8.36,0,0,0,1.245-.183c6.83-1.529,6.849-10.328,6.721-12.727L589,175.713a30.735,30.735,0,0,1,2.6,7.023,5.064,5.064,0,0,1,.146.8Z" transform="translate(-521.824 -144.181)" fill="#263238"/>
        <path id="Path_32098" data-name="Path 32098" d="M600.6,155.926c1.419,4.248-.5,16.682-3.479,19.53-4.3,4.12-11.528,4.7-15.071-.522-3.434-5.054-.641-21.224,2.692-23.806C589.654,147.283,598.49,149.645,600.6,155.926Z" transform="translate(-521.105 -142.367)" fill="#f7a9a0"/>
        <path id="Path_32099" data-name="Path 32099" d="M590.259,165s.064.055.055.092c-.192.824-.266,1.831.43,2.225v.046C589.838,167.1,589.948,165.8,590.259,165Z" transform="translate(-521.911 -143.695)" fill="#263238"/>
        <path id="Path_32100" data-name="Path 32100" d="M591.18,164.25c1.355.165.916,2.866-.32,2.747S590.008,164.121,591.18,164.25Z" transform="translate(-521.917 -143.631)" fill="#263238"/>
        <path id="Path_32101" data-name="Path 32101" d="M585.055,164.08s-.073,0-.082.064c-.1.842-.357,1.831-1.163,1.95v.055C584.762,166.158,585.092,164.922,585.055,164.08Z" transform="translate(-521.386 -143.617)" fill="#263238"/>
        <path id="Path_32102" data-name="Path 32102" d="M584.379,163c-1.337-.311-1.831,2.381-.623,2.664S585.5,163.263,584.379,163Z" transform="translate(-521.323 -143.524)" fill="#263238"/>
        <path id="Path_32103" data-name="Path 32103" d="M592.471,162.886c-.348-.146-.65-.348-.989-.531a1.831,1.831,0,0,1-.916-.733.577.577,0,0,1,.2-.678,1.456,1.456,0,0,1,1.456.073,2.106,2.106,0,0,1,1.053,1.09.613.613,0,0,1-.806.778Z" transform="translate(-521.953 -143.339)" fill="#263238"/>
        <path id="Path_32104" data-name="Path 32104" d="M583.483,159.9a9.056,9.056,0,0,0,1.117-.119,1.767,1.767,0,0,0,1.117-.33.577.577,0,0,0,.073-.705,1.428,1.428,0,0,0-1.364-.485,2.152,2.152,0,0,0-1.4.6.623.623,0,0,0,.458,1.035Z" transform="translate(-521.307 -143.124)" fill="#263238"/>
        <path id="Path_32105" data-name="Path 32105" d="M589.654,173.729c-.229.165-.476.4-.778.385a2.262,2.262,0,0,1-.916-.348h0a1.154,1.154,0,0,0,1,.613.916.916,0,0,0,.769-.641C589.745,173.729,589.69,173.7,589.654,173.729Z" transform="translate(-521.736 -144.43)" fill="#263238"/>
        <path id="Path_32106" data-name="Path 32106" d="M588.826,169.951a2.884,2.884,0,0,1-2.1.98,3.6,3.6,0,0,1-1.035-.119l-.192-.046-.183-.064a.2.2,0,0,1-.137-.211h0V170.4h0v-.073c.082-.65.293-1.621.293-1.621-.247.082-1.538.43-1.465.1a42.944,42.944,0,0,1,2.445-8.46c0-.092.165,0,.146,0-.467,2.683-1.41,5.265-1.923,7.947a5.348,5.348,0,0,1,1.41-.2c.091,0-.449,1.831-.458,2.161h0a4.047,4.047,0,0,0,3.095-.458C588.826,169.823,588.89,169.9,588.826,169.951Z" transform="translate(-521.403 -143.299)" fill="#263238"/>
        <path id="Path_32107" data-name="Path 32107" d="M586.32,171.433a3.415,3.415,0,0,0,1.19,1.264,1.556,1.556,0,0,0,.916.2c.7-.073.815-.687.769-1.236a3.988,3.988,0,0,0-.174-.842A4.441,4.441,0,0,1,586.32,171.433Z" transform="translate(-521.598 -144.186)" fill="#263238"/>
        <path id="Path_32108" data-name="Path 32108" d="M587.62,172.774a1.556,1.556,0,0,0,.916.2c.7-.073.815-.687.769-1.236a1.6,1.6,0,0,0-1.685,1.035Z" transform="translate(-521.708 -144.263)" fill="#ff9bbc"/>
        <path id="Path_32109" data-name="Path 32109" d="M600.111,166.563s4.5-7.426,4.093-11.72c-.192-1.941-2.838-3.25-2.838-3.25a4.377,4.377,0,0,0-1.383-4.413c-2.289-2.161-7.847-1.685-7.847-1.685s-3.608-5.21-8.707-3.15-1.776,7.847-1.776,7.847-1.831,2.655,2.692,4.734,13.551,0,13.551,0a31.681,31.681,0,0,0,.128,9.422A2.893,2.893,0,0,0,600.111,166.563Z" transform="translate(-521.114 -141.742)" fill="#263238"/>
        <path id="Path_32110" data-name="Path 32110" d="M592.226,145.849a8.918,8.918,0,0,1,3.589-.659,9.669,9.669,0,0,1,3.232.513,5.366,5.366,0,0,1,3.772,4.029,3.754,3.754,0,0,1-.714,2.82s-.073,0,0,0c1.181-1.456.559-3.727-.659-4.953a8.03,8.03,0,0,0-5.375-1.987,15.74,15.74,0,0,0-3.763.394.088.088,0,1,1-.082-.156Z" transform="translate(-522.092 -142.023)" fill="#263238"/>
        <path id="Path_32111" data-name="Path 32111" d="M579.7,144.8a4.358,4.358,0,0,1,3.022-2.747,7.453,7.453,0,0,1,4.825.174,9.348,9.348,0,0,1,3.946,2.93s0,.064-.046,0a8.24,8.24,0,0,0-7.883-2.93,4.02,4.02,0,0,0-3.15,6.006,8.359,8.359,0,0,0,3.269,3.287v.055a8.662,8.662,0,0,1-3.26-2.747A4.88,4.88,0,0,1,579.7,144.8Z" transform="translate(-521.025 -141.731)" fill="#263238"/>
        <path id="Path_32112" data-name="Path 32112" d="M589.958,169.772a3.662,3.662,0,0,1-2.317-4.67h0a3.662,3.662,0,1,1,3.214,4.853A3.809,3.809,0,0,1,589.958,169.772Zm-1.831-4.514a3.186,3.186,0,1,0,4.038-2.005,2.94,2.94,0,0,0-.778-.156,3.177,3.177,0,0,0-3.278,2.161Z" transform="translate(-521.693 -143.495)" fill="#455a64"/>
        <path id="Path_32113" data-name="Path 32113" d="M581.659,168.109c-1.483-.284-2.371-2.143-1.987-4.139a4.413,4.413,0,0,1,1.254-2.381,2.289,2.289,0,0,1,3.855.751,4.358,4.358,0,0,1,.275,2.674c-.366,1.886-1.749,3.232-3.159,3.131Zm-.394-6.162a3.9,3.9,0,0,0-1.108,2.115c-.339,1.731.375,3.324,1.593,3.562s2.481-.971,2.82-2.7a3.873,3.873,0,0,0-.238-2.371,1.941,1.941,0,0,0-1.364-1.19h-.183a2.014,2.014,0,0,0-1.52.586Z" transform="translate(-521.029 -143.343)" fill="#455a64"/>
        <path id="Path_32114" data-name="Path 32114" d="M587.489,165.693l.385-.311c-.458-.559-1.611-1.428-2.674-.659l.284.4C586.445,164.429,587.443,165.647,587.489,165.693Z" transform="translate(-521.503 -143.646)" fill="#455a64"/>
        <path id="Path_32115" data-name="Path 32115" d="M604.262,169.907l.476-.137c-.064-.22-.668-2.17-1.712-2.555s-7.572-1.007-7.856-1.035v.494c1.9.183,6.977.723,7.737,1.007S604.106,169.375,604.262,169.907Z" transform="translate(-522.345 -143.794)" fill="#455a64"/>
        <path id="Path_32116" data-name="Path 32116" d="M599.8,167.336s2.747-4.02,4.578-3.04-.247,6.812-2.371,7.618a2.17,2.17,0,0,1-2.912-1.145Z" transform="translate(-522.676 -143.622)" fill="#f7a9a0"/>
        <path id="Path_32117" data-name="Path 32117" d="M603.866,166.12s.046,0,0,.055a5.494,5.494,0,0,0-2.811,3.452,1.19,1.19,0,0,1,1.831-.339s0,.092,0,.082a1.328,1.328,0,0,0-1.465.476,6.41,6.41,0,0,0-.7,1.19c-.073.137-.311.064-.256-.092h0C600.359,169,601.87,166.331,603.866,166.12Z" transform="translate(-522.791 -143.789)" fill="#263238"/>
        <path id="Path_32118" data-name="Path 32118" d="M604.721,184.269a40.954,40.954,0,0,1-3.076,5.558,9.156,9.156,0,0,1-4.578,3.607c-1.831.522-3.772.494-4.9-1.676a14.147,14.147,0,0,1-1.181-6,.073.073,0,1,0-.146,0c.146,3.076.568,7.81,3.479,8.341,3.26.586,5.951-1.547,7.691-4.056a29.844,29.844,0,0,0,2.829-5.759S604.776,184.232,604.721,184.269Z" transform="translate(-521.979 -145.32)" fill="#263238"/>
        <rect id="Rectangle_17761" data-name="Rectangle 17761" width="58.544" height="2.619" transform="translate(46.401 112.097)" fill="#c7c7c7"/>
        <path id="Path_32119" data-name="Path 32119" d="M566.31,264.16v2.619H606.1L604.1,264.16Z" transform="translate(-519.909 -152.063)" fill="#a6a6a6"/>
        <path id="Path_32120" data-name="Path 32120" d="M599.124,263.449H542.072L537.32,224.7h57.052Z" transform="translate(-517.463 -148.733)" fill="#c7c7c7"/>
        <path id="Path_32121" data-name="Path 32121" d="M574.22,245.54a3.4,3.4,0,0,1-3.406,3.479,3.544,3.544,0,0,1-3.534-3.479,3.4,3.4,0,0,1,3.406-3.47A3.543,3.543,0,0,1,574.22,245.54Z" transform="translate(-519.991 -150.199)" fill="#fff"/>
      </g>
    </g>
  </g>
</svg>
