<svg xmlns="http://www.w3.org/2000/svg" width="566.288" height="497.876" viewBox="0 0 566.288 497.876">
  <g id="Group_40871" data-name="Group 40871" transform="translate(-808 -6073.923)">
    <g id="freepik--Floor--inject-2" transform="translate(808 6247.332)">
      <ellipse id="Ellipse_30" data-name="Ellipse 30" cx="281" cy="162.234" rx="281" ry="162.234" fill="#fff"/>
    </g>
    <g id="Insert_block-bro" data-name="Insert block-bro" transform="translate(750.527 5913.524)">
      <g id="freepik--Device--inject-52">
        <path id="Path_31954" data-name="Path 31954" d="M147.34,161H574.61a12.74,12.74,0,0,1,12.74,12.74V454.91H134.61V173.78A12.74,12.74,0,0,1,147.34,161Z" fill="#fff" stroke="#263238" stroke-linecap="round" stroke-linejoin="round" stroke-width="1.201"/>
        <rect id="Rectangle_17700" data-name="Rectangle 17700" width="311.15" height="15.33" transform="translate(206.44 440.76)" fill="#263238" stroke="#263238" stroke-linecap="round" stroke-linejoin="round" stroke-width="1.201"/>
        <rect id="Rectangle_17701" data-name="Rectangle 17701" width="311.15" height="7.95" transform="translate(206.44 448.15)" fill="#fff" stroke="#263238" stroke-linecap="round" stroke-linejoin="round" stroke-width="1.201"/>
        <path id="Path_31955" data-name="Path 31955" d="M98,465.18s5.11,6.25,20.44,11.36H605.59s11.36-2.84,16.47-10.79Z" fill="#263238" stroke="#263238" stroke-linecap="round" stroke-linejoin="round" stroke-width="1.201"/>
        <rect id="Rectangle_17702" data-name="Rectangle 17702" width="526.21" height="11.94" rx="3.86" transform="translate(96.95 453.99)" fill="#fff" stroke="#263238" stroke-linecap="round" stroke-linejoin="round" stroke-width="1.201"/>
        <path id="Path_31956" data-name="Path 31956" d="M364.85,169.93a4,4,0,1,0-4,4A4,4,0,0,0,364.85,169.93Z" fill="#263238"/>
        <path id="Path_31957" data-name="Path 31957" d="M138.87,243.74h0a1.13,1.13,0,0,1-1.13-1.13V209.68a1.14,1.14,0,0,1,1.13-1.14h0a1.14,1.14,0,0,1,1.14,1.14v32.93a1.13,1.13,0,0,1-1.14,1.13Z" fill="#263238" stroke="#fff" stroke-linejoin="round" stroke-width="0.831"/>
        <rect id="Rectangle_17703" data-name="Rectangle 17703" width="416" height="235.09" transform="translate(152.97 184)" fill="#d1d1d1" stroke="#263238" stroke-linejoin="round" stroke-width="1.201"/>
        <rect id="Rectangle_17704" data-name="Rectangle 17704" width="346.87" height="13.9" transform="translate(222.11 184)" fill="#263238"/>
        <circle id="Ellipse_36" data-name="Ellipse 36" cx="9.94" cy="9.94" r="9.94" transform="translate(156.398 232.96) rotate(-22.5)" fill="none" stroke="#263238" stroke-linejoin="round" stroke-width="1.201"/>
        <circle id="Ellipse_37" data-name="Ellipse 37" cx="9.94" cy="9.94" r="9.94" transform="translate(159.44 256.94)" fill="none" stroke="#263238" stroke-linejoin="round" stroke-width="1.201"/>
        <circle id="Ellipse_38" data-name="Ellipse 38" cx="9.94" cy="9.94" r="9.94" transform="translate(156.391 290.045) rotate(-22.5)" fill="none" stroke="#263238" stroke-linejoin="round" stroke-width="1.201"/>
        <circle id="Ellipse_39" data-name="Ellipse 39" cx="9.94" cy="9.94" r="9.94" transform="translate(159.44 314.03)" fill="none" stroke="#263238" stroke-linejoin="round" stroke-width="1.201"/>
        <circle id="Ellipse_40" data-name="Ellipse 40" cx="9.94" cy="9.94" r="9.94" transform="translate(159.44 342.57)" fill="none" stroke="#263238" stroke-linejoin="round" stroke-width="1.201"/>
        <circle id="Ellipse_41" data-name="Ellipse 41" cx="9.94" cy="9.94" r="9.94" transform="translate(157.982 389.294) rotate(-80.78)" fill="none" stroke="#263238" stroke-linejoin="round" stroke-width="1.201"/>
        <rect id="Rectangle_17705" data-name="Rectangle 17705" width="341.88" height="207.18" transform="translate(201.77 205.94)" fill="none" stroke="#263238" stroke-linejoin="round" stroke-width="1.201"/>
        <line id="Line_49" data-name="Line 49" x2="341.75" transform="translate(202.31 329.73)" fill="none" stroke="#263238" stroke-linejoin="round" stroke-width="1.201"/>
        <line id="Line_50" data-name="Line 50" x2="116.62" transform="translate(399.39 342.28)" fill="none" stroke="#263238" stroke-linejoin="round" stroke-width="1.201"/>
        <line id="Line_51" data-name="Line 51" x2="116.62" transform="translate(399.39 352.61)" fill="none" stroke="#263238" stroke-linejoin="round" stroke-width="1.201"/>
        <line id="Line_52" data-name="Line 52" x2="116.62" transform="translate(399.39 362.95)" fill="none" stroke="#263238" stroke-linejoin="round" stroke-width="1.201"/>
        <line id="Line_53" data-name="Line 53" x2="116.62" transform="translate(399.39 373.28)" fill="none" stroke="#263238" stroke-linejoin="round" stroke-width="1.201"/>
        <line id="Line_54" data-name="Line 54" x2="116.62" transform="translate(399.39 383.61)" fill="none" stroke="#263238" stroke-linejoin="round" stroke-width="1.201"/>
        <line id="Line_55" data-name="Line 55" x2="116.62" transform="translate(399.39 393.95)" fill="none" stroke="#263238" stroke-linejoin="round" stroke-width="1.201"/>
        <line id="Line_56" data-name="Line 56" y2="1.2" transform="translate(367.3 211.08)" fill="none" stroke="#263238" stroke-linejoin="round" stroke-width="1.201"/>
        <line id="Line_57" data-name="Line 57" y2="108.1" transform="translate(367.3 214.65)" fill="none" stroke="#263238" stroke-linejoin="round" stroke-width="1.201" stroke-dasharray="2.376 2.376"/>
        <line id="Line_58" data-name="Line 58" y2="1.2" transform="translate(367.3 323.94)" fill="none" stroke="#263238" stroke-linejoin="round" stroke-width="1.201"/>
        <path id="Path_31958" data-name="Path 31958" d="M372.43,328.46a5.12,5.12,0,1,0-1.5,3.63A5.13,5.13,0,0,0,372.43,328.46Z" fill="#fff" stroke="#263238" stroke-linejoin="round" stroke-width="1.201"/>
        <line id="Line_59" data-name="Line 59" y2="6.88" transform="translate(367.23 325.14)" fill="none" stroke="#263238" stroke-linejoin="round" stroke-width="0.6"/>
        <line id="Line_60" data-name="Line 60" x1="6.88" transform="translate(363.79 328.58)" fill="none" stroke="#263238" stroke-linejoin="round" stroke-width="0.6"/>
        <path id="Path_31959" data-name="Path 31959" d="M322.68,272.65H241.86a6.08,6.08,0,0,1-6.09-6.09h0a6.08,6.08,0,0,1,6.09-6.09h80.82a6.09,6.09,0,0,1,6.09,6.09h0a6.09,6.09,0,0,1-6.09,6.09Z" fill="none" stroke="#263238" stroke-linejoin="round" stroke-width="1.201"/>
        <rect id="Rectangle_17706" data-name="Rectangle 17706" width="80.85" height="57.75" transform="translate(208.88 340.8)" fill="#40c2a4" stroke="#263238" stroke-linejoin="round" stroke-width="1.201"/>
        <line id="Line_61" data-name="Line 61" y1="57.75" x2="80.85" transform="translate(208.88 340.8)" fill="none" stroke="#263238" stroke-linejoin="round" stroke-width="1.201"/>
        <line id="Line_62" data-name="Line 62" x2="80.85" y2="57.75" transform="translate(208.88 340.8)" fill="none" stroke="#263238" stroke-linejoin="round" stroke-width="1.201"/>
        <rect id="Rectangle_17707" data-name="Rectangle 17707" width="80.85" height="57.75" transform="translate(301.14 340.8)" fill="#40c2a4" stroke="#263238" stroke-linejoin="round" stroke-width="1.201"/>
        <line id="Line_63" data-name="Line 63" y1="57.75" x2="80.86" transform="translate(301.14 340.8)" fill="none" stroke="#263238" stroke-linejoin="round" stroke-width="1.201"/>
        <line id="Line_64" data-name="Line 64" x2="80.86" y2="57.75" transform="translate(301.14 340.8)" fill="none" stroke="#263238" stroke-linejoin="round" stroke-width="1.201"/>
        <line id="Line_65" data-name="Line 65" x2="21.86" transform="translate(179.32 295.42)" fill="none" stroke="#263238" stroke-linejoin="round" stroke-width="1.201"/>
      </g>
      <g id="freepik--Character--inject-52">
        <rect id="Rectangle_17708" data-name="Rectangle 17708" width="148.17" height="105.84" transform="translate(374.96 213)" fill="#40c2a4" stroke="#263238" stroke-linejoin="round" stroke-width="1.201"/>
        <line id="Line_66" data-name="Line 66" y1="105.84" x2="148.17" transform="translate(374.96 213)" fill="none" stroke="#263238" stroke-linejoin="round" stroke-width="1.201"/>
        <line id="Line_67" data-name="Line 67" x2="148.17" y2="105.84" transform="translate(374.96 213)" fill="none" stroke="#263238" stroke-linejoin="round" stroke-width="1.201"/>
        <path id="Path_31960" data-name="Path 31960" d="M507.38,267.62a59.712,59.712,0,0,1,3.54,5.61,22.682,22.682,0,0,1,2,4.86s.63-.55,4-3.56,3.67-5.85,3.67-5.85L517.4,264S509.39,263.39,507.38,267.62Z" fill="#fff" stroke="#263238" stroke-linecap="round" stroke-linejoin="round" stroke-width="1.201"/>
        <path id="Path_31961" data-name="Path 31961" d="M504.14,250s-1.09,3.16-2.08,3.29-3.92-1.24-3.6,1.22a6.58,6.58,0,0,0,2.28,4s-.68,8.11-.27,9.31,1,2.12,4,1.73l5.42-.71a17.571,17.571,0,0,0,2,.23c1.26.08,1.24.22,3.41-2.32s3.51-.35,2.95-4.54-1.15-6.87-3.48-9.32S504.14,250,504.14,250Z" fill="#fff" stroke="#263238" stroke-linecap="round" stroke-linejoin="round" stroke-width="1.201"/>
        <path id="Path_31962" data-name="Path 31962" d="M503,255c-.27.92-.29,1.72,0,1.79s.66-.61.93-1.53.29-1.73,0-1.8S503.26,254.09,503,255Z" fill="#263238"/>
        <path id="Path_31963" data-name="Path 31963" d="M529.85,236.19l-17-12.85s-2.68-1.2-2.68-3.59a35.775,35.775,0,0,1,0-5.67c.29-2.39,0-3.59,1.19-3.59s1.49,2.69,1.49,2.69l.9-3s2.09-.59,2.39.9,2.69,2.39,2.09,4.48a22.8,22.8,0,0,1-2.69,5.08s15.84,6.87,18.82,7.77,8.47,3.43,7.87,6.42-3.54,11.94-3.54,11.94Z" fill="#fff" stroke="#263238" stroke-linecap="round" stroke-linejoin="round" stroke-width="1.201"/>
        <path id="Path_31964" data-name="Path 31964" d="M513.73,276.83s-4.16,2.86-9,6.44c-6,4.44-6.1,14.74-6.53,15.78-.7,1.73,18.94,23.1,21.75,26.7s3.32,9.4,3.32,9.4l26.61-5.76s-13.32-46.5-14-49.91-1.82-7.85-1.82-7.85,1.84-10.51,4.22-19,3.35-13.92,3.17-15.3-7.53-2.17-10.57-2.23-2.76.36-2.76.36-6.61,15.35-7,16.1S513.73,276.83,513.73,276.83Z" fill="#fff" stroke="#263238" stroke-linecap="round" stroke-linejoin="round" stroke-width="1.201"/>
        <path id="Path_31965" data-name="Path 31965" d="M523.27,335.15l-1.33,13.31-16.41,43.02-3.55,50.11,6.65.45,12.87-48.79,17.29-31.93,7.98,29.27,24.64,48.55,6.3-3.72L562.3,385.71l-8.87-51-3.55-5.32Z" fill="#263238" stroke="#263238" stroke-linecap="round" stroke-linejoin="round" stroke-width="1.201"/>
        <path id="Path_31966" data-name="Path 31966" d="M518.64,268a49.718,49.718,0,0,1-3.19,4.16c-1.43,1.59-3.46,2.09-4,3.33a60.345,60.345,0,0,1-3.26,5.24s6.59-1.24,10-4,4.51-8.3,4.51-8.3S520.15,267.1,518.64,268Z" fill="#fff" stroke="#263238" stroke-linecap="round" stroke-linejoin="round" stroke-width="1.201"/>
        <path id="Path_31967" data-name="Path 31967" d="M484.22,322.22s-26.05-8.24-28.57-9.43a8.45,8.45,0,0,0-7.27.08c-2.34,1-4.68.23-4.74,1.27s1.45,1.64,2.31,1.28a14,14,0,0,1,3.34-.42l-10,4.27s-.21,1.85,1.12,2,3.26,1.13,5.23,1,10.5-5.49,10.5-5.49a116.384,116.384,0,0,1,13.24,7.59c6.45,4.36,16.46,9.05,19.78,8.49s7.23-5.95,6.74-8.21C493.78,315.05,484.22,322.22,484.22,322.22Z" fill="#fff" stroke="#263238" stroke-linecap="round" stroke-linejoin="round" stroke-width="1.201"/>
        <path id="Path_31968" data-name="Path 31968" d="M516.94,301.16s-7.77,10-12,15.26-8.48,14.44-12,14.2-7.87-7.28-7.65-9.18,5-6,7.8-13.4c2.06-5.49,5.68-14.8,7.4-19.2.63-1.61.76-2.85,2.13-3.89l2.11-1.68" fill="#fff" stroke="#263238" stroke-linecap="round" stroke-linejoin="round" stroke-width="1.201"/>
        <path id="Path_31969" data-name="Path 31969" d="M485.29,321.44c.12-1.08,1.77-2.92,3.67-5.67.73,1.29,2.32,4.47,4.45,6a30.479,30.479,0,0,0,6.29,3.1c-3.34,4.09-4.83,5.88-6.76,5.75C489.41,330.39,485.07,323.34,485.29,321.44Z" fill="#fff" stroke="#263238" stroke-linecap="round" stroke-linejoin="round" stroke-width="1.201"/>
        <path id="Path_31970" data-name="Path 31970" d="M525.91,240.6c1.23-2.85,2.21-5.14,2.21-5.14s-.29-.43,2.76-.36,11.52,1,11.7,2.35a13.3,13.3,0,0,1-1.87,7.84C538.35,243.36,531.11,240,525.91,240.6Z" fill="#fff" stroke="#263238" stroke-linecap="round" stroke-linejoin="round" stroke-width="1.201"/>
        <path id="Path_31971" data-name="Path 31971" d="M511.26,308.89a38.9,38.9,0,0,1,11-5.31" fill="none" stroke="#263238" stroke-linecap="round" stroke-linejoin="round" stroke-width="1.201"/>
        <path id="Path_31972" data-name="Path 31972" d="M510.08,257s-10.82-7.85-7.48-14.81,8.3-9.37,12.85-7.21,3.11,4.6,3.11,4.6,5-.15,6.75,3.63a6.36,6.36,0,0,1-.63,6.6,13.77,13.77,0,0,1,2.58,8.19c-.12,4.78-8.49,11.65-10.19,12.13s-3-2.11-3-2.11,2.43-4.34,1.35-4.95-3.78,1.76-3.78,1.76-1.35,1.18-1.74-1.78A21.62,21.62,0,0,1,510.08,257Z" fill="#263238" stroke="#263238" stroke-linecap="round" stroke-linejoin="round" stroke-width="1.201"/>
        <path id="Path_31973" data-name="Path 31973" d="M502,441.59s-5,4.88-9.87,6.21a32.58,32.58,0,0,0-7.16,2.66l-1.11,1.93a1.08,1.08,0,0,0,.94,1.62h24.3a26.942,26.942,0,0,0,.44-5.76,18.18,18.18,0,0,0-.89-6.21Z" fill="#fff" stroke="#263238" stroke-linecap="round" stroke-linejoin="round" stroke-width="1.201"/>
        <path id="Path_31974" data-name="Path 31974" d="M571.41,439.14l-.36,3.71s-1.53,3.83-3.84,5.37-5.11,1.54-5.11,3.07v2.82h9.47s2,.25,4.86-2.31,3.33-4.86,5.37-6.14,2.05-3.07,1-5.89-5.12-4.35-5.12-4.35Z" fill="#fff" stroke="#263238" stroke-linecap="round" stroke-linejoin="round" stroke-width="1.201"/>
      </g>
    </g>
  </g>
</svg>
