<svg xmlns="http://www.w3.org/2000/svg" width="521.974" height="556.2" viewBox="0 0 521.974 556.2">
  <g id="mob" transform="translate(-26.65 -32.98)">
    <g id="freepik--background-complete--inject-94" transform="translate(26.65 32.98)">
      <rect id="Rectangle_123" data-name="Rectangle 123" width="91.027" height="271.178" transform="translate(48.847 261.434)" fill="#e0e0e0"/>
      <rect id="Rectangle_124" data-name="Rectangle 124" width="99.657" height="271.178" transform="translate(99.657 532.624) rotate(180)" fill="#f5f5f5"/>
      <path id="Path_880" data-name="Path 880" d="M2.542,0H27.876a2.509,2.509,0,0,1,1.813.768,2.645,2.645,0,0,1,.74,1.865v.959H0V2.633A2.645,2.645,0,0,1,.736.773,2.509,2.509,0,0,1,2.542,0Z" transform="translate(64.05 474.176) rotate(180)" fill="#e0e0e0"/>
      <path id="Path_881" data-name="Path 881" d="M31.206,420.851v15.07c0,9.707-.071,23.758-.106,40.915v.206h.2l88.8.061h.307V420.73h-.236l-64.073.061H37.921l18.335.085,63.92.182-.225-.243v55.9l.248-.255H31.4l.189.206c0-17.1-.071-31.075-.106-40.782V421.7C31.478,421.021,31.206,420.851,31.206,420.851Z" transform="translate(-25.839 49.757)" fill="#e0e0e0"/>
      <rect id="Rectangle_125" data-name="Rectangle 125" width="26.445" height="7.329" transform="translate(61.26 491.612) rotate(180)" fill="#e0e0e0"/>
      <path id="Path_882" data-name="Path 882" d="M2.542,0H27.875a2.576,2.576,0,0,1,2.542,2.609v.959H0V2.609A2.576,2.576,0,0,1,2.542,0Z" transform="translate(63.435 404.091) rotate(180)" fill="#e0e0e0"/>
      <path id="Path_883" data-name="Path 883" d="M29.876,363.088V378.17c0,9.707-.059,23.746-.106,40.915v.194h.2l88.816.061h.3V362.93H118.7l-64.073.061H36.473l18.347.073,63.92.182L118.5,363v55.912l.2-.085H29.876l.2.206c0-17.109-.083-31.075-.106-40.794V364.058A3.425,3.425,0,0,0,29.876,363.088Z" transform="translate(-26.082 37.424)" fill="#e0e0e0"/>
      <rect id="Rectangle_126" data-name="Rectangle 126" width="26.445" height="7.329" transform="translate(61.449 421.091) rotate(180)" fill="#e0e0e0"/>
      <path id="Path_884" data-name="Path 884" d="M2.542,0H27.875A2.577,2.577,0,0,1,30.37,2.609v.959H0V2.609A2.576,2.576,0,0,1,2.542,0Z" transform="translate(63.116 272.403) rotate(180)" fill="#e0e0e0"/>
      <path id="Path_885" data-name="Path 885" d="M30.416,254.578v15.07c0,9.707-.059,23.758-.106,40.915v.206h89.324V254.36h-82.5l18.347.085,63.92.17-.236-.231v55.9l.248-.255H30.594l.2.206c0-17.109-.083-31.075-.106-40.782V255.27C30.688,254.591,30.416,254.578,30.416,254.578Z" transform="translate(-25.983 14.257)" fill="#e0e0e0"/>
      <rect id="Rectangle_127" data-name="Rectangle 127" width="26.445" height="7.329" transform="translate(61.603 288.092) rotate(180)" fill="#e0e0e0"/>
      <path id="Path_886" data-name="Path 886" d="M2.542,0H27.876A2.578,2.578,0,0,1,30.37,2.621V3.58H0V2.621A2.644,2.644,0,0,1,.74.768,2.509,2.509,0,0,1,2.542,0Z" transform="translate(63.116 337.028) rotate(180)" fill="#e0e0e0"/>
      <path id="Path_887" data-name="Path 887" d="M30.416,307.826v15.082c0,9.707-.059,23.758-.106,40.915v.206h89.324V307.62H37.013l18.347.073,63.92.182-.236-.243v55.912l.248-.267H30.476l.2.206c0-17.109-.083-31.075-.106-40.794V308.518C30.57,307.838,30.416,307.826,30.416,307.826Z" transform="translate(-25.983 25.622)" fill="#e0e0e0"/>
      <rect id="Rectangle_128" data-name="Rectangle 128" width="26.445" height="7.329" transform="translate(61.603 352.717) rotate(180)" fill="#e0e0e0"/>
      <rect id="Rectangle_129" data-name="Rectangle 129" width="42.688" height="86.866" transform="translate(329.151 80.265)" fill="#f5f5f5"/>
      <rect id="Rectangle_130" data-name="Rectangle 130" width="46.128" height="86.866" transform="translate(373.482 80.265)" fill="#f5f5f5"/>
      <rect id="Rectangle_131" data-name="Rectangle 131" width="46.128" height="83.929" transform="translate(373.482 173.197)" fill="#f5f5f5"/>
      <path id="Path_888" data-name="Path 888" d="M386.6,111.752h48.587V34.691h1.631v77.062h39.543V32.98H386.6Z" transform="translate(38.921 -32.98)" fill="#f5f5f5"/>
      <rect id="Rectangle_132" data-name="Rectangle 132" width="39.532" height="86.866" transform="translate(475.751 80.265)" fill="#f5f5f5"/>
      <rect id="Rectangle_133" data-name="Rectangle 133" width="39.532" height="83.929" transform="translate(475.751 173.197)" fill="#f5f5f5"/>
      <rect id="Rectangle_134" data-name="Rectangle 134" width="42.688" height="83.929" transform="translate(329.151 173.197)" fill="#f5f5f5"/>
      <rect id="Rectangle_135" data-name="Rectangle 135" width="48.575" height="83.929" transform="translate(425.521 173.197)" fill="#f5f5f5"/>
      <rect id="Rectangle_136" data-name="Rectangle 136" width="42.688" height="75.63" transform="translate(329.151 258.631)" fill="#f5f5f5"/>
      <rect id="Rectangle_137" data-name="Rectangle 137" width="39.532" height="75.63" transform="translate(475.751 258.631)" fill="#f5f5f5"/>
      <path id="Path_889" data-name="Path 889" d="M347.768,111.752V34.691h1.643v77.062h46.128V32.98H305.08v78.772Z" transform="translate(24.071 -32.98)" fill="#f5f5f5"/>
      <rect id="Rectangle_138" data-name="Rectangle 138" width="48.575" height="75.63" transform="translate(425.521 258.631)" fill="#f5f5f5"/>
      <rect id="Rectangle_139" data-name="Rectangle 139" width="46.128" height="75.63" transform="translate(373.482 258.631)" fill="#f5f5f5"/>
      <rect id="Rectangle_140" data-name="Rectangle 140" width="48.575" height="86.866" transform="translate(425.521 80.265)" fill="#f5f5f5"/>
      <path id="Path_890" data-name="Path 890" d="M316.57,442.99v36.4H425.613v-36.4Z" transform="translate(26.164 54.507)" fill="#f5f5f5"/>
      <path id="Path_891" data-name="Path 891" d="M312.7,434.61v10.168H430.136V434.61H312.7Z" transform="translate(25.459 52.719)" fill="#e0e0e0"/>
      <path id="Path_892" data-name="Path 892" d="M362.722,481.179h54.9v-36.4h3.818V434.61h-61v9.234Z" transform="translate(34.155 52.719)" fill="#e0e0e0"/>
      <rect id="Rectangle_141" data-name="Rectangle 141" width="22.118" height="5.472" transform="translate(357.984 503.37)" fill="#e0e0e0"/>
      <rect id="Rectangle_142" data-name="Rectangle 142" width="28.396" height="11.563" transform="translate(355.146 515.698)" fill="#fff"/>
      <path id="Path_893" data-name="Path 893" d="M330.76,404.65v36.4H439.8v-36.4Z" transform="translate(28.749 46.326)" fill="#f5f5f5"/>
      <path id="Path_894" data-name="Path 894" d="M326.89,396.27v10.168H444.326V396.27H326.89Z" transform="translate(28.044 44.538)" fill="#e0e0e0"/>
      <path id="Path_895" data-name="Path 895" d="M376.912,442.839h54.9v-36.4h3.818V396.27h-61V405.5Z" transform="translate(36.74 44.538)" fill="#e0e0e0"/>
      <rect id="Rectangle_143" data-name="Rectangle 143" width="22.118" height="5.472" transform="translate(374.759 456.849)" fill="#e0e0e0"/>
      <rect id="Rectangle_144" data-name="Rectangle 144" width="28.396" height="11.563" transform="translate(371.921 469.177)" fill="#fff"/>
    </g>
    <g id="freepik--Floor--inject-94" transform="translate(32.75 565.24)">
      <path id="Path_896" data-name="Path 896" d="M547.684,471.968c0,.17-115.486.315-257.925.315s-257.949-.146-257.949-.315,115.462-.328,257.949-.328S547.684,471.786,547.684,471.968Z" transform="translate(-31.81 -471.64)" fill="#263238"/>
    </g>
    <g id="freepik--Plant--inject-94" transform="translate(451.304 398.765)">
      <path id="Path_897" data-name="Path 897" d="M391.36,426.55l8.086,54.578h47.015l10.911-53.789Z" transform="translate(-384.866 -314.786)" fill="#40c2a4"/>
      <path id="Path_898" data-name="Path 898" d="M449.93,455.419c0,.158-12.046.291-26.906.291s-26.894-.133-26.894-.291,12.034-.279,26.894-.279S449.93,455.261,449.93,455.419Z" transform="translate(-383.997 -308.686)" fill="#fafafa"/>
      <path id="Path_899" data-name="Path 899" d="M450.137,453.209c0,.158-12.117.279-27.083.279s-27.083-.121-27.083-.279,12.129-.279,27.083-.279S450.137,453.015,450.137,453.209Z" transform="translate(-384.026 -309.157)" fill="#fafafa"/>
      <path id="Path_900" data-name="Path 900" d="M450.069,450.709c0,.158-12.129.291-27.083.291s-27.1-.133-27.1-.291,12.129-.279,27.1-.279S450.069,450.551,450.069,450.709Z" transform="translate(-384.041 -309.691)" fill="#fafafa"/>
      <path id="Path_901" data-name="Path 901" d="M403.131,471.435a46.531,46.531,0,0,1-1.442-6.868,47.5,47.5,0,0,1-.9-6.977,89.693,89.693,0,0,1,2.364,13.845Z" transform="translate(-383.148 -308.163)" fill="#fafafa"/>
      <path id="Path_902" data-name="Path 902" d="M405.615,470.834a54.217,54.217,0,0,1-.567-6.649,52.511,52.511,0,0,1-.3-6.734,34.544,34.544,0,0,1,.851,6.686,34.016,34.016,0,0,1,.012,6.7Z" transform="translate(-382.429 -308.193)" fill="#fafafa"/>
      <path id="Path_903" data-name="Path 903" d="M410.653,470.917a33.7,33.7,0,0,1-1.182-6.88,35.2,35.2,0,0,1-.355-6.977,61.5,61.5,0,0,1,.91,6.916,64.241,64.241,0,0,1,.627,6.94Z" transform="translate(-381.639 -308.276)" fill="#fafafa"/>
      <path id="Path_904" data-name="Path 904" d="M413.984,471.182a34.608,34.608,0,0,1-.65-6.989,35.691,35.691,0,0,1,.2-7.013,57.5,57.5,0,0,1,.343,7,60.262,60.262,0,0,1,.106,7Z" transform="translate(-380.879 -308.25)" fill="#fafafa"/>
      <path id="Path_905" data-name="Path 905" d="M420.093,470.814a39.415,39.415,0,0,1-.5-6.625,40.234,40.234,0,0,1,.059-6.649,41.86,41.86,0,0,1,.437,6.625A41.1,41.1,0,0,1,420.093,470.814Z" transform="translate(-379.742 -308.174)" fill="#fafafa"/>
      <path id="Path_906" data-name="Path 906" d="M424.5,471.131a84.678,84.678,0,0,1,.106-13.711,84.691,84.691,0,0,1-.106,13.711Z" transform="translate(-378.87 -308.199)" fill="#fafafa"/>
      <path id="Path_907" data-name="Path 907" d="M428.67,470.631a94.17,94.17,0,0,1,1.348-14.282,94.17,94.17,0,0,1-1.348,14.282Z" transform="translate(-378.07 -308.427)" fill="#fafafa"/>
      <path id="Path_908" data-name="Path 908" d="M434.08,469.636a38.462,38.462,0,0,1,2.542-11.976,59.178,59.178,0,0,1-1.182,5.994A55.459,55.459,0,0,1,434.08,469.636Z" transform="translate(-377.084 -308.148)" fill="#fafafa"/>
      <path id="Path_909" data-name="Path 909" d="M432.168,337.79a.9.9,0,0,1-.059.267l-.225.777c-.213.716-.508,1.7-.887,2.936s-.887,2.839-1.383,4.672-1.182,3.895-1.69,6.225-1.253,4.853-1.832,7.6-1.182,5.691-1.821,8.8c-1.123,6.212-2.152,13.1-2.873,20.36s-1,14.233-1.1,20.555c0,3.167,0,6.176.083,8.991s.189,5.436.331,7.814.319,4.55.461,6.443.307,3.531.461,4.854.225,2.318.307,3.07v.8a1.132,1.132,0,0,1,0,.267.987.987,0,0,0-.059-.267c-.059-.182-.071-.473-.13-.789-.095-.74-.236-1.771-.4-3.058s-.39-2.961-.556-4.854-.414-4.053-.544-6.443-.331-5.023-.4-7.838-.118-5.836-.13-9c.059-6.346.366-13.347,1.052-20.627s1.773-14.184,2.932-20.409c.627-3.106,1.182-6.067,1.868-8.8s1.277-5.29,1.9-7.608,1.241-4.38,1.773-6.2,1.04-3.385,1.478-4.647.745-2.208.993-2.912l.26-.764A1.2,1.2,0,0,1,432.168,337.79Z" transform="translate(-379.7 -333.725)" fill="#455a64"/>
      <path id="Path_910" data-name="Path 910" d="M423.2,367.47a17.851,17.851,0,0,1,7.306-9.477,4.111,4.111,0,0,1,3.866-.728c1.643.813,1.773,3.179,1.289,4.987a13.22,13.22,0,0,1-5.32,7.438,10.643,10.643,0,0,1-7.991,2.075" transform="translate(-379.221 -329.613)" fill="#455a64"/>
      <path id="Path_911" data-name="Path 911" d="M420.735,387.174c1.182-4.708,4.871-11.406,8.677-14.33a5.5,5.5,0,0,1,1.962-1.08,2.318,2.318,0,0,1,2.116.473,3.4,3.4,0,0,1,.473,3.13A18.78,18.78,0,0,1,420.25,389.54" transform="translate(-379.603 -326.494)" fill="#455a64"/>
      <path id="Path_912" data-name="Path 912" d="M420,403.184a27.447,27.447,0,0,1,8.748-11.3,4.1,4.1,0,0,1,3.062-1.116c1.655.3,2.364,2.427,2.27,4.113-.307,3.555-2.955,6.407-5.674,8.615a34.917,34.917,0,0,1-8.1,4.271" transform="translate(-379.649 -322.422)" fill="#455a64"/>
      <path id="Path_913" data-name="Path 913" d="M420.36,414.618a26.564,26.564,0,0,1,7.448-8.7,5.466,5.466,0,0,1,2.234-1.031,2.264,2.264,0,0,1,2.2.861c.745,1.128,0,2.645-.768,3.737a21.324,21.324,0,0,1-10.64,8" transform="translate(-379.583 -319.416)" fill="#455a64"/>
      <path id="Path_914" data-name="Path 914" d="M422.167,410.185a83.678,83.678,0,0,0-10.639-11.139c-.6-.522-1.371-1.08-2.116-.825a1.626,1.626,0,0,0-.981,1.468,4.3,4.3,0,0,0,.4,1.832,20.826,20.826,0,0,0,13.713,11.843" transform="translate(-381.757 -320.844)" fill="#455a64"/>
      <path id="Path_915" data-name="Path 915" d="M422.79,394.964l-8.37-10.411a10.176,10.176,0,0,0-2.719-2.645,3.387,3.387,0,0,0-3.546,0,3.534,3.534,0,0,0-1.182,3.458A9.065,9.065,0,0,0,408.6,388.8a25.429,25.429,0,0,0,6.088,6.649c2.459,1.735,4.729,2.863,7.649,2.427" transform="translate(-382.037 -324.419)" fill="#455a64"/>
      <path id="Path_916" data-name="Path 916" d="M423.588,377.665a30.059,30.059,0,0,0-8.417-12.983,4.973,4.973,0,0,0-2.2-1.31,3.7,3.7,0,0,0-3.83,2.766,7.248,7.248,0,0,0,.757,5.691,14.842,14.842,0,0,0,3.937,4.259,33.853,33.853,0,0,0,9.3,5.169" transform="translate(-381.676 -328.269)" fill="#455a64"/>
      <path id="Path_917" data-name="Path 917" d="M426.09,362.764c-.8-6.067-3.889-11.127-7.459-16.029-.745-1.043-1.8-2.136-3.038-1.941a2.384,2.384,0,0,0-1.75,1.541,5.979,5.979,0,0,0-.331,2.427,18.724,18.724,0,0,0,11.822,16.745" transform="translate(-380.834 -332.236)" fill="#455a64"/>
      <path id="Path_918" data-name="Path 918" d="M426.191,355.334a51.875,51.875,0,0,1-.307-9.379,17.173,17.173,0,0,1,3.038-8.748,7.128,7.128,0,0,1,3.038-2.487,3.761,3.761,0,0,1,3.724.51,4.234,4.234,0,0,1,1.277,3.373,10.889,10.889,0,0,1-.934,3.64c-2.234,5.509-5.911,11.6-9.836,13.141" transform="translate(-378.593 -334.44)" fill="#455a64"/>
      <path id="Path_919" data-name="Path 919" d="M395.343,357.62a4.991,4.991,0,0,1,0,.777v5.679c0,1.359,0,2.912.165,4.611.142,3.422.461,7.474.969,11.964s1.289,9.392,2.364,14.488,2.293,9.9,3.547,14.233,2.577,8.166,3.783,11.357c.567,1.6,1.182,3.021,1.655,4.283s.946,2.342,1.324,3.215l.839,2.026a7.238,7.238,0,0,1,.26.716,3.218,3.218,0,0,1-.366-.667l-.934-1.99c-.4-.862-.887-1.917-1.407-3.179s-1.182-2.657-1.726-4.259c-1.253-3.179-2.589-7.026-3.925-11.345s-2.542-9.149-3.606-14.269S396.525,385.212,396,380.7s-.757-8.579-.851-12c-.083-1.711-.071-3.264-.083-4.623s0-2.536,0-3.495.059-1.638.083-2.208a3.271,3.271,0,0,1,.189-.752Z" transform="translate(-384.191 -329.494)" fill="#263238"/>
      <path id="Path_920" data-name="Path 920" d="M396.41,379.786a13,13,0,0,1,2.979-8.069,2.982,2.982,0,0,1,2.482-1.347c1.289.194,1.88,1.772,1.915,3.106a9.527,9.527,0,0,1-2.057,6.249,7.707,7.707,0,0,1-5,3.167" transform="translate(-383.946 -326.774)" fill="#263238"/>
      <path id="Path_921" data-name="Path 921" d="M398.813,393.762c-.166-3.47.922-8.833,2.908-11.661a4.012,4.012,0,0,1,1.111-1.213,1.618,1.618,0,0,1,1.537-.146,2.448,2.448,0,0,1,.981,2.026,13.674,13.674,0,0,1-6.313,12.716" transform="translate(-383.512 -324.588)" fill="#263238"/>
      <path id="Path_922" data-name="Path 922" d="M401.92,404.818a19.859,19.859,0,0,1,3.547-9.622,2.966,2.966,0,0,1,1.844-1.444c1.182-.158,2.14,1.092,2.364,2.305.544,2.487-.662,5.011-2.057,7.11a25.407,25.407,0,0,1-4.61,4.7" transform="translate(-382.942 -321.787)" fill="#263238"/>
      <path id="Path_923" data-name="Path 923" d="M404.74,412.469a19.157,19.157,0,0,1,3.239-7.571,3.879,3.879,0,0,1,1.312-1.213,1.561,1.561,0,0,1,1.667.1c.745.595.579,1.8.26,2.706a15.538,15.538,0,0,1-5.556,7.8" transform="translate(-382.429 -319.707)" fill="#263238"/>
      <path id="Path_924" data-name="Path 924" d="M405.268,408.636a58.132,58.132,0,0,0-9.587-5.23,1.653,1.653,0,0,0-1.62-.1,1.234,1.234,0,0,0-.355,1.213,2.959,2.959,0,0,0,.662,1.213,14.547,14.547,0,0,0,11.822,5.036" transform="translate(-384.446 -319.781)" fill="#263238"/>
      <path id="Path_925" data-name="Path 925" d="M402.353,398.216l-7.885-5.278a7.235,7.235,0,0,0-2.364-1.213,2.408,2.408,0,0,0-2.447.764,2.481,2.481,0,0,0,0,2.6,6.459,6.459,0,0,0,1.832,1.99,17.612,17.612,0,0,0,5.544,3.179,7.133,7.133,0,0,0,5.71,0" transform="translate(-385.243 -322.234)" fill="#263238"/>
      <path id="Path_926" data-name="Path 926" d="M399.149,386.3a20.928,20.928,0,0,0-8.452-6.977,3.391,3.391,0,0,0-1.773-.413,2.707,2.707,0,0,0-2.033,2.73,5.163,5.163,0,0,0,1.714,3.713,10.341,10.341,0,0,0,3.547,2.026,23.11,23.11,0,0,0,7.412,1.456" transform="translate(-385.681 -324.952)" fill="#263238"/>
      <path id="Path_927" data-name="Path 927" d="M397.657,375.54c-1.821-3.943-4.977-6.71-8.441-9.258a2.5,2.5,0,0,0-2.471-.655,1.789,1.789,0,0,0-.875,1.432,4.348,4.348,0,0,0,.284,1.735,13.046,13.046,0,0,0,11.585,8.785" transform="translate(-385.867 -327.806)" fill="#263238"/>
      <path id="Path_928" data-name="Path 928" d="M395.868,370.814a35.806,35.806,0,0,1-2.175-6.322,12.3,12.3,0,0,1,.236-6.613,5.085,5.085,0,0,1,1.549-2.427,2.664,2.664,0,0,1,2.636-.485,2.994,2.994,0,0,1,1.584,2.014,8.018,8.018,0,0,1,.106,2.657c-.366,4.247-1.62,9.21-3.937,11.115" transform="translate(-384.504 -330.094)" fill="#263238"/>
      <path id="Path_929" data-name="Path 929" d="M447.885,357.19a3.164,3.164,0,0,1,.071.764c0,.558,0,1.286.083,2.2a28.458,28.458,0,0,1,0,3.495c-.059,1.359,0,2.912-.083,4.623-.095,3.422-.378,7.5-.851,12s-1.253,9.428-2.282,14.561-2.364,9.938-3.606,14.269-2.672,8.166-3.925,11.345c-.591,1.6-1.182,3.021-1.726,4.271s-1,2.318-1.407,3.179-.7,1.48-.934,1.978a3.669,3.669,0,0,1-.366.68,6.622,6.622,0,0,1,.26-.728l.839-2.026c.378-.874.839-1.941,1.324-3.2s1.088-2.682,1.655-4.3c1.182-3.179,2.494-7.038,3.783-11.345s2.506-9.137,3.547-14.233,1.773-10.023,2.364-14.5.828-8.494.969-11.952c.118-1.711.118-3.252.166-4.611s0-2.536,0-3.482v-2.208a4.864,4.864,0,0,1,.118-.776Z" transform="translate(-377.306 -329.586)" fill="#455a64"/>
      <path id="Path_930" data-name="Path 930" d="M445.6,379.346a12.974,12.974,0,0,0-2.979-8.057,2.994,2.994,0,0,0-2.483-1.359c-1.289.194-1.88,1.784-1.915,3.118a9.49,9.49,0,0,0,2.057,6.237,7.719,7.719,0,0,0,5,3.179" transform="translate(-376.331 -326.868)" fill="#455a64"/>
      <path id="Path_931" data-name="Path 931" d="M443.073,393.315c.165-3.482-.922-8.846-2.908-11.673a3.831,3.831,0,0,0-1.111-1.213,1.584,1.584,0,0,0-1.537-.146,2.448,2.448,0,0,0-.981,2.014,13.67,13.67,0,0,0,6.372,12.68" transform="translate(-376.644 -324.687)" fill="#455a64"/>
      <path id="Path_932" data-name="Path 932" d="M440.216,404.376a19.859,19.859,0,0,0-3.547-9.622,2.942,2.942,0,0,0-1.844-1.432c-1.182-.158-2.14,1.092-2.364,2.293-.544,2.487.662,5.011,2.057,7.123a25.438,25.438,0,0,0,4.516,4.756" transform="translate(-377.403 -321.879)" fill="#455a64"/>
      <path id="Path_933" data-name="Path 933" d="M437.17,412.039a19.083,19.083,0,0,0-3.239-7.571,3.8,3.8,0,0,0-1.312-1.213,1.585,1.585,0,0,0-1.667.1c-.745.607-.579,1.8-.26,2.718a15.451,15.451,0,0,0,5.556,7.79" transform="translate(-377.75 -319.798)" fill="#455a64"/>
      <path id="Path_934" data-name="Path 934" d="M437.532,408.194a59.045,59.045,0,0,1,9.587-5.23,1.687,1.687,0,0,1,1.62-.085,1.234,1.234,0,0,1,.355,1.213,3.041,3.041,0,0,1-.662,1.153,14.617,14.617,0,0,1-11.822,5.035" transform="translate(-376.623 -319.873)" fill="#455a64"/>
      <path id="Path_935" data-name="Path 935" d="M440.59,397.775l7.885-5.278a7.469,7.469,0,0,1,2.364-1.213,2.443,2.443,0,0,1,2.447.764,2.481,2.481,0,0,1,0,2.609,6.29,6.29,0,0,1-1.832,1.978,17.319,17.319,0,0,1-5.544,3.179,7.133,7.133,0,0,1-5.71,0" transform="translate(-375.969 -322.328)" fill="#455a64"/>
      <path id="Path_936" data-name="Path 936" d="M443.674,385.838a20.807,20.807,0,0,1,8.452-6.965,3.39,3.39,0,0,1,1.773-.413,2.707,2.707,0,0,1,2.033,2.73,5.126,5.126,0,0,1-1.714,3.7,10.566,10.566,0,0,1-3.547,2.038,23.477,23.477,0,0,1-7.412,1.456" transform="translate(-375.412 -325.048)" fill="#455a64"/>
      <path id="Path_937" data-name="Path 937" d="M445,375.119c1.821-3.956,4.977-6.71,8.441-9.27.721-.534,1.667-1.056,2.471-.643a1.765,1.765,0,0,1,.875,1.432,4.322,4.322,0,0,1-.284,1.723,13.047,13.047,0,0,1-11.5,8.761" transform="translate(-375.095 -327.907)" fill="#455a64"/>
      <path id="Path_938" data-name="Path 938" d="M446.007,370.334a36.562,36.562,0,0,0,2.175-6.322,12.353,12.353,0,0,0-.236-6.625,5.146,5.146,0,0,0-1.549-2.427,2.687,2.687,0,0,0-2.636-.473,2.994,2.994,0,0,0-1.584,2.014,7.928,7.928,0,0,0-.106,2.645c.366,4.247,1.62,9.222,3.937,11.127" transform="translate(-375.64 -330.196)" fill="#455a64"/>
      <path id="Path_939" data-name="Path 939" d="M386.8,417.64v10.217a3.966,3.966,0,0,0,3.913,4.016h68.069a3.977,3.977,0,0,0,3.925-4.016V417.64Z" transform="translate(-385.697 -316.687)" fill="#40c2a4"/>
      <g id="Group_8472" data-name="Group 8472" transform="translate(7.002 115.186)" opacity="0.4">
        <path id="Path_940" data-name="Path 940" d="M391.79,429.37l.567,3.252,62.809,4.587,1.6-7.839Z" transform="translate(-391.79 -429.37)"/>
      </g>
    </g>
    <g id="freepik--Character--inject-94" transform="translate(102.616 105.468)">
      <path id="Path_941" data-name="Path 941" d="M181.085,141.024c-3.546-5.691-.934-15.519-2.849-21.974s-1.655-10.447-5.757-15.665a31.81,31.81,0,0,0-15.711-10.01,29.533,29.533,0,0,0-24.294,5.569c-3.546,2.633-7.093,5.594-9.268,9.513-2.684,4.769-3.1,10.156-2.967,15.774l-.343-.364a15.242,15.242,0,0,0-9.008-3,7.712,7.712,0,0,0-4.339,1.068,4.253,4.253,0,0,0-2,3.883c.307,2.427,2.92,3.64,5.154,4.465a5.92,5.92,0,0,0-2.961,7.436,5.672,5.672,0,0,0,7.051,3.485c3.18-.91,4.871-4.271,6.868-7.123a38.231,38.231,0,0,1-1.525,13.808c-1.8,5.193-5.5,10.01-5.083,15.495.189,2.427,1.182,4.926.768,7.365-.733,3.774-4.729,5.885-6.549,9.222-2.494,4.417-.78,10.362,2.754,13.954s8.464,5.327,13.276,6.613c11.408,3.058,24.388,4.028,34.2-2.682L186,169.078C187.149,161.834,187.326,151.144,181.085,141.024Z" transform="translate(-88.426 -92.721)" fill="#263238"/>
      <path id="Path_942" data-name="Path 942" d="M165.729,458.28v1.383s23.277,8.809,23.643,13.287l-45.7,1.116.26-15.628a25.6,25.6,0,0,0,21.8-.158Z" transform="translate(-81.299 -14.719)" fill="#40c2a4"/>
      <g id="Group_8473" data-name="Group 8473" transform="translate(66.189 448.543)" opacity="0.6">
        <path id="Path_943" data-name="Path 943" d="M148.129,462.439a1.914,1.914,0,0,0-1.182,2.22,1.781,1.781,0,0,0,2.128,1.274,2.034,2.034,0,0,0,1.3-2.354,1.853,1.853,0,0,0-2.364-1.08" transform="translate(-146.9 -462.386)" fill="#fff"/>
      </g>
      <g id="Group_8474" data-name="Group 8474" transform="translate(62.418 455.586)" opacity="0.6">
        <path id="Path_944" data-name="Path 944" d="M143.71,471.952V468.19l43.74.3s2.057.861,1.856,2.342Z" transform="translate(-143.71 -468.19)" fill="#fff"/>
      </g>
      <path id="Path_945" data-name="Path 945" d="M163.132,459.564c0,.231-1.111.364-2.187,1.116s-1.643,1.747-1.856,1.662.095-1.42,1.419-2.318S163.18,459.346,163.132,459.564Z" transform="translate(-78.501 -14.486)" fill="#263238"/>
      <path id="Path_946" data-name="Path 946" d="M167.065,461.125c.059.218-.9.631-1.643,1.626s-.922,2.014-1.182,2-.4-1.286.544-2.5S167.053,460.907,167.065,461.125Z" transform="translate(-77.587 -14.13)" fill="#263238"/>
      <path id="Path_947" data-name="Path 947" d="M169.045,466.612c-.2,0-.544-1.08,0-2.354s1.584-1.8,1.679-1.6-.532.874-.969,1.917S169.282,466.588,169.045,466.612Z" transform="translate(-76.73 -13.793)" fill="#263238"/>
      <path id="Path_948" data-name="Path 948" d="M121.334,256.17l75.978,17.715-1.43,9.877-21.74,176.049-15.025-.352-1.549,13-23.809.364s-3.546-43.912-4.48-59.589-1.43-42.6-4.291-59.249S102.94,287.827,121.334,256.17Z" transform="translate(-86.803 -57.844)" fill="#263238"/>
      <path id="Path_949" data-name="Path 949" d="M167.311,427.41c-.177,1.383-3.547,40.114-3.547,40.114H146.516l-3.026-39.957Z" transform="translate(-81.332 -21.306)" fill="#eb996e"/>
      <path id="Path_950" data-name="Path 950" d="M154.439,433.51c-.166,1.383-3.546,40.114-3.546,40.114H133.656l-3.026-39.956Z" transform="translate(-83.674 -20.004)" fill="#ffbe9d"/>
      <path id="Path_951" data-name="Path 951" d="M169.972,418.05l-2.234,12.5-16.728-.206.366-12.085Z" transform="translate(-79.962 -23.303)" fill="#455a64"/>
      <path id="Path_952" data-name="Path 952" d="M159.646,281.81a2.493,2.493,0,0,1,0,.449v1.323c0,1.213-.095,2.912-.166,5.084-.177,4.465-.426,10.848-.745,18.722-.686,15.835-1.631,37.615-2.672,61.749s-2.128,45.926-2.861,61.761c-.39,7.863-.709,14.245-.934,18.71-.118,2.172-.213,3.883-.284,5.084l-.095,1.323a2.787,2.787,0,0,1,0,.449,2.755,2.755,0,0,1,0-.461c0-.328,0-.764,0-1.323,0-1.213.095-2.9.165-5.084.177-4.465.426-10.848.745-18.722.686-15.835,1.631-37.615,2.672-61.749s2.128-45.914,2.861-61.749c.39-7.863.709-14.257.934-18.71.118-2.172.213-3.883.284-5.084,0-.558.071-.995.095-1.323A2.489,2.489,0,0,1,159.646,281.81Z" transform="translate(-79.803 -52.373)" fill="#455a64"/>
      <path id="Path_953" data-name="Path 953" d="M158.191,427.41l-2.234,12.5h-26.22l-1.856-12.085Z" transform="translate(-84.175 -21.306)" fill="#455a64"/>
      <path id="Path_954" data-name="Path 954" d="M133.478,461.81s12.141,8.845,18.016,1.213l1.537,3.713,6.9,26.427A3.559,3.559,0,0,1,158,497.4a3.27,3.27,0,0,1-3.547-.692c-4.989-4.853-23.277-22.9-23.1-25.347l.071-6.479a3.324,3.324,0,0,1,2.045-3.046Z" transform="translate(-83.543 -13.965)" fill="#40c2a4"/>
      <g id="Group_8475" data-name="Group 8475" transform="translate(47.833 455.113)" opacity="0.6">
        <path id="Path_955" data-name="Path 955" d="M157.389,496.278,131.381,467.8v1.456a4.013,4.013,0,0,0,1.182,3.131c2.116,2.912,7.944,9.44,21.775,23.054a3.23,3.23,0,0,0,3.026.874Z" transform="translate(-131.372 -467.8)" fill="#fff"/>
      </g>
      <g id="Group_8476" data-name="Group 8476" transform="translate(48.709 450.584)" opacity="0.6">
        <path id="Path_956" data-name="Path 956" d="M135.029,464.374a2.122,2.122,0,0,1,.567,2.706,1.92,1.92,0,0,1-2.613.607,2.234,2.234,0,0,1-.579-2.876,1.986,1.986,0,0,1,2.778-.316" transform="translate(-132.113 -464.068)" fill="#fff"/>
      </g>
      <path id="Path_957" data-name="Path 957" d="M147,479.926c.189.1.91-1.662,2.849-2.609a9.994,9.994,0,0,1,3.747-.752c0-.085-.378-.34-1.182-.449a5.064,5.064,0,0,0-2.92.546,5.339,5.339,0,0,0-2.187,2.051A3.2,3.2,0,0,0,147,479.926Z" transform="translate(-80.692 -10.92)" fill="#263238"/>
      <path id="Path_958" data-name="Path 958" d="M149,483.362a22.965,22.965,0,0,1,2.884-1.456,25.172,25.172,0,0,1,3.18-.437c.095-.17-1.478-.874-3.393-.267S148.849,483.265,149,483.362Z" transform="translate(-80.331 -9.879)" fill="#263238"/>
      <path id="Path_959" data-name="Path 959" d="M143.362,475.245c.154.158,1.75-1.541,4.291-2.548a30.617,30.617,0,0,1,4.835-1.214c0-.182-2.364-.643-5.1.485S143.2,475.148,143.362,475.245Z" transform="translate(-81.357 -11.954)" fill="#263238"/>
      <path id="Path_960" data-name="Path 960" d="M142.871,468.162c.083.194,1.88-.583,4.22-.68s4.209.473,4.279.267-1.785-1.141-4.3-1.007S142.764,468,142.871,468.162Z" transform="translate(-81.445 -12.916)" fill="#263238"/>
      <path id="Path_961" data-name="Path 961" d="M148.4,468.353a2.8,2.8,0,0,0-.177-1.213,8.9,8.9,0,0,0-1.56-3.082,3.9,3.9,0,0,0-1.927-1.517,1.355,1.355,0,0,0-1.442.582,2.346,2.346,0,0,0-.236,1.59,4.744,4.744,0,0,0,4.871,3.64,5.518,5.518,0,0,0,4.729-3.907,2.011,2.011,0,0,0-.2-1.614,1.315,1.315,0,0,0-1.49-.449,4.654,4.654,0,0,0-1.9,1.541,9.765,9.765,0,0,0-1.714,2.973,2.69,2.69,0,0,0-.284,1.213,15.255,15.255,0,0,1,2.364-3.859,4.325,4.325,0,0,1,1.69-1.286.7.7,0,0,1,.816.231,1.391,1.391,0,0,1,.071,1.068,4.907,4.907,0,0,1-4.161,3.337,4.11,4.11,0,0,1-4.185-3.009,1.727,1.727,0,0,1,.118-1.116.737.737,0,0,1,.792-.34,3.551,3.551,0,0,1,1.655,1.213A12.776,12.776,0,0,1,148.4,468.353Z" transform="translate(-81.419 -13.859)" fill="#263238"/>
      <path id="Path_962" data-name="Path 962" d="M252.267,169.679s6.372-9.343,7.755-10.132,13.11-3.167,14.009-2.718,13.961,4.975,12.176,6.358-10.888-1.881-10.888-1.881l-1.348.437s7.885,2.621,9.457,3.907.579,3.07-.875,2.669-8.275-2.924-8.736-2.694,7.353,3.179,8.133,3.846c1.064.9.863,3.046-.6,2.706-.863-.206-8.157-3.446-8.157-3.446a67.151,67.151,0,0,1,6.147,3.992,1.146,1.146,0,0,1-1.419,1.759c-.863-.352-4.811-3.118-5.97-3.64,0,0-1.182.121-2.542,2.293s-8.039,6.661-8.039,6.661l-4.5,2.73L249.3,171.779Z" transform="translate(-62.057 -79.053)" fill="#ffbe9d"/>
      <path id="Path_963" data-name="Path 963" d="M254.39,169.1a2.655,2.655,0,0,0,3.121.5c1.04-.437,1.915-1.213,2.932-1.747,3.026-1.529,6.892-.437,9.847-2.111.414-.243.851-.655.709-1.128s-.638-.558-1.076-.607l-11.1-1.5" transform="translate(-61.129 -77.831)" fill="#ffbe9d"/>
      <path id="Path_964" data-name="Path 964" d="M258.833,162.508a4.113,4.113,0,0,1,1.182,0l3.286.352,4.871.582,1.395.182a2.144,2.144,0,0,1,1.572.607.967.967,0,0,1,0,1.08,1.915,1.915,0,0,1-.662.655,8.057,8.057,0,0,1-1.525.655,43.251,43.251,0,0,1-5.994.752,8.229,8.229,0,0,0-2.423.7,14.924,14.924,0,0,0-1.951,1.213,3.89,3.89,0,0,1-3.286.631c-.792-.3-.993-.8-.958-.789a3.187,3.187,0,0,0,1.028.534,3.746,3.746,0,0,0,2.979-.777,21.758,21.758,0,0,1,1.951-1.213,8.583,8.583,0,0,1,2.577-.8,50.011,50.011,0,0,0,5.911-.789,7.147,7.147,0,0,0,1.383-.595c.4-.231.638-.607.461-.789a2.321,2.321,0,0,0-1.182-.364l-1.407-.206-4.847-.728c-1.371-.206-2.494-.4-3.263-.546A4.643,4.643,0,0,1,258.833,162.508Z" transform="translate(-61.139 -77.839)" fill="#eb996e"/>
      <path id="Path_965" data-name="Path 965" d="M283.1,162.512a6.4,6.4,0,0,1-2.553.3,14.689,14.689,0,0,1-2.778-.328c-1.017-.279-2.1-.631-3.263-.983l-2.447-.777h.154a37.038,37.038,0,0,1-6.076.934,35.442,35.442,0,0,1,5.911-1.553h.154l2.435.74,3.216,1.019a17.314,17.314,0,0,0,2.672.461C282.123,162.488,283.092,162.4,283.1,162.512Z" transform="translate(-58.989 -78.341)" fill="#eb996e"/>
      <path id="Path_966" data-name="Path 966" d="M169.7,153.593s14.281-.789,21.456,2.827,38.787,25.93,38.787,25.93l32.391-12.316L273.8,185.99l-28.088,20.991a23.322,23.322,0,0,1-22.769,2.22L186.6,194.387Z" transform="translate(-76.557 -79.748)" fill="#40c2a4"/>
      <path id="Path_967" data-name="Path 967" d="M222.636,192.972a7.346,7.346,0,0,1-1.088-2.111,22.312,22.312,0,0,1-1.359-5.618,21.864,21.864,0,0,1,.154-5.776,7.715,7.715,0,0,1,.615-2.318,42.425,42.425,0,0,0-.213,8.033A42.338,42.338,0,0,0,222.636,192.972Z" transform="translate(-67.382 -74.705)" fill="#263238"/>
      <g id="Group_8477" data-name="Group 8477" transform="translate(151.471 102.821)" opacity="0.3">
        <path id="Path_968" data-name="Path 968" d="M220.849,177.46c-1.336,1.213-1.62,3.191-1.726,5.011a49.432,49.432,0,0,0,.2,8.154,10.836,10.836,0,0,0,1.123,4.283,1.992,1.992,0,0,0,1.182,1.068c.922.218,1.75-.8,1.773-1.784a6.178,6.178,0,0,0-.863-2.73,20.707,20.707,0,0,1-1.643-13.189" transform="translate(-219.04 -177.46)"/>
      </g>
      <path id="Path_969" data-name="Path 969" d="M130.072,159.413c-.7.243-8.37,5.363-14.411,9.44a10.85,10.85,0,0,0-3.783,13.274l14.99,34.581,5.249,20.955-17.011,45.89,1.182,5.1,81.487,7.147,3.972-9.61-4.729-43.682V187.661l-13-34.181-22.39.291Z" transform="translate(-87.254 -79.756)" fill="#40c2a4"/>
      <g id="Group_8478" data-name="Group 8478" transform="translate(104.372 76.296)" opacity="0.3">
        <path id="Path_970" data-name="Path 970" d="M181.423,155.6a2.55,2.55,0,0,1,2.364,1.541,7.905,7.905,0,0,1,.6,3.021c.958,14.852.4,33,.177,48.256l1.017,47.043c-4.35-8.324-4.729-18.2-5.131-27.568q-.437-12.728-.91-25.481c-.508-14.075.165-28.15-.343-42.226C179.176,158.342,179.59,155.831,181.423,155.6Z" transform="translate(-179.199 -155.6)"/>
      </g>
      <g id="Group_8479" data-name="Group 8479" transform="translate(35.215 131.384)" opacity="0.3">
        <path id="Path_971" data-name="Path 971" d="M120.783,252.872c.437-1.48,1.572-4.235,1.572-4.235,4.114-6.9,7.247-18.31,6.75-26.379,0,0-1.927-8.336-4.008-16.15L122.911,201l.142.073c3.677,1.735,5.911,6.9,6.431,11.017s1,8.821,4.055,11.648c2,1.869,4.8,2.572,6.975,4.223a10.424,10.424,0,0,1,4.031,8.421c0,1.359-.272,2.949.686,3.907,1.182,1.141,2.967.546,4.445,0s3.476-.874,4.291.51a2.774,2.774,0,0,1-.863,3.288,22.4,22.4,0,0,1-3.121,1.844c-2.565,1.59-4.031,4.5-6.195,6.625-4.291,4.247-10.734,4.987-16.669,5.5-1.75.158-3.736.218-4.977-1.056A4.4,4.4,0,0,1,120.783,252.872Z" transform="translate(-120.698 -201)"/>
      </g>
      <path id="Path_972" data-name="Path 972" d="M115,271.652c0-.109,1.454.328,3.783.716a32.248,32.248,0,0,0,18.075-2.245c2.175-.934,3.452-1.7,3.546-1.6s-.272.255-.839.631a20.986,20.986,0,0,1-2.483,1.383,29.036,29.036,0,0,1-18.335,2.245,19.79,19.79,0,0,1-2.731-.752,3.487,3.487,0,0,1-1.017-.376Z" transform="translate(-86.522 -55.211)" fill="#455a64"/>
      <path id="Path_973" data-name="Path 973" d="M164.374,236.383l-.426-.667s2.483,3.495,1.478,6.31a3.183,3.183,0,0,1-.662,1.116,4.564,4.564,0,0,1-2.164,3.916,4.323,4.323,0,0,1-4.385.076,1.881,1.881,0,0,1-1.182-1.808,2.44,2.44,0,0,1,.6-1.031,3.372,3.372,0,0,0,.366-.522l-3.038-.607s-7.365-.461-9.351-4.5c-.319-.643-16.113.631-16.113.631l1.182-18.286,26.433,3.64s18.714,2.22,20.534,2.208a1.782,1.782,0,0,1,1.57.58,1.891,1.891,0,0,1,.439,1.653c-.071,1.213-.981,1.723-2.79,1.8-.615,0-11.822.4-11.822.4h0c.946,1.432,2.152,3.737.674,4.574Z" transform="translate(-83.88 -65.347)" fill="#ffbe9d"/>
      <path id="Path_974" data-name="Path 974" d="M154.46,235.472c0-.085.508-.1,1.336,0a6.669,6.669,0,0,1,3.085,1.068,3.741,3.741,0,0,1,1.7,2.888c0,.91-.343,1.383-.4,1.347s.095-.534,0-1.3a3.643,3.643,0,0,0-1.608-2.427,8.572,8.572,0,0,0-2.825-1.153C154.933,235.7,154.436,235.557,154.46,235.472Z" transform="translate(-79.333 -62.275)" fill="#eb996e"/>
      <path id="Path_975" data-name="Path 975" d="M154.65,230.758c0-.073.615-.085,1.525.231a7.516,7.516,0,0,1,3.145,2.1,7.65,7.65,0,0,1,1.75,3.385,2.86,2.86,0,0,1,.095,1.59,13.326,13.326,0,0,0-2.305-4.55A12.636,12.636,0,0,0,154.65,230.758Z" transform="translate(-79.299 -63.276)" fill="#eb996e"/>
      <path id="Path_976" data-name="Path 976" d="M156.47,228.383c0-.17,1.076-.243,2.27.243s1.951,1.213,1.844,1.383-.958-.364-2.069-.8S156.458,228.552,156.47,228.383Z" transform="translate(-78.967 -63.801)" fill="#eb996e"/>
      <path id="Path_977" data-name="Path 977" d="M156.762,240.824c-.142.085-.6-.473-1.383-.728s-1.478-.1-1.549-.267.709-.679,1.738-.328S156.94,240.775,156.762,240.824Z" transform="translate(-79.449 -61.427)" fill="#eb996e"/>
      <path id="Path_978" data-name="Path 978" d="M128.727,207.82l-7.566,20.53,28.195,4.392-1.395,24.522-38.751-1.687a19.145,19.145,0,0,1-18.3-18.2v-1.31c.154-7.28,12.555-40.333,18.241-57.4a23.577,23.577,0,0,1,9.836-12.352h0Z" transform="translate(-90.91 -77.018)" fill="#40c2a4"/>
      <path id="Path_979" data-name="Path 979" d="M144.418,246.514a12.617,12.617,0,0,1,0-1.869c.059-1.3.118-3.033.213-5.157.225-4.477.532-10.569.887-17.509l.26.328-5.911-.874c-8.169-1.213-15.546-2.354-20.889-3.2l-6.313-1.044-1.714-.315a2.109,2.109,0,0,1-.591-.158,2.512,2.512,0,0,1,.6,0l1.738.194,6.336.837c5.367.74,12.756,1.808,20.913,3.033l5.911.874h.272v.279c-.437,6.928-.828,13.02-1.1,17.5-.166,2.111-.3,3.846-.39,5.145A9.95,9.95,0,0,1,144.418,246.514Z" transform="translate(-87.367 -66.267)" fill="#263238"/>
      <path id="Path_980" data-name="Path 980" d="M115.131,174.52a7.094,7.094,0,0,1,.816.74,22.465,22.465,0,0,1,1.951,2.293,33.4,33.4,0,0,1,6.6,18.662,21.519,21.519,0,0,1,0,3.046,4.266,4.266,0,0,1-.154,1.1c-.118,0,0-1.59-.225-4.126A37.264,37.264,0,0,0,117.6,177.82C116.159,175.746,115.048,174.593,115.131,174.52Z" transform="translate(-86.499 -75.267)" fill="#263238"/>
      <path id="Path_981" data-name="Path 981" d="M183.381,186.971a17.641,17.641,0,0,1,0-3.131c.071-1.929.154-4.6.165-7.535s-.071-5.606-.13-7.535a19.92,19.92,0,0,1,0-3.131,13.675,13.675,0,0,1,.437,3.106c.177,1.929.307,4.6.307,7.559s-.165,5.63-.343,7.559a14.246,14.246,0,0,1-.437,3.106Z" transform="translate(-74.078 -77.161)" fill="#263238"/>
      <path id="Path_982" data-name="Path 982" d="M129,251.51a13.883,13.883,0,0,1,1.939.752c1.182.534,3.015,1.274,5.225,2.16a163.648,163.648,0,0,0,17.662,5.861A159.678,159.678,0,0,0,172.031,264c2.364.34,4.268.582,5.592.74a14.346,14.346,0,0,1,2.045.3,11.608,11.608,0,0,1-2.069-.061c-1.336-.073-3.251-.255-5.627-.534a136.4,136.4,0,0,1-18.312-3.555,134.929,134.929,0,0,1-17.732-6.067c-2.2-.934-3.96-1.735-5.166-2.342A11.727,11.727,0,0,1,129,251.51Z" transform="translate(-83.971 -58.839)" fill="#263238"/>
      <path id="Path_983" data-name="Path 983" d="M172.37,190.873a1.183,1.183,0,1,0,1.182-1.213A1.2,1.2,0,0,0,172.37,190.873Z" transform="translate(-76.071 -72.036)" fill="#263238"/>
      <path id="Path_984" data-name="Path 984" d="M240.35,183.433a1.183,1.183,0,1,0,1.182-1.213A1.2,1.2,0,0,0,240.35,183.433Z" transform="translate(-63.687 -73.624)" fill="#263238"/>
      <path id="Path_985" data-name="Path 985" d="M208.788,179.62a1.231,1.231,0,0,0,.438,1.345,1.158,1.158,0,0,0,1.381,0,1.231,1.231,0,0,0,.438-1.345,1.173,1.173,0,0,0-2.258,0Z" transform="translate(-69.446 -74.36)" fill="#263238"/>
      <path id="Path_986" data-name="Path 986" d="M192.39,165.853a1.183,1.183,0,1,0,1.182-1.213A1.2,1.2,0,0,0,192.39,165.853Z" transform="translate(-72.424 -77.375)" fill="#263238"/>
      <path id="Path_987" data-name="Path 987" d="M170.12,205.393a1.183,1.183,0,1,0,1.182-1.213A1.2,1.2,0,0,0,170.12,205.393Z" transform="translate(-76.481 -68.938)" fill="#263238"/>
      <path id="Path_988" data-name="Path 988" d="M227.8,180.643a1.183,1.183,0,1,0,1.182-1.213A1.2,1.2,0,0,0,227.8,180.643Z" transform="translate(-65.973 -74.219)" fill="#263238"/>
      <path id="Path_989" data-name="Path 989" d="M213.738,195.97a1.231,1.231,0,0,0,.438,1.345,1.158,1.158,0,0,0,1.381,0A1.231,1.231,0,0,0,216,195.97a1.173,1.173,0,0,0-2.258,0Z" transform="translate(-68.545 -70.872)" fill="#263238"/>
      <path id="Path_990" data-name="Path 990" d="M150.87,194.123a1.183,1.183,0,1,0,1.182-1.213A1.2,1.2,0,0,0,150.87,194.123Z" transform="translate(-79.987 -71.343)" fill="#263238"/>
      <ellipse id="Ellipse_17" data-name="Ellipse 17" cx="1.135" cy="1.165" rx="1.135" ry="1.165" transform="translate(65.267 104.095)" fill="#263238"/>
      <path id="Path_991" data-name="Path 991" d="M164.14,173.673a1.183,1.183,0,1,0,1.182-1.213A1.2,1.2,0,0,0,164.14,173.673Z" transform="translate(-77.57 -75.706)" fill="#263238"/>
      <path id="Path_992" data-name="Path 992" d="M196,180.643a1.183,1.183,0,1,0,1.182-1.213A1.2,1.2,0,0,0,196,180.643Z" transform="translate(-71.766 -74.219)" fill="#263238"/>
      <ellipse id="Ellipse_18" data-name="Ellipse 18" cx="1.135" cy="1.165" rx="1.135" ry="1.165" transform="translate(90.873 81.514)" fill="#263238"/>
      <ellipse id="Ellipse_19" data-name="Ellipse 19" cx="1.135" cy="1.165" rx="1.135" ry="1.165" transform="translate(50.49 108.645)" fill="#263238"/>
      <path id="Path_993" data-name="Path 993" d="M150.87,212.413a1.183,1.183,0,1,0,1.182-1.213A1.2,1.2,0,0,0,150.87,212.413Z" transform="translate(-79.987 -67.44)" fill="#263238"/>
      <ellipse id="Ellipse_20" data-name="Ellipse 20" cx="1.135" cy="1.165" rx="1.135" ry="1.165" transform="translate(102.092 203.616)" fill="#263238"/>
      <ellipse id="Ellipse_21" data-name="Ellipse 21" cx="1.135" cy="1.165" rx="1.135" ry="1.165" transform="translate(72.018 188.558)" fill="#263238"/>
      <path id="Path_994" data-name="Path 994" d="M124.41,259.943a1.183,1.183,0,1,0,1.182-1.213A1.2,1.2,0,0,0,124.41,259.943Z" transform="translate(-84.807 -57.298)" fill="#263238"/>
      <path id="Path_995" data-name="Path 995" d="M159.59,239.893a1.183,1.183,0,1,0,1.182-1.213A1.2,1.2,0,0,0,159.59,239.893Z" transform="translate(-78.399 -61.576)" fill="#263238"/>
      <ellipse id="Ellipse_22" data-name="Ellipse 22" cx="1.135" cy="1.165" rx="1.135" ry="1.165" transform="translate(21.208 106.085)" fill="#263238"/>
      <path id="Path_996" data-name="Path 996" d="M108.85,229.213A1.183,1.183,0,1,0,110.032,228,1.2,1.2,0,0,0,108.85,229.213Z" transform="translate(-87.642 -63.855)" fill="#263238"/>
      <path id="Path_997" data-name="Path 997" d="M124.41,235a1.183,1.183,0,1,0,1.182-1.213A1.2,1.2,0,0,0,124.41,235Z" transform="translate(-84.807 -62.62)" fill="#263238"/>
      <path id="Path_998" data-name="Path 998" d="M132.678,224.017a1.173,1.173,0,0,0,2.258,0,1.231,1.231,0,0,0-.438-1.345,1.158,1.158,0,0,0-1.381,0A1.231,1.231,0,0,0,132.678,224.017Z" transform="translate(-83.311 -65.041)" fill="#263238"/>
      <path id="Path_999" data-name="Path 999" d="M114.08,194.123a1.183,1.183,0,1,0,1.182-1.213A1.2,1.2,0,0,0,114.08,194.123Z" transform="translate(-86.689 -71.343)" fill="#263238"/>
      <ellipse id="Ellipse_23" data-name="Ellipse 23" cx="1.135" cy="1.165" rx="1.135" ry="1.165" transform="translate(102.092 183.814)" fill="#263238"/>
      <ellipse id="Ellipse_24" data-name="Ellipse 24" cx="1.135" cy="1.165" rx="1.135" ry="1.165" transform="translate(11.987 138.567)" fill="#263238"/>
      <path id="Path_1000" data-name="Path 1000" d="M95.94,223.953a1.183,1.183,0,1,0,1.182-1.213A1.2,1.2,0,0,0,95.94,223.953Z" transform="translate(-89.994 -64.978)" fill="#263238"/>
      <path id="Path_1001" data-name="Path 1001" d="M132.678,200.367a1.173,1.173,0,0,0,2.258,0,1.231,1.231,0,0,0-.438-1.345,1.158,1.158,0,0,0-1.381,0A1.231,1.231,0,0,0,132.678,200.367Z" transform="translate(-83.311 -70.087)" fill="#263238"/>
      <g id="Group_8480" data-name="Group 8480" transform="translate(33.549 78.371)" opacity="0.3">
        <path id="Path_1002" data-name="Path 1002" d="M141.3,165.731c-.7-2.233-1.655-2.682-3.724-3.7a38.447,38.447,0,0,1-7.2-4.72L120.129,164c-1.182,4.477-1.289,9.707.8,13.748s6.608,7.05,11.053,6.334a11.151,11.151,0,0,0,7.034-4.672,20.667,20.667,0,0,0,3.275-8.069C142.65,169.82,141.751,167.2,141.3,165.731Z" transform="translate(-119.289 -157.31)"/>
      </g>
      <path id="Path_1003" data-name="Path 1003" d="M169.5,115.109c-1.289-7.923-7.412-17.157-15.073-15.495L130.9,108.436a4.675,4.675,0,0,0-3.546,5.169l8.583,59.528h-.165s7.152,16.3,22.627,9.5c3.062-1.359,4.161-5.06,4.433-8.785H163a12.161,12.161,0,0,0-.106-1.213,40.36,40.36,0,0,0-.721-8.215h0c-.426-4.854-.627-6.819-.615-6.771s9.753-2.742,10.474-16.247C172.278,134.705,170.871,123.906,169.5,115.109Z" transform="translate(-84.278 -91.292)" fill="#ffbe9d"/>
      <path id="Path_1004" data-name="Path 1004" d="M161.418,120.334a1.7,1.7,0,0,1-1.43,1.881,1.564,1.564,0,0,1-1.206-.279,1.644,1.644,0,0,1-.65-1.08,1.691,1.691,0,0,1,1.419-1.881,1.564,1.564,0,0,1,1.214.274,1.644,1.644,0,0,1,.654,1.085Z" transform="translate(-78.667 -87.125)" fill="#263238"/>
      <path id="Path_1005" data-name="Path 1005" d="M162.51,117.448c-.177.243-1.537-.57-3.322-.376s-3,1.213-3.215,1.044,0-.522.591-1.007a4.468,4.468,0,0,1,2.542-1.1,4.339,4.339,0,0,1,2.684.582C162.38,116.963,162.6,117.339,162.51,117.448Z" transform="translate(-79.073 -87.758)" fill="#263238"/>
      <path id="Path_1006" data-name="Path 1006" d="M147.178,122.1a1.715,1.715,0,0,1-1.43,1.893,1.564,1.564,0,0,1-1.206-.279,1.645,1.645,0,0,1-.65-1.08,1.7,1.7,0,0,1,1.419-1.893,1.564,1.564,0,0,1,1.214.274A1.644,1.644,0,0,1,147.178,122.1Z" transform="translate(-81.261 -86.747)" fill="#263238"/>
      <path id="Path_1007" data-name="Path 1007" d="M147.691,119.258c-.189.243-1.537-.57-3.322-.376s-3,1.213-3.227,1.044.071-.51.591-1.007a4.585,4.585,0,0,1,2.553-1.1,4.293,4.293,0,0,1,2.672.582C147.549,118.773,147.774,119.149,147.691,119.258Z" transform="translate(-81.773 -87.372)" fill="#263238"/>
      <path id="Path_1008" data-name="Path 1008" d="M153.663,132.322a11.313,11.313,0,0,1,2.849-.849c.449-.1.875-.231.922-.558a2.469,2.469,0,0,0-.449-1.359q-.8-1.638-1.7-3.422c-2.364-4.854-4.161-8.906-3.96-9s2.282,3.774,4.658,8.651c.579,1.213,1.182,2.354,1.655,3.446a2.8,2.8,0,0,1,.414,1.82,1.2,1.2,0,0,1-.674.764,3.725,3.725,0,0,1-.768.194,11.781,11.781,0,0,1-2.944.316Z" transform="translate(-79.908 -87.513)" fill="#263238"/>
      <path id="Path_1009" data-name="Path 1009" d="M158.935,147.932a32.414,32.414,0,0,1-17.815-2.912s5.119,8.676,17.957,6.067Z" transform="translate(-81.763 -81.561)" fill="#eb996e"/>
      <path id="Path_1010" data-name="Path 1010" d="M153.806,133.526a3.185,3.185,0,0,0-3-.922,3.025,3.025,0,0,0-1.927,1.335,1.946,1.946,0,0,0,.083,2.2,2.109,2.109,0,0,0,2.364.364,6.874,6.874,0,0,0,2.14-1.638,2.006,2.006,0,0,0,.461-.595.632.632,0,0,0-.071-.679" transform="translate(-80.405 -84.227)" fill="#eb996e"/>
      <path id="Path_1011" data-name="Path 1011" d="M149.037,131.15c.284,0,.485,1.941,2.293,3.179s3.842.8,3.878,1.08-.414.425-1.289.546a4.7,4.7,0,0,1-3.227-.789,4.358,4.358,0,0,1-1.809-2.682C148.694,131.672,148.859,131.15,149.037,131.15Z" transform="translate(-80.365 -84.521)" fill="#263238"/>
      <path id="Path_1012" data-name="Path 1012" d="M148.313,116.473c-.118.51-1.927.473-4,.946s-3.712,1.213-4.031.825c-.142-.194.106-.692.733-1.213a6.8,6.8,0,0,1,2.908-1.408,6.916,6.916,0,0,1,3.216,0C147.946,115.878,148.372,116.23,148.313,116.473Z" transform="translate(-81.922 -87.874)" fill="#263238"/>
      <path id="Path_1013" data-name="Path 1013" d="M161.434,113.162c-.284.449-1.549.146-3.038.279s-2.7.57-3.038.17c-.142-.206,0-.643.52-1.092a4.252,4.252,0,0,1,4.859-.364C161.328,112.531,161.553,112.944,161.434,113.162Z" transform="translate(-79.179 -88.701)" fill="#263238"/>
      <path id="Path_1014" data-name="Path 1014" d="M156.481,96.8a15.935,15.935,0,0,1,13.347,15l-7.353.376-1.525-3.931c.9,2.427-.8,5.266-3.085,6.455s-4.965,1.213-7.53,1.116l-.473-3.373a6.4,6.4,0,0,1-3.807,5.218,18.417,18.417,0,0,1-6.49,1.4,17.621,17.621,0,0,0-6.49,1.42,14.472,14.472,0,0,1,1.088-13.056,20.179,20.179,0,0,1,10.32-8.215,36,36,0,0,1,13.1-1.954" transform="translate(-83.424 -91.85)" fill="#263238"/>
      <path id="Path_1015" data-name="Path 1015" d="M121.845,176.893c.709-3.883,1.986-7.79,1.407-11.685-.544-3.64-2.613-7.28-1.289-10.629a6.022,6.022,0,0,1,5.012-3.555c-4.965-8.324-5.722-18.856-5.367-28.745a36.73,36.73,0,0,1,1.277-9.513,14.033,14.033,0,0,1,5.343-7.681,8.442,8.442,0,0,1,8.89-.461l2.045.17a21.379,21.379,0,0,1-.674,15.495c-.792,1.784-1.856,3.531-1.974,5.484-.225,4.174,3.878,7.535,3.878,11.7,0,3.288-1.454,6.407-2.92,9.331-.934,1.844-1.277,2.924.319,5.084.958,1.3,7.921,18.953,2.684,28.83a13.815,13.815,0,0,1-5.414,8.494c-3.546,2.305-8.606,2.136-11.384-1.019C121.1,185.229,121.123,180.776,121.845,176.893Z" transform="translate(-85.351 -90.404)" fill="#263238"/>
    </g>
    <g id="freepik--speech-bubble--inject-94" transform="translate(43.074 45.116)">
      <path id="Path_1016" data-name="Path 1016" d="M63.236,65.566V67.75c0,1.444,0,3.47.071,6.067,0,5.205.071,12.534.13,21.319l-.26-.279h28.75c.071-.073-.579.595-.307.3h0V65.566l.272.279L71.275,65.7l-5.911-.073H63.248a2.016,2.016,0,0,1,.5,0h1.513l5.8-.073L92,65.42h.26V95.208h0c.272-.279-.378.388-.307.328H63v-.267c.059-8.858.106-16.247.13-21.489,0-2.524.059-4.538.071-5.97V66.257A2.627,2.627,0,0,1,63.236,65.566Z" transform="translate(-36.452 -38.194)" fill="#263238"/>
      <path id="Path_1017" data-name="Path 1017" d="M97.4,60.112c.4.328-5.911,8.809-13.95,18.941l-4.847,5.97-.579.716-.674-.607c-6.774-6.176-11.443-10.787-11.183-11.09S71.562,77.8,78.5,83.748l-1.182.109,4.729-6.067C90.122,67.72,97.014,59.772,97.4,60.112Z" transform="translate(-35.876 -39.329)" fill="#40c2a4"/>
      <path id="Path_1018" data-name="Path 1018" d="M82.223,43a2.845,2.845,0,0,0-.709,0H79.4a11.808,11.808,0,0,0-1.549.073l-1.856.267-2.163.315-2.364.619a38.587,38.587,0,0,0-11.739,5.254A42.508,42.508,0,0,0,47.6,61.666,44.3,44.3,0,0,0,40.7,81.492a45.352,45.352,0,0,0-.118,5.824,25.26,25.26,0,0,0,.189,2.973c.189.995.3,1.99.449,3a43.494,43.494,0,0,0,3.937,11.855,45.562,45.562,0,0,0,7.483,10.666,43.548,43.548,0,0,0,10.9,8.02A39.2,39.2,0,0,0,76.8,128a26.379,26.379,0,0,0,3.547.3,31.818,31.818,0,0,0,3.546.073,42.156,42.156,0,0,0,7.093-.934,41.407,41.407,0,0,0,14.245-6.152h-.437l14.505,5.97.863.352-.248-.91q-2.2-8.19-4.268-15.92l-.071.4a43.284,43.284,0,0,0,7.743-18.2,39.61,39.61,0,0,0,.567-9.319,32.619,32.619,0,0,0-.414-4.477c-.106-.74-.225-1.456-.331-2.184s-.343-1.408-.508-2.111a42.6,42.6,0,0,0-16.148-24.146,39.219,39.219,0,0,0-9.635-5.218l-2.163-.8-2.057-.51-1.891-.485c-.6-.109-1.182-.182-1.726-.267-1.1-.146-2.069-.34-2.908-.376L83.972,43H82.66a1.763,1.763,0,0,0-.437,0,3.332,3.332,0,0,0,.437.061l1.3.1,2.116.158a21.823,21.823,0,0,1,2.884.449,41.694,41.694,0,0,1,32.982,31.4c.154.679.366,1.371.485,2.075l.319,2.136a31.574,31.574,0,0,1,.378,4.392,38.662,38.662,0,0,1-.591,9.137,42.49,42.49,0,0,1-7.637,17.8l-.13.17v.218q2.057,7.717,4.232,15.932l.615-.57-14.493-5.994-.225-.085-.213.133a39.7,39.7,0,0,1-20.912,6.977,30.62,30.62,0,0,1-3.547,0,25.169,25.169,0,0,1-3.452-.3,38.141,38.141,0,0,1-13-4.065,42.955,42.955,0,0,1-10.639-7.814A45.224,45.224,0,0,1,45.717,104.9a42.98,42.98,0,0,1-3.9-11.6c-.142-.995-.3-1.966-.437-2.936s-.13-1.966-.2-2.924a45.877,45.877,0,0,1,.095-5.715A42.232,42.232,0,0,1,60,50.005a39.081,39.081,0,0,1,11.55-5.339l2.364-.655,2.152-.364,1.832-.315c.567-.061,1.088-.073,1.549-.109l2.092-.158A6.373,6.373,0,0,0,82.223,43Z" transform="translate(-40.543 -42.982)" fill="#455a64"/>
    </g>
    <g id="freepik--Device--inject-94" transform="translate(211.103 49.603)">
      <path id="Path_1019" data-name="Path 1019" d="M369.9,511.222l-153.741-.1c-18.492-.007-33.479-15.395-33.479-34.375l.071-395.707a34.828,34.828,0,0,1,9.818-24.311,33.047,33.047,0,0,1,23.7-10.052l153.752.085c18.494.013,33.479,15.405,33.479,34.387l-.083,395.658a34.83,34.83,0,0,1-9.8,24.342A33.048,33.048,0,0,1,369.9,511.222Z" transform="translate(-182.68 -46.68)" fill="#263238"/>
      <path id="Path_1020" data-name="Path 1020" d="M368.272,58.343h-29.8a7.522,7.522,0,0,0-7.247,7.766v5.545a7.511,7.511,0,0,1-7.235,7.766H265.873a7.523,7.523,0,0,1-7.235-7.766V66.036A7.523,7.523,0,0,0,251.4,58.27H214.839c-12.96-.007-23.471,10.771-23.478,24.073l-.071,386.182c0,13.293,10.492,24.072,23.442,24.086l153.457.085a23.139,23.139,0,0,0,16.592-7.039,24.387,24.387,0,0,0,6.874-17.022l.071-386.194A24.389,24.389,0,0,0,384.868,65.4a23.141,23.141,0,0,0-16.6-7.056Z" transform="translate(-181.112 -44.207)" fill="#fff"/>
      <path id="Path_1021" data-name="Path 1021" d="M208.443,132.252H206.28v-.582h4.977v.582h-2.163v5.727h-.65Z" transform="translate(-178.381 -28.545)" fill="#263238"/>
      <path id="Path_1022" data-name="Path 1022" d="M210.45,135.347a2.365,2.365,0,1,1,2.364,2.427,2.238,2.238,0,0,1-1.7-.68,2.363,2.363,0,0,1-.663-1.747Zm4.067,0a1.727,1.727,0,1,0-1.714,1.844,1.669,1.669,0,0,0,1.25-.537,1.762,1.762,0,0,0,.464-1.307Z" transform="translate(-177.622 -28.278)" fill="#263238"/>
      <path id="Path_1023" data-name="Path 1023" d="M219.79,131.364v6.686H219.2v-.934a1.985,1.985,0,0,1-1.785.983,2.428,2.428,0,0,1,0-4.854,2.019,2.019,0,0,1,1.761.946V131.34Zm-.615,4.32a1.716,1.716,0,1,0-1.714,1.844,1.669,1.669,0,0,0,1.25-.537,1.762,1.762,0,0,0,.464-1.307Z" transform="translate(-176.783 -28.615)" fill="#263238"/>
      <path id="Path_1024" data-name="Path 1024" d="M224.074,134.767V137.7h-.567v-.74a1.734,1.734,0,0,1-1.6.789c-1.04,0-1.691-.558-1.691-1.383s.461-1.347,1.785-1.347h1.5v-.279a1.228,1.228,0,0,0-.387-.9,1.163,1.163,0,0,0-.913-.309,2.327,2.327,0,0,0-1.537.558l-.284-.473a2.894,2.894,0,0,1,1.88-.643,1.618,1.618,0,0,1,1.312.465,1.711,1.711,0,0,1,.5,1.33Zm-.567,1.517v-.777h-1.442c-.9,0-1.182.364-1.182.849s.437.886,1.182.886A1.465,1.465,0,0,0,223.506,136.284Z" transform="translate(-175.841 -28.269)" fill="#263238"/>
      <path id="Path_1025" data-name="Path 1025" d="M228.9,133l-2.364,5.315c-.39.922-.875,1.213-1.537,1.213a1.56,1.56,0,0,1-1.182-.437l.284-.473a1.167,1.167,0,0,0,.851.364c.414,0,.686-.206.958-.8l.2-.461-2.069-4.732h.65l1.738,4.028L228.289,133Z" transform="translate(-175.186 -28.263)" fill="#263238"/>
      <path id="Path_1026" data-name="Path 1026" d="M267.73,95.09h1.915v6.9h4.161v1.614H267.73Z" transform="translate(-167.187 -36.35)" fill="#263238"/>
      <path id="Path_1027" data-name="Path 1027" d="M273.49,95.277a1.092,1.092,0,0,1,.361-.8,1.034,1.034,0,0,1,.821-.257,1.022,1.022,0,0,1,.812.24,1.078,1.078,0,0,1,.371.779,1.175,1.175,0,0,1-2.293,0Zm.225,1.966h1.844V103.8h-1.844Z" transform="translate(-166.137 -36.538)" fill="#263238"/>
      <path id="Path_1028" data-name="Path 1028" d="M276.18,102.673l.615-1.371a4.279,4.279,0,0,0,2.211.643c.851,0,1.182-.243,1.182-.607,0-1.068-3.842,0-3.842-2.584,0-1.213,1.088-2.123,2.944-2.123a5.034,5.034,0,0,1,2.459.582l-.615,1.347a3.649,3.649,0,0,0-1.844-.485c-.828,0-1.182.267-1.182.607,0,1.116,3.854,0,3.854,2.609,0,1.213-1.1,2.087-3.015,2.087a5.35,5.35,0,0,1-2.766-.7Z" transform="translate(-165.647 -36.022)" fill="#263238"/>
      <path id="Path_1029" data-name="Path 1029" d="M286.247,103.2a2.585,2.585,0,0,1-1.5.413,2.071,2.071,0,0,1-1.735-.592,2.193,2.193,0,0,1-.629-1.762v-2.73H281.4V97.11h.981V95.52h1.856v1.59h1.584v1.42h-1.584v2.657a.777.777,0,0,0,.2.624.735.735,0,0,0,.6.238,1.22,1.22,0,0,0,.745-.243Z" transform="translate(-164.697 -36.259)" fill="#263238"/>
      <path id="Path_1030" data-name="Path 1030" d="M347.339,94.514c0,.109-3.878.218-8.654.267s-8.665,0-8.665-.121,3.878-.218,8.665-.267S347.339,94.405,347.339,94.514Z" transform="translate(-155.84 -36.503)" fill="#263238"/>
      <path id="Path_1031" data-name="Path 1031" d="M347.369,98.264c0,.1-3.866.218-8.653.267s-8.665,0-8.665-.121,3.878-.218,8.665-.267S347.369,98.155,347.369,98.264Z" transform="translate(-155.834 -35.703)" fill="#263238"/>
      <path id="Path_1032" data-name="Path 1032" d="M347.4,102.024c0,.1-3.866.218-8.653.255s-8.653,0-8.665-.109,3.878-.231,8.665-.267S347.4,101.9,347.4,102.024Z" transform="translate(-155.829 -34.9)" fill="#263238"/>
      <path id="Path_1033" data-name="Path 1033" d="M208.469,104.554a.408.408,0,0,1-.3-.121l-3.736-3.786a.431.431,0,0,1-.118-.315.442.442,0,0,1,.13-.3l3.724-3.713a.418.418,0,0,1,.561.042.445.445,0,0,1,.03.577l-3.428,3.41,3.428,3.482a.433.433,0,0,1,.092.467.414.414,0,0,1-.388.261Z" transform="translate(-178.738 -36.108)" fill="#263238"/>
      <path id="Path_1034" data-name="Path 1034" d="M231.563,164.3c0,1.286-.9,2.051-2.364,2.051h-1.56v1.893H227V162.25h2.187C230.665,162.25,231.563,163.027,231.563,164.3Zm-.615,0c0-.959-.615-1.5-1.785-1.5h-1.549v3h1.549C230.334,165.793,230.948,165.247,230.948,164.3Z" transform="translate(-174.606 -22.02)" fill="#263238"/>
      <path id="Path_1035" data-name="Path 1035" d="M234,163.451v.595h-.142a1.413,1.413,0,0,0-1.117.477,1.494,1.494,0,0,0-.361,1.185V168h-.591v-4.5h.567v.886A1.647,1.647,0,0,1,234,163.451Z" transform="translate(-173.734 -21.765)" fill="#263238"/>
      <path id="Path_1036" data-name="Path 1036" d="M234.16,165.743a2.235,2.235,0,1,1,2.234,2.293,2.122,2.122,0,0,1-1.606-.645,2.24,2.24,0,0,1-.629-1.648Zm3.866,0a1.633,1.633,0,1,0-1.631,1.747,1.587,1.587,0,0,0,1.187-.508,1.676,1.676,0,0,0,.444-1.239Z" transform="translate(-173.302 -21.764)" fill="#263238"/>
      <path id="Path_1037" data-name="Path 1037" d="M237.62,169.728l.213-.461a.988.988,0,0,0,.686.231c.461,0,.721-.291.721-.849v-4.854h.591v4.854a1.234,1.234,0,0,1-.317,1,1.166,1.166,0,0,1-.96.37,1.463,1.463,0,0,1-.934-.291Zm1.489-7.341a.443.443,0,0,1,.437-.437.431.431,0,0,1,.426.425.443.443,0,0,1-.12.317.42.42,0,0,1-.305.132.443.443,0,0,1-.437-.437Z" transform="translate(-172.672 -22.084)" fill="#263238"/>
      <path id="Path_1038" data-name="Path 1038" d="M244.792,165.925h-3.7a1.679,1.679,0,0,0,.545,1.152,1.594,1.594,0,0,0,1.181.413,1.728,1.728,0,0,0,1.348-.582l.331.388a2.114,2.114,0,0,1-1.691.74,2.143,2.143,0,0,1-1.645-.625,2.263,2.263,0,0,1-.66-1.668,2.205,2.205,0,0,1,.584-1.624,2.089,2.089,0,0,1,1.555-.669,2.066,2.066,0,0,1,1.556.666,2.181,2.181,0,0,1,.572,1.627Zm-3.677-.449h3.109a1.557,1.557,0,0,0-3.109,0Z" transform="translate(-172.148 -21.764)" fill="#263238"/>
      <path id="Path_1039" data-name="Path 1039" d="M244.78,165.744a2.252,2.252,0,0,1,.64-1.653,2.133,2.133,0,0,1,1.617-.64,1.935,1.935,0,0,1,1.726.886l-.449.315a1.443,1.443,0,0,0-1.277-.667,1.764,1.764,0,0,0,0,3.507,1.431,1.431,0,0,0,1.277-.655l.449.316a1.935,1.935,0,0,1-1.726.886,2.133,2.133,0,0,1-1.617-.64,2.252,2.252,0,0,1-.64-1.653Z" transform="translate(-171.368 -21.764)" fill="#263238"/>
      <path id="Path_1040" data-name="Path 1040" d="M251.593,167.924a1.383,1.383,0,0,1-.934.316,1.165,1.165,0,0,1-.935-.351,1.232,1.232,0,0,1-.342-.959v-2.766h-.792v-.51h.792v-.983h.591v.983h1.336v.51h-1.336v2.694a.728.728,0,0,0,.181.6.688.688,0,0,0,.576.222.93.93,0,0,0,.65-.231Z" transform="translate(-170.673 -21.93)" fill="#263238"/>
      <path id="Path_1041" data-name="Path 1041" d="M253.55,165.256a3.05,3.05,0,0,1,.9-2.2,2.889,2.889,0,0,1,2.178-.841,2.765,2.765,0,0,1,2.128.874l-.39.4a2.333,2.333,0,0,0-1.726-.716,2.488,2.488,0,0,0,0,4.975,2.333,2.333,0,0,0,1.726-.716l.39.4a2.777,2.777,0,0,1-2.14.886,2.9,2.9,0,0,1-2.171-.853A3.062,3.062,0,0,1,253.55,165.256Z" transform="translate(-169.77 -22.029)" fill="#263238"/>
      <path id="Path_1042" data-name="Path 1042" d="M259,162h.591v6.358H259Z" transform="translate(-168.777 -22.073)" fill="#263238"/>
      <path id="Path_1043" data-name="Path 1043" d="M260.751,162.387a.432.432,0,0,1,.863-.012.454.454,0,0,1-.192.449.428.428,0,0,1-.478,0,.454.454,0,0,1-.192-.449Zm.13,1.42h.591v4.5h-.591Z" transform="translate(-168.459 -22.084)" fill="#263238"/>
      <path id="Path_1044" data-name="Path 1044" d="M266.658,165.925h-3.665a1.68,1.68,0,0,0,.545,1.152,1.594,1.594,0,0,0,1.181.413,1.751,1.751,0,0,0,1.348-.582l.331.388a2.4,2.4,0,0,1-3.347.115,2.263,2.263,0,0,1-.66-1.668,2.205,2.205,0,0,1,.589-1.628,2.089,2.089,0,0,1,1.563-.665,2.066,2.066,0,0,1,1.556.666,2.181,2.181,0,0,1,.572,1.627S266.658,165.865,266.658,165.925Zm-3.665-.449H266.1a1.557,1.557,0,0,0-3.109,0Z" transform="translate(-168.16 -21.764)" fill="#263238"/>
      <path id="Path_1045" data-name="Path 1045" d="M271.067,165.341v2.609h-.591V165.4a1.235,1.235,0,0,0-.3-1.074,1.165,1.165,0,0,0-1.027-.37,1.422,1.422,0,0,0-1.137.446,1.5,1.5,0,0,0-.4,1.18v2.366H267v-4.5h.567v.825a1.83,1.83,0,0,1,1.667-.862,1.654,1.654,0,0,1,1.369.512A1.752,1.752,0,0,1,271.067,165.341Z" transform="translate(-167.32 -21.774)" fill="#263238"/>
      <path id="Path_1046" data-name="Path 1046" d="M274.223,167.924a1.383,1.383,0,0,1-.934.315,1.165,1.165,0,0,1-.935-.351,1.232,1.232,0,0,1-.342-.959v-2.766h-.792v-.51h.792v-.983h.591v.983h1.336v.51H272.6v2.694a.728.728,0,0,0,.181.6.688.688,0,0,0,.576.222.954.954,0,0,0,.65-.231Z" transform="translate(-166.551 -21.93)" fill="#263238"/>
      <path id="Path_1047" data-name="Path 1047" d="M219.556,165.961a5.05,5.05,0,1,1-5.048-5.181A5.116,5.116,0,0,1,219.556,165.961Z" transform="translate(-177.802 -22.334)" fill="#40c2a4"/>
      <path id="Path_1048" data-name="Path 1048" d="M213.517,166.945a.314.314,0,0,1-.2-.073l-1.383-1.3a.321.321,0,0,1,0-.437.279.279,0,0,1,.414,0l1.182,1.092,2.211-2.427a.292.292,0,0,1,.3-.122.3.3,0,0,1,.232.225.308.308,0,0,1-.1.31l-2.364,2.609a.3.3,0,0,1-.284.121Z" transform="translate(-177.367 -21.716)" fill="#fff"/>
      <path id="Path_1049" data-name="Path 1049" d="M376.406,189.315a6.236,6.236,0,0,0,1.1-.146,5.853,5.853,0,0,0,2.873-1.456,6.335,6.335,0,0,0,2.069-4.769V158.022a19.755,19.755,0,0,0-.106-2.9,6.035,6.035,0,0,0-3.547-4.477,6.755,6.755,0,0,0-3.014-.485H358.615l-152.5.1a5.787,5.787,0,0,0-4.587,2.293,6.139,6.139,0,0,0-1.111,2.427,14.092,14.092,0,0,0-.13,2.766v25.093a6.344,6.344,0,0,0,.461,2.536,5.969,5.969,0,0,0,3.617,3.361,7.149,7.149,0,0,0,2.506.267H244.7l68.566.061,46.223.109h12.566l-12.566.061-46.223.1L244.7,189.4H206.872a7.864,7.864,0,0,1-2.684-.291,6.6,6.6,0,0,1-4-3.713,7.026,7.026,0,0,1-.52-2.779v-24.85a15.138,15.138,0,0,1,.142-2.9,6.5,6.5,0,0,1,6.3-5.217l152.5.085H375.78a7.241,7.241,0,0,1,3.168.522,6.51,6.51,0,0,1,3.7,4.769,17.957,17.957,0,0,1,.106,2.961v24.923a6.418,6.418,0,0,1-2.163,4.854,5.976,5.976,0,0,1-2.944,1.432,4.994,4.994,0,0,1-.828.073Z" transform="translate(-179.588 -24.708)" fill="#40c2a4"/>
      <path id="Path_1050" data-name="Path 1050" d="M285.66,173.365c0,.182-13.087.315-29.223.315s-29.247-.133-29.247-.315,13.087-.315,29.247-.315S285.66,173.2,285.66,173.365Z" transform="translate(-174.572 -19.715)" fill="#e0e0e0"/>
      <path id="Path_1051" data-name="Path 1051" d="M336.419,165.376a.258.258,0,0,1-.059.158l-1.844,1.869a.221.221,0,0,1-.307,0l-1.809-1.917a.223.223,0,0,1,.006-.309.209.209,0,0,1,.3.006l1.655,1.759,1.7-1.759a.209.209,0,0,1,.3,0,.222.222,0,0,1,.059.194Z" transform="translate(-155.417 -21.409)" fill="#40c2a4"/>
      <path id="Path_1052" data-name="Path 1052" d="M227.011,204.144V200.71h.615v3.41c0,1.42.65,2.075,1.785,2.075s1.8-.655,1.8-2.075v-3.41h.532v3.434a2.4,2.4,0,1,1-4.8,0Z" transform="translate(-174.617 -13.813)" fill="#263238"/>
      <path id="Path_1053" data-name="Path 1053" d="M236.921,204.21a2.217,2.217,0,0,1-.6,1.638,2.1,2.1,0,0,1-1.582.655,1.9,1.9,0,0,1-1.643-.837v2.427H232.5v-6.176h.591v.886a1.9,1.9,0,0,1,1.69-.922,2.1,2.1,0,0,1,1.565.686A2.219,2.219,0,0,1,236.921,204.21Zm-.591,0a1.644,1.644,0,1,0-1.631,1.747,1.587,1.587,0,0,0,1.187-.508A1.676,1.676,0,0,0,236.33,204.21Z" transform="translate(-173.604 -13.564)" fill="#263238"/>
      <path id="Path_1054" data-name="Path 1054" d="M241.342,200.41v6.358h-.567v-.886a1.892,1.892,0,0,1-1.691.934,2.294,2.294,0,0,1,0-4.587,1.9,1.9,0,0,1,1.667.886V200.41Zm-.579,4.113a1.633,1.633,0,1,0-1.631,1.747,1.588,1.588,0,0,0,1.187-.508,1.676,1.676,0,0,0,.444-1.239Z" transform="translate(-172.812 -13.877)" fill="#263238"/>
      <path id="Path_1055" data-name="Path 1055" d="M245.417,203.663v2.791h-.567v-.692a1.628,1.628,0,0,1-1.513.74c-.993,0-1.6-.534-1.6-1.31s.437-1.274,1.691-1.274h1.395v-.279a1.086,1.086,0,0,0-1.182-1.213,2.222,2.222,0,0,0-1.466.534l-.26-.461a2.708,2.708,0,0,1,1.785-.607,1.537,1.537,0,0,1,1.271.464A1.627,1.627,0,0,1,245.417,203.663Zm-.591,1.444v-.74h-1.371c-.851,0-1.182.34-1.182.813s.414.837,1.111.837A1.392,1.392,0,0,0,244.825,205.107Z" transform="translate(-171.921 -13.563)" fill="#263238"/>
      <path id="Path_1056" data-name="Path 1056" d="M248.633,206.348a1.36,1.36,0,0,1-.922.315,1.164,1.164,0,0,1-.943-.346,1.232,1.232,0,0,1-.346-.964v-2.73h-.792v-.51h.792v-.983h.591v.983h1.336v.51h-1.336v2.694a.741.741,0,0,0,.186.6.7.7,0,0,0,.57.227.93.93,0,0,0,.65-.231Z" transform="translate(-171.213 -13.724)" fill="#263238"/>
      <path id="Path_1057" data-name="Path 1057" d="M252.847,204.418H249.17a1.679,1.679,0,0,0,.545,1.152,1.594,1.594,0,0,0,1.181.413,1.716,1.716,0,0,0,1.348-.582l.331.388a2.1,2.1,0,0,1-1.69.74,2.141,2.141,0,0,1-1.684-.6,2.263,2.263,0,0,1-.68-1.692,2.14,2.14,0,1,1,4.279,0A.31.31,0,0,1,252.847,204.418Zm-3.677-.449h3.121a1.561,1.561,0,1,0-3.121,0Z" transform="translate(-170.686 -13.53)" fill="#263238"/>
      <path id="Path_1058" data-name="Path 1058" d="M259.7,202.761c0,1.286-.9,2.051-2.364,2.051h-1.561V206.7h-.627V200.71h2.187C258.838,200.71,259.7,201.487,259.7,202.761Zm-.615,0c0-.959-.615-1.5-1.785-1.5h-1.549v3h1.584c1.182,0,1.785-.546,1.785-1.492Z" transform="translate(-169.478 -13.813)" fill="#263238"/>
      <path id="Path_1059" data-name="Path 1059" d="M262.175,201.911v.595h-.142a1.4,1.4,0,0,0-1.122.473,1.482,1.482,0,0,0-.356,1.19v2.293H260v-4.5h.567v.886a1.659,1.659,0,0,1,1.608-.934Z" transform="translate(-168.595 -13.558)" fill="#263238"/>
      <path id="Path_1060" data-name="Path 1060" d="M266.6,204.435h-3.677a1.68,1.68,0,0,0,.545,1.152,1.594,1.594,0,0,0,1.181.413,1.728,1.728,0,0,0,1.348-.582l.331.388a2.114,2.114,0,0,1-1.691.74,2.143,2.143,0,0,1-1.645-.625,2.263,2.263,0,0,1-.66-1.668,2.205,2.205,0,0,1,.585-1.624,2.089,2.089,0,0,1,1.555-.67,2.066,2.066,0,0,1,1.556.666,2.181,2.181,0,0,1,.572,1.627Zm-3.677-.449h3.109a1.557,1.557,0,0,0-3.109,0Z" transform="translate(-168.171 -13.547)" fill="#263238"/>
      <path id="Path_1061" data-name="Path 1061" d="M266.45,205.939l.272-.473a2.589,2.589,0,0,0,1.56.5c.828,0,1.182-.291,1.182-.74,0-1.213-2.849-.243-2.849-2.026,0-.74.627-1.286,1.738-1.286a2.862,2.862,0,0,1,1.56.425l-.26.485a2.192,2.192,0,0,0-1.3-.388c-.792,0-1.182.315-1.182.752,0,1.213,2.837.291,2.837,2.026,0,.777-.662,1.286-1.809,1.286a2.891,2.891,0,0,1-1.75-.558Z" transform="translate(-167.42 -13.558)" fill="#263238"/>
      <path id="Path_1062" data-name="Path 1062" d="M274.315,204.429h-3.677a1.691,1.691,0,0,0,.552,1.153,1.6,1.6,0,0,0,1.186.412,1.7,1.7,0,0,0,1.336-.582l.343.388a2.321,2.321,0,0,1-2.547.567A2.424,2.424,0,0,1,270,204.186a2.14,2.14,0,1,1,4.279,0A.99.99,0,0,1,274.315,204.429Zm-3.677-.449h3.121a1.561,1.561,0,1,0-3.121,0Z" transform="translate(-166.773 -13.54)" fill="#263238"/>
      <path id="Path_1063" data-name="Path 1063" d="M278.723,203.83v2.609h-.591V203.89a1.235,1.235,0,0,0-.3-1.074,1.164,1.164,0,0,0-1.027-.37,1.422,1.422,0,0,0-1.137.446,1.5,1.5,0,0,0-.4,1.18V206.5h-.591V202h.567v.825a1.83,1.83,0,0,1,1.667-.862,1.654,1.654,0,0,1,1.327.5,1.75,1.75,0,0,1,.481,1.366Z" transform="translate(-165.921 -13.548)" fill="#263238"/>
      <path id="Path_1064" data-name="Path 1064" d="M281.883,206.348a1.383,1.383,0,0,1-.934.315,1.165,1.165,0,0,1-.943-.346,1.231,1.231,0,0,1-.346-.964v-2.73h-.78v-.51h.78v-.983h.6v.983H281.6v.51h-1.336v2.694a.728.728,0,0,0,.181.6.688.688,0,0,0,.576.222.954.954,0,0,0,.65-.231Z" transform="translate(-165.156 -13.724)" fill="#263238"/>
      <path id="Path_1065" data-name="Path 1065" d="M285.7,203.665v2.791h-.567v-.692a1.652,1.652,0,0,1-1.513.74c-.993,0-1.608-.534-1.608-1.31s.437-1.274,1.7-1.274h1.395v-.279a1.1,1.1,0,0,0-1.241-1.213,2.2,2.2,0,0,0-1.466.534l-.272-.461a2.755,2.755,0,0,1,1.785-.607,1.535,1.535,0,0,1,1.32.432A1.626,1.626,0,0,1,285.7,203.665Zm-.591,1.444v-.74h-1.383c-.851,0-1.123.34-1.123.813s.414.837,1.111.837A1.405,1.405,0,0,0,285.107,205.109Z" transform="translate(-164.585 -13.565)" fill="#263238"/>
      <path id="Path_1066" data-name="Path 1066" d="M288.913,206.348a1.383,1.383,0,0,1-.934.315,1.164,1.164,0,0,1-.943-.346,1.232,1.232,0,0,1-.346-.964v-2.73h-.78v-.51h.78v-.983h.6v.983h1.336v.51h-1.336v2.694a.728.728,0,0,0,.181.6.688.688,0,0,0,.576.222.954.954,0,0,0,.65-.23Z" transform="translate(-163.875 -13.724)" fill="#263238"/>
      <path id="Path_1067" data-name="Path 1067" d="M289.24,200.851a.45.45,0,0,1,.262-.423.429.429,0,0,1,.481.089.458.458,0,0,1,.1.491.438.438,0,0,1-.405.28A.443.443,0,0,1,289.24,200.851Zm.142,1.42h.591v4.5h-.591Z" transform="translate(-163.268 -13.882)" fill="#263238"/>
      <path id="Path_1068" data-name="Path 1068" d="M290.88,204.2a2.235,2.235,0,1,1,2.234,2.293,2.122,2.122,0,0,1-1.606-.645A2.24,2.24,0,0,1,290.88,204.2Zm3.866,0a1.633,1.633,0,1,0-1.631,1.747,1.588,1.588,0,0,0,1.187-.508A1.676,1.676,0,0,0,294.746,204.2Z" transform="translate(-162.97 -13.557)" fill="#263238"/>
      <path id="Path_1069" data-name="Path 1069" d="M299.723,203.83v2.609h-.591V203.89a1.235,1.235,0,0,0-.3-1.074,1.164,1.164,0,0,0-1.026-.37,1.422,1.422,0,0,0-1.137.446,1.5,1.5,0,0,0-.4,1.18V206.5h-.591V202h.567v.825a1.83,1.83,0,0,1,1.667-.861,1.654,1.654,0,0,1,1.327.5A1.75,1.75,0,0,1,299.723,203.83Z" transform="translate(-162.095 -13.548)" fill="#263238"/>
      <path id="Path_1070" data-name="Path 1070" d="M219.556,204.421a5.05,5.05,0,1,1-5.048-5.181,5.116,5.116,0,0,1,5.048,5.181Z" transform="translate(-177.802 -14.127)" fill="#40c2a4"/>
      <path id="Path_1071" data-name="Path 1071" d="M213.517,205.405a.314.314,0,0,1-.2-.073l-1.383-1.3a.322.322,0,0,1,0-.437.29.29,0,0,1,.414,0l1.182,1.092,2.211-2.427a.292.292,0,0,1,.3-.122.3.3,0,0,1,.232.225.308.308,0,0,1-.1.31l-2.364,2.609a.3.3,0,0,1-.284.121Z" transform="translate(-177.367 -13.509)" fill="#fff"/>
      <path id="Path_1072" data-name="Path 1072" d="M376.406,227.775a6.234,6.234,0,0,0,1.1-.146,5.852,5.852,0,0,0,2.873-1.456,6.335,6.335,0,0,0,2.069-4.769V196.482a19.755,19.755,0,0,0-.106-2.9,6.035,6.035,0,0,0-3.547-4.477,6.754,6.754,0,0,0-3.014-.485H358.615l-152.5.1a5.787,5.787,0,0,0-4.587,2.293,6.139,6.139,0,0,0-1.111,2.427,14.091,14.091,0,0,0-.13,2.766v25.068a6.308,6.308,0,0,0,.461,2.536,5.969,5.969,0,0,0,3.617,3.361,7.148,7.148,0,0,0,2.506.267H244.7l68.566.061,46.223.109,12.566.061h0l-12.566.061-46.223.1L244.7,227.9H206.872a7.866,7.866,0,0,1-2.684-.291,6.6,6.6,0,0,1-4-3.713,6.989,6.989,0,0,1-.52-2.779V196.227a15.138,15.138,0,0,1,.142-2.9,6.5,6.5,0,0,1,6.3-5.217l152.5.085H375.78a7.24,7.24,0,0,1,3.168.522,6.51,6.51,0,0,1,3.7,4.769,17.957,17.957,0,0,1,.106,2.961v24.923a6.418,6.418,0,0,1-2.163,4.854,5.976,5.976,0,0,1-2.944,1.432,5,5,0,0,1-.828.073Z" transform="translate(-179.588 -16.502)" fill="#40c2a4"/>
      <path id="Path_1073" data-name="Path 1073" d="M285.66,211.825c0,.182-13.087.315-29.223.315s-29.247-.133-29.247-.315,13.087-.315,29.247-.315S285.66,211.656,285.66,211.825Z" transform="translate(-174.572 -11.509)" fill="#e0e0e0"/>
      <path id="Path_1074" data-name="Path 1074" d="M336.419,203.827a.258.258,0,0,1-.059.158l-1.844,1.917a.22.22,0,0,1-.307,0l-1.809-1.917a.223.223,0,0,1,.006-.309.209.209,0,0,1,.3.006l1.655,1.759,1.7-1.759a.209.209,0,0,1,.3,0,.221.221,0,0,1,.059.146Z" transform="translate(-155.417 -13.194)" fill="#40c2a4"/>
      <path id="Path_1075" data-name="Path 1075" d="M226.55,242.176a3.049,3.049,0,0,1,.9-2.2,2.889,2.889,0,0,1,2.178-.841,2.8,2.8,0,0,1,2.14.874l-.4.4a2.333,2.333,0,0,0-1.726-.716,2.488,2.488,0,0,0,0,4.975,2.333,2.333,0,0,0,1.726-.716l.4.4a2.823,2.823,0,0,1-2.152.886,2.9,2.9,0,0,1-2.171-.853,3.062,3.062,0,0,1-.891-2.2Z" transform="translate(-174.688 -5.616)" fill="#263238"/>
      <path id="Path_1076" data-name="Path 1076" d="M234.163,240.371v.595h-.142a1.413,1.413,0,0,0-1.117.477,1.494,1.494,0,0,0-.361,1.185v2.293H232v-4.514h.567v.886a1.647,1.647,0,0,1,1.6-.922Z" transform="translate(-173.696 -5.352)" fill="#263238"/>
      <path id="Path_1077" data-name="Path 1077" d="M238.6,242.845h-3.677a1.679,1.679,0,0,0,.545,1.152,1.594,1.594,0,0,0,1.181.413,1.728,1.728,0,0,0,1.348-.582l.331.388a2.114,2.114,0,0,1-1.691.74,2.144,2.144,0,0,1-1.645-.625,2.263,2.263,0,0,1-.66-1.668,2.205,2.205,0,0,1,.584-1.624,2.09,2.09,0,0,1,1.555-.67,2.066,2.066,0,0,1,1.555.666,2.181,2.181,0,0,1,.572,1.627Zm-3.677-.449h3.109a1.557,1.557,0,0,0-3.109,0Z" transform="translate(-173.272 -5.351)" fill="#263238"/>
      <path id="Path_1078" data-name="Path 1078" d="M242.227,242.112V244.9h-.567v-.692a1.628,1.628,0,0,1-1.513.74c-.993,0-1.6-.534-1.6-1.31s.426-1.213,1.69-1.213h1.395v-.279a1.086,1.086,0,0,0-1.182-1.213,2.222,2.222,0,0,0-1.466.534l-.26-.461a2.709,2.709,0,0,1,1.785-.607,1.536,1.536,0,0,1,1.246.445,1.625,1.625,0,0,1,.468,1.266Zm-.591,1.444v-.74h-1.371c-.863,0-1.182.34-1.182.813s.414.837,1.111.837A1.392,1.392,0,0,0,241.635,243.556Z" transform="translate(-172.502 -5.346)" fill="#263238"/>
      <path id="Path_1079" data-name="Path 1079" d="M245.463,244.808a1.383,1.383,0,0,1-.922.315,1.164,1.164,0,0,1-.943-.346,1.231,1.231,0,0,1-.346-.964v-2.73h-.792v-.51h.792v-.983h.591v.983h1.336v.51h-1.336v2.645a.74.74,0,0,0,.186.6.7.7,0,0,0,.57.227.931.931,0,0,0,.65-.231Z" transform="translate(-171.79 -5.517)" fill="#263238"/>
      <path id="Path_1080" data-name="Path 1080" d="M249.667,242.828H245.99a1.679,1.679,0,0,0,.545,1.152,1.594,1.594,0,0,0,1.181.413,1.716,1.716,0,0,0,1.348-.582l.331.388a2.1,2.1,0,0,1-1.69.74,2.141,2.141,0,0,1-1.684-.6,2.263,2.263,0,0,1-.68-1.692,2.14,2.14,0,1,1,4.279,0A.734.734,0,0,1,249.667,242.828Zm-3.677-.449h3.121a1.561,1.561,0,1,0-3.121,0Z" transform="translate(-171.266 -5.334)" fill="#263238"/>
      <path id="Path_1081" data-name="Path 1081" d="M256.859,239.17v5.994h-.615V242.4h-3.653v2.766H252V239.17h.627v2.669h3.653V239.17Z" transform="translate(-170.052 -5.607)" fill="#263238"/>
      <path id="Path_1082" data-name="Path 1082" d="M257.23,242.663a2.235,2.235,0,1,1,2.234,2.293,2.134,2.134,0,0,1-1.6-.649,2.252,2.252,0,0,1-.633-1.644Zm3.866,0a1.633,1.633,0,1,0-1.631,1.747,1.575,1.575,0,0,0,1.191-.5,1.664,1.664,0,0,0,.44-1.243Z" transform="translate(-169.1 -5.351)" fill="#263238"/>
      <path id="Path_1083" data-name="Path 1083" d="M269.282,242.349v2.609h-.591v-2.609c0-.959-.461-1.444-1.253-1.444a1.4,1.4,0,0,0-1.106.461,1.48,1.48,0,0,0-.371,1.165v2.427h-.591v-2.609c0-.959-.473-1.444-1.265-1.444a1.4,1.4,0,0,0-1.106.461,1.481,1.481,0,0,0-.371,1.165v2.427H262v-4.55h.567v.825a1.761,1.761,0,0,1,1.62-.861,1.579,1.579,0,0,1,1.56.946,1.891,1.891,0,0,1,1.738-.946,1.632,1.632,0,0,1,1.376.532A1.728,1.728,0,0,1,269.282,242.349Z" transform="translate(-168.231 -5.352)" fill="#263238"/>
      <path id="Path_1084" data-name="Path 1084" d="M273.428,242.828h-3.677a1.679,1.679,0,0,0,.545,1.152,1.594,1.594,0,0,0,1.181.413,1.716,1.716,0,0,0,1.348-.582l.331.388a2.1,2.1,0,0,1-1.69.74,2.143,2.143,0,0,1-1.645-.625,2.263,2.263,0,0,1-.66-1.668,2.14,2.14,0,1,1,4.279,0S273.428,242.768,273.428,242.828Zm-3.677-.449h3.121a1.561,1.561,0,1,0-3.121,0Z" transform="translate(-166.926 -5.334)" fill="#263238"/>
      <path id="Path_1085" data-name="Path 1085" d="M278.245,242.663a2.217,2.217,0,0,1-.6,1.638,2.1,2.1,0,0,1-1.583.655,1.9,1.9,0,0,1-1.667-.886v2.512H273.8v-6.176h.568v.886a1.9,1.9,0,0,1,1.69-.922,2.1,2.1,0,0,1,1.583.655,2.217,2.217,0,0,1,.6,1.638Zm-.591,0a1.644,1.644,0,1,0-1.631,1.747,1.587,1.587,0,0,0,1.187-.508A1.676,1.676,0,0,0,277.654,242.663Z" transform="translate(-166.081 -5.351)" fill="#263238"/>
      <path id="Path_1086" data-name="Path 1086" d="M281.938,242.114V244.9h-.567v-.692a1.652,1.652,0,0,1-1.513.74c-.993,0-1.608-.534-1.608-1.31s.437-1.213,1.7-1.213h1.395v-.279a1.107,1.107,0,0,0-1.253-1.213,2.165,2.165,0,0,0-1.454.534l-.272-.461a2.755,2.755,0,0,1,1.785-.607,1.535,1.535,0,0,1,1.295.414,1.624,1.624,0,0,1,.491,1.3Zm-.591,1.444v-.74h-1.383c-.851,0-1.123.34-1.123.813s.4.837,1.111.837a1.405,1.405,0,0,0,1.395-.91Z" transform="translate(-165.27 -5.348)" fill="#263238"/>
      <path id="Path_1087" data-name="Path 1087" d="M286.863,240.407v3.956a2.011,2.011,0,0,1-.542,1.7,1.9,1.9,0,0,1-1.657.556,3.01,3.01,0,0,1-2.045-.692l.307-.461a2.617,2.617,0,0,0,1.726.619,1.423,1.423,0,0,0,1.62-1.638v-.582a1.946,1.946,0,0,1-1.714.874,2.185,2.185,0,0,1,0-4.368,1.959,1.959,0,0,1,1.738.9v-.862Zm-.579,2.136a1.715,1.715,0,0,0-1-1.615,1.635,1.635,0,0,0-1.832.339,1.743,1.743,0,0,0-.383,1.87,1.667,1.667,0,0,0,1.544,1.068,1.537,1.537,0,0,0,1.2-.449,1.624,1.624,0,0,0,.472-1.213Z" transform="translate(-164.509 -5.351)" fill="#263238"/>
      <path id="Path_1088" data-name="Path 1088" d="M291.487,242.828H287.81a1.679,1.679,0,0,0,.545,1.152,1.594,1.594,0,0,0,1.181.413,1.716,1.716,0,0,0,1.348-.582l.331.388a2.1,2.1,0,0,1-1.691.74,2.141,2.141,0,0,1-1.684-.6,2.262,2.262,0,0,1-.68-1.692,2.14,2.14,0,1,1,4.279,0A.732.732,0,0,1,291.487,242.828Zm-3.677-.449h3.121a1.561,1.561,0,1,0-3.121,0Z" transform="translate(-163.647 -5.334)" fill="#263238"/>
      <path id="Path_1089" data-name="Path 1089" d="M219.6,242.951a9.318,9.318,0,0,0-.272-1.213,5.108,5.108,0,0,0-1.856-2.706,4.642,4.642,0,0,0-6.283.694,4.949,4.949,0,0,0,0,6.486,4.642,4.642,0,0,0,6.283.694,5.109,5.109,0,0,0,1.856-2.706c.225-.777.213-1.213.272-1.213a2.85,2.85,0,0,1,0,1.3,5.181,5.181,0,0,1-6.821,3.846,5.5,5.5,0,0,1,0-10.277,5.129,5.129,0,0,1,5,.837,5.214,5.214,0,0,1,1.82,3.009A2.762,2.762,0,0,1,219.6,242.951Z" transform="translate(-177.843 -5.954)" fill="#e0e0e0"/>
      <path id="Path_1090" data-name="Path 1090" d="M376.406,266.235a6.236,6.236,0,0,0,1.1-.146,5.852,5.852,0,0,0,2.873-1.456,6.335,6.335,0,0,0,2.069-4.769V234.942a19.754,19.754,0,0,0-.106-2.9,6.035,6.035,0,0,0-3.547-4.477,6.755,6.755,0,0,0-3.014-.485H358.615l-152.5.1a5.787,5.787,0,0,0-4.587,2.293,6.14,6.14,0,0,0-1.111,2.427,14.092,14.092,0,0,0-.13,2.766v25.068a6.308,6.308,0,0,0,.461,2.536,5.969,5.969,0,0,0,3.617,3.361,7.149,7.149,0,0,0,2.506.267H244.7l68.566.061,46.223.109h12.566l-12.566.061-46.223.1L244.7,266.3H206.872a7.865,7.865,0,0,1-2.684-.291,6.6,6.6,0,0,1-4-3.713,6.989,6.989,0,0,1-.52-2.779V234.688a15.138,15.138,0,0,1,.142-2.9,6.5,6.5,0,0,1,6.3-5.218l152.5.1H375.78a7.24,7.24,0,0,1,3.168.522,6.514,6.514,0,0,1,3.641,4.756,17.957,17.957,0,0,1,.106,2.961v24.923a6.418,6.418,0,0,1-2.163,4.854,5.976,5.976,0,0,1-2.944,1.432,4.993,4.993,0,0,1-.828.073Z" transform="translate(-179.588 -8.295)" fill="#e0e0e0"/>
      <path id="Path_1091" data-name="Path 1091" d="M285.66,250.285c0,.182-13.087.315-29.223.315s-29.247-.133-29.247-.315,13.087-.315,29.247-.315S285.66,250.116,285.66,250.285Z" transform="translate(-174.572 -3.302)" fill="#e0e0e0"/>
      <path id="Path_1092" data-name="Path 1092" d="M336.419,242.279a.234.234,0,0,1-.059.158l-1.844,1.966a.221.221,0,0,1-.307,0l-1.809-1.917a.223.223,0,0,1,.006-.309.209.209,0,0,1,.3.006l1.655,1.759,1.7-1.759a.209.209,0,0,1,.3,0,.219.219,0,0,1,.059.1Z" transform="translate(-155.417 -4.979)" fill="#e0e0e0"/>
      <path id="Path_1093" data-name="Path 1093" d="M231.563,278.821c0,1.274-.9,2.051-2.364,2.051h-1.56v1.893H227V276.77h2.187C230.665,276.77,231.563,277.534,231.563,278.821Zm-.615,0c0-.959-.615-1.5-1.785-1.5h-1.549v3h1.549C230.334,280.313,230.948,279.767,230.948,278.821Z" transform="translate(-174.606 2.416)" fill="#263238"/>
      <path id="Path_1094" data-name="Path 1094" d="M234,278v.582h-.142a1.4,1.4,0,0,0-1.122.473,1.482,1.482,0,0,0-.356,1.19v2.293h-.591V278h.567v.874A1.656,1.656,0,0,1,234,278Z" transform="translate(-173.734 2.677)" fill="#263238"/>
      <path id="Path_1095" data-name="Path 1095" d="M234.16,280.251a2.235,2.235,0,1,1,2.234,2.306,2.122,2.122,0,0,1-1.61-.649A2.241,2.241,0,0,1,234.16,280.251Zm3.866,0a1.633,1.633,0,1,0-1.631,1.759,1.588,1.588,0,0,0,1.192-.512A1.676,1.676,0,0,0,238.026,280.251Z" transform="translate(-173.302 2.672)" fill="#263238"/>
      <path id="Path_1096" data-name="Path 1096" d="M237.62,284.249l.213-.461a1.046,1.046,0,0,0,.686.231c.461,0,.721-.291.721-.849v-4.853h.591v4.853a1.234,1.234,0,0,1-.317,1,1.165,1.165,0,0,1-.96.37,1.463,1.463,0,0,1-.934-.291Zm1.49-7.353a.431.431,0,0,1,.437-.425.421.421,0,0,1,.427.192.446.446,0,0,1,0,.478.513.513,0,0,1-.735.068.443.443,0,0,1-.129-.313Z" transform="translate(-172.672 2.351)" fill="#263238"/>
      <path id="Path_1097" data-name="Path 1097" d="M244.792,280.435h-3.7a1.68,1.68,0,0,0,.545,1.152,1.594,1.594,0,0,0,1.181.413,1.706,1.706,0,0,0,1.348-.595l.331.4a2.32,2.32,0,0,1-2.481.518,2.42,2.42,0,0,1-1.514-2.083,2.193,2.193,0,0,1,.585-1.62,2.153,2.153,0,0,1,3.106,0,2.181,2.181,0,0,1,.577,1.619Zm-3.677-.461h3.109a1.557,1.557,0,0,0-3.109,0Z" transform="translate(-172.148 2.67)" fill="#263238"/>
      <path id="Path_1098" data-name="Path 1098" d="M244.78,280.252a2.251,2.251,0,0,1,.645-1.645,2.133,2.133,0,0,1,1.613-.636,1.9,1.9,0,0,1,1.726.886l-.449.315a1.455,1.455,0,0,0-1.277-.68,1.76,1.76,0,0,0,0,3.519,1.466,1.466,0,0,0,1.277-.655l.449.3a1.936,1.936,0,0,1-1.726.9,2.145,2.145,0,0,1-1.618-.648,2.264,2.264,0,0,1-.64-1.657Z" transform="translate(-171.368 2.671)" fill="#263238"/>
      <path id="Path_1099" data-name="Path 1099" d="M251.593,282.4a1.4,1.4,0,0,1-.934.328,1.165,1.165,0,0,1-.935-.351,1.232,1.232,0,0,1-.342-.959v-2.73h-.792v-.51h.792v-.995h.591v.995h1.336v.51h-1.336v2.694a.728.728,0,0,0,.181.6.688.688,0,0,0,.576.222.989.989,0,0,0,.65-.231Z" transform="translate(-170.673 2.504)" fill="#263238"/>
      <path id="Path_1100" data-name="Path 1100" d="M253.55,279.778a3.062,3.062,0,0,1,.895-2.209,2.9,2.9,0,0,1,2.179-.849,2.765,2.765,0,0,1,2.128.874l-.39.413a2.333,2.333,0,0,0-1.726-.716,2.488,2.488,0,0,0,0,4.975,2.241,2.241,0,0,0,1.726-.728l.39.413a2.764,2.764,0,0,1-2.14.874,2.89,2.89,0,0,1-2.171-.845,3.049,3.049,0,0,1-.891-2.2Z" transform="translate(-169.77 2.405)" fill="#263238"/>
      <path id="Path_1101" data-name="Path 1101" d="M259,276.47h.591v6.358H259Z" transform="translate(-168.777 2.352)" fill="#263238"/>
      <path id="Path_1102" data-name="Path 1102" d="M260.75,276.9a.431.431,0,0,1,.426-.425.421.421,0,0,1,.427.192.446.446,0,0,1,0,.478.421.421,0,0,1-.427.192.431.431,0,0,1-.426-.437Zm.13,1.432h.591v4.5h-.591Z" transform="translate(-168.458 2.351)" fill="#263238"/>
      <path id="Path_1103" data-name="Path 1103" d="M266.658,280.427h-3.665a1.68,1.68,0,0,0,.545,1.152,1.593,1.593,0,0,0,1.181.413,1.717,1.717,0,0,0,1.348-.595l.331.4a2.32,2.32,0,0,1-2.49.529,2.421,2.421,0,0,1-1.517-2.095,2.2,2.2,0,0,1,.607-1.584A2.089,2.089,0,0,1,264.53,278a2.066,2.066,0,0,1,1.551.662,2.181,2.181,0,0,1,.577,1.619Zm-3.665-.461H266.1a1.557,1.557,0,0,0-3.109,0Z" transform="translate(-168.16 2.678)" fill="#263238"/>
      <path id="Path_1104" data-name="Path 1104" d="M271.067,279.9v2.609h-.591v-2.548a1.235,1.235,0,0,0-.3-1.074,1.165,1.165,0,0,0-1.027-.37,1.41,1.41,0,0,0-1.142.441,1.492,1.492,0,0,0-.395,1.185v2.366H267v-4.5h.567v.825a1.83,1.83,0,0,1,1.667-.862,1.654,1.654,0,0,1,1.369.512,1.751,1.751,0,0,1,.464,1.417Z" transform="translate(-167.32 2.671)" fill="#263238"/>
      <path id="Path_1105" data-name="Path 1105" d="M274.223,282.4a1.4,1.4,0,0,1-.934.328,1.165,1.165,0,0,1-.935-.351,1.232,1.232,0,0,1-.342-.959v-2.73h-.792v-.51h.792v-.995h.591v.995h1.336v.51H272.6v2.694a.728.728,0,0,0,.181.6.688.688,0,0,0,.576.222,1.012,1.012,0,0,0,.65-.231Z" transform="translate(-166.551 2.504)" fill="#263238"/>
      <path id="Path_1106" data-name="Path 1106" d="M280.219,282.227v.546h-4.1v-.437l2.435-2.427a2,2,0,0,0,.78-1.48c0-.7-.473-1.128-1.371-1.128a1.984,1.984,0,0,0-1.6.667l-.426-.376a2.6,2.6,0,0,1,2.069-.862c1.182,0,1.939.619,1.939,1.626a2.446,2.446,0,0,1-.958,1.881l-1.986,2Z" transform="translate(-165.691 2.407)" fill="#263238"/>
      <path id="Path_1107" data-name="Path 1107" d="M219.6,280.521a9.311,9.311,0,0,0-.272-1.213,5.109,5.109,0,0,0-1.856-2.706,4.642,4.642,0,0,0-6.277.7,4.949,4.949,0,0,0,0,6.481,4.642,4.642,0,0,0,6.277.7,5.194,5.194,0,0,0,1.856-2.706c.225-.777.213-1.213.272-1.213a2.825,2.825,0,0,1,0,1.3,5.189,5.189,0,0,1-1.82,3,5.129,5.129,0,0,1-5,.849,5.51,5.51,0,0,1,0-10.289,5.181,5.181,0,0,1,6.821,3.846A2.825,2.825,0,0,1,219.6,280.521Z" transform="translate(-177.842 2.063)" fill="#e0e0e0"/>
      <path id="Path_1108" data-name="Path 1108" d="M376.406,303.825a9.212,9.212,0,0,0,1.1-.133,6.248,6.248,0,0,0,4.941-6.225q0-3.24,0-7.45V272.532a19.6,19.6,0,0,0-.106-2.888,6.12,6.12,0,0,0-3.547-4.49,6.754,6.754,0,0,0-3.014-.473H358.615l-152.5.1a5.717,5.717,0,0,0-4.587,2.293,6.14,6.14,0,0,0-1.111,2.427,14.018,14.018,0,0,0-.13,2.754v25.068a6.406,6.406,0,0,0,.461,2.548,5.969,5.969,0,0,0,3.617,3.361,7.451,7.451,0,0,0,2.506.267H244.7l68.566.073,46.223.1,12.566.061H359.49l-46.223.1H206.872a7.878,7.878,0,0,1-2.684-.3,6.553,6.553,0,0,1-4-3.7,7.052,7.052,0,0,1-.52-2.791V272.277a15.066,15.066,0,0,1,.142-2.888,6.52,6.52,0,0,1,6.3-5.23l152.5.1H375.78a7.251,7.251,0,0,1,3.168.534,6.462,6.462,0,0,1,3.7,4.769,17.807,17.807,0,0,1,.106,2.949v24.935a6.467,6.467,0,0,1-2.163,4.854,5.94,5.94,0,0,1-2.944,1.42,5.328,5.328,0,0,1-.828.085Z" transform="translate(-179.588 -0.275)" fill="#e0e0e0"/>
      <path id="Path_1109" data-name="Path 1109" d="M285.66,287.885c0,.17-13.087.315-29.223.315s-29.247-.146-29.247-.315,13.087-.315,29.247-.315S285.66,287.716,285.66,287.885Z" transform="translate(-174.572 4.72)" fill="#e0e0e0"/>
      <path id="Path_1110" data-name="Path 1110" d="M336.423,279.887a.259.259,0,0,1-.059.158l-1.844,1.9a.2.2,0,0,1-.307,0l-1.809-1.881a.222.222,0,0,1-.079-.227.215.215,0,0,1,.173-.164.211.211,0,0,1,.214.1l1.655,1.759,1.7-1.759a.209.209,0,0,1,.3,0A.257.257,0,0,1,336.423,279.887Z" transform="translate(-155.421 3.036)" fill="#e0e0e0"/>
      <path id="Path_1111" data-name="Path 1111" d="M231.882,318.775c0,1.019-.745,1.6-2.2,1.6H227V314.37h2.53c1.3,0,2.045.57,2.045,1.541a1.408,1.408,0,0,1-.887,1.371A1.423,1.423,0,0,1,231.882,318.775Zm-4.268-3.883v2.184h1.856c.934,0,1.478-.376,1.478-1.092s-.544-1.092-1.478-1.092Zm3.641,3.822c0-.777-.556-1.116-1.584-1.116h-2.057v2.257h2.057c1.029-.012,1.584-.364,1.584-1.153Z" transform="translate(-174.606 10.439)" fill="#263238"/>
      <path id="Path_1112" data-name="Path 1112" d="M236.179,315.6v4.514h-.567v-.825a1.738,1.738,0,0,1-1.584.861,1.677,1.677,0,0,1-1.375-.511,1.775,1.775,0,0,1-.481-1.418V315.6h.591v2.56a1.235,1.235,0,0,0,.3,1.074,1.165,1.165,0,0,0,1.027.37,1.412,1.412,0,0,0,1.123-.46,1.493,1.493,0,0,0,.379-1.178V315.54Z" transform="translate(-173.666 10.689)" fill="#263238"/>
      <path id="Path_1113" data-name="Path 1113" d="M240.809,315.59l-2.2,5.048c-.366.886-.828,1.213-1.454,1.213a1.479,1.479,0,0,1-1.076-.413l.284-.449a1.085,1.085,0,0,0,.792.34c.4,0,.662-.182.91-.752l.2-.437-1.962-4.5h.615l1.655,3.834,1.655-3.834Z" transform="translate(-172.952 10.699)" fill="#263238"/>
      <path id="Path_1114" data-name="Path 1114" d="M246.975,317.363h.591v2.293a3.141,3.141,0,0,1-2.14.764,2.952,2.952,0,0,1-2.89-1.395,3.126,3.126,0,0,1,0-3.278,2.952,2.952,0,0,1,2.89-1.395,2.832,2.832,0,0,1,2.163.861l-.378.4a2.39,2.39,0,0,0-1.761-.692,2.483,2.483,0,1,0,1.525,4.5Z" transform="translate(-171.861 10.43)" fill="#263238"/>
      <path id="Path_1115" data-name="Path 1115" d="M248,314.5a.426.426,0,1,1,.426.437A.431.431,0,0,1,248,314.5Zm.13,1.42h.591v4.514h-.591Z" transform="translate(-170.781 10.373)" fill="#263238"/>
      <path id="Path_1116" data-name="Path 1116" d="M250.769,315.393v.534h1.359v.5h-1.336v4h-.6v-4h-.78v-.51h.78v-.558a1.232,1.232,0,0,1,.35-1,1.163,1.163,0,0,1,.985-.333,1.4,1.4,0,0,1,.875.279l-.2.461a.989.989,0,0,0-.65-.231C251.041,314.544,250.769,314.835,250.769,315.393Z" transform="translate(-170.524 10.362)" fill="#263238"/>
      <path id="Path_1117" data-name="Path 1117" d="M254.8,320a1.384,1.384,0,0,1-.922.316,1.164,1.164,0,0,1-.943-.346,1.232,1.232,0,0,1-.346-.964v-2.742H251.8v-.51h.792v-.983h.591v.983h1.336v.51h-1.3v2.694a.728.728,0,0,0,.181.6.688.688,0,0,0,.576.222.931.931,0,0,0,.65-.231Z" transform="translate(-170.089 10.524)" fill="#263238"/>
      <path id="Path_1118" data-name="Path 1118" d="M219.6,318.111a9.319,9.319,0,0,0-.272-1.213,5.109,5.109,0,0,0-1.856-2.706,4.642,4.642,0,0,0-6.283.694,4.949,4.949,0,0,0,0,6.486,4.642,4.642,0,0,0,6.283.694,5.108,5.108,0,0,0,1.856-2.706c.225-.777.213-1.213.272-1.213a2.85,2.85,0,0,1,0,1.3,5.163,5.163,0,0,1-6.821,3.846,5.5,5.5,0,0,1,0-10.277,5.163,5.163,0,0,1,6.821,3.846A2.763,2.763,0,0,1,219.6,318.111Z" transform="translate(-177.843 10.084)" fill="#e0e0e0"/>
      <path id="Path_1119" data-name="Path 1119" d="M376.406,341.425a6.779,6.779,0,0,0,1.1-.133,6.248,6.248,0,0,0,4.942-6.237c0-2.16,0-4.647,0-7.438V310.132a19.755,19.755,0,0,0-.106-2.9,6.035,6.035,0,0,0-3.547-4.477,6.755,6.755,0,0,0-3.014-.485H358.615l-152.5.085a5.948,5.948,0,0,0-5.7,4.72,14.141,14.141,0,0,0-.13,2.766v25.068a6.307,6.307,0,0,0,.461,2.536,5.969,5.969,0,0,0,3.617,3.361,7.451,7.451,0,0,0,2.506.279H244.7l68.566.073,46.223.1h12.566l-12.566.061-46.223.1-68.566.073H206.872a7.863,7.863,0,0,1-2.684-.291,6.621,6.621,0,0,1-4-3.64,7.087,7.087,0,0,1-.52-2.791V309.877a15.138,15.138,0,0,1,.142-2.9A6.66,6.66,0,0,1,201,304.3a6.443,6.443,0,0,1,5.072-2.536l152.5.1h17.165a7.241,7.241,0,0,1,3.168.522,6.51,6.51,0,0,1,3.7,4.769,17.961,17.961,0,0,1,.106,2.961v24.959a6.467,6.467,0,0,1-2.163,4.854,5.94,5.94,0,0,1-2.944,1.42,3.945,3.945,0,0,1-.827.073Z" transform="translate(-179.588 7.748)" fill="#e0e0e0"/>
      <path id="Path_1120" data-name="Path 1120" d="M285.66,325.485c0,.17-13.087.315-29.223.315s-29.247-.146-29.247-.315,13.087-.315,29.247-.315S285.66,325.3,285.66,325.485Z" transform="translate(-174.572 12.744)" fill="#e0e0e0"/>
      <path id="Path_1121" data-name="Path 1121" d="M336.419,317.49a.221.221,0,0,1-.059.146l-1.844,1.917a.22.22,0,0,1-.307,0l-1.809-1.917a.223.223,0,0,1,.006-.309.209.209,0,0,1,.3.006l1.655,1.759,1.7-1.759a.209.209,0,0,1,.3,0A.234.234,0,0,1,336.419,317.49Z" transform="translate(-155.417 11.057)" fill="#e0e0e0"/>
      <path id="Path_1126" data-name="Path 1126" d="M25.664.437C39.567.38,50.791,11.33,50.734,24.893S39.361,49.5,25.458,49.555.331,38.662.388,25.1,11.762.494,25.664.437Z" transform="matrix(0.161, -0.987, 0.987, 0.161, 140.738, 419.541)" fill="#40c2a4"/>
      <path id="Path_1122" data-name="Path 1122" d="M326.171,383.406a.6.6,0,0,1-.591-.607V369.647a.591.591,0,1,1,1.182,0V382.8A.6.6,0,0,1,326.171,383.406Z" transform="translate(-156.648 22.104)" fill="#fff"/>
      <path id="Path_1123" data-name="Path 1123" d="M333.566,375.673H320.751a.607.607,0,0,1,0-1.213h12.815a.607.607,0,0,1,0,1.213Z" transform="translate(-157.636 23.261)" fill="#fff"/>
      <path id="Path_1124" data-name="Path 1124" d="M333.358,137.273l-.118,2.924,2.825-.388,6.561-6.661-2.648-2.718Z" transform="translate(-155.253 -28.81)" fill="#40c2a4"/>
      <path id="Path_1125" data-name="Path 1125" d="M339.26,130.349l2.565,2.645.39-.388a1.718,1.718,0,0,0,0-2.427l-.272-.267a1.591,1.591,0,0,0-2.364,0Z" transform="translate(-154.156 -29.032)" fill="#40c2a4"/>
    </g>
  </g>
</svg>
