<svg xmlns="http://www.w3.org/2000/svg" width="770.563" height="574.162" viewBox="0 0 770.563 574.162">
  <g id="Mobile_UX-rafiki" data-name="Mobile UX-rafiki" transform="translate(0 -55)">
    <g id="freepik--background-complete--inject-2" transform="translate(0 55)">
      <rect id="Rectangle_145" data-name="Rectangle 145" width="770.563" height="0.385" transform="translate(0 504.565)" fill="#ebebeb"/>
      <rect id="Rectangle_146" data-name="Rectangle 146" width="51.042" height="0.385" transform="translate(642.311 529.362)" fill="#ebebeb"/>
      <rect id="Rectangle_147" data-name="Rectangle 147" width="13.392" height="0.385" transform="translate(497.06 533.554)" fill="#ebebeb"/>
      <rect id="Rectangle_148" data-name="Rectangle 148" width="29.574" height="0.385" transform="translate(611.195 515.06)" fill="#ebebeb"/>
      <rect id="Rectangle_149" data-name="Rectangle 149" width="66.561" height="0.385" transform="translate(80.848 517.649)" fill="#ebebeb"/>
      <rect id="Rectangle_150" data-name="Rectangle 150" width="9.755" height="0.385" transform="translate(161.14 517.649)" fill="#ebebeb"/>
      <rect id="Rectangle_151" data-name="Rectangle 151" width="144.373" height="0.385" transform="translate(202.612 524.153)" fill="#ebebeb"/>
      <path id="Path_1127" data-name="Path 1127" d="M344.571,490.831H46.994a8.8,8.8,0,0,1-8.784-8.8V63.723A8.8,8.8,0,0,1,46.994,55H344.571a8.8,8.8,0,0,1,8.8,8.8V482.031A8.8,8.8,0,0,1,344.571,490.831ZM46.994,55.308a8.415,8.415,0,0,0-8.4,8.415V482.031a8.415,8.415,0,0,0,8.4,8.415H344.571a8.43,8.43,0,0,0,8.415-8.415V63.723a8.43,8.43,0,0,0-8.415-8.415Z" transform="translate(20.676 -55)" fill="#ebebeb"/>
      <path id="Path_1128" data-name="Path 1128" d="M560.891,490.831H263.3a8.815,8.815,0,0,1-8.8-8.8V63.723A8.815,8.815,0,0,1,263.3,55H560.891a8.8,8.8,0,0,1,8.769,8.723V482.031A8.8,8.8,0,0,1,560.891,490.831ZM263.3,55.308a8.43,8.43,0,0,0-8.415,8.415V482.031a8.43,8.43,0,0,0,8.415,8.414H560.891a8.43,8.43,0,0,0,8.415-8.415V63.723a8.43,8.43,0,0,0-8.415-8.415Z" transform="translate(137.717 -55)" fill="#ebebeb"/>
      <rect id="Rectangle_152" data-name="Rectangle 152" width="192.302" height="198.697" transform="translate(100.481 112.841)" fill="#ebebeb"/>
      <rect id="Rectangle_153" data-name="Rectangle 153" width="192.302" height="198.697" transform="translate(107.201 112.841)" fill="#f0f0f0"/>
      <rect id="Rectangle_154" data-name="Rectangle 154" width="182.362" height="189.374" transform="translate(112.04 117.542)" fill="#e0e0e0"/>
      <rect id="Rectangle_155" data-name="Rectangle 155" width="177.8" height="189.374" transform="translate(112.04 117.542)" fill="#f5f5f5"/>
      <rect id="Rectangle_156" data-name="Rectangle 156" width="3.606" height="189.374" transform="translate(199.175 117.542)" fill="#ebebeb"/>
      <path id="Path_1129" data-name="Path 1129" d="M135.252,131.27,84.58,320.644H79.71L130.382,131.27Z" transform="translate(43.133 -13.728)" fill="#fff"/>
      <rect id="Rectangle_157" data-name="Rectangle 157" width="3.098" height="195.923" transform="translate(201.24 114.629)" fill="#f0f0f0"/>
      <path id="Path_1130" data-name="Path 1130" d="M120.644,131.27,72.7,310.488V211.979L94.291,131.27Z" transform="translate(39.34 -13.728)" fill="#fff"/>
      <path id="Path_1131" data-name="Path 1131" d="M204.25,142.42v18.185l-41.21,154h-4.87Z" transform="translate(85.59 -7.695)" fill="#fff"/>
      <path id="Path_1132" data-name="Path 1132" d="M200.8,166.24v98.509l-9.879,36.972H164.55Z" transform="translate(89.042 5.195)" fill="#fff"/>
      <path id="Path_1133" data-name="Path 1133" d="M169.29,299.022h19.588v-1.31c0-2.543-2.867-4.623-6.272-4.438l-7.706.308c-3.082.139-5.61,2.081-5.61,4.438Z" transform="translate(91.607 73.93)" fill="#f0f0f0"/>
      <path id="Path_1134" data-name="Path 1134" d="M194.37,310.927H220.2l4.115-36.078a2.543,2.543,0,0,0-2.527-2.42H204.48a2.527,2.527,0,0,0-2.527,2.42Z" transform="translate(105.179 62.657)" fill="#e6e6e6"/>
      <path id="Path_1135" data-name="Path 1135" d="M169.407,238H175.9l7.259,68.118H176.7a2.235,2.235,0,0,1-2.188-1.849l-6.827-64.25A1.7,1.7,0,0,1,169.407,238Z" transform="translate(90.72 44.026)" fill="#e6e6e6"/>
      <path id="Path_1136" data-name="Path 1136" d="M178.415,306.148h96.69a1.711,1.711,0,0,0,1.726-1.942L270,239.957a2.219,2.219,0,0,0-2.142-1.926h-96.69a1.7,1.7,0,0,0-1.726,1.926l6.827,64.3a2.235,2.235,0,0,0,2.142,1.9Z" transform="translate(91.683 44.042)" fill="#ebebeb"/>
      <path id="Path_1137" data-name="Path 1137" d="M179.192,299.006h91.142a1.541,1.541,0,0,0,1.541-1.68l-5.964-56.051a1.926,1.926,0,0,0-1.865-1.7H172.874a1.541,1.541,0,0,0-1.541,1.7l5.964,56.051A1.926,1.926,0,0,0,179.192,299.006Z" transform="translate(92.709 44.881)" fill="#fafafa"/>
      <path id="Path_1138" data-name="Path 1138" d="M194.232,295.59H226.01a1.4,1.4,0,0,1,1.4,1.4h0a1.4,1.4,0,0,1-1.4,1.4H194.232a1.4,1.4,0,0,1-1.4-1.4h0A1.4,1.4,0,0,1,194.232,295.59Z" transform="translate(104.345 75.19)" fill="#e6e6e6"/>
      <rect id="Rectangle_158" data-name="Rectangle 158" width="78.675" height="11.867" transform="translate(299.009 384.65) rotate(180)" fill="#e6e6e6"/>
      <path id="Path_1139" data-name="Path 1139" d="M286.491,425.265h1.957a.447.447,0,0,0,.447-.447l3.082-120.208H282.9l3.082,120.208a.478.478,0,0,0,.509.447Z" transform="translate(153.085 80.071)" fill="#e6e6e6"/>
      <path id="Path_1140" data-name="Path 1140" d="M336.763,425.281h4.531l-12.807-120.7H319.41Z" transform="translate(172.841 80.054)" fill="#f0f0f0"/>
      <path id="Path_1141" data-name="Path 1141" d="M142.56,425.281h0l17.384-120.7h-9.062l-12.822,120.7Z" transform="translate(74.708 80.054)" fill="#e6e6e6"/>
      <rect id="Rectangle_159" data-name="Rectangle 159" width="229.998" height="11.867" transform="translate(506.568 384.65) rotate(180)" fill="#f5f5f5"/>
      <path id="Path_1142" data-name="Path 1142" d="M184.8,425.281h5.209l1.926-120.7H182.87Z" transform="translate(98.956 80.054)" fill="#f0f0f0"/>
      <path id="Path_1143" data-name="Path 1143" d="M231.947,296.717h2.42a.478.478,0,0,0,.462-.462v-2.543a.462.462,0,0,0-.462-.462h-1.741a.447.447,0,0,0-.432.339l-.678,2.543a.462.462,0,0,0,.432.586Z" transform="translate(125.27 73.924)" fill="#f5f5f5"/>
      <path id="Path_1144" data-name="Path 1144" d="M229.791,296.718h2.42a.463.463,0,0,0,.447-.462v-2.543a.447.447,0,0,0-.447-.462h-1.741a.447.447,0,0,0-.432.339l-.694,2.543a.478.478,0,0,0,.447.586Z" transform="translate(124.098 73.923)" fill="#f5f5f5"/>
      <path id="Path_1145" data-name="Path 1145" d="M227.653,296.718h2.358a.463.463,0,0,0,.447-.462v-2.543a.447.447,0,0,0-.447-.462H228.27a.478.478,0,0,0-.447.339l-.678,2.543a.478.478,0,0,0,.509.586Z" transform="translate(122.907 73.923)" fill="#f5f5f5"/>
      <path id="Path_1146" data-name="Path 1146" d="M225.473,296.718h2.4a.462.462,0,0,0,.462-.462v-2.543a.447.447,0,0,0-.462-.462h-1.726a.478.478,0,0,0-.447.339l-.678,2.543a.462.462,0,0,0,.447.586Z" transform="translate(121.758 73.923)" fill="#f5f5f5"/>
      <path id="Path_1147" data-name="Path 1147" d="M223.313,296.718h2.4a.462.462,0,0,0,.462-.462v-2.543a.447.447,0,0,0-.462-.462h-1.726a.462.462,0,0,0-.447.339l-.678,2.543a.462.462,0,0,0,.447.586Z" transform="translate(120.59 73.923)" fill="#f5f5f5"/>
      <path id="Path_1148" data-name="Path 1148" d="M221.163,296.718h2.4a.462.462,0,0,0,.462-.462v-2.543a.447.447,0,0,0-.462-.462h-1.726a.462.462,0,0,0-.447.339l-.678,2.543a.462.462,0,0,0,.447.586Z" transform="translate(119.426 73.923)" fill="#f5f5f5"/>
      <path id="Path_1149" data-name="Path 1149" d="M218.993,296.718h2.4a.462.462,0,0,0,.462-.462v-2.543a.447.447,0,0,0-.462-.462h-1.726a.447.447,0,0,0-.447.339l-.678,2.543a.462.462,0,0,0,.447.586Z" transform="translate(118.252 73.923)" fill="#f5f5f5"/>
      <path id="Path_1150" data-name="Path 1150" d="M216.833,296.718h2.4a.478.478,0,0,0,.462-.462v-2.543a.462.462,0,0,0-.462-.462h-1.726a.447.447,0,0,0-.447.339l-.678,2.543a.462.462,0,0,0,.447.586Z" transform="translate(117.083 73.923)" fill="#f5f5f5"/>
      <path id="Path_1151" data-name="Path 1151" d="M214.631,296.718h2.42a.478.478,0,0,0,.462-.462v-2.543a.462.462,0,0,0-.462-.462H215.4a.447.447,0,0,0-.447.339l-.678,2.543a.462.462,0,0,0,.354.586Z" transform="translate(115.941 73.923)" fill="#f5f5f5"/>
      <path id="Path_1152" data-name="Path 1152" d="M212.5,296.717h2.42a.478.478,0,0,0,.462-.462v-2.543a.462.462,0,0,0-.462-.462h-1.741a.447.447,0,0,0-.431.339l-.694,2.543a.478.478,0,0,0,.447.586Z" transform="translate(114.742 73.924)" fill="#f5f5f5"/>
      <path id="Path_1153" data-name="Path 1153" d="M210.341,296.718h2.42a.463.463,0,0,0,.447-.462v-2.543a.447.447,0,0,0-.447-.462h-1.741a.478.478,0,0,0-.447.339l-.678,2.543a.478.478,0,0,0,.447.586Z" transform="translate(113.573 73.923)" fill="#f5f5f5"/>
      <path id="Path_1154" data-name="Path 1154" d="M208.163,296.718h2.4a.462.462,0,0,0,.462-.462v-2.543a.447.447,0,0,0-.462-.462h-1.726a.478.478,0,0,0-.447.339l-.678,2.543a.462.462,0,0,0,.447.586Z" transform="translate(112.392 73.923)" fill="#f5f5f5"/>
      <path id="Path_1155" data-name="Path 1155" d="M206.023,296.718h2.4a.462.462,0,0,0,.462-.462v-2.543a.447.447,0,0,0-.462-.462H206.7a.478.478,0,0,0-.447.339l-.678,2.543a.462.462,0,0,0,.447.586Z" transform="translate(111.234 73.923)" fill="#f5f5f5"/>
      <path id="Path_1156" data-name="Path 1156" d="M203.863,296.718h2.4a.462.462,0,0,0,.462-.462v-2.543a.447.447,0,0,0-.462-.462h-1.726a.462.462,0,0,0-.447.339l-.678,2.543a.462.462,0,0,0,.447.586Z" transform="translate(110.065 73.923)" fill="#f5f5f5"/>
      <path id="Path_1157" data-name="Path 1157" d="M201.692,296.718h2.4a.462.462,0,0,0,.462-.462v-2.543a.447.447,0,0,0-.462-.462h-1.7a.447.447,0,0,0-.447.339l-.678,2.543a.462.462,0,0,0,.416.586Z" transform="translate(108.907 73.923)" fill="#f5f5f5"/>
      <rect id="Rectangle_160" data-name="Rectangle 160" width="53.893" height="4.007" transform="translate(362.057 372.922) rotate(180)" fill="#ebebeb"/>
      <rect id="Rectangle_161" data-name="Rectangle 161" width="193.504" height="249.015" transform="translate(657.583 80.324) rotate(90)" fill="#e0e0e0"/>
      <rect id="Rectangle_162" data-name="Rectangle 162" width="242.111" height="186.6" transform="translate(654.131 270.375) rotate(180)" fill="#ebebeb"/>
      <line id="Line_24" data-name="Line 24" y2="26.03" transform="translate(529.007 117.48)" fill="none" stroke="#e0e0e0" stroke-miterlimit="10" stroke-width="1"/>
      <path id="Path_1158" data-name="Path 1158" d="M304.87,231.88V148.12H414.691v48.037" transform="translate(164.973 -4.61)" fill="none" stroke="#e0e0e0" stroke-miterlimit="10" stroke-width="1"/>
      <path id="Path_1159" data-name="Path 1159" d="M357.69,204.873V179.29h60.381v26.477" transform="translate(193.556 12.257)" fill="none" stroke="#e0e0e0" stroke-miterlimit="10" stroke-width="1"/>
      <rect id="Rectangle_163" data-name="Rectangle 163" width="55.542" height="19.125" transform="translate(501.236 107.925)" fill="#f5f5f5"/>
      <rect id="Rectangle_164" data-name="Rectangle 164" width="52.938" height="20.774" transform="translate(554.02 153.804)" fill="#f5f5f5"/>
      <rect id="Rectangle_165" data-name="Rectangle 165" width="36.355" height="21.422" transform="translate(533.076 206.419)" fill="#f5f5f5"/>
      <rect id="Rectangle_166" data-name="Rectangle 166" width="38.944" height="16.274" transform="translate(592.163 209.886)" fill="#f5f5f5"/>
      <rect id="Rectangle_167" data-name="Rectangle 167" width="60.15" height="27.756" transform="translate(444.291 158.197)" fill="#f5f5f5"/>
      <rect id="Rectangle_168" data-name="Rectangle 168" width="38.405" height="20.281" transform="translate(450.641 217.129)" fill="#f5f5f5"/>
      <rect id="Rectangle_169" data-name="Rectangle 169" width="11.728" height="11.728" transform="translate(529.025 135.896) rotate(45)" fill="#f5f5f5"/>
      <rect id="Rectangle_170" data-name="Rectangle 170" width="11.728" height="11.728" transform="translate(579.676 183.269) rotate(45)" fill="#f5f5f5"/>
      <path id="Path_1160" data-name="Path 1160" d="M172.247,365.943a3.683,3.683,0,0,0-2.944-5.286,7.891,7.891,0,0,0-2.5-8.6,1.819,1.819,0,0,0-1.079-.478,2.158,2.158,0,0,0-1.171.509l-6.873,4.947a4.131,4.131,0,0,0-1.372,1.356c-1.418,2.728,3.668,6.165,1.541,8.476-.586.647-1.541.786-2.312,1.248-1.634,1.017-1.834,3.267-2.589,5.055s-3.437,3.082-4.454,1.541c.755-1.711-1.541-3.175-3.375-3.391s-3.776-.324-4.808-2.05c-2.62,2.3-8.492-4.115-8.353-6.689a5.055,5.055,0,0,0-4.1,4.207,29.82,29.82,0,0,0-.231,6.427c0,4.177-1.418,8.276-1.341,12.452,0,3.252,1.31,6.858,4.3,8.168a11.081,11.081,0,0,0,4.623.616l33.9-.216a5.022,5.022,0,0,0,2.389-.4c1.541-.8,1.849-2.8,1.988-4.516q.925-11.05,1.819-22.1Z" transform="translate(68.338 105.487)" fill="#e0e0e0"/>
      <path id="Path_1161" data-name="Path 1161" d="M175.863,337.66H123.28l.432,5.3.308,3.791.8,9.879.447,5.671.616,7.552.262,3.236v.971l.308,3.791.416,5.225.262,3.236.277,3.283.308,3.807.231,2.882.262,3.236.108,1.4h48.268l.108-1.4.262-3.221.231-2.913.308-3.807.277-3.267.262-3.236.416-5.225.308-3.791v-.971l.262-3.236.616-7.552.447-5.656.8-9.894.308-3.791.432-5.3Zm3.082,3.483h0l-1.017-1.017h1.11Zm-.262,3.221-.092,1.279-4.716,4.716-5.394-5.409,4.824-4.824h1.14Zm-1.356,16.829-3.452,3.452-5.394-5.409,5.394-5.379,3.745,3.729Zm-50.04-3.606h0l3.73-3.729,5.394,5.379-5.394,5.409-3.437-3.452Zm44.878-5.533-5.394,5.394-5.394-5.394,5.394-5.409Zm-8.476-11.974h6.165l-3.082,3.082Zm1.325,19.11-5.379,5.409-5.409-5.409,5.409-5.379ZM147.09,366.34l5.394-5.394,5.394,5.394-5.394,5.394Zm3.637,7.135-5.394,5.394-5.394-5.378,5.409-5.409Zm8.908-5.394,5.379,5.409-5.379,5.378-5.409-5.394Zm-7.151-10.634-5.394-5.394,5.394-5.409,5.394,5.409Zm-1.757,1.742-5.379,5.409-5.409-5.409,5.409-5.379Zm-12.468-1.7-5.379-5.394,5.379-5.409,5.409,5.409Zm0,3.5,5.409,5.394-5.409,5.394-5.379-5.394Zm5.409,19.68-5.409,5.394-5.379-5.394,5.379-5.394Zm1.741,1.741,5.394,5.409-5.379,5.394-5.409-5.394Zm1.757-1.741,5.394-5.394,5.394,5.394-5.394,5.394Zm12.545,1.741,5.379,5.409-5.379,5.394-5.409-5.394Zm7.135,7.151,5.394,5.394-3.5,3.5h-3.807l-3.56-3.5Zm-5.394-8.892,5.394-5.394,5.394,5.394-5.394,5.394Zm0-14.286,5.394-5.394,5.394,5.394-5.394,5.394Zm3.637-21.437-5.379,5.409L154.3,344.95l4.839-4.824h1.125Zm-12.529-1.741-3.082-3.082h6.164ZM150.8,344.95l-5.379,5.409-5.409-5.409,4.839-4.824h1.11Zm-9.463-4.824-3.082,3.082-3.082-3.082Zm-9.663,0,4.824,4.824-5.394,5.409-4.623-4.716-.092-1.279,4.223-4.238Zm-4.623,0-1,1h0v-1Zm-.339,9.324,2.651,2.651-2.25,2.25Zm1.541,18.108L128.042,365h0l1.387,1.387Zm.262,3.252,2.651-2.682,5.394,5.409-5.394,5.379-2.25-2.2Zm.8,9.971v-.231l.123.123-.108.108Zm.94,11.512-.678-8.276,1.541-1.541,5.394,5.409-5.394,5.379-.909-.909Zm.493,6.165-.108-1.233.524-.524,1.757,1.757Zm2.173-3.5,5.379-5.394,5.409,5.394-3.5,3.5H136.41Zm10.788,3.5,1.757-1.757,1.757,1.757Zm7,0-3.5-3.5,5.394-5.394L158,394.959l-3.483,3.5Zm7.29,0,1.68-1.711,1.741,1.757Zm16.459,0h-2.3l1.741-1.757.524.524Zm.493-6.165-.925.909-5.394-5.379,5.394-5.409,1.541,1.541Zm.955-11.759v.247l-.123-.108.139-.139Zm.308-3.791-2.188,2.173-5.394-5.379,5.394-5.409,2.682,2.682Zm.74-9.17-1.187-1.187,1.4-1.387Zm1.541-18.139-.4,4.932-2.4-2.312,2.635-2.62Z" transform="translate(66.71 97.955)" fill="#e6e6e6"/>
      <rect id="Rectangle_171" data-name="Rectangle 171" width="65.236" height="6.873" rx="1.64" transform="translate(251.866 440.269) rotate(180)" fill="#f0f0f0"/>
      <rect id="Rectangle_172" data-name="Rectangle 172" width="55.835" height="6.873" rx="1.64" transform="translate(191.316 495.18)" fill="#f0f0f0"/>
      <path id="Path_1162" data-name="Path 1162" d="M407.62,378.947,424,331.727s-22.716,16.844-22.562-1.834,10.341-4.177,13.87-11.065-10.079-6.827-5.3-17.291,18.37,5.61,20.759-3.652,6.164-13.993,16.12-13.161c0,0,5.348,12.206-1.2,21.006s16.213,1.757,13.87,10.618-9.925,16.6-13.269,10.356-7.6,5.718-1.865,8.8-7.49,16.428-10.387,9.432a73.565,73.565,0,0,0-7.428-13.223l-15.057,50.58Z" transform="translate(217.23 69.259)" fill="#ebebeb"/>
      <path id="Path_1163" data-name="Path 1163" d="M410.559,367.127l-18.494-30.191s18.262,8.214,15.411-4.623-7.8-1.325-11.3-5.563,5.949-6.242,1.063-12.76-11.867,6.658-14.918.6-6.427-8.723-13.146-6.658c0,0-1.865,9.247,4.007,14.348s-10.957,3.668-8.014,9.447,9.37,9.987,10.788,5.163,6.164,2.8,2.635,5.81,7.706,10.233,8.6,4.947a51.527,51.527,0,0,1,3.082-10.264l18.047,32.672Z" transform="translate(197.416 81.495)" fill="#e6e6e6"/>
      <path id="Path_1164" data-name="Path 1164" d="M416.875,380.749,408.415,332.1s19.48,20.035,22.3,1.819-9.432-5.718-11.79-13.007,10.911-5.055,7.921-16.012-18.8,2.543-19.665-6.873-3.837-14.625-13.624-15.411c0,0-7.151,11.034-2.158,20.666s-16.089-.878-15.242,8.137,7.028,17.754,11.281,12.206,6.5,6.781.432,8.877,4.623,17.2,8.615,10.788a71.848,71.848,0,0,1,9.355-11.713l6.688,51.813Z" transform="translate(203.536 68.166)" fill="#f5f5f5"/>
      <path id="Path_1165" data-name="Path 1165" d="M422,402.061H392.962a3.853,3.853,0,0,1-3.837-3.606l-3.082-50.087a3.837,3.837,0,0,1,3.837-4.069h35.184a3.837,3.837,0,0,1,3.837,4.069l-3.082,50.087A3.837,3.837,0,0,1,422,402.061Z" transform="translate(208.894 101.548)" fill="#ebebeb"/>
      <path id="Path_1166" data-name="Path 1166" d="M429.9,350.706H387.346a3.838,3.838,0,0,1-3.807-3.406h0a3.837,3.837,0,0,1,3.807-4.3h42.489a3.853,3.853,0,0,1,3.822,4.284h0A3.837,3.837,0,0,1,429.9,350.706Z" transform="translate(207.529 100.845)" fill="#f5f5f5"/>
      <path id="Path_1167" data-name="Path 1167" d="M0,0H81.68V2.913a7.706,7.706,0,0,1-7.706,7.706H7.706A7.706,7.706,0,0,1,0,2.913V0Z" transform="translate(456.821 424.257) rotate(180)" fill="#e0e0e0"/>
      <path id="Path_1168" data-name="Path 1168" d="M318.364,383.345l-26.2-2.574V344h-10.31v36.787l-26.292,2.589a5.1,5.1,0,0,0-4.623,5.07v3.93H323v-3.93A5.1,5.1,0,0,0,318.364,383.345Z" transform="translate(135.79 101.386)" fill="#e0e0e0"/>
      <path id="Path_1169" data-name="Path 1169" d="M261.882,380.921a6.781,6.781,0,1,1-6.781-6.781,6.781,6.781,0,0,1,6.781,6.781Z" transform="translate(134.373 117.695)" fill="#e0e0e0"/>
      <path id="Path_1170" data-name="Path 1170" d="M291.48,380.921a6.781,6.781,0,1,0,6.781-6.781,6.781,6.781,0,0,0-6.781,6.781Z" transform="translate(157.728 117.695)" fill="#e0e0e0"/>
      <path id="Path_1171" data-name="Path 1171" d="M269.81,327.85h13.947v26.43a6.365,6.365,0,0,1-6.365,6.365h-1.217a6.365,6.365,0,0,1-6.365-6.365V327.85Z" transform="translate(146.001 92.646)" fill="#e6e6e6"/>
      <path id="Path_1172" data-name="Path 1172" d="M265.45,362.065a451.988,451.988,0,0,0,13.485-95.92A13.454,13.454,0,0,1,292.4,253.2h24.15a13.469,13.469,0,0,1,13.485,13.408c.093,22.007-1.433,66.993-13.87,103.564l-45.956-1.7a5.1,5.1,0,0,1-4.762-6.411Z" transform="translate(143.549 52.251)" fill="#ebebeb"/>
      <path id="Path_1173" data-name="Path 1173" d="M269.61,366.818a475.708,475.708,0,0,0,14.471-100,12.422,12.422,0,0,1,12.437-11.944h22.238A12.422,12.422,0,0,1,331.193,267.2c.092,20.312-1.325,65.852-12.776,99.588Z" transform="translate(145.893 53.155)" fill="#e6e6e6"/>
      <path id="Path_1174" data-name="Path 1174" d="M297.212,307.907s-26.477-5.348-52.044-2.759,12.021,36,12.021,36h5.286s-19.927-21.191-18.817-26.461,51.273,1.68,51.273,1.68Z" transform="translate(127.846 79.979)" fill="#e6e6e6"/>
      <path id="Path_1175" data-name="Path 1175" d="M316.507,366.818H273.14a475.662,475.662,0,0,0,14.471-100,12.329,12.329,0,0,1,12.421-11.944h16.814A12.437,12.437,0,0,1,329.3,267.2C329.376,287.527,327.958,333.082,316.507,366.818Z" transform="translate(147.803 53.155)" fill="#e0e0e0"/>
      <path id="Path_1176" data-name="Path 1176" d="M244.166,326.84h87.69a2.651,2.651,0,0,1,2.651,2.651h0a2.666,2.666,0,0,1-2.651,2.666h-87.69a2.666,2.666,0,0,1-2.666-2.666h0a2.651,2.651,0,0,1,2.666-2.651Z" transform="translate(130.682 92.1)" fill="#e0e0e0"/>
    </g>
    <g id="freepik--Shadow--inject-2" transform="translate(86.473 594.271)">
      <ellipse id="freepik--path--inject-2" cx="298.809" cy="17.446" rx="298.809" ry="17.446" fill="#f5f5f5"/>
    </g>
    <g id="freepik--Ux--inject-2" transform="translate(163.448 108.939)">
      <path id="Path_1177" data-name="Path 1177" d="M364.971,96.55V583.731a7.12,7.12,0,0,1-7.228,7.12H112.519a6.38,6.38,0,0,1-6.457-6.534V95.964A5.748,5.748,0,0,1,111.594,90h58.224a4.531,4.531,0,0,1,4.146,2.9l2.666,6.565a4.531,4.531,0,0,0,4.146,2.866H290.4a4.485,4.485,0,0,0,4.146-2.82l2.666-6.6A4.623,4.623,0,0,1,301.353,90h57.361a6.5,6.5,0,0,1,6.257,6.55Z" transform="translate(-106.057 -90)" fill="#40c2a4"/>
      <path id="Path_1178" data-name="Path 1178" d="M364.971,96.55V583.731a7.12,7.12,0,0,1-7.228,7.12H112.519a6.38,6.38,0,0,1-6.457-6.534V95.964A5.748,5.748,0,0,1,111.594,90h58.224a4.531,4.531,0,0,1,4.146,2.9l2.666,6.565a4.531,4.531,0,0,0,4.146,2.866H290.4a4.485,4.485,0,0,0,4.146-2.82l2.666-6.6A4.623,4.623,0,0,1,301.353,90h57.361a6.5,6.5,0,0,1,6.257,6.55Z" transform="translate(-106.057 -90)" fill="#fff" opacity="0.6"/>
      <rect id="Rectangle_173" data-name="Rectangle 173" width="63.818" height="63.818" rx="3.38" transform="translate(13.073 369.793)" fill="#fff"/>
      <rect id="Rectangle_174" data-name="Rectangle 174" width="36.787" height="36.787" transform="translate(26.573 383.294)" fill="#40c2a4" opacity="0.5"/>
      <path id="Path_1179" data-name="Path 1179" d="M123.3,338.71V375.5h36.8V338.71Zm17.214,18.4L125,372.63V341.592Zm-14.332-16.706H157.22l-15.519,15.5ZM141.7,358.3l15.519,15.519H126.182Zm1.187-1.187,15.519-15.519V372.63Z" transform="translate(-96.727 44.584)" fill="#fff" opacity="0.3"/>
      <rect id="Rectangle_175" data-name="Rectangle 175" width="64.943" height="7.32" transform="translate(12.503 446.927)" fill="#40c2a4" opacity="0.75"/>
      <path id="Path_1180" data-name="Path 1180" d="M116.549,381.493H114.7v-.663h4.454v.663H117.3v4.716h-.755Z" transform="translate(-101.38 67.376)" fill="#fff"/>
      <rect id="Rectangle_176" data-name="Rectangle 176" width="63.818" height="63.818" rx="3.38" transform="translate(96.433 369.146)" fill="#fff"/>
      <rect id="Rectangle_177" data-name="Rectangle 177" width="36.787" height="36.787" transform="translate(109.933 382.662)" fill="#40c2a4" opacity="0.5"/>
      <path id="Path_1181" data-name="Path 1181" d="M177.39,338.3v36.787h36.8V338.3ZM194.6,356.7l-15.519,15.5V341.182ZM180.272,340H211.31l-15.519,15.5Zm15.519,17.877,15.519,15.519H180.272Zm1.187-1.187L212.5,341.166V372.2Z" transform="translate(-67.457 44.362)" fill="#fff" opacity="0.3"/>
      <rect id="Rectangle_178" data-name="Rectangle 178" width="64.943" height="7.32" transform="translate(95.862 446.295)" fill="#40c2a4" opacity="0.75"/>
      <path id="Path_1182" data-name="Path 1182" d="M170.649,381.083H168.8v-.663h4.454v.663H171.4v4.623h-.755Z" transform="translate(-72.105 67.154)" fill="#fff"/>
      <rect id="Rectangle_179" data-name="Rectangle 179" width="63.818" height="63.818" rx="3.38" transform="translate(179.792 368.514)" fill="#fff"/>
      <rect id="Rectangle_180" data-name="Rectangle 180" width="36.787" height="36.787" transform="translate(193.292 382.03)" fill="#40c2a4" opacity="0.5"/>
      <path id="Path_1183" data-name="Path 1183" d="M231.48,337.89v36.787h36.787V337.89Zm17.2,18.386-15.5,15.519V340.772ZM234.362,339.6H265.4L249.881,355.12Zm15.519,17.908L265.4,373.028H234.362Zm1.187-1.2,15.519-15.5v31.023Z" transform="translate(-38.188 44.14)" fill="#fff" opacity="0.3"/>
      <rect id="Rectangle_181" data-name="Rectangle 181" width="64.943" height="7.32" transform="translate(179.222 445.663)" fill="#40c2a4" opacity="0.75"/>
      <path id="Path_1184" data-name="Path 1184" d="M224.729,380.678H222.88V380h4.454v.678h-1.849v4.7h-.755Z" transform="translate(-42.841 66.927)" fill="#fff"/>
      <rect id="Rectangle_182" data-name="Rectangle 182" width="233.912" height="112.471" rx="1.94" transform="translate(12.503 45.432)" fill="#fff"/>
      <circle id="Ellipse_25" data-name="Ellipse 25" cx="5.178" cy="5.178" r="5.178" transform="translate(18.713 93.593)" fill="#40c2a4" opacity="0.75"/>
      <path id="Path_1185" data-name="Path 1185" d="M119.9,155.048l4.007,2.712v-5.44Z" transform="translate(-98.567 -56.277)" fill="#fff"/>
      <circle id="Ellipse_26" data-name="Ellipse 26" cx="5.178" cy="5.178" r="5.178" transform="translate(229.848 93.593)" fill="#40c2a4" opacity="0.75"/>
      <path id="Path_1186" data-name="Path 1186" d="M261.627,155.048l-4.007-2.728v5.44Z" transform="translate(-24.043 -56.277)" fill="#fff"/>
      <rect id="Rectangle_183" data-name="Rectangle 183" width="130.518" height="13.007" transform="translate(51.324 72.649)" fill="#40c2a4" opacity="0.75"/>
      <rect id="Rectangle_184" data-name="Rectangle 184" width="130.518" height="13.007" transform="translate(51.324 89.539)" fill="#40c2a4" opacity="0.75"/>
      <rect id="Rectangle_185" data-name="Rectangle 185" width="106.893" height="13.007" transform="translate(51.324 107.725)" fill="#40c2a4" opacity="0.75"/>
      <path id="Path_1187" data-name="Path 1187" d="M143.593,139.8H140.31V138.61h7.921V139.8h-3.283v8.384h-1.356Z" transform="translate(-87.522 -63.696)" fill="#fff"/>
      <path id="Path_1188" data-name="Path 1188" d="M177.9,189.223a2.343,2.343,0,1,1-2.343-2.343A2.343,2.343,0,0,1,177.9,189.223Z" transform="translate(-69.719 -37.576)" fill="#40c2a4" opacity="0.75"/>
      <path id="Path_1189" data-name="Path 1189" d="M185.555,189.223a2.343,2.343,0,1,1-2.327-2.343A2.342,2.342,0,0,1,185.555,189.223Z" transform="translate(-65.574 -37.576)" fill="#40c2a4" opacity="0.75"/>
      <path id="Path_1190" data-name="Path 1190" d="M193.225,189.223a2.343,2.343,0,1,1-2.343-2.343A2.342,2.342,0,0,1,193.225,189.223Z" transform="translate(-61.424 -37.576)" fill="#40c2a4" opacity="0.75"/>
      <path id="Path_1191" data-name="Path 1191" d="M200.885,189.223a2.343,2.343,0,1,1-2.327-2.343A2.342,2.342,0,0,1,200.885,189.223Z" transform="translate(-57.279 -37.576)" fill="#40c2a4" opacity="0.75"/>
      <path id="Path_1192" data-name="Path 1192" d="M208.555,189.223a2.343,2.343,0,1,1-2.343-2.343A2.342,2.342,0,0,1,208.555,189.223Z" transform="translate(-53.128 -37.576)" fill="#40c2a4" opacity="0.75"/>
      <rect id="Rectangle_186" data-name="Rectangle 186" width="233.912" height="18.278" transform="translate(12.503 173.793)" fill="#fff"/>
      <rect id="Rectangle_187" data-name="Rectangle 187" width="18.694" height="18.694" transform="translate(227.721 173.593)" fill="#40c2a4" opacity="0.75"/>
      <rect id="Rectangle_188" data-name="Rectangle 188" width="215.419" height="70.984" rx="2.6" transform="translate(12.503 206.203)" fill="#fff"/>
      <rect id="Rectangle_189" data-name="Rectangle 189" width="67.378" height="51.304" transform="translate(22.104 216.051)" fill="#40c2a4" opacity="0.5"/>
      <path id="Path_1193" data-name="Path 1193" d="M120.4,230.19v51.3h67.378v-51.3Zm64.311,1.541-30.622,23.117-30.607-23.117Zm-62.77.771,30.823,23.333-30.823,23.379Zm1.541,47.451,30.607-23.117,30.622,23.117Zm31.886-24.119L186.191,232.5v46.712Z" transform="translate(-98.296 -14.139)" fill="#fff" opacity="0.3"/>
      <rect id="Rectangle_190" data-name="Rectangle 190" width="119.437" height="6.688" transform="translate(99.946 216.806)" fill="#40c2a4" opacity="0.75"/>
      <rect id="Rectangle_191" data-name="Rectangle 191" width="119.437" height="6.688" transform="translate(99.946 228.565)" fill="#40c2a4" opacity="0.75"/>
      <rect id="Rectangle_192" data-name="Rectangle 192" width="54.895" height="6.688" transform="translate(99.946 240.986)" fill="#40c2a4" opacity="0.75"/>
      <path id="Path_1194" data-name="Path 1194" d="M173.08,232.056H171.4v-.616h4.007v.616h-1.7v4.3h-.693Z" transform="translate(-70.699 -13.463)" fill="#fff"/>
      <rect id="Rectangle_193" data-name="Rectangle 193" width="215.419" height="70.984" rx="2.6" transform="translate(12.503 283.259)" fill="#fff"/>
      <rect id="Rectangle_194" data-name="Rectangle 194" width="67.378" height="51.304" transform="translate(22.104 293.107)" fill="#40c2a4" opacity="0.5"/>
      <path id="Path_1195" data-name="Path 1195" d="M120.4,280.19v51.3h67.378v-51.3Zm64.311,1.541-30.622,23.117-30.607-23.117Zm-62.77.771,30.823,23.333-30.823,23.379Zm1.541,47.451,30.607-23.117,30.622,23.117Zm31.886-24.119L186.191,282.5v46.712Z" transform="translate(-98.296 12.917)" fill="#fff" opacity="0.3"/>
      <rect id="Rectangle_195" data-name="Rectangle 195" width="119.437" height="6.688" transform="translate(99.946 293.862)" fill="#40c2a4" opacity="0.75"/>
      <rect id="Rectangle_196" data-name="Rectangle 196" width="119.437" height="6.688" transform="translate(99.946 305.621)" fill="#40c2a4" opacity="0.75"/>
      <rect id="Rectangle_197" data-name="Rectangle 197" width="54.895" height="6.688" transform="translate(99.946 318.042)" fill="#40c2a4" opacity="0.75"/>
      <path id="Path_1196" data-name="Path 1196" d="M173.08,282.056H171.4v-.616h4.007v.616h-1.7v4.3h-.693Z" transform="translate(-70.699 13.593)" fill="#fff"/>
      <rect id="Rectangle_198" data-name="Rectangle 198" width="8.322" height="147.979" transform="translate(235.843 206.28)" fill="#fff"/>
      <rect id="Rectangle_199" data-name="Rectangle 199" width="8.322" height="23.179" transform="translate(235.843 214.325)" fill="#40c2a4" opacity="0.75"/>
      <path id="Path_1197" data-name="Path 1197" d="M364.971,96.55v23.872H106.061V95.964A5.748,5.748,0,0,1,111.594,90h58.224a4.531,4.531,0,0,1,4.146,2.9l2.666,6.565a4.531,4.531,0,0,0,4.146,2.866H290.4a4.485,4.485,0,0,0,4.146-2.82l2.666-6.6A4.623,4.623,0,0,1,301.353,90h57.361a6.5,6.5,0,0,1,6.257,6.55Z" transform="translate(-106.057 -90)" fill="#40c2a4"/>
      <path id="Path_1198" data-name="Path 1198" d="M106.061,394H364.97v25.244a7.12,7.12,0,0,1-7.228,7.12H112.518a6.38,6.38,0,0,1-6.457-6.534Z" transform="translate(-106.056 74.503)" fill="#40c2a4"/>
    </g>
    <g id="freepik--Labels--inject-2" transform="translate(98.786 111.451)">
      <rect id="Rectangle_200" data-name="Rectangle 200" width="46.943" height="22.855" transform="translate(4.623)" fill="#40c2a4"/>
      <line id="Line_25" data-name="Line 25" x2="31.393" transform="translate(12.406 6.226)" fill="none" stroke="#fff" stroke-linecap="round" stroke-linejoin="round" stroke-width="1"/>
      <line id="Line_26" data-name="Line 26" x2="31.393" transform="translate(12.406 11.42)" fill="none" stroke="#fff" stroke-linecap="round" stroke-linejoin="round" stroke-width="1"/>
      <line id="Line_27" data-name="Line 27" x2="15.704" transform="translate(12.406 16.613)" fill="none" stroke="#fff" stroke-linecap="round" stroke-linejoin="round" stroke-width="1"/>
      <line id="Line_28" data-name="Line 28" x2="46.326" y2="40.177" transform="translate(37.48 21.915)" fill="none" stroke="#40c2a4" stroke-miterlimit="10" stroke-width="1"/>
      <circle id="Ellipse_27" data-name="Ellipse 27" cx="2.805" cy="2.805" r="2.805" transform="translate(81.002 59.287)" fill="#40c2a4"/>
      <rect id="Rectangle_201" data-name="Rectangle 201" width="46.943" height="22.855" transform="translate(0 284.045)" fill="#40c2a4"/>
      <line id="Line_29" data-name="Line 29" x2="31.393" transform="translate(7.783 290.271)" fill="none" stroke="#fff" stroke-linecap="round" stroke-linejoin="round" stroke-width="1"/>
      <line id="Line_30" data-name="Line 30" x2="31.393" transform="translate(7.783 295.465)" fill="none" stroke="#fff" stroke-linecap="round" stroke-linejoin="round" stroke-width="1"/>
      <line id="Line_31" data-name="Line 31" x2="15.704" transform="translate(7.783 300.658)" fill="none" stroke="#fff" stroke-linecap="round" stroke-linejoin="round" stroke-width="1"/>
      <circle id="Ellipse_28" data-name="Ellipse 28" cx="2.805" cy="2.805" r="2.805" transform="translate(76.378 292.66)" fill="#40c2a4"/>
      <line id="Line_32" data-name="Line 32" x1="35.045" transform="translate(44.138 295.465)" fill="none" stroke="#40c2a4" stroke-miterlimit="10" stroke-width="1"/>
      <rect id="Rectangle_202" data-name="Rectangle 202" width="46.943" height="22.855" transform="translate(331.604 108.187)" fill="#40c2a4"/>
      <line id="Line_33" data-name="Line 33" x2="31.408" transform="translate(339.372 114.413)" fill="none" stroke="#fff" stroke-linecap="round" stroke-linejoin="round" stroke-width="1"/>
      <line id="Line_34" data-name="Line 34" x2="31.408" transform="translate(339.372 119.607)" fill="none" stroke="#fff" stroke-linecap="round" stroke-linejoin="round" stroke-width="1"/>
      <line id="Line_35" data-name="Line 35" x2="15.704" transform="translate(339.372 124.8)" fill="none" stroke="#fff" stroke-linecap="round" stroke-linejoin="round" stroke-width="1"/>
      <circle id="Ellipse_29" data-name="Ellipse 29" cx="2.805" cy="2.805" r="2.805" transform="translate(275.877 173.639)" fill="#40c2a4"/>
      <line id="Line_36" data-name="Line 36" y1="50.672" x2="67.702" transform="translate(278.682 125.771)" fill="none" stroke="#40c2a4" stroke-miterlimit="10" stroke-width="1"/>
      <rect id="Rectangle_203" data-name="Rectangle 203" width="46.943" height="22.855" transform="translate(336.197 411.666)" fill="#40c2a4"/>
      <line id="Line_37" data-name="Line 37" x2="31.393" transform="translate(343.979 417.907)" fill="none" stroke="#fff" stroke-linecap="round" stroke-linejoin="round" stroke-width="1"/>
      <line id="Line_38" data-name="Line 38" x2="31.393" transform="translate(343.979 423.101)" fill="none" stroke="#fff" stroke-linecap="round" stroke-linejoin="round" stroke-width="1"/>
      <line id="Line_39" data-name="Line 39" x2="15.704" transform="translate(343.979 428.295)" fill="none" stroke="#fff" stroke-linecap="round" stroke-linejoin="round" stroke-width="1"/>
      <path id="Path_1199" data-name="Path 1199" d="M251.7,367.155a2.79,2.79,0,1,1-.812-1.982,2.8,2.8,0,0,1,.812,1.982Z" transform="translate(34.38 55.946)" fill="#40c2a4"/>
      <line id="Line_40" data-name="Line 40" x2="56.374" transform="translate(283.29 423.101)" fill="none" stroke="#40c2a4" stroke-miterlimit="10" stroke-width="1"/>
    </g>
  </g>
</svg>
