<svg xmlns="http://www.w3.org/2000/svg" width="562" height="553.8" viewBox="0 0 562 553.8">
  <g id="web" transform="translate(0 0)">
    <g id="freepik--Floor--inject-2" transform="translate(0 229.332)">
      <ellipse id="Ellipse_30" data-name="Ellipse 30" cx="281" cy="162.234" rx="281" ry="162.234" fill="#f5f5f5"/>
    </g>
    <g id="freepik--Shadows--inject-2" transform="translate(74.575 274.131)">
      <ellipse id="Ellipse_31" data-name="Ellipse 31" cx="34.249" cy="19.776" rx="34.249" ry="19.776" transform="translate(199.158 217.836)" fill="#e0e0e0"/>
      <path id="Path_1201" data-name="Path 1201" d="M86.075,378.891,307.293,251.225a25.926,25.926,0,0,1,25.951,0l54.27,31.916a8.47,8.47,0,0,1,0,14.669L166.308,425.477a26.012,26.012,0,0,1-25.963,0L86.075,393.56a8.47,8.47,0,0,1,0-14.669Z" transform="translate(-81.841 -247.745)" fill="#e0e0e0"/>
    </g>
    <g id="freepik--Plant--inject-2" transform="translate(161.798 396.035)">
      <path id="Path_1203" data-name="Path 1203" d="M187.337,405.641l-10.68,6.2s5.389-17.186,2.455-34.507a33.144,33.144,0,0,0-4.346-11.527c-.847-1.743-7.279-12.546-1.608-17.517s18.966,4.91,18.413,31.585A103.742,103.742,0,0,1,187.337,405.641Z" transform="translate(-148.811 -347.051)" fill="#40c2a4"/>
      <path id="Path_1204" data-name="Path 1204" d="M187.337,405.641l-10.68,6.2s5.389-17.186,2.455-34.507a33.144,33.144,0,0,0-4.346-11.527c-.847-1.743-7.279-12.546-1.608-17.517s18.966,4.91,18.413,31.585A103.742,103.742,0,0,1,187.337,405.641Z" transform="translate(-148.811 -347.051)" opacity="0.3"/>
      <path id="Path_1205" data-name="Path 1205" d="M181.413,408.2h-.172a.491.491,0,0,1-.282-.626c0-.11,4.014-11.171,3.805-28.97s-9.44-27.068-9.538-27.166a.486.486,0,0,1,.687-.687c.1.1,9.612,9.747,9.82,27.841s-3.83,29.2-3.867,29.314a.491.491,0,0,1-.454.295Z" transform="translate(-147.846 -346.242)" fill="#fff"/>
      <path id="Path_1206" data-name="Path 1206" d="M183.136,406.489,165.5,416.874s-8.077-1.228-7.464-8.8,3.891-9.391-.2-12.73-5.143-3.572-4.91-6.85,2.455-4.7,3.437-5.99,3.928-4.026,1.89-7.979-4.787-7.77-.7-9.575c2.455-1.08,6.555.27,9.268,3.167s4.91,4.91,7.549,5.634,7.967.724,7.783,5.168-1.338,5.978-.258,7.955C183.885,390.592,192.563,392.593,183.136,406.489Z" transform="translate(-152.895 -343.062)" fill="#40c2a4"/>
      <path id="Path_1207" data-name="Path 1207" d="M174.762,410.795h0a.479.479,0,0,1-.442-.516c0-.27,1.89-26.122-16.044-43.075a.491.491,0,0,1,0-.687.466.466,0,0,1,.675,0c18.291,17.272,16.363,43.578,16.339,43.848a.466.466,0,0,1-.528.43Z" transform="translate(-151.703 -342.654)" fill="#fff"/>
      <path id="Path_1208" data-name="Path 1208" d="M169.182,386.379h0a.479.479,0,0,1-.442-.516,15.713,15.713,0,0,1,5.757-11.208.515.515,0,0,1,.687.11.5.5,0,0,1-.11.675,14.976,14.976,0,0,0-5.364,10.5.479.479,0,0,1-.528.442Z" transform="translate(-149.29 -340.788)" fill="#fff"/>
      <path id="Path_1209" data-name="Path 1209" d="M173.03,388.74a.479.479,0,0,1-.356-.16s-4.481-4.787-14.583-3.413a.483.483,0,1,1-.123-.957c10.631-1.473,15.234,3.511,15.43,3.683a.5.5,0,0,1,0,.687.479.479,0,0,1-.368.16Z" transform="translate(-151.837 -338.656)" fill="#fff"/>
    </g>
    <g id="freepik--Device--inject-2" transform="translate(80.159 52.539)">
      <path id="Path_1210" data-name="Path 1210" d="M261.182,349.077l-36.36,20.7a18.684,18.684,0,0,1-18.561,0l-23.324-13.5-2.652-1.534a18.2,18.2,0,0,1-9.1-15.75V271.839l54.577-31.069V309.3a15.7,15.7,0,0,0,7.844,13.6l27.6,15.958a5.88,5.88,0,0,1-.025,10.213Z" transform="translate(-67.093 -27.739)" fill="#263238"/>
      <path id="Path_1211" data-name="Path 1211" d="M208.54,355.963a18.536,18.536,0,0,0,7.783-2.382l36.36-20.672a5.88,5.88,0,0,0,0-10.2L233.84,311.82h-25.3Z" transform="translate(-58.594 -11.572)" fill="#37474f"/>
      <path id="Path_1212" data-name="Path 1212" d="M244.014,317l1.007.8a6.936,6.936,0,0,1,2.6,5.414v3.4H243.94Z" transform="translate(-50.538 -10.393)" fill="#37474f"/>
      <path id="Path_1213" data-name="Path 1213" d="M228.871,245v61.66a15.234,15.234,0,0,0,7.6,13.221l23,13.5a5.684,5.684,0,0,1,0,9.82l-2.615,1.485-32.592,18.561a18.07,18.07,0,0,1-17.959-.061L183.7,349.846a15.2,15.2,0,0,1-7.7-13.123v-61.66Z" transform="translate(-65.999 -26.777)" fill="#455a64"/>
      <path id="Path_1214" data-name="Path 1214" d="M228.855,306.66V245L176.07,275.063v61.66a15.2,15.2,0,0,0,7.6,13.172l52.061-30.554A15.2,15.2,0,0,1,228.855,306.66Z" transform="translate(-65.983 -26.777)" fill="#263238"/>
      <path id="Path_1215" data-name="Path 1215" d="M105.908,347.537l-5.045,2.922v9.219a17.861,17.861,0,0,1-9.194-2.541l-.393-.233a9.906,9.906,0,0,1-4.6-6.322,5.757,5.757,0,0,1-.282-1.743V336.28Z" transform="translate(-86.39 -6.006)" fill="#263238"/>
      <path id="Path_1216" data-name="Path 1216" d="M325.016,70l-.393-.246a18,18,0,0,0-9.17-2.529h0a5.684,5.684,0,0,0-2.946.786L95.229,192.969A17.591,17.591,0,0,0,86.44,208.19V397.5l19.506,11.257L312.372,290.093a17.591,17.591,0,0,0,8.789-15.222V78.573h8.777A9.968,9.968,0,0,0,325.016,70Z" transform="translate(-86.379 -67.23)" fill="#37474f"/>
      <path id="Path_1217" data-name="Path 1217" d="M88.268,175.64a17.616,17.616,0,0,0-1.878,7.881V372.835l19.518,11.257,7.3-4.211v-188.8Z" transform="translate(-86.39 -42.56)" fill="#263238"/>
      <path id="Path_1218" data-name="Path 1218" d="M93.55,365.535v12.558a5.757,5.757,0,0,0,8.593,4.984L319.42,258.123A17.591,17.591,0,0,0,328.21,242.9V230Z" transform="translate(-84.761 -30.19)" fill="#37474f"/>
      <path id="Path_1219" data-name="Path 1219" d="M328.26,77.122a5.757,5.757,0,0,0-8.593-4.984L102.389,197.091A17.591,17.591,0,0,0,93.6,212.313V401.627L328.26,266.092" transform="translate(-84.749 -66.283)" fill="#455a64"/>
      <path id="Path_1220" data-name="Path 1220" d="M314.336,83.16h0a6.322,6.322,0,0,0-2.86.663L107.21,201.226a15.529,15.529,0,0,0-7.77,13.5v161.24a5.143,5.143,0,0,0,.417,2.025h0a5.094,5.094,0,0,0,7.218,2.382l204.192-117.4a15.541,15.541,0,0,0,7.758-13.5V88.23a5.082,5.082,0,0,0-4.689-5.07Z" transform="translate(-83.42 -63.605)" fill="#40c2a4"/>
      <path id="Path_1221" data-name="Path 1221" d="M314.336,83.16h0a6.322,6.322,0,0,0-2.86.663L107.21,201.226a15.529,15.529,0,0,0-7.77,13.5v161.24a5.143,5.143,0,0,0,.417,2.025h0a5.094,5.094,0,0,0,7.218,2.382l204.192-117.4a15.541,15.541,0,0,0,7.758-13.5V88.23a5.082,5.082,0,0,0-4.689-5.07Z" transform="translate(-83.42 -63.605)" fill="#fff" opacity="0.4"/>
    </g>
    <g id="freepik--Screen--inject-2" transform="translate(114.826 75.258)">
      <path id="Path_1222" data-name="Path 1222" d="M114.63,199.634v181c0,2.9,1.068,4.849,2.7,5.5h0l6.936,3.805V383.8l.994-186.085-9.072-4.579a15.725,15.725,0,0,0-1.559,6.494Z" transform="translate(-114.63 -61.297)" fill="#e0e0e0"/>
      <path id="Path_1223" data-name="Path 1223" d="M115.9,217.556l9.072,4.579L344.434,93.425l5.229-3.032-7.23-4.075-.2-.123h0a4.186,4.186,0,0,0-4.333.319L120.933,211.6a13.319,13.319,0,0,0-5.033,5.954Z" transform="translate(-114.341 -85.737)" fill="#f0f0f0"/>
      <path id="Path_1224" data-name="Path 1224" d="M121,227.12V406.933c0,2.455.8,4.3,2.075,5.131l.405.233a4.272,4.272,0,0,0,4-.466l215.792-124.3c3.584-2.075,6.494-7.623,6.494-12.4V95.33c0-2.455-.749-4.174-1.94-5.045a2.529,2.529,0,0,0-.663-.368,4.3,4.3,0,0,0-3.891.516l-215.743,124.3a13.061,13.061,0,0,0-4.8,5.622A15.774,15.774,0,0,0,121,227.12Z" transform="translate(-113.18 -84.843)" fill="#fff"/>
      <path id="Path_1225" data-name="Path 1225" d="M303.7,201.559,200.951,260.911a3.413,3.413,0,0,1-5.131-2.958V202.959a16.032,16.032,0,0,1,8-13.871l100.39-57.965a4.91,4.91,0,0,1,7.365,4.247v52.6a15.713,15.713,0,0,1-7.881,13.589Z" transform="translate(-96.155 -75.559)" fill="#40c2a4"/>
      <path id="Path_1226" data-name="Path 1226" d="M212.159,266.7l-12.693,7.365c-2.222,1.289-4.026-.074-4.026-3.044V257.775a9.673,9.673,0,0,1,4.026-7.709l12.693-7.365c2.222-1.289,4.026.074,4.026,3.044v13.209a9.637,9.637,0,0,1-4.026,7.746Z" transform="translate(-96.241 -50.13)" fill="#40c2a4"/>
      <path id="Path_1227" data-name="Path 1227" d="M237.379,252.212l-12.693,7.365c-2.222,1.228-4.026-.074-4.026-3.044V243.287a9.636,9.636,0,0,1,4.026-7.7l12.693-7.365c2.222-1.228,4.026.074,4.026,3.044v13.208A9.636,9.636,0,0,1,237.379,252.212Z" transform="translate(-90.502 -53.417)" fill="#40c2a4"/>
      <path id="Path_1228" data-name="Path 1228" d="M263.339,237.214l-12.693,7.365c-2.222,1.228-4.026-.074-4.026-3.044V228.277a9.673,9.673,0,0,1,4.026-7.7l12.693-7.365c2.222-1.228,4.026.086,4.026,3.057V229.48A9.636,9.636,0,0,1,263.339,237.214Z" transform="translate(-84.595 -56.833)" fill="#40c2a4"/>
      <path id="Path_1229" data-name="Path 1229" d="M289.309,222.214l-12.693,7.365c-2.222,1.228-4.026-.086-4.026-3.044V213.277a9.673,9.673,0,0,1,4.026-7.7l12.693-7.365c2.222-1.228,4.026.086,4.026,3.044V214.48a9.649,9.649,0,0,1-4.026,7.734Z" transform="translate(-78.685 -60.246)" fill="#40c2a4"/>
      <path id="Path_1230" data-name="Path 1230" d="M212.159,295.189l-12.693,7.365c-2.222,1.228-4.026-.086-4.026-3.044V286.252a9.649,9.649,0,0,1,4.026-7.7l12.693-7.365c2.222-1.289,4.026.086,4.026,3.044v13.221a9.673,9.673,0,0,1-4.026,7.734Z" transform="translate(-96.241 -43.646)" fill="#40c2a4"/>
      <path id="Path_1231" data-name="Path 1231" d="M237.379,280.7l-12.693,7.365c-2.222,1.289-4.026-.086-4.026-3.044V271.767a9.673,9.673,0,0,1,4.026-7.7l12.693-7.365c2.222-1.228,4.026.086,4.026,3.044v13.258a9.649,9.649,0,0,1-4.026,7.7Z" transform="translate(-90.502 -46.936)" fill="#40c2a4"/>
      <path id="Path_1232" data-name="Path 1232" d="M263.339,265.709l-12.693,7.365c-2.222,1.228-4.026-.086-4.026-3.044V256.772a9.649,9.649,0,0,1,4.026-7.7l12.693-7.365c2.222-1.289,4.026.074,4.026,3.044v13.258A9.673,9.673,0,0,1,263.339,265.709Z" transform="translate(-84.595 -50.355)" fill="#40c2a4"/>
      <path id="Path_1233" data-name="Path 1233" d="M289.309,250.7l-12.693,7.365c-2.222,1.289-4.026-.074-4.026-3.044V241.772a9.636,9.636,0,0,1,4.026-7.7l12.693-7.365c2.222-1.289,4.026.074,4.026,3.044v13.209a9.636,9.636,0,0,1-4.026,7.734Z" transform="translate(-78.685 -53.768)" fill="#40c2a4"/>
      <g id="Group_8516" data-name="Group 8516" transform="translate(99.199 54.905)" opacity="0.7">
        <path id="Path_1234" data-name="Path 1234" d="M303.7,201.559,200.951,260.911a3.413,3.413,0,0,1-5.131-2.958V202.959a16.032,16.032,0,0,1,8-13.871l100.39-57.965a4.91,4.91,0,0,1,7.365,4.247v52.6a15.713,15.713,0,0,1-7.881,13.589Z" transform="translate(-195.354 -130.464)" fill="#fff"/>
        <path id="Path_1235" data-name="Path 1235" d="M212.159,266.7l-12.693,7.365c-2.222,1.289-4.026-.074-4.026-3.044V257.775a9.673,9.673,0,0,1,4.026-7.709l12.693-7.365c2.222-1.289,4.026.074,4.026,3.044v13.209a9.637,9.637,0,0,1-4.026,7.746Z" transform="translate(-195.44 -105.035)" fill="#fff"/>
        <path id="Path_1236" data-name="Path 1236" d="M237.379,252.212l-12.693,7.365c-2.222,1.228-4.026-.074-4.026-3.044V243.287a9.636,9.636,0,0,1,4.026-7.7l12.693-7.365c2.222-1.228,4.026.074,4.026,3.044v13.208A9.636,9.636,0,0,1,237.379,252.212Z" transform="translate(-189.701 -108.323)" fill="#fff"/>
        <path id="Path_1237" data-name="Path 1237" d="M263.339,237.214l-12.693,7.365c-2.222,1.228-4.026-.074-4.026-3.044V228.277a9.673,9.673,0,0,1,4.026-7.7l12.693-7.365c2.222-1.228,4.026.086,4.026,3.057V229.48A9.636,9.636,0,0,1,263.339,237.214Z" transform="translate(-183.794 -111.738)" fill="#fff"/>
        <path id="Path_1238" data-name="Path 1238" d="M289.309,222.214l-12.693,7.365c-2.222,1.228-4.026-.086-4.026-3.044V213.277a9.673,9.673,0,0,1,4.026-7.7l12.693-7.365c2.222-1.228,4.026.086,4.026,3.044V214.48a9.649,9.649,0,0,1-4.026,7.734Z" transform="translate(-177.884 -115.151)" fill="#fff"/>
        <path id="Path_1239" data-name="Path 1239" d="M212.159,295.189l-12.693,7.365c-2.222,1.228-4.026-.086-4.026-3.044V286.252a9.649,9.649,0,0,1,4.026-7.7l12.693-7.365c2.222-1.289,4.026.086,4.026,3.044v13.221a9.673,9.673,0,0,1-4.026,7.734Z" transform="translate(-195.44 -98.551)" fill="#fff"/>
        <path id="Path_1240" data-name="Path 1240" d="M237.379,280.7l-12.693,7.365c-2.222,1.289-4.026-.086-4.026-3.044V271.767a9.673,9.673,0,0,1,4.026-7.7l12.693-7.365c2.222-1.228,4.026.086,4.026,3.044v13.258a9.649,9.649,0,0,1-4.026,7.7Z" transform="translate(-189.701 -101.841)" fill="#fff"/>
        <path id="Path_1241" data-name="Path 1241" d="M263.339,265.709l-12.693,7.365c-2.222,1.228-4.026-.086-4.026-3.044V256.772a9.649,9.649,0,0,1,4.026-7.7l12.693-7.365c2.222-1.289,4.026.074,4.026,3.044v13.258A9.673,9.673,0,0,1,263.339,265.709Z" transform="translate(-183.794 -105.26)" fill="#fff"/>
        <path id="Path_1242" data-name="Path 1242" d="M289.309,250.7l-12.693,7.365c-2.222,1.289-4.026-.074-4.026-3.044V241.772a9.636,9.636,0,0,1,4.026-7.7l12.693-7.365c2.222-1.289,4.026.074,4.026,3.044v13.209a9.636,9.636,0,0,1-4.026,7.734Z" transform="translate(-177.884 -108.673)" fill="#fff"/>
      </g>
      <path id="Path_1243" data-name="Path 1243" d="M193.177,355.723,127.183,393.8a4.247,4.247,0,0,1-6.383-3.683V212.737L193.14,171Z" transform="translate(-113.226 -66.335)" fill="#40c2a4"/>
      <path id="Path_1244" data-name="Path 1244" d="M193.177,355.723,127.183,393.8a4.247,4.247,0,0,1-6.383-3.683V212.737L193.14,171Z" transform="translate(-113.226 -66.335)" fill="#fff" opacity="0.7"/>
      <path id="Path_1245" data-name="Path 1245" d="M138.94,215.2a11.048,11.048,0,0,1-5,8.593c-2.75,1.6-4.984.307-4.984-2.872a11.048,11.048,0,0,1,4.984-8.593C136.706,210.729,138.94,212.079,138.94,215.2Z" transform="translate(-111.369 -57.084)" fill="#fafafa"/>
      <path id="Path_1246" data-name="Path 1246" d="M138.94,230.774a11.048,11.048,0,0,1-5,8.593c-2.75,1.6-4.984.307-4.984-2.872a11.048,11.048,0,0,1,4.984-8.654C136.706,226.305,138.94,227.594,138.94,230.774Z" transform="translate(-111.369 -53.547)" fill="#fafafa"/>
      <path id="Path_1247" data-name="Path 1247" d="M138.94,246.344a11.048,11.048,0,0,1-5,8.593c-2.75,1.6-4.984.307-4.984-2.885a11.048,11.048,0,0,1,4.984-8.593C136.706,241.827,138.94,243.165,138.94,246.344Z" transform="translate(-111.369 -50.005)" fill="#fafafa"/>
      <path id="Path_1248" data-name="Path 1248" d="M138.94,261.912a11.048,11.048,0,0,1-5,8.593c-2.75,1.6-4.984.295-4.984-2.885a11.048,11.048,0,0,1,4.984-8.593C136.706,257.431,138.94,258.72,138.94,261.912Z" transform="translate(-111.369 -46.459)" fill="#fafafa"/>
      <path id="Path_1249" data-name="Path 1249" d="M146.488,214.59a1.8,1.8,0,0,1-.908-3.376l29.24-16.879a1.807,1.807,0,1,1,1.8,3.13l-29.24,16.879A1.829,1.829,0,0,1,146.488,214.59Z" transform="translate(-107.796 -61.08)" fill="#fafafa"/>
      <path id="Path_1250" data-name="Path 1250" d="M146.488,230.16a1.8,1.8,0,0,1-.908-3.376l29.24-16.891a1.817,1.817,0,0,1,2.455.663,1.792,1.792,0,0,1-.663,2.455L147.372,229.9A1.829,1.829,0,0,1,146.488,230.16Z" transform="translate(-107.796 -57.537)" fill="#fafafa"/>
      <path id="Path_1251" data-name="Path 1251" d="M146.484,245.718a1.8,1.8,0,0,1-.908-3.364l29.24-16.891a1.817,1.817,0,0,1,2.455.663,1.792,1.792,0,0,1-.663,2.455l-29.24,16.891A1.8,1.8,0,0,1,146.484,245.718Z" transform="translate(-107.792 -53.994)" fill="#fafafa"/>
      <path id="Path_1252" data-name="Path 1252" d="M146.488,261.286a1.8,1.8,0,0,1-.908-3.376l29.24-16.867a1.817,1.817,0,0,1,2.455.663,1.792,1.792,0,0,1-.663,2.455l-29.24,16.879a1.706,1.706,0,0,1-.884.245Z" transform="translate(-107.796 -50.449)" fill="#fafafa"/>
      <path id="Path_1253" data-name="Path 1253" d="M133.338,299.533a1.8,1.8,0,0,1-.908-3.376l45.346-26.172a1.8,1.8,0,1,1,1.8,3.118l-45.346,26.184A1.706,1.706,0,0,1,133.338,299.533Z" transform="translate(-110.788 -43.878)" fill="#fafafa"/>
      <path id="Path_1254" data-name="Path 1254" d="M133.338,312.523a1.8,1.8,0,0,1-.908-3.376l45.346-26.184a1.817,1.817,0,0,1,2.455.663,1.792,1.792,0,0,1-.663,2.455l-45.346,26.184a1.706,1.706,0,0,1-.884.258Z" transform="translate(-110.788 -40.91)" fill="#fafafa"/>
      <path id="Path_1255" data-name="Path 1255" d="M133.338,325.523a1.8,1.8,0,0,1-.908-3.376l45.346-26.184a1.817,1.817,0,0,1,2.455.663,1.792,1.792,0,0,1-.663,2.455l-45.346,26.184a1.829,1.829,0,0,1-.884.258Z" transform="translate(-110.788 -37.952)" fill="#fafafa"/>
      <path id="Path_1256" data-name="Path 1256" d="M133.338,338.464a1.8,1.8,0,0,1-.908-3.376L177.776,308.9a1.807,1.807,0,0,1,1.8,3.13l-45.346,26.184a1.83,1.83,0,0,1-.9.246Z" transform="translate(-110.788 -35.009)" fill="#fafafa"/>
      <path id="Path_1257" data-name="Path 1257" d="M121.111,295.222a.577.577,0,0,1-.516-.295.6.6,0,0,1,.209-.822L191.045,253.6a.589.589,0,0,1,.822.221.614.614,0,0,1-.221.822l-70.229,40.509A.7.7,0,0,1,121.111,295.222Z" transform="translate(-113.292 -47.559)" fill="#fafafa"/>
      <path id="Path_1258" data-name="Path 1258" d="M126.121,216.087,344.515,89.648a3.854,3.854,0,0,1,5.806,3.327v9.5L120.83,234.684v-7.439C120.83,223.44,122.843,218,126.121,216.087Z" transform="translate(-113.219 -84.968)" fill="#e6e6e6"/>
      <path id="Path_1259" data-name="Path 1259" d="M346.784,90.143a2.455,2.455,0,0,1,.933.184,1.435,1.435,0,0,1,.405.245,5.119,5.119,0,0,1,1.51,4.186V275.651c0,4.37-2.737,9.649-5.99,11.514L126.609,412.229a4.137,4.137,0,0,1-2.038.626,2.248,2.248,0,0,1-.945-.2l-.344-.184c-.994-.687-1.559-2.222-1.559-4.235V227.347a14.841,14.841,0,0,1,1.584-6.334,12.018,12.018,0,0,1,4.395-5.18L344.734,90.781a4.112,4.112,0,0,1,2.05-.638m0-1.093a5.266,5.266,0,0,0-2.59.773L127.211,214.887a13.122,13.122,0,0,0-4.837,5.647,15.86,15.86,0,0,0-1.694,6.813V408.239c0,2.516.8,4.321,2.087,5.168l.417.233a3.327,3.327,0,0,0,1.436.319,5.266,5.266,0,0,0,2.59-.786L344.243,288.123c3.609-2.087,6.531-7.672,6.531-12.472V94.758c0-2.455-.749-4.186-1.952-5.07a2.738,2.738,0,0,0-.663-.381,3.364,3.364,0,0,0-1.326-.258Z" transform="translate(-113.253 -84.983)" fill="#f0f0f0"/>
    </g>
    <g id="freepik--Crane--inject-2" transform="translate(317.546 35.472)">
      <path id="Path_1295" data-name="Path 1295" d="M279.794,199.773v77.336a2.345,2.345,0,0,0,1.154,2.357h0l2.958,1.633V278.46l.417-79.546-3.879-1.964a6.764,6.764,0,0,0-.651,2.823Z" transform="translate(-279.772 -20.644)" fill="#40c2a4"/>
      <path id="Path_1296" data-name="Path 1296" d="M280.33,207.432l3.879,1.964,93.81-54.995,2.234-1.3-3.081-1.743h-.1a1.755,1.755,0,0,0-1.841.135L282.454,204.94A5.819,5.819,0,0,0,280.33,207.432Z" transform="translate(-279.645 -31.064)" fill="#40c2a4"/>
      <path id="Path_1297" data-name="Path 1297" d="M280.33,207.432l3.879,1.964,93.81-54.995,2.234-1.3-3.081-1.743h-.1a1.755,1.755,0,0,0-1.841.135L282.454,204.94A5.819,5.819,0,0,0,280.33,207.432Z" transform="translate(-279.645 -31.064)" fill="#fff" opacity="0.2"/>
      <path id="Path_1298" data-name="Path 1298" d="M282.532,211.522v76.857a2.541,2.541,0,0,0,.884,2.2l.184.1a1.829,1.829,0,0,0,1.706-.2l92.214-53.141a6.629,6.629,0,0,0,2.774-5.291V155.189a2.59,2.59,0,0,0-.822-2.16,1.227,1.227,0,0,0-.282-.16,1.878,1.878,0,0,0-1.669.221l-92.214,53.129a5.561,5.561,0,0,0-2.05,2.455A6.654,6.654,0,0,0,282.532,211.522Z" transform="translate(-279.146 -30.698)" fill="#40c2a4"/>
      <path id="Path_1299" data-name="Path 1299" d="M282.532,211.522v76.857a2.541,2.541,0,0,0,.884,2.2l.184.1a1.829,1.829,0,0,0,1.706-.2l92.214-53.141a6.629,6.629,0,0,0,2.774-5.291V155.189a2.59,2.59,0,0,0-.822-2.16,1.227,1.227,0,0,0-.282-.16,1.878,1.878,0,0,0-1.669.221l-92.214,53.129a5.561,5.561,0,0,0-2.05,2.455A6.654,6.654,0,0,0,282.532,211.522Z" transform="translate(-279.146 -30.698)" opacity="0.2"/>
      <text id="_" data-name="/" transform="translate(19.792 229.434)" fill="#fafafa" font-size="44" font-family="Montserrat-Bold, Montserrat" font-weight="700"><tspan x="0" y="0">/</tspan></text>
      <path id="Path_1300" data-name="Path 1300" d="M379.032,152.966a.872.872,0,0,1,.393.086.455.455,0,0,1,.184.1,2.21,2.21,0,0,1,.638,1.792v77.336a6.26,6.26,0,0,1-2.553,4.91L284.916,290.6a1.731,1.731,0,0,1-.872.282.969.969,0,0,1-.393-.086l-.147-.074a2.124,2.124,0,0,1-.675-1.817V211.57a6.457,6.457,0,0,1,.675-2.713,5.254,5.254,0,0,1,1.878-2.21l92.779-53.411a1.829,1.829,0,0,1,.872-.27m0-.466a2.271,2.271,0,0,0-1.1.331l-92.779,53.46a5.487,5.487,0,0,0-2.062,2.455,6.665,6.665,0,0,0-.724,2.909v77.336a2.578,2.578,0,0,0,.884,2.21l.184.1a1.449,1.449,0,0,0,.614.135,2.173,2.173,0,0,0,1.1-.344l92.779-53.448a6.7,6.7,0,0,0,2.787-5.328V154.98a2.6,2.6,0,0,0-.835-2.173,1.229,1.229,0,0,0-.282-.16,1.449,1.449,0,0,0-.565-.111Z" transform="translate(-279.185 -30.759)" fill="#40c2a4"/>
      <path id="Path_1308" data-name="Path 1308" d="M299,133.752V176.3a1.3,1.3,0,0,0,.638,1.3h0l1.62.9v-1.449l.2-43.75-2.136-1.068A3.56,3.56,0,0,0,299,133.752Z" transform="translate(-275.398 -35.371)" fill="#40c2a4"/>
      <path id="Path_1309" data-name="Path 1309" d="M299.29,137.966l2.136,1.068L352.983,108.8l1.228-.712-1.694-.957h0a.994.994,0,0,0-1.019.074l-51.017,29.461a3.118,3.118,0,0,0-1.191,1.3Z" transform="translate(-275.33 -41.107)" fill="#40c2a4"/>
      <path id="Path_1310" data-name="Path 1310" d="M299.29,137.966l2.136,1.068L352.983,108.8l1.228-.712-1.694-.957h0a.994.994,0,0,0-1.019.074l-51.017,29.461a3.118,3.118,0,0,0-1.191,1.3Z" transform="translate(-275.33 -41.107)" fill="#fff" opacity="0.2"/>
      <path id="Path_1311" data-name="Path 1311" d="M300.5,140.226v42.265a1.387,1.387,0,0,0,.479,1.228l.1.061a1.031,1.031,0,0,0,.945-.111l50.71-29.216a3.683,3.683,0,0,0,1.522-2.922V109.255a1.412,1.412,0,0,0-.454-1.228.454.454,0,0,0-.147-.086,1.019,1.019,0,0,0-.921.11l-50.71,29.228a3.081,3.081,0,0,0-1.129,1.314A3.683,3.683,0,0,0,300.5,140.226Z" transform="translate(-275.057 -40.912)" fill="#40c2a4"/>
      <path id="Path_1312" data-name="Path 1312" d="M300.5,140.226v42.265a1.387,1.387,0,0,0,.479,1.228l.1.061a1.031,1.031,0,0,0,.945-.111l50.71-29.216a3.683,3.683,0,0,0,1.522-2.922V109.255a1.412,1.412,0,0,0-.454-1.228.454.454,0,0,0-.147-.086,1.019,1.019,0,0,0-.921.11l-50.71,29.228a3.081,3.081,0,0,0-1.129,1.314A3.683,3.683,0,0,0,300.5,140.226Z" transform="translate(-275.057 -40.912)" opacity="0.2"/>
      <text id="C_" data-name="C++" transform="translate(33.056 124.102)" fill="#fafafa" font-size="19" font-family="Montserrat-Bold, Montserrat" font-weight="700"><tspan x="0" y="0">C++</tspan></text>
      <path id="Path_1313" data-name="Path 1313" d="M353.567,108.057a.479.479,0,0,1,.221,0h.1a1.227,1.227,0,0,1,.344.994v42.51a3.449,3.449,0,0,1-1.4,2.713l-51.017,29.461a.969.969,0,0,1-.479.147.589.589,0,0,1-.221,0h-.074a1.228,1.228,0,0,1-.381-1.007v-42.6a3.424,3.424,0,0,1,.381-1.5,2.713,2.713,0,0,1,1.031-1.228l51.017-29.4a.97.97,0,0,1,.479-.147m0-.258a1.289,1.289,0,0,0-.614.184L301.936,137.4a3.13,3.13,0,0,0-1.129,1.326,3.757,3.757,0,0,0-.405,1.608v42.51a1.4,1.4,0,0,0,.491,1.228h.1a.822.822,0,0,0,.344.074,1.227,1.227,0,0,0,.6-.184L352.953,154.5a3.683,3.683,0,0,0,1.534-2.934V109.113a1.4,1.4,0,0,0-.454-1.228.7.7,0,0,0-.16-.1.859.859,0,0,0-.307,0Z" transform="translate(-275.079 -40.942)" fill="#40c2a4"/>
      <path id="Path_1314" data-name="Path 1314" d="M299,79.984v42.388c0,.675.246,1.142.638,1.228h0l1.62.9v-1.449l.233-43.578L299.368,78.4A3.559,3.559,0,0,0,299,79.984Z" transform="translate(-275.396 -47.621)" fill="#40c2a4"/>
      <path id="Path_1315" data-name="Path 1315" d="M299.29,84.167l2.124,1.068,51.4-30.124,1.228-.712-1.694-.957h0a.945.945,0,0,0-1.019.074L300.505,82.792a3.18,3.18,0,0,0-1.215,1.375Z" transform="translate(-275.33 -53.326)" fill="#40c2a4"/>
      <path id="Path_1316" data-name="Path 1316" d="M299.29,84.167l2.124,1.068,51.4-30.124,1.228-.712-1.694-.957h0a.945.945,0,0,0-1.019.074L300.505,82.792a3.18,3.18,0,0,0-1.215,1.375Z" transform="translate(-275.33 -53.326)" fill="#fff" opacity="0.2"/>
      <path id="Path_1317" data-name="Path 1317" d="M300.492,86.415V128.52a1.4,1.4,0,0,0,.491,1.228h.1a.982.982,0,0,0,.933-.11l50.526-29.032a3.683,3.683,0,0,0,1.51-2.909V55.554a1.412,1.412,0,0,0-.454-1.228l-.147-.086a.994.994,0,0,0-.908.123L302.014,83.518a3.167,3.167,0,0,0-1.129,1.313,3.683,3.683,0,0,0-.393,1.584Z" transform="translate(-275.059 -53.131)" fill="#40c2a4"/>
      <path id="Path_1318" data-name="Path 1318" d="M300.492,86.415V128.52a1.4,1.4,0,0,0,.491,1.228h.1a.982.982,0,0,0,.933-.11l50.526-29.032a3.683,3.683,0,0,0,1.51-2.909V55.554a1.412,1.412,0,0,0-.454-1.228l-.147-.086a.994.994,0,0,0-.908.123L302.014,83.518a3.167,3.167,0,0,0-1.129,1.313,3.683,3.683,0,0,0-.393,1.584Z" transform="translate(-275.059 -53.131)" opacity="0.2"/>
      <text id="_2" data-name="{}" transform="translate(37.119 56.406)" fill="#fafafa" font-size="24" font-family="Montserrat-Bold, Montserrat" font-weight="700"><tspan x="0" y="0">{}</tspan></text>
      <path id="Path_1319" data-name="Path 1319" d="M353.359,54.345a.7.7,0,0,1,.221,0h.1a1.228,1.228,0,0,1,.344.982V97.678a3.425,3.425,0,0,1-1.4,2.7L301.8,129.668a.97.97,0,0,1-.479.147.356.356,0,0,1-.209,0h-.086a1.228,1.228,0,0,1-.368-.994V86.47a3.4,3.4,0,0,1,.368-1.485,2.86,2.86,0,0,1,1.031-1.228L352.88,54.48a.97.97,0,0,1,.479-.147m0-.258a1.1,1.1,0,0,0-.6.184l-50.833,29.29a3.13,3.13,0,0,0-1.129,1.326,3.683,3.683,0,0,0-.393,1.6v42.4a1.363,1.363,0,0,0,.491,1.228h.1a.737.737,0,0,0,.331.074,1.228,1.228,0,0,0,.6-.184l50.833-29.29a3.683,3.683,0,0,0,1.522-2.922V55.425a1.424,1.424,0,0,0-.454-1.228.406.406,0,0,0-.16-.086.626.626,0,0,0-.307-.061Z" transform="translate(-275.079 -53.162)" fill="#40c2a4"/>
    </g>
    <g id="freepik--Gears--inject-2" transform="translate(13.11 0)">
      <path id="Path_1320" data-name="Path 1320" d="M227.411,86.365a5.3,5.3,0,0,1,1.5-3.3l4.787-4.837a3.044,3.044,0,0,0,.835-2.787L233.3,69.6a1.228,1.228,0,0,0-.614-.81h0l-6.776-3.314-.16-.086a1.228,1.228,0,0,0-1.228.184l-1.939,1.669L224.6,61.1a1.522,1.522,0,0,0-.773-1.841h0L217.1,55.909h0a1.547,1.547,0,0,0-.54-.172l-4.37-.565a2.062,2.062,0,0,0-1.657.54h0a1.915,1.915,0,0,0-.491.675l-3.228,7.365a3.793,3.793,0,0,1-1.485,1.706l-.221-.6a1.228,1.228,0,0,0-.6-.638h0l-6.666-3.253-.209-.1h0a1.129,1.129,0,0,0-1.228.258l-5.708,5.77a3.683,3.683,0,0,0-.872,1.436,3.56,3.56,0,0,0-.111,1.571l.822,5.254a2.7,2.7,0,0,1-.442,1.9l-3.253,5.058a2.553,2.553,0,0,1-.7.749,2.75,2.75,0,0,1-1.571.5h-3.683a2.455,2.455,0,0,0-.663.086,2.566,2.566,0,0,0-1.731,1.584l-3.265,8.937a1.375,1.375,0,0,0,.614,1.682h0l4.837,2.369a1.633,1.633,0,0,1,0,.651l-.54,5.008a3.008,3.008,0,0,1-.246.921,3.351,3.351,0,0,1-.724,1.129l-4.91,5.107a3.179,3.179,0,0,0-.749,1.228,3.094,3.094,0,0,0,0,1.571l1.363,6.383a.933.933,0,0,0,.528.638h0l6.752,3.3h0a.908.908,0,0,0,1.031-.1l2.2-1.8-1.841,6.359a1.228,1.228,0,0,0,0,.43h0a1.448,1.448,0,0,0,.847,1.228h0l6.567,3.192h0a1.228,1.228,0,0,0,.675.27l3.793.479a2.381,2.381,0,0,0,2.455-1.387l3.228-7.218a3.805,3.805,0,0,1,1.571-1.719l.172.479a1.117,1.117,0,0,0,.687.687h0l6.666,3.265h0a1.142,1.142,0,0,0,1.228-.2l5.806-5.315a2.9,2.9,0,0,0,.908-2.541l-.822-5.806a4.125,4.125,0,0,1,.626-2.811l2.652-4.112a3.744,3.744,0,0,1,3.13-1.706h3.535a2.1,2.1,0,0,0,2.111-1.277l3.216-8.593a1.755,1.755,0,0,0-.761-2.111h-.135l-4.444-2.173a1.732,1.732,0,0,1,0-.565ZM206.051,82.2a11.49,11.49,0,0,1,4.763-2.087,12.276,12.276,0,0,1,1.228,4.652c.724,7.783-3.855,17.75-10.238,22.28a12.386,12.386,0,0,1-4.677,2.148,11.859,11.859,0,0,1-1.35-4.726C195.138,96.7,199.717,86.721,206.051,82.2Z" transform="translate(0.461 -17.438)" fill="#40c2a4"/>
      <path id="Path_1321" data-name="Path 1321" d="M227.411,86.365a5.3,5.3,0,0,1,1.5-3.3l4.787-4.837a3.044,3.044,0,0,0,.835-2.787L233.3,69.6a1.228,1.228,0,0,0-.614-.81h0l-6.776-3.314-.16-.086a1.228,1.228,0,0,0-1.228.184l-1.939,1.669L224.6,61.1a1.522,1.522,0,0,0-.773-1.841h0L217.1,55.909h0a1.547,1.547,0,0,0-.54-.172l-4.37-.565a2.062,2.062,0,0,0-1.657.54h0a1.915,1.915,0,0,0-.491.675l-3.228,7.365a3.793,3.793,0,0,1-1.485,1.706l-.221-.6a1.228,1.228,0,0,0-.6-.638h0l-6.666-3.253-.209-.1h0a1.129,1.129,0,0,0-1.228.258l-5.708,5.77a3.683,3.683,0,0,0-.872,1.436,3.56,3.56,0,0,0-.111,1.571l.822,5.254a2.7,2.7,0,0,1-.442,1.9l-3.253,5.058a2.553,2.553,0,0,1-.7.749,2.75,2.75,0,0,1-1.571.5h-3.683a2.455,2.455,0,0,0-.663.086,2.566,2.566,0,0,0-1.731,1.584l-3.265,8.937a1.375,1.375,0,0,0,.614,1.682h0l4.837,2.369a1.633,1.633,0,0,1,0,.651l-.54,5.008a3.008,3.008,0,0,1-.246.921,3.351,3.351,0,0,1-.724,1.129l-4.91,5.107a3.179,3.179,0,0,0-.749,1.228,3.094,3.094,0,0,0,0,1.571l1.363,6.383a.933.933,0,0,0,.528.638h0l6.752,3.3h0a.908.908,0,0,0,1.031-.1l2.2-1.8-1.841,6.359a1.228,1.228,0,0,0,0,.43h0a1.448,1.448,0,0,0,.847,1.228h0l6.567,3.192h0a1.228,1.228,0,0,0,.675.27l3.793.479a2.381,2.381,0,0,0,2.455-1.387l3.228-7.218a3.805,3.805,0,0,1,1.571-1.719l.172.479a1.117,1.117,0,0,0,.687.687h0l6.666,3.265h0a1.142,1.142,0,0,0,1.228-.2l5.806-5.315a2.9,2.9,0,0,0,.908-2.541l-.822-5.806a4.125,4.125,0,0,1,.626-2.811l2.652-4.112a3.744,3.744,0,0,1,3.13-1.706h3.535a2.1,2.1,0,0,0,2.111-1.277l3.216-8.593a1.755,1.755,0,0,0-.761-2.111h-.135l-4.444-2.173a1.732,1.732,0,0,1,0-.565ZM206.051,82.2a11.49,11.49,0,0,1,4.763-2.087,12.276,12.276,0,0,1,1.228,4.652c.724,7.783-3.855,17.75-10.238,22.28a12.386,12.386,0,0,1-4.677,2.148,11.859,11.859,0,0,1-1.35-4.726C195.138,96.7,199.717,86.721,206.051,82.2Z" transform="translate(0.461 -17.438)" opacity="0.3"/>
      <path id="Path_1322" data-name="Path 1322" d="M187.624,98.939l-7.365,7.464-6.788-3.5a3.179,3.179,0,0,1,.749-1.228l4.91-5.107a3.351,3.351,0,0,0,.724-1.129Z" transform="translate(0.475 -8.271)" opacity="0.2"/>
      <path id="Path_1323" data-name="Path 1323" d="M191.717,81.017l-.147.835H185.2L179,78.279a2.455,2.455,0,0,1,.663-.086h3.683a2.75,2.75,0,0,0,1.571-.5Z" transform="translate(1.733 -12.311)" opacity="0.2"/>
      <path id="Path_1324" data-name="Path 1324" d="M201.442,63.169l-2.872,2.823h0L193.487,71l-6.727-3.683h0a3.683,3.683,0,0,1,.872-1.436l5.708-5.77a1.129,1.129,0,0,1,1.228-.258h0l.209.1Z" transform="translate(3.499 -16.388)" opacity="0.2"/>
      <path id="Path_1325" data-name="Path 1325" d="M216.974,59.224h-6.69l-6.653-3.511h0a2.062,2.062,0,0,1,1.657-.54l4.358.552a1.546,1.546,0,0,1,.54.172h0Z" transform="translate(7.338 -17.438)" opacity="0.2"/>
      <path id="Path_1326" data-name="Path 1326" d="M227.651,82.435l4.787-4.837a3.044,3.044,0,0,0,.835-2.787l-1.228-5.843a1.228,1.228,0,0,0-1.927-.687l-4.91,4.088a1.326,1.326,0,0,1-1.8-.1l-1.424-1.485a3.535,3.535,0,0,1-.81-3.548l2.173-6.764a1.534,1.534,0,0,0-1.228-2l-4.346-.54a2.05,2.05,0,0,0-2.148,1.228l-3.228,7.365a3.842,3.842,0,0,1-2.013,1.989l-2.9,1.228a1.375,1.375,0,0,1-1.817-.773l-1.8-4.677a1.142,1.142,0,0,0-1.89-.393l-5.77,5.7a3.535,3.535,0,0,0-.97,3.008l.822,5.254a2.7,2.7,0,0,1-.405,1.866l-3.241,5.07a2.713,2.713,0,0,1-2.283,1.228h-3.683a2.553,2.553,0,0,0-2.455,1.682l-3.278,8.924a1.4,1.4,0,0,0,.908,1.8l3.388,1.019a1.768,1.768,0,0,1,1.228,1.89l-.54,5.008a3.486,3.486,0,0,1-.97,2.05l-4.91,5.119a3.106,3.106,0,0,0-.81,2.823l1.412,6.359a.921.921,0,0,0,1.485.516l4.91-4.014a1.89,1.89,0,0,1,2.676.258l1.228,1.51a2.934,2.934,0,0,1,.54,2.664l-2.161,7.476a1.436,1.436,0,0,0,1.228,1.841l3.793.479a2.381,2.381,0,0,0,2.455-1.387l3.229-7.218a3.756,3.756,0,0,1,1.829-1.866l2.823-1.35a1.755,1.755,0,0,1,2.455,1.007l1.51,4.309a1.142,1.142,0,0,0,1.854.466l5.806-5.315a2.9,2.9,0,0,0,.908-2.541l-.822-5.806a4.125,4.125,0,0,1,.626-2.811l2.652-4.112a3.744,3.744,0,0,1,3.13-1.706H226.1a2.1,2.1,0,0,0,2.013-1.363l3.216-8.593a1.768,1.768,0,0,0-1.228-2.308l-2.922-.786a1.78,1.78,0,0,1-1.314-1.841l.307-4.407a5.3,5.3,0,0,1,1.473-3.364Zm-20.193,27.325c-6.371,4.517-12.128,1.866-12.853-5.917s3.855-17.75,10.226-22.268,12.141-1.866,12.865,5.917S213.829,105.243,207.458,109.761Z" transform="translate(1.718 -16.81)" fill="#40c2a4"/>
      <path id="Path_1327" data-name="Path 1327" d="M125.347,174.78a8.986,8.986,0,0,1,2.59-5.72l8.3-8.372a5.4,5.4,0,0,0,1.436-4.849l-2.1-10.115a2.038,2.038,0,0,0-1.068-1.4h0l-11.76-5.733-.282-.147a2.025,2.025,0,0,0-2.075.319l-3.425,2.823,3.5-10.631a2.639,2.639,0,0,0-1.35-3.192h0l-11.735-5.745h0a2.455,2.455,0,0,0-.933-.307l-7.549-.958a3.548,3.548,0,0,0-2.872.921h0a3.364,3.364,0,0,0-.847,1.228l-5.6,12.754a6.469,6.469,0,0,1-2.566,2.958l-.393-1.043a2.025,2.025,0,0,0-1.043-1.093h0l-11.539-5.647-.368-.172h0a1.976,1.976,0,0,0-2.136.442l-9.894,10a6.236,6.236,0,0,0-1.5,2.455,6.31,6.31,0,0,0-.2,2.713l1.424,9.108a4.665,4.665,0,0,1-.687,3.228l-5.634,8.777a4.358,4.358,0,0,1-1.228,1.289,4.616,4.616,0,0,1-2.713.872H44.721a3.891,3.891,0,0,0-1.142.16,4.395,4.395,0,0,0-3.008,2.737L34.9,187.927a2.455,2.455,0,0,0,1.08,2.909h0l8.372,4.1a2.885,2.885,0,0,1,.086,1.129l-.933,8.679a6.138,6.138,0,0,1-.43,1.608,5.917,5.917,0,0,1-1.2,1.866l-8.593,8.863a5.438,5.438,0,0,0-1.387,4.91l2.455,11.048a1.608,1.608,0,0,0,.933,1.117h0l11.7,5.72h0a1.608,1.608,0,0,0,1.792-.16l3.793-3.13-3.179,11.048a1.976,1.976,0,0,0-.1.749h0a2.529,2.529,0,0,0,1.449,2.222h0l11.379,5.524h0a2.455,2.455,0,0,0,1.228.479l6.58.822a4.149,4.149,0,0,0,4.3-2.455l5.6-12.5a6.518,6.518,0,0,1,2.725-2.971l.282.822a1.976,1.976,0,0,0,1.228,1.228h0l11.564,5.671h0a1.964,1.964,0,0,0,2.173-.331l10.066-9.207a5.07,5.07,0,0,0,1.534-4.333l-1.436-10.066a7.181,7.181,0,0,1,1.08-4.91l4.6-7.12a6.445,6.445,0,0,1,5.414-2.946h6.138a3.683,3.683,0,0,0,3.437-2.455l5.585-14.829a3.044,3.044,0,0,0-1.326-3.683h-.074l-.221-.11-7.709-3.756a2.983,2.983,0,0,1-.1-.994ZM88.4,167.574a20.144,20.144,0,0,1,8.237-3.683,21.261,21.261,0,0,1,2.222,8.09c1.228,13.5-6.69,30.689-17.738,38.582a21.176,21.176,0,0,1-8.1,3.683,20.586,20.586,0,0,1-2.345-8.176c-1.252-13.393,6.69-30.664,17.738-38.5Z" transform="translate(-31.77 -2.517)" fill="#40c2a4"/>
      <path id="Path_1328" data-name="Path 1328" d="M125.347,174.78a8.986,8.986,0,0,1,2.59-5.72l8.3-8.372a5.4,5.4,0,0,0,1.436-4.849l-2.1-10.115a2.038,2.038,0,0,0-1.068-1.4h0l-11.76-5.733-.282-.147a2.025,2.025,0,0,0-2.075.319l-3.425,2.823,3.5-10.631a2.639,2.639,0,0,0-1.35-3.192h0l-11.735-5.745h0a2.455,2.455,0,0,0-.933-.307l-7.549-.958a3.548,3.548,0,0,0-2.872.921h0a3.364,3.364,0,0,0-.847,1.228l-5.6,12.754a6.469,6.469,0,0,1-2.566,2.958l-.393-1.043a2.025,2.025,0,0,0-1.043-1.093h0l-11.539-5.647-.368-.172h0a1.976,1.976,0,0,0-2.136.442l-9.894,10a6.236,6.236,0,0,0-1.5,2.455,6.31,6.31,0,0,0-.2,2.713l1.424,9.108a4.665,4.665,0,0,1-.687,3.228l-5.634,8.777a4.358,4.358,0,0,1-1.228,1.289,4.616,4.616,0,0,1-2.713.872H44.721a3.891,3.891,0,0,0-1.142.16,4.395,4.395,0,0,0-3.008,2.737L34.9,187.927a2.455,2.455,0,0,0,1.08,2.909h0l8.372,4.1a2.885,2.885,0,0,1,.086,1.129l-.933,8.679a6.138,6.138,0,0,1-.43,1.608,5.917,5.917,0,0,1-1.2,1.866l-8.593,8.863a5.438,5.438,0,0,0-1.387,4.91l2.455,11.048a1.608,1.608,0,0,0,.933,1.117h0l11.7,5.72h0a1.608,1.608,0,0,0,1.792-.16l3.793-3.13-3.179,11.048a1.976,1.976,0,0,0-.1.749h0a2.529,2.529,0,0,0,1.449,2.222h0l11.379,5.524h0a2.455,2.455,0,0,0,1.228.479l6.58.822a4.149,4.149,0,0,0,4.3-2.455l5.6-12.5a6.518,6.518,0,0,1,2.725-2.971l.282.822a1.976,1.976,0,0,0,1.228,1.228h0l11.564,5.671h0a1.964,1.964,0,0,0,2.173-.331l10.066-9.207a5.07,5.07,0,0,0,1.534-4.333l-1.436-10.066a7.181,7.181,0,0,1,1.08-4.91l4.6-7.12a6.445,6.445,0,0,1,5.414-2.946h6.138a3.683,3.683,0,0,0,3.437-2.455l5.585-14.829a3.044,3.044,0,0,0-1.326-3.683h-.074l-.221-.11-7.709-3.756a2.983,2.983,0,0,1-.1-.994ZM88.4,167.574a20.144,20.144,0,0,1,8.237-3.683,21.261,21.261,0,0,1,2.222,8.09c1.228,13.5-6.69,30.689-17.738,38.582a21.176,21.176,0,0,1-8.1,3.683,20.586,20.586,0,0,1-2.345-8.176c-1.252-13.393,6.69-30.664,17.738-38.5Z" transform="translate(-31.77 -2.517)" opacity="0.3"/>
      <path id="Path_1329" data-name="Path 1329" d="M56.4,196.582,43.686,209.545,32,203.408a5.414,5.414,0,0,1,1.228-2.185l8.593-8.863a5.917,5.917,0,0,0,1.228-1.94Z" transform="translate(-31.717 13.342)" opacity="0.2"/>
      <path id="Path_1330" data-name="Path 1330" d="M63.527,165.51l-.258,1.449H52.222L41.37,160.821a3.892,3.892,0,0,1,1.142-.16h6.42a4.615,4.615,0,0,0,2.713-.872Z" transform="translate(-29.585 6.372)" opacity="0.2"/>
      <path id="Path_1331" data-name="Path 1331" d="M80.331,134.606l-4.91,4.91h0l-8.8,8.654-11.65-6.432h0a6.236,6.236,0,0,1,1.5-2.455l9.894-10a1.976,1.976,0,0,1,2.136-.442h0l.368.172Z" transform="translate(-26.49 -0.704)" opacity="0.2"/>
      <path id="Path_1332" data-name="Path 1332" d="M107.292,127.764H95.679L84.14,121.626h0a3.548,3.548,0,0,1,2.872-.921l7.549.957a2.455,2.455,0,0,1,.933.307h0Z" transform="translate(-19.853 -2.529)" opacity="0.2"/>
      <path id="Path_1333" data-name="Path 1333" d="M125.759,168l8.3-8.372a5.4,5.4,0,0,0,1.436-4.849l-2.1-10.115a2.075,2.075,0,0,0-3.351-1.228l-8.593,7.083a2.3,2.3,0,0,1-3.118-.184l-2.455-2.578a6.138,6.138,0,0,1-1.4-6.138l3.879-11.785a2.652,2.652,0,0,0-2.185-3.462l-7.549-.945a3.584,3.584,0,0,0-3.683,2.111l-5.585,12.742a6.666,6.666,0,0,1-3.5,3.449l-5.021,2.124a2.381,2.381,0,0,1-3.278-1.3l-3.13-8.114a2,2,0,0,0-3.278-.687l-9.857,10.029a6.064,6.064,0,0,0-1.682,5.193l1.412,9.108a4.677,4.677,0,0,1-.687,3.229l-5.622,8.777a4.665,4.665,0,0,1-3.953,2.16H54.413a4.432,4.432,0,0,0-4.149,2.909L44.593,192.6a2.455,2.455,0,0,0,1.559,3.118l5.806,1.792a3.044,3.044,0,0,1,2.148,3.265l-.921,8.679A5.991,5.991,0,0,1,51.516,213l-8.593,8.863a5.352,5.352,0,0,0-1.4,4.91l2.455,11.048a1.608,1.608,0,0,0,2.59.9l8.421-7.009a3.29,3.29,0,0,1,4.64.454l2.148,2.627a5.07,5.07,0,0,1,.945,4.6l-3.769,12.951a2.529,2.529,0,0,0,2.111,3.2l6.58.822a4.149,4.149,0,0,0,4.3-2.455l5.6-12.5a6.531,6.531,0,0,1,3.167-3.228l4.91-2.332a3.032,3.032,0,0,1,4.174,1.731l2.59,7.476a1.989,1.989,0,0,0,3.216.81l10.066-9.207a5.07,5.07,0,0,0,1.534-4.37l-1.436-10.066a7.181,7.181,0,0,1,1.08-4.91l4.6-7.12a6.445,6.445,0,0,1,5.414-2.946H123a3.683,3.683,0,0,0,3.437-2.455l5.585-14.829a3.057,3.057,0,0,0-2.062-4L124.9,184.6a3.081,3.081,0,0,1-2.283-3.2l.552-7.623a8.986,8.986,0,0,1,2.59-5.782Zm-35,47.335c-11.048,7.832-21.016,3.241-22.268-10.238s6.678-30.689,17.726-38.582,21.016-3.241,22.28,10.238S101.809,207.5,90.761,215.331Z" transform="translate(-29.58 -1.454)" fill="#40c2a4"/>
      <path id="Path_1334" data-name="Path 1334" d="M172.863,69A7.365,7.365,0,0,1,175,64.284l6.837-6.911a4.358,4.358,0,0,0,1.228-3.99l-1.731-8.335a1.67,1.67,0,0,0-.872-1.154h0l-9.7-4.738-.233-.11a1.682,1.682,0,0,0-1.706.258L166,41.623l2.885-8.752a2.173,2.173,0,0,0-1.117-2.627h0l-9.685-4.738h0a2.037,2.037,0,0,0-.773-.246l-6.224-.786a2.922,2.922,0,0,0-2.369.761h0a2.775,2.775,0,0,0-.7.97L143.4,36.713a5.315,5.315,0,0,1-2.111,2.455l-.331-.859a1.547,1.547,0,0,0-.859-.9h0l-9.526-4.64-.307-.16h0a1.608,1.608,0,0,0-1.755.368l-8.163,8.249a5.082,5.082,0,0,0-1.228,2.038,5.254,5.254,0,0,0-.16,2.234l1.228,7.513a3.768,3.768,0,0,1-.565,2.664l-4.64,7.243a3.56,3.56,0,0,1-.994,1.056,3.855,3.855,0,0,1-2.246.724h-5.291a3.51,3.51,0,0,0-.945.123,3.683,3.683,0,0,0-2.455,2.259L98.289,79.788a1.976,1.976,0,0,0,.884,2.455h0l6.911,3.376a2.946,2.946,0,0,1,.074.933l-.786,7.157a4.494,4.494,0,0,1-.344,1.326A4.763,4.763,0,0,1,104,96.63L96.9,104a4.431,4.431,0,0,0-1.056,1.8,4.358,4.358,0,0,0-.086,2.246l2,9.084a1.326,1.326,0,0,0,.761.921h0l9.636,4.726h0a1.326,1.326,0,0,0,1.485-.135l3.13-2.578-2.627,9.072a2.124,2.124,0,0,0-.086.614h0a2.075,2.075,0,0,0,1.228,1.829h0l9.379,4.567h0a2.2,2.2,0,0,0,.97.393l5.426.675a3.4,3.4,0,0,0,3.535-1.989l4.628-10.3a5.352,5.352,0,0,1,2.234-2.455l.245.675a1.608,1.608,0,0,0,.982.994h0l9.526,4.665h0a1.657,1.657,0,0,0,1.792-.27l8.286-7.6a4.1,4.1,0,0,0,1.3-3.683l-1.228-8.3a5.819,5.819,0,0,1,.884-4.026l3.793-5.868a5.315,5.315,0,0,1,4.468-2.455h5.045a3.02,3.02,0,0,0,2.836-1.976L179.97,82.28a2.455,2.455,0,0,0-1.08-3.032h-.061l-.184-.1-6.359-3.093a3.069,3.069,0,0,1-.074-.822Zm-30.468-5.941a16.732,16.732,0,0,1,6.8-3,17.8,17.8,0,0,1,1.829,6.666c1.031,11.048-5.512,25.349-14.62,31.806a17.382,17.382,0,0,1-6.678,3.081,16.843,16.843,0,0,1-1.94-6.752C126.768,83.753,133.286,69.514,142.395,63.057Z" transform="translate(-17.233 -24.426)" fill="#40c2a4"/>
      <path id="Path_1335" data-name="Path 1335" d="M172.863,69A7.365,7.365,0,0,1,175,64.284l6.837-6.911a4.358,4.358,0,0,0,1.228-3.99l-1.731-8.335a1.67,1.67,0,0,0-.872-1.154h0l-9.7-4.738-.233-.11a1.682,1.682,0,0,0-1.706.258L166,41.623l2.885-8.752a2.173,2.173,0,0,0-1.117-2.627h0l-9.685-4.738h0a2.037,2.037,0,0,0-.773-.246l-6.224-.786a2.922,2.922,0,0,0-2.369.761h0a2.775,2.775,0,0,0-.7.97L143.4,36.713a5.315,5.315,0,0,1-2.111,2.455l-.331-.859a1.547,1.547,0,0,0-.859-.9h0l-9.526-4.64-.307-.16h0a1.608,1.608,0,0,0-1.755.368l-8.163,8.249a5.082,5.082,0,0,0-1.228,2.038,5.254,5.254,0,0,0-.16,2.234l1.228,7.513a3.768,3.768,0,0,1-.565,2.664l-4.64,7.243a3.56,3.56,0,0,1-.994,1.056,3.855,3.855,0,0,1-2.246.724h-5.291a3.51,3.51,0,0,0-.945.123,3.683,3.683,0,0,0-2.455,2.259L98.289,79.788a1.976,1.976,0,0,0,.884,2.455h0l6.911,3.376a2.946,2.946,0,0,1,.074.933l-.786,7.157a4.494,4.494,0,0,1-.344,1.326A4.763,4.763,0,0,1,104,96.63L96.9,104a4.431,4.431,0,0,0-1.056,1.8,4.358,4.358,0,0,0-.086,2.246l2,9.084a1.326,1.326,0,0,0,.761.921h0l9.636,4.726h0a1.326,1.326,0,0,0,1.485-.135l3.13-2.578-2.627,9.072a2.124,2.124,0,0,0-.086.614h0a2.075,2.075,0,0,0,1.228,1.829h0l9.379,4.567h0a2.2,2.2,0,0,0,.97.393l5.426.675a3.4,3.4,0,0,0,3.535-1.989l4.628-10.3a5.352,5.352,0,0,1,2.234-2.455l.245.675a1.608,1.608,0,0,0,.982.994h0l9.526,4.665h0a1.657,1.657,0,0,0,1.792-.27l8.286-7.6a4.1,4.1,0,0,0,1.3-3.683l-1.228-8.3a5.819,5.819,0,0,1,.884-4.026l3.793-5.868a5.315,5.315,0,0,1,4.468-2.455h5.045a3.02,3.02,0,0,0,2.836-1.976L179.97,82.28a2.455,2.455,0,0,0-1.08-3.032h-.061l-.184-.1-6.359-3.093a3.069,3.069,0,0,1-.074-.822Zm-30.468-5.941a16.732,16.732,0,0,1,6.8-3,17.8,17.8,0,0,1,1.829,6.666c1.031,11.048-5.512,25.349-14.62,31.806a17.382,17.382,0,0,1-6.678,3.081,16.843,16.843,0,0,1-1.94-6.752C126.768,83.753,133.286,69.514,142.395,63.057Z" transform="translate(-17.233 -24.426)" opacity="0.3"/>
      <path id="Path_1336" data-name="Path 1336" d="M116.021,86.947,105.525,97.6l-9.685-5A4.431,4.431,0,0,1,96.9,90.8l7.1-7.365a4.763,4.763,0,0,0,1.031-1.6Z" transform="translate(-17.19 -11.366)" opacity="0.2"/>
      <path id="Path_1337" data-name="Path 1337" d="M121.874,61.366l-.209,1.228h-9.1l-8.949-5.107a3.51,3.51,0,0,1,.945-.123h5.291a3.855,3.855,0,0,0,2.246-.724Z" transform="translate(-15.42 -17.101)" opacity="0.2"/>
      <path id="Path_1338" data-name="Path 1338" d="M135.747,35.907l-4.1,4.039h0l-7.255,7.144-9.612-5.3h0a5.082,5.082,0,0,1,1.228-2.038l8.163-8.249a1.608,1.608,0,0,1,1.755-.368h0l.307.16Z" transform="translate(-12.88 -22.932)" opacity="0.2"/>
      <path id="Path_1339" data-name="Path 1339" d="M157.934,30.236h-9.55l-9.514-5.021h0a2.922,2.922,0,0,1,2.369-.761l6.224.786a2.038,2.038,0,0,1,.773.246h0Z" transform="translate(-7.398 -24.43)" opacity="0.2"/>
      <path id="Path_1340" data-name="Path 1340" d="M173.182,63.4l6.837-6.911a4.358,4.358,0,0,0,1.228-3.99l-1.731-8.335a1.706,1.706,0,0,0-2.75-.982l-7.108,5.843a1.915,1.915,0,0,1-2.578-.147l-2.038-2.124a5.021,5.021,0,0,1-1.228-5.058l3.2-9.722a2.185,2.185,0,0,0-1.792-2.823L159,28.365a2.934,2.934,0,0,0-3.069,1.731l-4.6,10.52a5.475,5.475,0,0,1-2.885,2.836l-4.137,1.755a1.964,1.964,0,0,1-2.59-1.1l-2.59-6.69a1.645,1.645,0,0,0-2.7-.565l-8.151,8.261a5,5,0,0,0-1.387,4.284l1.154,7.513a3.83,3.83,0,0,1-.552,2.664l-4.64,7.243a3.879,3.879,0,0,1-3.253,1.78h-5.291a3.683,3.683,0,0,0-3.425,2.3l-4.665,12.742a1.989,1.989,0,0,0,1.228,2.578l4.91,1.473a2.529,2.529,0,0,1,1.78,2.688l-.786,7.157a4.91,4.91,0,0,1-1.375,2.922l-7.1,7.3a4.468,4.468,0,0,0-1.142,4.051l2,9.084a1.326,1.326,0,0,0,2.136.737l6.973-5.745a2.7,2.7,0,0,1,3.818.381l1.768,2.16a4.149,4.149,0,0,1,.773,3.793l-3.081,10.68a2.075,2.075,0,0,0,1.731,2.639l5.426.675a3.4,3.4,0,0,0,3.535-1.989l4.628-10.3a5.364,5.364,0,0,1,2.6-2.676l4.039-1.915a2.455,2.455,0,0,1,3.437,1.436l2.148,6.138a1.633,1.633,0,0,0,2.652.675l8.286-7.6a4.1,4.1,0,0,0,1.3-3.683l-1.228-8.3a5.819,5.819,0,0,1,.884-4.026l3.793-5.868a5.315,5.315,0,0,1,4.468-2.455h5.045a3.02,3.02,0,0,0,2.836-1.976l4.579-12.349a2.455,2.455,0,0,0-1.694-3.3L172.421,76.9a2.566,2.566,0,0,1-1.878-2.652L171,67.966A7.365,7.365,0,0,1,173.182,63.4Zm-28.848,39.024c-9.108,6.457-17.333,2.676-18.413-8.446s5.5-25.349,14.608-31.806,17.333-2.676,18.413,8.446S153.443,95.966,144.335,102.423Z" transform="translate(-15.416 -23.541)" fill="#40c2a4"/>
    </g>
    <g id="freepik--Character--inject-2" transform="translate(253.358 305.698)">
      <path id="Path_1353" data-name="Path 1353" d="M282.869,431.775s-4.652-3.977-6.457-4.174-4.91,2.909-2.3,8.286c.737,1.485,3.683,3.106,5.585,5.966s3.548,5.021,6.408,4.628,3.241-2.013,3.057-3.879a43.224,43.224,0,0,0-1.031-5.07Z" transform="translate(-217.099 -238.386)" fill="#37474f"/>
      <path id="Path_1354" data-name="Path 1354" d="M286.26,444.656c-2.946.405-4.689-1.817-6.6-4.763s-5.008-4.616-5.77-6.138a11.45,11.45,0,0,1-.737-1.915,9.637,9.637,0,0,0,.958,3.106c.737,1.485,3.683,3.106,5.585,5.966s3.548,5.021,6.408,4.628c2.2-.307,2.922-1.326,3.069-2.627a3.278,3.278,0,0,1-2.909,1.743Z" transform="translate(-217.09 -237.42)" fill="#263238"/>
      <path id="Path_1355" data-name="Path 1355" d="M279.084,435.925a.479.479,0,0,1-.221,0,.467.467,0,0,1-.184-.614,7.231,7.231,0,0,1,4.37-3.425.454.454,0,1,1,.209.872,6.481,6.481,0,0,0-3.781,2.983.454.454,0,0,1-.393.184Z" transform="translate(-215.844 -237.417)" fill="#ebebeb"/>
      <path id="Path_1356" data-name="Path 1356" d="M277.7,434.632a.417.417,0,0,1-.209-.061.442.442,0,0,1-.184-.614,7.279,7.279,0,0,1,4.37-3.425.466.466,0,0,1,.54.344.454.454,0,0,1-.344.54,6.4,6.4,0,0,0-3.769,2.971.467.467,0,0,1-.405.245Z" transform="translate(-216.157 -237.719)" fill="#ebebeb"/>
      <path id="Path_1357" data-name="Path 1357" d="M276.083,433.312a.467.467,0,0,1-.209,0,.454.454,0,0,1-.184-.614,7.279,7.279,0,0,1,4.37-3.425.454.454,0,1,1,.2.884,6.444,6.444,0,0,0-3.769,2.971A.454.454,0,0,1,276.083,433.312Z" transform="translate(-216.525 -238.008)" fill="#ebebeb"/>
      <path id="Path_1358" data-name="Path 1358" d="M262.757,441.919s-6.224-2.013-8.077-1.461-3.683,4.91,1.129,9.121c1.35,1.166,4.91,1.534,7.979,3.6s5.561,3.5,8.225,1.927,2.455-3.351,1.976-5.3c-.6-2.455-1.093-4.3-1.093-4.3Z" transform="translate(-221.735 -235.48)" fill="#37474f"/>
      <path id="Path_1359" data-name="Path 1359" d="M271.659,452.977c-2.75,1.608-5.364.135-8.482-1.989s-6.837-2.455-8.225-3.683a12.984,12.984,0,0,1-1.522-1.6,10.546,10.546,0,0,0,2.222,2.676c1.35,1.166,4.91,1.534,7.979,3.6s5.561,3.5,8.225,1.927c2.05-1.228,2.345-2.455,1.952-3.842C273.771,451.062,273.243,452.056,271.659,452.977Z" transform="translate(-221.578 -234.263)" fill="#263238"/>
      <path id="Path_1360" data-name="Path 1360" d="M259.766,447.384h0a.442.442,0,0,1-.405-.491,7.746,7.746,0,0,1,2.885-5.168.467.467,0,0,1,.638.11.442.442,0,0,1-.111.626,6.948,6.948,0,0,0-2.516,4.517.454.454,0,0,1-.491.405Z" transform="translate(-220.229 -235.189)" fill="#ebebeb"/>
      <path id="Path_1361" data-name="Path 1361" d="M261.865,448.063h0a.454.454,0,0,1-.405-.491,7.746,7.746,0,0,1,2.9-5.156.442.442,0,0,1,.626.1.466.466,0,0,1-.1.638,6.837,6.837,0,0,0-2.455,4.505.466.466,0,0,1-.565.405Z" transform="translate(-219.751 -235.033)" fill="#ebebeb"/>
      <path id="Path_1362" data-name="Path 1362" d="M257.835,446.673h0a.454.454,0,0,1-.405-.491,7.746,7.746,0,0,1,2.9-5.156.454.454,0,0,1,.638.11.466.466,0,0,1-.11.626,6.874,6.874,0,0,0-2.516,4.505.454.454,0,0,1-.5.405Z" transform="translate(-220.668 -235.349)" fill="#ebebeb"/>
      <path id="Path_1366" data-name="Path 1366" d="M288.243,446.491c.552-6.138,1.768-15.836,2.271-20.353a58.394,58.394,0,0,0-.491-17.186,14.032,14.032,0,0,1-.2-4.051c1.228-12.276,2.025-32.2,1.35-36.581L273.93,372s2.111,27.927,3.032,37.22,4.419,37.269,4.419,37.269A6.248,6.248,0,0,0,288.243,446.491Z" transform="translate(-216.913 -251.874)" fill="#455a64"/>
      <path id="Path_1367" data-name="Path 1367" d="M284.385,438.3a3.253,3.253,0,0,0,2.185-1.768c0-.97.11-2.6.295-4.566a6.248,6.248,0,0,1-6.874.074l.614,5.193a4.444,4.444,0,0,0,3.781,1.068Z" transform="translate(-215.534 -237.39)" fill="#ffa8a7"/>
      <path id="Path_1368" data-name="Path 1368" d="M272.2,456.943c.7-9.342,2.062-27.436,2.234-30.272a45.124,45.124,0,0,0-.589-9.391,14.362,14.362,0,0,1,0-5.07l7.574-42.044-20.868-.307-1.363,44.057a11.393,11.393,0,0,0,.061,1.706l4.419,41.049h0S268.042,460.294,272.2,456.943Z" transform="translate(-220.269 -251.524)" fill="#455a64"/>
      <path id="Path_1369" data-name="Path 1369" d="M267.924,448.559a3.94,3.94,0,0,0,3.057-2.148l.43-5.561c-4.161,3.351-8.47-.27-8.47-.27h0l.663,6.138S264.524,448.866,267.924,448.559Z" transform="translate(-219.414 -235.431)" fill="#ffa8a7"/>
      <path id="Path_1370" data-name="Path 1370" d="M270.081,331.809l-4.91,1.682-5.291,24.969.258,22.182s3.781,3.008,18.524,3.008c8.286,0,13.675-3.118,15.713-6.445l-1.326-13.344s1.35-13.208,1.35-19.739.295-11.87-4.812-15.111l-4.542.368Z" transform="translate(-220.11 -260.819)" fill="#40c2a4"/>
      <path id="Path_1371" data-name="Path 1371" d="M270.081,331.809l-4.91,1.682-5.291,24.969.258,22.182s3.781,3.008,18.524,3.008c8.286,0,13.675-3.118,15.713-6.445l-1.326-13.344s1.35-13.208,1.35-19.739.295-11.87-4.812-15.111l-4.542.368Z" transform="translate(-220.11 -260.819)" fill="#fff" opacity="0.2"/>
      <path id="Path_1372" data-name="Path 1372" d="M264.306,313.78l-2.455,4.91a.552.552,0,0,0,.319.773l2.922.97Z" transform="translate(-219.675 -264.285)" fill="#f28f8f"/>
      <path id="Path_1373" data-name="Path 1373" d="M267.3,307.12s-3.683,2.013-3.683,13.5c0,6.346.442,10.4,3.683,10.14s12.742-1.436,12.742-1.436V307.12Z" transform="translate(-219.259 -265.8)" fill="#ffa8a7"/>
      <path id="Path_1374" data-name="Path 1374" d="M266.722,326.745c1.166-.086,3.081-.295,5.094-.528V324.99a26.637,26.637,0,0,1-5.647,1.706A2.777,2.777,0,0,0,266.722,326.745Z" transform="translate(-218.679 -261.734)" fill="#f28f8f"/>
      <path id="Path_1375" data-name="Path 1375" d="M249.22,300.744v7.243h9.906V297.81Z" transform="translate(-196.647 -237.93)" fill="#ffa8a7"/>
      <path id="Path_1376" data-name="Path 1376" d="M270.788,328.553a15.246,15.246,0,0,0,6.42.773c2.872-.5,3.486-2.246,3.486-2.246s.933-.061,2.455,2.737a7.279,7.279,0,0,1-5.794,3.683,22.379,22.379,0,0,1-9.145-1.3S269.573,328.209,270.788,328.553Z" transform="translate(-218.215 -261.258)" fill="#40c2a4"/>
      <path id="Path_1377" data-name="Path 1377" d="M270.788,328.553a15.246,15.246,0,0,0,6.42.773c2.872-.5,3.486-2.246,3.486-2.246s.933-.061,2.455,2.737a7.279,7.279,0,0,1-5.794,3.683,22.379,22.379,0,0,1-9.145-1.3S269.573,328.209,270.788,328.553Z" transform="translate(-218.215 -261.258)" fill="#fff" opacity="0.4"/>
      <path id="Path_1378" data-name="Path 1378" d="M231.714,361.051l-3.94-2.455a.614.614,0,0,1,0-1.043l17.333-10.164a1.436,1.436,0,0,1,1.485,0L268.2,360.977a1.129,1.129,0,0,1,0,1.94l-17.824,9.82a1.694,1.694,0,0,1-1.768-.086Z" transform="translate(-227.482 -256.684)" fill="#37474f"/>
      <path id="Path_1379" data-name="Path 1379" d="M231.714,360.29l-3.94-2.455a.614.614,0,0,1,0-1.043l17.333-10.164a1.461,1.461,0,0,1,1.485,0l21.605,13.6a1.129,1.129,0,0,1,0,1.939l-17.824,9.82a1.67,1.67,0,0,1-1.768-.1Z" transform="translate(-227.482 -256.856)" fill="#e0e0e0"/>
      <path id="Path_1380" data-name="Path 1380" d="M206.4,329.5v1.608h2.737Z" transform="translate(-206.391 -230.719)" fill="#e0e0e0"/>
      <path id="Path_1381" data-name="Path 1381" d="M231.715,359.06l-3.94-2.516a.6.6,0,0,1,0-1.031l17.333-10.164a1.436,1.436,0,0,1,1.485,0l21.605,13.6a1.129,1.129,0,0,1,0,1.94l-17.824,9.82a1.67,1.67,0,0,1-1.768-.086Z" transform="translate(-227.482 -257.148)" fill="#fff"/>
      <path id="Path_1382" data-name="Path 1382" d="M233.406,355.522a.442.442,0,0,1-.393-.221.43.43,0,0,1,.16-.614l11.821-6.936a.454.454,0,0,1,.614.16.466.466,0,0,1-.16.626l-11.821,6.9a.38.38,0,0,1-.221.086Z" transform="translate(-226.24 -256.568)" fill="#40c2a4"/>
      <path id="Path_1383" data-name="Path 1383" d="M235.766,357.063a.466.466,0,0,1-.393-.221.442.442,0,0,1,.16-.626l11.821-6.923a.43.43,0,0,1,.614.16.454.454,0,0,1-.16.614L235.987,357a.5.5,0,0,1-.221.061Z" transform="translate(-225.703 -256.22)" fill="#40c2a4"/>
      <path id="Path_1384" data-name="Path 1384" d="M238.085,358.593a.442.442,0,0,1-.393-.221.454.454,0,0,1,.16-.626l11.821-6.923a.43.43,0,0,1,.614.16.454.454,0,0,1-.16.614l-11.821,6.936a.5.5,0,0,1-.221.061Z" transform="translate(-225.174 -255.871)" fill="#40c2a4"/>
      <path id="Path_1385" data-name="Path 1385" d="M240.484,360.122a.442.442,0,0,1-.393-.221.454.454,0,0,1,.16-.614l11.821-6.936a.454.454,0,0,1,.614.16.467.467,0,0,1-.16.626L240.7,360.06a.38.38,0,0,1-.221.061Z" transform="translate(-224.627 -255.521)" fill="#40c2a4"/>
      <path id="Path_1386" data-name="Path 1386" d="M242.845,361.663a.454.454,0,0,1-.233-.847l11.821-6.923a.43.43,0,0,1,.614.16.442.442,0,0,1-.16.614L243.066,361.6a.454.454,0,0,1-.221.061Z" transform="translate(-224.091 -255.173)" fill="#40c2a4"/>
      <path id="Path_1387" data-name="Path 1387" d="M261.9,349.91l-2.553,8.875s-4.063,1.228-8.593,2.7a51.041,51.041,0,0,1-8.495,2.025,28.961,28.961,0,0,1-2.234-3.081c-.712-1.228-1.313-3.044-1.878-2.455s-1.4,2.553,0,5.573a5.818,5.818,0,0,1-3.069-.405,47.884,47.884,0,0,1-4.088-2.676s-1.08,2.922,0,4.6,4.272,4.112,11.453,4.112,23.716-1.4,25.2-3.928,4.2-14.461,4.2-14.461Z" transform="translate(-226.794 -256.063)" fill="#ffa8a7"/>
      <path id="Path_1388" data-name="Path 1388" d="M266.315,332.66s4.751,1.927,4.309,9.133-4.309,16.94-4.309,16.94-7.243,0-11.465-4.517L259.1,338.6a7.365,7.365,0,0,1,4.431-4.91C264.3,333.372,265.223,333.077,266.315,332.66Z" transform="translate(-221.255 -259.989)" fill="#40c2a4"/>
      <path id="Path_1389" data-name="Path 1389" d="M266.315,332.66s4.751,1.927,4.309,9.133-4.309,16.94-4.309,16.94-7.243,0-11.465-4.517L259.1,338.6a7.365,7.365,0,0,1,4.431-4.91C264.3,333.372,265.223,333.077,266.315,332.66Z" transform="translate(-221.255 -259.989)" fill="#fff" opacity="0.4"/>
      <path id="Path_1390" data-name="Path 1390" d="M266.393,302.169s-3.916-.516-4.91,2.185c-.626,1.682,1.375,2.983,1.375,2.983s-2.529,2.381,1.228,3.118a2.455,2.455,0,0,0,3.044,2.8s-.43,2.566,2.872,3.462c0,0-1.669,4.444,1.461,4.505h2.958l-1.228,3.413a9.587,9.587,0,0,0,9.035,5.291,44.7,44.7,0,0,1,2.553-4.665c.81-1.056,5.045-6.469,5.045-10.766s-1.657-6.837-3.94-7.365a9.82,9.82,0,0,0-3.278-3.916c-2.308-1.559-7.157-2.946-9.894-1.043,0,0-2.455-3.179-4.112-3.179S266.393,300.684,266.393,302.169Z" transform="translate(-219.773 -267.65)" fill="#263238"/>
      <path id="Path_1391" data-name="Path 1391" d="M269.591,317.935s-.282-4.505,3.511-4.505,2.9,7.918-1.755,7.918Z" transform="translate(-217.901 -264.365)" fill="#ffa8a7"/>
    </g>
  </g>
</svg>
